<svg xmlns="http://www.w3.org/2000/svg" width="1273" height="338.113" viewBox="0 0 1273 338.113">
  <g id="Group_78" data-name="Group 78" transform="translate(-324 -582)">
    <path id="Path_129" data-name="Path 129" d="M0,0H1273V338.113H0Z" transform="translate(324 582)" fill="#fafafa"/>
    <g id="Group_77" data-name="Group 77" transform="translate(0 10.772)">
      <g id="Rectangle_271" data-name="Rectangle 271" transform="translate(764.001 736.228)" fill="none" stroke="#151515" stroke-width="2">
        <rect width="157" height="146" stroke="none"/>
        <rect x="1" y="1" width="155" height="144" fill="none"/>
      </g>
      <g id="Rectangle_273" data-name="Rectangle 273" transform="translate(919.001 736.228)" fill="none" stroke="#151515" stroke-width="2">
        <rect width="272.115" height="146" stroke="none"/>
        <rect x="1" y="1" width="270.115" height="144" fill="none"/>
      </g>
      <g id="Rectangle_275" data-name="Rectangle 275" transform="translate(919.001 599.228)" fill="none" stroke="#151515" stroke-width="2">
        <rect width="272.115" height="139" stroke="none"/>
        <rect x="1" y="1" width="270.115" height="137" fill="none"/>
      </g>
      <path id="Path_135" data-name="Path 135" d="M-6.16-23.4A7.057,7.057,0,0,1-.04-26.64a7.375,7.375,0,0,1,5.12,2,8.7,8.7,0,0,1,1.84,2.72A22.881,22.881,0,0,1,8.4-12.8q0,6.2-1.72,9.48A6.931,6.931,0,0,1,3.4.04,7.532,7.532,0,0,1,0,.88a7.049,7.049,0,0,1-6.72-4.2Q-8.44-6.6-8.44-12.8a31.173,31.173,0,0,1,.5-6.14A13.433,13.433,0,0,1-6.16-23.4Zm9-.48A3.687,3.687,0,0,0,0-25.16a3.809,3.809,0,0,0-2.88,1.28,4.815,4.815,0,0,0-1.2,2.24,24.706,24.706,0,0,0-.4,4.56q0,.24-.02,1.56t-.02,2.2q0,3.84.08,5.36a22.852,22.852,0,0,0,.48,4.02,4.548,4.548,0,0,0,1.2,2.1A3.547,3.547,0,0,0,0-.64a3.5,3.5,0,0,0,2.72-1.2,4.548,4.548,0,0,0,1.2-2.1A22.852,22.852,0,0,0,4.4-7.96q.08-1.52.08-5.36,0-.88-.02-2.2t-.02-1.56a24.707,24.707,0,0,0-.4-4.56A4.815,4.815,0,0,0,2.84-23.88Z" transform="translate(973.001 714.228)" fill="#151515"/>
      <path id="Path_136" data-name="Path 136" d="M6.64,0Q5.96-.12.28-.12-5.32-.12-6,0h-.48V-1.84h1.04a22.531,22.531,0,0,0,3-.12,2.587,2.587,0,0,0,.96-.48V-23.12A.966.966,0,0,0-1.8-23a11.8,11.8,0,0,1-4.12.76h-.76v-1.84h.76A11.16,11.16,0,0,0-.32-25.6a5.553,5.553,0,0,0,1.24-.92q.08-.12.48-.12a1.009,1.009,0,0,1,.68.24v11.96l.04,12a3.873,3.873,0,0,0,2.6.6H7.08V0Z" transform="translate(1054.001 714.228)" fill="#151515"/>
      <path id="Path_139" data-name="Path 139" d="M-5.6-17.16a2.234,2.234,0,0,1-1.76-.72A2.555,2.555,0,0,1-8-19.64a6.559,6.559,0,0,1,2.18-4.94A7.334,7.334,0,0,1-.6-26.64a8.672,8.672,0,0,1,5.7,1.86,7.807,7.807,0,0,1,2.78,4.86,12.027,12.027,0,0,1,.08,1.32,7.566,7.566,0,0,1-1.4,4.36,26.548,26.548,0,0,1-4.52,4.6Q.6-8.4-1.96-5.96L-4.32-3.72l3.04.04a48.016,48.016,0,0,0,6.68-.2q.16-.04.4-.84a25.232,25.232,0,0,0,.56-2.72v-.12h1.6v.12L6.84-.12V0H-8V-.76a2.693,2.693,0,0,1,.08-.92q.04-.04,3.36-3.8,4.36-4.84,5.6-6.4,2.68-3.64,2.68-6.68a7,7,0,0,0-1.38-4.42,4.606,4.606,0,0,0-3.86-1.78,4.388,4.388,0,0,0-3.76,2.08q-.08.16-.24.44a.877.877,0,0,0-.12.24q0,.04.2.04a2.036,2.036,0,0,1,1.62.72,2.5,2.5,0,0,1,.62,1.68,2.387,2.387,0,0,1-.66,1.7A2.28,2.28,0,0,1-5.6-17.16Z" transform="translate(1135.001 714.228)" fill="#151515"/>
      <path id="Path_140" data-name="Path 140" d="M-13.36,0q-.68-.12-6.36-.12-5.6,0-6.28.12h-.48V-1.84h1.04a22.531,22.531,0,0,0,3-.12,2.587,2.587,0,0,0,.96-.48V-23.12a.966.966,0,0,0-.32.12,11.8,11.8,0,0,1-4.12.76h-.76v-1.84h.76a11.16,11.16,0,0,0,5.6-1.52,5.553,5.553,0,0,0,1.24-.92q.08-.12.48-.12a1.009,1.009,0,0,1,.68.24v11.96l.04,12a3.873,3.873,0,0,0,2.6.6h2.36V0ZM-7,10a.726.726,0,0,1-.52-.24.726.726,0,0,1-.24-.52q0-.4,6.96-19.54T6.28-29.6A.733.733,0,0,1,7-30a.94.94,0,0,1,.56.28.6.6,0,0,1,.2.52q0,.2-6.94,19.3T-6.32,9.6A.815.815,0,0,1-7,10ZM24.92-24.04a3.774,3.774,0,0,0-2.48-1,5.729,5.729,0,0,0-4.68,2.4q-1.88,2.6-1.88,8.08l.04.16.32-.52a5.115,5.115,0,0,1,4.44-2.4,6.685,6.685,0,0,1,3.24.76,8.271,8.271,0,0,1,1.92,1.62,10.078,10.078,0,0,1,1.56,2.26,10.751,10.751,0,0,1,.84,4.28v.72a7.076,7.076,0,0,1-.2,1.72,9,9,0,0,1-2.48,4.44A7.342,7.342,0,0,1,21.72.72a6.731,6.731,0,0,1-1.6.16A6.972,6.972,0,0,1,18.76.76a7.087,7.087,0,0,1-4.72-3.2q-2.36-3.72-2.36-10.08a17.63,17.63,0,0,1,1.52-7.56,11.978,11.978,0,0,1,4.24-5.04,7.969,7.969,0,0,1,4.68-1.52,5.481,5.481,0,0,1,3.74,1.24A4.279,4.279,0,0,1,27.28-22a2.2,2.2,0,0,1-.58,1.6,2.044,2.044,0,0,1-1.54.6,2.123,2.123,0,0,1-1.54-.56,2.067,2.067,0,0,1-.58-1.56A1.979,1.979,0,0,1,24.92-24.04Zm-1.76,9.6a3.49,3.49,0,0,0-2.88-1.44,3.246,3.246,0,0,0-2.4.92Q15.92-13,15.92-8.64a16.938,16.938,0,0,0,.48,4.92,4.6,4.6,0,0,0,1.36,2.04,3.348,3.348,0,0,0,2.28.84,3.591,3.591,0,0,0,3.12-1.52,4.421,4.421,0,0,0,.76-2,26.425,26.425,0,0,0,.16-3.36V-9a27.287,27.287,0,0,0-.16-3.44A4.421,4.421,0,0,0,23.16-14.44Z" transform="translate(1135.001 785.228)" fill="#151515"/>
      <path id="Path_146" data-name="Path 146" d="M12.3-27.24q1.4.04,2.36.04t2.12-.06q1.16-.06,1.6-.06.52,0,.52.4a3.761,3.761,0,0,1-.14.64,2.782,2.782,0,0,1-.18.56q-.08.24-.84.24a7.061,7.061,0,0,0-4.68,2q-.36.36-5.6,6.52L2.3-10.92,1.26-6.76Q.18-2.48.18-2.28q0,.44,2.72.44a3.617,3.617,0,0,1,.86.06q.18.06.18.34A2.248,2.248,0,0,1,3.7-.24q-.12.2-.68.2Q2.3-.04.62-.06T-2.34-.08q-1.28,0-2.92.02t-2.28.02q-.68,0-.68-.28a4.312,4.312,0,0,1,.12-.7,2.684,2.684,0,0,1,.16-.58q.08-.24,1.48-.24A12.36,12.36,0,0,0-4.4-2a.991.991,0,0,0,.7-.52q.12-.2,1.16-4.32l1-4.12q-1.64-4.68-4.92-13.96a1.5,1.5,0,0,0-.74-.44,13.5,13.5,0,0,0-1.78-.12q-1.44,0-1.44-.4a4.251,4.251,0,0,1,.12-.56q.16-.72.36-.84a2.028,2.028,0,0,1,.56-.04q1.92.12,4.36.12,4.88,0,5.64-.12h.4a.951.951,0,0,1,.26.34,3.631,3.631,0,0,1-.1.74,1.831,1.831,0,0,1-.4.76H.3q-2.24,0-2.24.52,0,.2,2,5.9T2.1-13.32l.12-.12q.16-.16.48-.54t.84-.96q.52-.58,1.28-1.46t1.72-2.04q4.28-5,4.56-5.4a1.657,1.657,0,0,0,.36-.88q0-.64-1.28-.76-.68,0-.68-.4,0-.08.08-.56a2.456,2.456,0,0,1,.22-.74q.1-.14.54-.14Q10.9-27.32,12.3-27.24Z" transform="translate(806 824)" fill="#151515"/>
      <path id="Path_147" data-name="Path 147" d="M-14.88,0q-.64,0-.64-.44a3.363,3.363,0,0,1,.12-.64,1.424,1.424,0,0,1,.28-.64,2.206,2.206,0,0,1,.76-.12,7.7,7.7,0,0,0,5.4-2.08q.4-.4,4.64-5.06t4.2-4.7Q-4.48-24.8-4.68-25q-.36-.44-2.52-.48H-8.32a.951.951,0,0,1-.26-.34,3.631,3.631,0,0,1,.1-.74,1.831,1.831,0,0,1,.4-.76h.56q1.36.08,4.84.08.88,0,2.56-.02t2.48-.02a1.407,1.407,0,0,1,.52.06q.12.06.12.3a1.863,1.863,0,0,1-.28,1.24q-.08.2-.68.2a3.961,3.961,0,0,0-2.08.64l-.08.04q1.8,4.4,3.08,7.76L5.08-19.4q1.88-2.04,2.96-3.28a10.555,10.555,0,0,0,1.08-1.24.962.962,0,0,0,.16-.64q-.12-.6-.96-.84a2.248,2.248,0,0,1-.52-.08.714.714,0,0,1-.52-.16q-.16-.16,0-.92a1.831,1.831,0,0,1,.4-.76h.48q.92.12,4.8.12a31.944,31.944,0,0,0,3.96-.12h.32q.28.28.28.44a2.377,2.377,0,0,1-.18.8,1.97,1.97,0,0,1-.3.6H16.4a8.243,8.243,0,0,0-5.04,1.72,3.2,3.2,0,0,1-.44.4.714.714,0,0,1-.2.2q-.16.16-3.6,3.96L3.64-15.36q0,.04,1.26,3.22T7.48-5.68A33.65,33.65,0,0,0,8.96-2.24a4.821,4.821,0,0,0,2.44.4q1.4,0,1.4.32a4.455,4.455,0,0,1-.28,1.28q-.12.2-.64.2-.6,0-2.12-.02T7-.08q-1.2,0-2.84.02T1.88-.04q-.52,0-.64-.2A1.5,1.5,0,0,1,1.28-1a1.743,1.743,0,0,1,.28-.7,1.273,1.273,0,0,1,.6-.14,5.543,5.543,0,0,0,1.52-.32q.68-.32.68-.4-.04,0-1.88-4.68L.6-11.96q-.04,0-3.78,4.14T-6.96-3.6a1,1,0,0,0-.32.72q0,.76,1.16,1,.04,0,.24.02t.24.02q.48,0,.48.4a2.8,2.8,0,0,1-.12.68,1.354,1.354,0,0,1-.24.62,1.1,1.1,0,0,1-.6.1q-.76,0-2.36-.02t-2.4-.02Q-14-.08-14.88,0Z" transform="translate(1054 657)" fill="#151515"/>
      <path id="Path_141" data-name="Path 141" d="M-6.16-23.4A7.057,7.057,0,0,1-.04-26.64a7.375,7.375,0,0,1,5.12,2,8.7,8.7,0,0,1,1.84,2.72A22.881,22.881,0,0,1,8.4-12.8q0,6.2-1.72,9.48A6.931,6.931,0,0,1,3.4.04,7.532,7.532,0,0,1,0,.88a7.049,7.049,0,0,1-6.72-4.2Q-8.44-6.6-8.44-12.8a31.173,31.173,0,0,1,.5-6.14A13.433,13.433,0,0,1-6.16-23.4Zm9-.48A3.687,3.687,0,0,0,0-25.16a3.809,3.809,0,0,0-2.88,1.28,4.815,4.815,0,0,0-1.2,2.24,24.706,24.706,0,0,0-.4,4.56q0,.24-.02,1.56t-.02,2.2q0,3.84.08,5.36a22.852,22.852,0,0,0,.48,4.02,4.548,4.548,0,0,0,1.2,2.1A3.547,3.547,0,0,0,0-.64a3.5,3.5,0,0,0,2.72-1.2,4.548,4.548,0,0,0,1.2-2.1A22.852,22.852,0,0,0,4.4-7.96q.08-1.52.08-5.36,0-.88-.02-2.2t-.02-1.56a24.707,24.707,0,0,0-.4-4.56A4.815,4.815,0,0,0,2.84-23.88Z" transform="translate(866 788.228)" fill="#151515"/>
      <path id="Path_142" data-name="Path 142" d="M6.64,0Q5.96-.12.28-.12-5.32-.12-6,0h-.48V-1.84h1.04a22.531,22.531,0,0,0,3-.12,2.587,2.587,0,0,0,.96-.48V-23.12A.966.966,0,0,0-1.8-23a11.8,11.8,0,0,1-4.12.76h-.76v-1.84h.76A11.16,11.16,0,0,0-.32-25.6a5.553,5.553,0,0,0,1.24-.92q.08-.12.48-.12a1.009,1.009,0,0,1,.68.24v11.96l.04,12a3.873,3.873,0,0,0,2.6.6H7.08V0Z" transform="translate(866 857.228)" fill="#151515"/>
      <path id="Path_143" data-name="Path 143" d="M-13.36,0q-.68-.12-6.36-.12-5.6,0-6.28.12h-.48V-1.84h1.04a22.531,22.531,0,0,0,3-.12,2.587,2.587,0,0,0,.96-.48V-23.12a.966.966,0,0,0-.32.12,11.8,11.8,0,0,1-4.12.76h-.76v-1.84h.76a11.16,11.16,0,0,0,5.6-1.52,5.553,5.553,0,0,0,1.24-.92q.08-.12.48-.12a1.009,1.009,0,0,1,.68.24v11.96l.04,12a3.873,3.873,0,0,0,2.6.6h2.36V0ZM-7,10a.726.726,0,0,1-.52-.24.726.726,0,0,1-.24-.52q0-.4,6.96-19.54T6.28-29.6A.733.733,0,0,1,7-30a.94.94,0,0,1,.56.28.6.6,0,0,1,.2.52q0,.2-6.94,19.3T-6.32,9.6A.815.815,0,0,1-7,10ZM24.92-24.04a3.774,3.774,0,0,0-2.48-1,5.729,5.729,0,0,0-4.68,2.4q-1.88,2.6-1.88,8.08l.04.16.32-.52a5.115,5.115,0,0,1,4.44-2.4,6.685,6.685,0,0,1,3.24.76,8.271,8.271,0,0,1,1.92,1.62,10.078,10.078,0,0,1,1.56,2.26,10.751,10.751,0,0,1,.84,4.28v.72a7.076,7.076,0,0,1-.2,1.72,9,9,0,0,1-2.48,4.44A7.342,7.342,0,0,1,21.72.72a6.731,6.731,0,0,1-1.6.16A6.972,6.972,0,0,1,18.76.76a7.087,7.087,0,0,1-4.72-3.2q-2.36-3.72-2.36-10.08a17.63,17.63,0,0,1,1.52-7.56,11.978,11.978,0,0,1,4.24-5.04,7.969,7.969,0,0,1,4.68-1.52,5.481,5.481,0,0,1,3.74,1.24A4.279,4.279,0,0,1,27.28-22a2.2,2.2,0,0,1-.58,1.6,2.044,2.044,0,0,1-1.54.6,2.123,2.123,0,0,1-1.54-.56,2.067,2.067,0,0,1-.58-1.56A1.979,1.979,0,0,1,24.92-24.04Zm-1.76,9.6a3.49,3.49,0,0,0-2.88-1.44,3.246,3.246,0,0,0-2.4.92Q15.92-13,15.92-8.64a16.938,16.938,0,0,0,.48,4.92,4.6,4.6,0,0,0,1.36,2.04,3.348,3.348,0,0,0,2.28.84,3.591,3.591,0,0,0,3.12-1.52,4.421,4.421,0,0,0,.76-2,26.425,26.425,0,0,0,.16-3.36V-9a27.287,27.287,0,0,0-.16-3.44A4.421,4.421,0,0,0,23.16-14.44Z" transform="translate(972 854.228)" fill="#151515"/>
      <path id="Path_148" data-name="Path 148" d="M-6.16-23.4A7.057,7.057,0,0,1-.04-26.64a7.375,7.375,0,0,1,5.12,2,8.7,8.7,0,0,1,1.84,2.72A22.881,22.881,0,0,1,8.4-12.8q0,6.2-1.72,9.48A6.931,6.931,0,0,1,3.4.04,7.532,7.532,0,0,1,0,.88a7.049,7.049,0,0,1-6.72-4.2Q-8.44-6.6-8.44-12.8a31.173,31.173,0,0,1,.5-6.14A13.433,13.433,0,0,1-6.16-23.4Zm9-.48A3.687,3.687,0,0,0,0-25.16a3.809,3.809,0,0,0-2.88,1.28,4.815,4.815,0,0,0-1.2,2.24,24.706,24.706,0,0,0-.4,4.56q0,.24-.02,1.56t-.02,2.2q0,3.84.08,5.36a22.852,22.852,0,0,0,.48,4.02,4.548,4.548,0,0,0,1.2,2.1A3.547,3.547,0,0,0,0-.64a3.5,3.5,0,0,0,2.72-1.2,4.548,4.548,0,0,0,1.2-2.1A22.852,22.852,0,0,0,4.4-7.96q.08-1.52.08-5.36,0-.88-.02-2.2t-.02-1.56a24.707,24.707,0,0,0-.4-4.56A4.815,4.815,0,0,0,2.84-23.88Z" transform="translate(973 788.228)" fill="#151515"/>
      <path id="Path_149" data-name="Path 149" d="M-6.16-23.4A7.057,7.057,0,0,1-.04-26.64a7.375,7.375,0,0,1,5.12,2,8.7,8.7,0,0,1,1.84,2.72A22.881,22.881,0,0,1,8.4-12.8q0,6.2-1.72,9.48A6.931,6.931,0,0,1,3.4.04,7.532,7.532,0,0,1,0,.88a7.049,7.049,0,0,1-6.72-4.2Q-8.44-6.6-8.44-12.8a31.173,31.173,0,0,1,.5-6.14A13.433,13.433,0,0,1-6.16-23.4Zm9-.48A3.687,3.687,0,0,0,0-25.16a3.809,3.809,0,0,0-2.88,1.28,4.815,4.815,0,0,0-1.2,2.24,24.706,24.706,0,0,0-.4,4.56q0,.24-.02,1.56t-.02,2.2q0,3.84.08,5.36a22.852,22.852,0,0,0,.48,4.02,4.548,4.548,0,0,0,1.2,2.1A3.547,3.547,0,0,0,0-.64a3.5,3.5,0,0,0,2.72-1.2,4.548,4.548,0,0,0,1.2-2.1A22.852,22.852,0,0,0,4.4-7.96q.08-1.52.08-5.36,0-.88-.02-2.2t-.02-1.56a24.707,24.707,0,0,0-.4-4.56A4.815,4.815,0,0,0,2.84-23.88Z" transform="translate(1135 857.228)" fill="#151515"/>
      <path id="Path_150" data-name="Path 150" d="M-13.36,0q-.68-.12-6.36-.12-5.6,0-6.28.12h-.48V-1.84h1.04a22.531,22.531,0,0,0,3-.12,2.587,2.587,0,0,0,.96-.48V-23.12a.966.966,0,0,0-.32.12,11.8,11.8,0,0,1-4.12.76h-.76v-1.84h.76a11.16,11.16,0,0,0,5.6-1.52,5.553,5.553,0,0,0,1.24-.92q.08-.12.48-.12a1.009,1.009,0,0,1,.68.24v11.96l.04,12a3.873,3.873,0,0,0,2.6.6h2.36V0ZM-7,10a.726.726,0,0,1-.52-.24.726.726,0,0,1-.24-.52q0-.4,6.96-19.54T6.28-29.6A.733.733,0,0,1,7-30a.94.94,0,0,1,.56.28.6.6,0,0,1,.2.52q0,.2-6.94,19.3T-6.32,9.6A.815.815,0,0,1-7,10ZM15.08-18.52a2.185,2.185,0,0,1-1.7-.68,2.511,2.511,0,0,1-.62-1.76,4.83,4.83,0,0,1,1.8-3.82,7.649,7.649,0,0,1,4.16-1.82h.6q1.4,0,1.76.04a9.711,9.711,0,0,1,2.68.84,5.956,5.956,0,0,1,3.32,3.76,3.892,3.892,0,0,1,.12,1.08,6.653,6.653,0,0,1-1.46,4.22A8.081,8.081,0,0,1,22.08-14q-.2.08,0,.12a2.612,2.612,0,0,0,.4.12,8.522,8.522,0,0,1,4.12,2.54A6.125,6.125,0,0,1,28.28-7a6.981,6.981,0,0,1-.76,3.16A7.929,7.929,0,0,1,24.38-.46,9.1,9.1,0,0,1,19.52.88,9.565,9.565,0,0,1,14.84-.24a5.768,5.768,0,0,1-2.76-3,4.513,4.513,0,0,1-.4-1.96,2.391,2.391,0,0,1,.74-1.82,2.5,2.5,0,0,1,1.78-.7A2.492,2.492,0,0,1,16.04-7a2.442,2.442,0,0,1,.72,1.8,2.559,2.559,0,0,1-.52,1.6,2.361,2.361,0,0,1-1.4.88l-.28.08a7.526,7.526,0,0,0,4.96,1.8,3.57,3.57,0,0,0,3.32-2.12A9.19,9.19,0,0,0,23.52-7v-.8q0-3.8-2.56-5.08a8.379,8.379,0,0,0-2.44-.28l-1.68-.04-.12-.08a1.487,1.487,0,0,1-.08-.64.949.949,0,0,1,.12-.6.328.328,0,0,1,.2-.12,14.11,14.11,0,0,0,2.32-.2,3.465,3.465,0,0,0,2.68-1.98A8.836,8.836,0,0,0,22.88-21q0-2.6-1.4-3.48a3.314,3.314,0,0,0-1.88-.56,5.922,5.922,0,0,0-3.52,1.08,1.7,1.7,0,0,0-.36.26,2.439,2.439,0,0,0-.32.34l-.12.16q.12.04.28.08a1.905,1.905,0,0,1,1.34.76,2.439,2.439,0,0,1,.54,1.56,2.2,2.2,0,0,1-.66,1.62A2.3,2.3,0,0,1,15.08-18.52Z" transform="translate(1054 785)" fill="#151515"/>
      <path id="Path_151" data-name="Path 151" d="M-13.36,0q-.68-.12-6.36-.12-5.6,0-6.28.12h-.48V-1.84h1.04a22.531,22.531,0,0,0,3-.12,2.587,2.587,0,0,0,.96-.48V-23.12a.966.966,0,0,0-.32.12,11.8,11.8,0,0,1-4.12.76h-.76v-1.84h.76a11.16,11.16,0,0,0,5.6-1.52,5.553,5.553,0,0,0,1.24-.92q.08-.12.48-.12a1.009,1.009,0,0,1,.68.24v11.96l.04,12a3.873,3.873,0,0,0,2.6.6h2.36V0ZM-7,10a.726.726,0,0,1-.52-.24.726.726,0,0,1-.24-.52q0-.4,6.96-19.54T6.28-29.6A.733.733,0,0,1,7-30a.94.94,0,0,1,.56.28.6.6,0,0,1,.2.52q0,.2-6.94,19.3T-6.32,9.6A.815.815,0,0,1-7,10ZM15.08-18.52a2.185,2.185,0,0,1-1.7-.68,2.511,2.511,0,0,1-.62-1.76,4.83,4.83,0,0,1,1.8-3.82,7.649,7.649,0,0,1,4.16-1.82h.6q1.4,0,1.76.04a9.711,9.711,0,0,1,2.68.84,5.956,5.956,0,0,1,3.32,3.76,3.892,3.892,0,0,1,.12,1.08,6.653,6.653,0,0,1-1.46,4.22A8.081,8.081,0,0,1,22.08-14q-.2.08,0,.12a2.612,2.612,0,0,0,.4.12,8.522,8.522,0,0,1,4.12,2.54A6.125,6.125,0,0,1,28.28-7a6.981,6.981,0,0,1-.76,3.16A7.929,7.929,0,0,1,24.38-.46,9.1,9.1,0,0,1,19.52.88,9.565,9.565,0,0,1,14.84-.24a5.768,5.768,0,0,1-2.76-3,4.513,4.513,0,0,1-.4-1.96,2.391,2.391,0,0,1,.74-1.82,2.5,2.5,0,0,1,1.78-.7A2.492,2.492,0,0,1,16.04-7a2.442,2.442,0,0,1,.72,1.8,2.559,2.559,0,0,1-.52,1.6,2.361,2.361,0,0,1-1.4.88l-.28.08a7.526,7.526,0,0,0,4.96,1.8,3.57,3.57,0,0,0,3.32-2.12A9.19,9.19,0,0,0,23.52-7v-.8q0-3.8-2.56-5.08a8.379,8.379,0,0,0-2.44-.28l-1.68-.04-.12-.08a1.487,1.487,0,0,1-.08-.64.949.949,0,0,1,.12-.6.328.328,0,0,1,.2-.12,14.11,14.11,0,0,0,2.32-.2,3.465,3.465,0,0,0,2.68-1.98A8.836,8.836,0,0,0,22.88-21q0-2.6-1.4-3.48a3.314,3.314,0,0,0-1.88-.56,5.922,5.922,0,0,0-3.52,1.08,1.7,1.7,0,0,0-.36.26,2.439,2.439,0,0,0-.32.34l-.12.16q.12.04.28.08a1.905,1.905,0,0,1,1.34.76,2.439,2.439,0,0,1,.54,1.56,2.2,2.2,0,0,1-.66,1.62A2.3,2.3,0,0,1,15.08-18.52Z" transform="translate(1054 854)" fill="#151515"/>
    </g>
  </g>
</svg>
