<svg xmlns="http://www.w3.org/2000/svg" width="1273" height="234.996" viewBox="0 0 1273 234.996">
  <g id="Group_76" data-name="Group 76" transform="translate(-322 -341.793)">
    <path id="Path_129" data-name="Path 129" d="M0,0H1273V235H0Z" transform="translate(322 341.793)" fill="#fafafa"/>
    <g id="Group_75" data-name="Group 75" transform="translate(0 2)">
      <path id="Path_128" data-name="Path 128" d="M-79.81-27.034l.292-.167h6.977q5.807,0,7.332.063a12.834,12.834,0,0,1,2.778.4,11.293,11.293,0,0,1,3.258,1.211,6.674,6.674,0,0,1,3.426,6.183,6.354,6.354,0,0,1-.668,3.091,8.113,8.113,0,0,1-3.593,3.509,14.594,14.594,0,0,1-3.927,1.211,17.526,17.526,0,0,1-3.426.209h-2.423v5.1q0,.877.042,2.256.042,2.507.1,2.945a.725.725,0,0,0,.48.606l.042.042a5.734,5.734,0,0,0,1.5.251,2.351,2.351,0,0,1,1.379.292.707.707,0,0,1,0,1.044l-.292.167H-79.517l-.292-.167a.955.955,0,0,1-.209-.543.919.919,0,0,1,.209-.5,2.256,2.256,0,0,1,1.337-.292,7.87,7.87,0,0,0,.94-.1,1.4,1.4,0,0,0,.5-.188.918.918,0,0,0,.313-.418q.125-.376.125-12.073t-.125-12.073a.887.887,0,0,0-.5-.543,5.6,5.6,0,0,0-1.253-.209,2.034,2.034,0,0,1-1.337-.292.639.639,0,0,1-.209-.46A.955.955,0,0,1-79.81-27.034Zm8.731,1.838.292-.543H-75.34q0,.042.209.668.125.5.125,12.157,0,11.572-.125,12.157l-.209.627h4.47l-.209-.334q-.167-.585-.167-12.282V-24.611Zm8.1,4.094a6.558,6.558,0,0,0-1.191-3.614,4.02,4.02,0,0,0-3.07-.982,3.014,3.014,0,0,0-1.211.167,1.7,1.7,0,0,0-1.211.919,56.268,56.268,0,0,0-.125,5.932v5.765h1.671A14.209,14.209,0,0,0-65.94-13a3.833,3.833,0,0,0,2.757-3.342,13.093,13.093,0,0,0,.292-3.133Q-62.891-20.1-62.974-21.1Zm2.507-3.426q-.125-.084-1.5-.668l-.627-.167.251.752a10.218,10.218,0,0,1,.961,4.8q0,4.261-1.211,6.057a.9.9,0,0,0-.209.46h.042a8.592,8.592,0,0,0,2.089-.752q3.467-1.755,3.467-5.1A6.03,6.03,0,0,0-58.8-23.4,8.346,8.346,0,0,0-60.468-24.527ZM-41.251,11.4q0,.376-.752.376h-.543l-1.17-1q-7.52-6.851-7.52-19.885a33.686,33.686,0,0,1,1.211-9.316A22.531,22.531,0,0,1-43.716-29q.292-.251.668-.564t.5-.439H-42a.991.991,0,0,1,.627.125.361.361,0,0,1,.125.251q0,.167-.46.627-6.475,6.851-6.475,19.885t6.475,19.885Q-41.251,11.232-41.251,11.4Zm4.094-10.068q-.668,0-.668-.46A3.512,3.512,0,0,1-37.7.2a1.487,1.487,0,0,1,.292-.668,2.3,2.3,0,0,1,.794-.125,8.041,8.041,0,0,0,5.64-2.172q.418-.418,4.846-5.285t4.386-4.909Q-26.3-24.569-26.5-24.778q-.376-.46-2.632-.5h-1.17a.993.993,0,0,1-.272-.355,3.792,3.792,0,0,1,.1-.773,1.913,1.913,0,0,1,.418-.794h.585q1.42.084,5.055.084.919,0,2.674-.021t2.59-.021a1.469,1.469,0,0,1,.543.063q.125.063.125.313a1.945,1.945,0,0,1-.292,1.3q-.084.209-.71.209a4.137,4.137,0,0,0-2.172.668l-.084.042q1.88,4.6,3.217,8.1l2.214-2.465q1.963-2.131,3.091-3.426a11.024,11.024,0,0,0,1.128-1.3,1,1,0,0,0,.167-.668q-.125-.627-1-.877a2.348,2.348,0,0,1-.543-.084.746.746,0,0,1-.543-.167q-.167-.167,0-.961A1.913,1.913,0,0,1-13.6-27.2h.5q.961.125,5.013.125A33.361,33.361,0,0,0-3.945-27.2h.334q.292.292.292.46a2.483,2.483,0,0,1-.188.836,2.057,2.057,0,0,1-.313.627h-.668a8.609,8.609,0,0,0-5.264,1.8,3.339,3.339,0,0,1-.46.418.746.746,0,0,1-.209.209q-.167.167-3.76,4.136l-3.634,4.01q0,.042,1.316,3.363T-13.8-4.6a35.143,35.143,0,0,0,1.546,3.593A5.035,5.035,0,0,0-9.71-.59q1.462,0,1.462.334a4.652,4.652,0,0,1-.292,1.337q-.125.209-.668.209-.627,0-2.214-.021t-2.883-.021q-1.253,0-2.966.021t-2.381.021q-.543,0-.668-.209A1.571,1.571,0,0,1-20.28.287a1.82,1.82,0,0,1,.292-.731,1.329,1.329,0,0,1,.627-.146,5.789,5.789,0,0,0,1.587-.334q.71-.334.71-.418-.042,0-1.963-4.888l-1.963-4.93q-.042,0-3.948,4.324t-3.948,4.407a1.039,1.039,0,0,0-.334.752q0,.794,1.211,1.044.042,0,.251.021t.251.021q.5,0,.5.418a2.922,2.922,0,0,1-.125.71,1.414,1.414,0,0,1-.251.648,1.153,1.153,0,0,1-.627.1q-.794,0-2.465-.021t-2.507-.021Q-36.238,1.248-37.157,1.332ZM10.651-5.461V-8.48H34.8v3.019Zm0-7.547v-3.019H34.8v3.019ZM55.5-27.2q.042,0,3.029-.23t3.029-.23q.5,0,.5.334,0,.292-2.089,8.731-2.089,8.272-2.089,8.564.794-.5,1.3-.856a7.926,7.926,0,0,0,.794-.627q.292-.272,1.42-1.358A25.918,25.918,0,0,1,64.9-16.005a5.729,5.729,0,0,1,3.175-1.128,2.5,2.5,0,0,1,1.984.836,3.241,3.241,0,0,1,.731,2.214,3.947,3.947,0,0,1-.71,2.444,2.366,2.366,0,0,1-2.005.94,1.919,1.919,0,0,1-1.316-.46,1.536,1.536,0,0,1-.522-1.211,2.454,2.454,0,0,1,.71-1.775A2.779,2.779,0,0,1,68.615-15l.292-.084a1.444,1.444,0,0,0-1-.5,5.962,5.962,0,0,0-3.342,1.42,32.067,32.067,0,0,0-2.423,2.256Q60.929-10.7,59.3-9.321q1.963.46,2.674.71a4.7,4.7,0,0,1,2.674,2.172,3.592,3.592,0,0,1,.376,1.629,11.43,11.43,0,0,1-.23,1.8,12.291,12.291,0,0,0-.23,1.587q0,1.671,1.128,1.671A1.916,1.916,0,0,0,67.07-.381a10,10,0,0,0,1.88-4.345q.084-.334.836-.334a1.383,1.383,0,0,1,.668.084q.251.167.042.877Q69.367-.3,67.613,1.039a3.51,3.51,0,0,1-2.047.752A4.15,4.15,0,0,1,62.5.642a4.15,4.15,0,0,1-1.149-3.07,8.362,8.362,0,0,1,.125-1.17A8.36,8.36,0,0,0,61.6-4.726a2.307,2.307,0,0,0-.251-1.044A3.666,3.666,0,0,0,59.3-7.4a7.344,7.344,0,0,0-1.922-.46h-.084q-.543,2.047-1.023,3.969t-.71,2.883q-.23.961-.4,1.462a2.1,2.1,0,0,1-.752.94,1.944,1.944,0,0,1-1.17.4,1.778,1.778,0,0,1-.982-.313.94.94,0,0,1-.48-.815q0-.418,1.546-6.684t3.05-12.324L57.921-24.4q.084-.585-.272-.731a3.43,3.43,0,0,0-1.191-.146H56a2.074,2.074,0,0,1-1-.125q-.251-.209-.042-1a1.487,1.487,0,0,1,.292-.668A.361.361,0,0,1,55.5-27.2Zm18.548-2.757L74.213-30h.919l1.17,1q7.52,6.851,7.52,19.885A32.959,32.959,0,0,1,82.61.162,22.532,22.532,0,0,1,76.3,10.773q-.292.251-.668.564t-.5.439h-.5a1.566,1.566,0,0,1-.648-.084q-.146-.084-.146-.418.042-.042.46-.543,6.475-6.726,6.475-19.843T74.3-28.956q-.418-.5-.46-.543A.491.491,0,0,1,74.046-29.958Z" transform="translate(1070.599 501.192)" fill="#151515"/>
      <path id="Path_132" data-name="Path 132" d="M-76.333-28.518l.294-.168h7.014q5.838,0,7.371.063a12.9,12.9,0,0,1,2.793.4,11.354,11.354,0,0,1,3.276,1.218,6.71,6.71,0,0,1,3.444,6.216,6.388,6.388,0,0,1-.672,3.108,8.156,8.156,0,0,1-3.612,3.528,14.672,14.672,0,0,1-3.948,1.218,17.62,17.62,0,0,1-3.444.21h-2.436V-7.6q0,.882.042,2.268.042,2.52.105,2.961a.728.728,0,0,0,.483.609l.042.042a5.765,5.765,0,0,0,1.512.252,2.364,2.364,0,0,1,1.386.294.711.711,0,0,1,0,1.05l-.294.168H-76.039l-.294-.168a.96.96,0,0,1-.21-.546.924.924,0,0,1,.21-.5,2.268,2.268,0,0,1,1.344-.294,7.912,7.912,0,0,0,.945-.105,1.405,1.405,0,0,0,.5-.189.923.923,0,0,0,.315-.42q.126-.378.126-12.138t-.126-12.138a.892.892,0,0,0-.5-.546,5.629,5.629,0,0,0-1.26-.21,2.045,2.045,0,0,1-1.344-.294.642.642,0,0,1-.21-.462A.96.96,0,0,1-76.333-28.518Zm8.778,1.848.294-.546h-4.578q0,.042.21.672.126.5.126,12.222,0,11.634-.126,12.222l-.21.63h4.494l-.21-.336q-.168-.588-.168-12.348V-26.082Zm8.148,4.116a6.593,6.593,0,0,0-1.2-3.633,4.041,4.041,0,0,0-3.087-.987,3.03,3.03,0,0,0-1.218.168,1.713,1.713,0,0,0-1.218.924,56.569,56.569,0,0,0-.126,5.964v5.8h1.68a14.285,14.285,0,0,0,2.184-.084,3.853,3.853,0,0,0,2.772-3.36,13.163,13.163,0,0,0,.294-3.15Q-59.323-21.546-59.407-22.554ZM-56.887-26q-.126-.084-1.512-.672l-.63-.168.252.756a10.272,10.272,0,0,1,.966,4.83q0,4.284-1.218,6.09a.908.908,0,0,0-.21.462h.042a8.638,8.638,0,0,0,2.1-.756q3.486-1.764,3.486-5.124a6.062,6.062,0,0,0-1.6-4.284A8.391,8.391,0,0,0-56.887-26Zm19.32,36.12q0,.378-.756.378h-.546l-1.176-1.008Q-47.605,2.6-47.605-10.5a33.867,33.867,0,0,1,1.218-9.366,22.652,22.652,0,0,1,6.342-10.626q.294-.252.672-.567t.5-.441h.546a1,1,0,0,1,.63.126.363.363,0,0,1,.126.252q0,.168-.462.63-6.51,6.888-6.51,19.992t6.51,19.992Q-37.567,9.954-37.567,10.122ZM-10.1-28.6q1.47.042,2.478.042t2.226-.063q1.218-.063,1.68-.063.546,0,.546.42a3.949,3.949,0,0,1-.147.672,2.921,2.921,0,0,1-.189.588q-.084.252-.882.252a7.414,7.414,0,0,0-4.914,2.1q-.378.378-5.88,6.846L-20.6-11.466-21.691-7.1q-1.134,4.494-1.134,4.7,0,.462,2.856.462a3.8,3.8,0,0,1,.9.063q.189.063.189.357a2.361,2.361,0,0,1-.252,1.26q-.126.21-.714.21-.756,0-2.52-.021t-3.108-.021q-1.344,0-3.066.021t-2.394.021q-.714,0-.714-.294a4.528,4.528,0,0,1,.126-.735,2.818,2.818,0,0,1,.168-.609q.084-.252,1.554-.252A12.978,12.978,0,0,0-27.634-2.1a1.04,1.04,0,0,0,.735-.546q.126-.21,1.218-4.536l1.05-4.326q-1.722-4.914-5.166-14.658a1.576,1.576,0,0,0-.777-.462,14.169,14.169,0,0,0-1.869-.126q-1.512,0-1.512-.42a4.464,4.464,0,0,1,.126-.588q.168-.756.378-.882a2.13,2.13,0,0,1,.588-.042q2.016.126,4.578.126,5.124,0,5.922-.126h.42a1,1,0,0,1,.273.357,3.812,3.812,0,0,1-.105.777,1.923,1.923,0,0,1-.42.8h-.5q-2.352,0-2.352.546,0,.21,2.1,6.195t2.142,6.027l.126-.126q.168-.168.5-.567t.882-1.008q.546-.609,1.344-1.533t1.806-2.142q4.494-5.25,4.788-5.67a1.739,1.739,0,0,0,.378-.924q0-.672-1.344-.8-.714,0-.714-.42,0-.084.084-.588a2.579,2.579,0,0,1,.231-.777q.1-.147.567-.147Q-11.569-28.686-10.1-28.6ZM4.239-6.829V-9.864H28.521v3.035Zm0-7.588v-3.035H28.521v3.035ZM56.047-25.032a2.653,2.653,0,0,1,.8-1.911,2.551,2.551,0,0,1,1.89-.819,1.709,1.709,0,0,1,1.2.441,1.789,1.789,0,0,1,.567,1.155,2.781,2.781,0,0,1-.756,1.953,2.465,2.465,0,0,1-1.89.819,1.844,1.844,0,0,1-1.26-.441A1.638,1.638,0,0,1,56.047-25.032Zm-.378,9.24q0-1.218-1.092-1.218a3.052,3.052,0,0,0-.966.168,5.221,5.221,0,0,0-2.205,1.6,10.349,10.349,0,0,0-1.785,2.982,2.3,2.3,0,0,1-.126.294,1.049,1.049,0,0,0-.084.189q0,.021-.126.063a.736.736,0,0,1-.231.042h-.987a.72.72,0,0,1-.084-.882,11.253,11.253,0,0,1,3.276-4.62,6.051,6.051,0,0,1,2.9-1.344q.042,0,.336-.021t.5-.021a4.964,4.964,0,0,1,1.848.42,5.482,5.482,0,0,1,1.617,1.407,3.622,3.622,0,0,1,.525,2.121v.672L56.929-5.586q-2.142,8.4-2.268,8.736a7.892,7.892,0,0,1-2.289,3.213,9.128,9.128,0,0,1-3.591,1.953,8.8,8.8,0,0,1-2.058.252,4.482,4.482,0,0,1-2.646-.714,2.409,2.409,0,0,1-1.008-2.1,2.614,2.614,0,0,1,.84-1.974,2.677,2.677,0,0,1,1.89-.8,1.776,1.776,0,0,1,1.281.462,1.661,1.661,0,0,1,.483,1.26,2.538,2.538,0,0,1-1.344,2.31,3.17,3.17,0,0,0,.588.042,3.625,3.625,0,0,0,2.625-1.218,8.015,8.015,0,0,0,1.785-2.73l.462-1.764q.462-1.806,1.113-4.389t1.323-5.229q.672-2.646,1.134-4.683a19.768,19.768,0,0,0,.462-2.373A1.993,1.993,0,0,0,55.669-15.792ZM63.4-31.458l.168-.042h.924l1.176,1.008q7.56,6.888,7.56,19.992a33.136,33.136,0,0,1-1.218,9.324A22.654,22.654,0,0,1,65.665,9.492q-.294.252-.672.567t-.5.441h-.5a1.574,1.574,0,0,1-.651-.084q-.147-.084-.147-.42.042-.042.462-.546,6.51-6.762,6.51-19.95t-6.51-19.95q-.42-.5-.462-.546A.494.494,0,0,1,63.4-31.458Z" transform="translate(575.001 504)" fill="#151515"/>
      <g id="Rectangle_270" data-name="Rectangle 270" transform="translate(479.001 456)" fill="none" stroke="#151515" stroke-width="2">
        <rect width="193" height="73" stroke="none"/>
        <rect x="1" y="1" width="191" height="71" fill="none"/>
      </g>
      <g id="Rectangle_271" data-name="Rectangle 271" transform="translate(976.001 456)" fill="none" stroke="#151515" stroke-width="2">
        <rect width="193" height="73" stroke="none"/>
        <rect x="1" y="1" width="191" height="71" fill="none"/>
      </g>
      <g id="Rectangle_272" data-name="Rectangle 272" transform="translate(670.001 456)" fill="none" stroke="#151515" stroke-width="2">
        <rect width="193" height="73" stroke="none"/>
        <rect x="1" y="1" width="191" height="71" fill="none"/>
      </g>
      <g id="Rectangle_273" data-name="Rectangle 273" transform="translate(1167.001 456)" fill="none" stroke="#151515" stroke-width="2">
        <rect width="272.115" height="73" stroke="none"/>
        <rect x="1" y="1" width="270.115" height="71" fill="none"/>
      </g>
      <g id="Rectangle_274" data-name="Rectangle 274" transform="translate(670.001 385)" fill="none" stroke="#151515" stroke-width="2">
        <rect width="193" height="73" stroke="none"/>
        <rect x="1" y="1" width="191" height="71" fill="none"/>
      </g>
      <path id="Path_130" data-name="Path 130" d="M-6.16-23.4A7.057,7.057,0,0,1-.04-26.64a7.375,7.375,0,0,1,5.12,2,8.7,8.7,0,0,1,1.84,2.72A22.881,22.881,0,0,1,8.4-12.8q0,6.2-1.72,9.48A6.931,6.931,0,0,1,3.4.04,7.532,7.532,0,0,1,0,.88a7.049,7.049,0,0,1-6.72-4.2Q-8.44-6.6-8.44-12.8a31.173,31.173,0,0,1,.5-6.14A13.433,13.433,0,0,1-6.16-23.4Zm9-.48A3.687,3.687,0,0,0,0-25.16a3.809,3.809,0,0,0-2.88,1.28,4.815,4.815,0,0,0-1.2,2.24,24.706,24.706,0,0,0-.4,4.56q0,.24-.02,1.56t-.02,2.2q0,3.84.08,5.36a22.852,22.852,0,0,0,.48,4.02,4.548,4.548,0,0,0,1.2,2.1A3.547,3.547,0,0,0,0-.64a3.5,3.5,0,0,0,2.72-1.2,4.548,4.548,0,0,0,1.2-2.1A22.852,22.852,0,0,0,4.4-7.96q.08-1.52.08-5.36,0-.88-.02-2.2t-.02-1.56a24.707,24.707,0,0,0-.4-4.56A4.815,4.815,0,0,0,2.84-23.88Z" transform="translate(726.001 434)" fill="#151515"/>
      <path id="Path_131" data-name="Path 131" d="M6.64,0Q5.96-.12.28-.12-5.32-.12-6,0h-.48V-1.84h1.04a22.531,22.531,0,0,0,3-.12,2.587,2.587,0,0,0,.96-.48V-23.12A.966.966,0,0,0-1.8-23a11.8,11.8,0,0,1-4.12.76h-.76v-1.84h.76A11.16,11.16,0,0,0-.32-25.6a5.553,5.553,0,0,0,1.24-.92q.08-.12.48-.12a1.009,1.009,0,0,1,.68.24v11.96l.04,12a3.873,3.873,0,0,0,2.6.6H7.08V0Z" transform="translate(807.001 434)" fill="#151515"/>
      <path id="Path_133" data-name="Path 133" d="M-13.36,0q-.68-.12-6.36-.12-5.6,0-6.28.12h-.48V-1.84h1.04a22.531,22.531,0,0,0,3-.12,2.587,2.587,0,0,0,.96-.48V-23.12a.966.966,0,0,0-.32.12,11.8,11.8,0,0,1-4.12.76h-.76v-1.84h.76a11.16,11.16,0,0,0,5.6-1.52,5.553,5.553,0,0,0,1.24-.92q.08-.12.48-.12a1.009,1.009,0,0,1,.68.24v11.96l.04,12a3.873,3.873,0,0,0,2.6.6h2.36V0ZM-7,10a.726.726,0,0,1-.52-.24.726.726,0,0,1-.24-.52q0-.4,6.96-19.54T6.28-29.6A.733.733,0,0,1,7-30a.94.94,0,0,1,.56.28.6.6,0,0,1,.2.52q0,.2-6.94,19.3T-6.32,9.6A.815.815,0,0,1-7,10ZM14.4-17.16a2.234,2.234,0,0,1-1.76-.72A2.555,2.555,0,0,1,12-19.64a6.559,6.559,0,0,1,2.18-4.94,7.334,7.334,0,0,1,5.22-2.06,8.672,8.672,0,0,1,5.7,1.86,7.807,7.807,0,0,1,2.78,4.86,12.027,12.027,0,0,1,.08,1.32,7.566,7.566,0,0,1-1.4,4.36,26.548,26.548,0,0,1-4.52,4.6q-1.44,1.24-4,3.68L15.68-3.72l3.04.04a48.016,48.016,0,0,0,6.68-.2q.16-.04.4-.84a25.232,25.232,0,0,0,.56-2.72v-.12h1.6v.12L26.84-.12V0H12V-.76a2.693,2.693,0,0,1,.08-.92q.04-.04,3.36-3.8,4.36-4.84,5.6-6.4,2.68-3.64,2.68-6.68a7,7,0,0,0-1.38-4.42,4.606,4.606,0,0,0-3.86-1.78,4.388,4.388,0,0,0-3.76,2.08q-.08.16-.24.44a.877.877,0,0,0-.12.24q0,.04.2.04a2.036,2.036,0,0,1,1.62.72,2.5,2.5,0,0,1,.62,1.68,2.387,2.387,0,0,1-.66,1.7A2.28,2.28,0,0,1,14.4-17.16Z" transform="translate(726.001 505)" fill="#151515"/>
      <path id="Path_134" data-name="Path 134" d="M-13.36,0q-.68-.12-6.36-.12-5.6,0-6.28.12h-.48V-1.84h1.04a22.531,22.531,0,0,0,3-.12,2.587,2.587,0,0,0,.96-.48V-23.12a.966.966,0,0,0-.32.12,11.8,11.8,0,0,1-4.12.76h-.76v-1.84h.76a11.16,11.16,0,0,0,5.6-1.52,5.553,5.553,0,0,0,1.24-.92q.08-.12.48-.12a1.009,1.009,0,0,1,.68.24v11.96l.04,12a3.873,3.873,0,0,0,2.6.6h2.36V0ZM-7,10a.726.726,0,0,1-.52-.24.726.726,0,0,1-.24-.52q0-.4,6.96-19.54T6.28-29.6A.733.733,0,0,1,7-30a.94.94,0,0,1,.56.28.6.6,0,0,1,.2.52q0,.2-6.94,19.3T-6.32,9.6A.815.815,0,0,1-7,10ZM14.4-17.16a2.234,2.234,0,0,1-1.76-.72A2.555,2.555,0,0,1,12-19.64a6.559,6.559,0,0,1,2.18-4.94,7.334,7.334,0,0,1,5.22-2.06,8.672,8.672,0,0,1,5.7,1.86,7.807,7.807,0,0,1,2.78,4.86,12.027,12.027,0,0,1,.08,1.32,7.566,7.566,0,0,1-1.4,4.36,26.548,26.548,0,0,1-4.52,4.6q-1.44,1.24-4,3.68L15.68-3.72l3.04.04a48.016,48.016,0,0,0,6.68-.2q.16-.04.4-.84a25.232,25.232,0,0,0,.56-2.72v-.12h1.6v.12L26.84-.12V0H12V-.76a2.693,2.693,0,0,1,.08-.92q.04-.04,3.36-3.8,4.36-4.84,5.6-6.4,2.68-3.64,2.68-6.68a7,7,0,0,0-1.38-4.42,4.606,4.606,0,0,0-3.86-1.78,4.388,4.388,0,0,0-3.76,2.08q-.08.16-.24.44a.877.877,0,0,0-.12.24q0,.04.2.04a2.036,2.036,0,0,1,1.62.72,2.5,2.5,0,0,1,.62,1.68,2.387,2.387,0,0,1-.66,1.7A2.28,2.28,0,0,1,14.4-17.16Z" transform="translate(807.001 505)" fill="#151515"/>
      <g id="Rectangle_275" data-name="Rectangle 275" transform="translate(1167.001 385)" fill="none" stroke="#151515" stroke-width="2">
        <rect width="272.115" height="73" stroke="none"/>
        <rect x="1" y="1" width="270.115" height="71" fill="none"/>
      </g>
      <path id="Path_135" data-name="Path 135" d="M-6.16-23.4A7.057,7.057,0,0,1-.04-26.64a7.375,7.375,0,0,1,5.12,2,8.7,8.7,0,0,1,1.84,2.72A22.881,22.881,0,0,1,8.4-12.8q0,6.2-1.72,9.48A6.931,6.931,0,0,1,3.4.04,7.532,7.532,0,0,1,0,.88a7.049,7.049,0,0,1-6.72-4.2Q-8.44-6.6-8.44-12.8a31.173,31.173,0,0,1,.5-6.14A13.433,13.433,0,0,1-6.16-23.4Zm9-.48A3.687,3.687,0,0,0,0-25.16a3.809,3.809,0,0,0-2.88,1.28,4.815,4.815,0,0,0-1.2,2.24,24.706,24.706,0,0,0-.4,4.56q0,.24-.02,1.56t-.02,2.2q0,3.84.08,5.36a22.852,22.852,0,0,0,.48,4.02,4.548,4.548,0,0,0,1.2,2.1A3.547,3.547,0,0,0,0-.64a3.5,3.5,0,0,0,2.72-1.2,4.548,4.548,0,0,0,1.2-2.1A22.852,22.852,0,0,0,4.4-7.96q.08-1.52.08-5.36,0-.88-.02-2.2t-.02-1.56a24.707,24.707,0,0,0-.4-4.56A4.815,4.815,0,0,0,2.84-23.88Z" transform="translate(1221.001 434)" fill="#151515"/>
      <path id="Path_136" data-name="Path 136" d="M6.64,0Q5.96-.12.28-.12-5.32-.12-6,0h-.48V-1.84h1.04a22.531,22.531,0,0,0,3-.12,2.587,2.587,0,0,0,.96-.48V-23.12A.966.966,0,0,0-1.8-23a11.8,11.8,0,0,1-4.12.76h-.76v-1.84h.76A11.16,11.16,0,0,0-.32-25.6a5.553,5.553,0,0,0,1.24-.92q.08-.12.48-.12a1.009,1.009,0,0,1,.68.24v11.96l.04,12a3.873,3.873,0,0,0,2.6.6H7.08V0Z" transform="translate(1302.001 434)" fill="#151515"/>
      <path id="Path_139" data-name="Path 139" d="M-5.6-17.16a2.234,2.234,0,0,1-1.76-.72A2.555,2.555,0,0,1-8-19.64a6.559,6.559,0,0,1,2.18-4.94A7.334,7.334,0,0,1-.6-26.64a8.672,8.672,0,0,1,5.7,1.86,7.807,7.807,0,0,1,2.78,4.86,12.027,12.027,0,0,1,.08,1.32,7.566,7.566,0,0,1-1.4,4.36,26.548,26.548,0,0,1-4.52,4.6Q.6-8.4-1.96-5.96L-4.32-3.72l3.04.04a48.016,48.016,0,0,0,6.68-.2q.16-.04.4-.84a25.232,25.232,0,0,0,.56-2.72v-.12h1.6v.12L6.84-.12V0H-8V-.76a2.693,2.693,0,0,1,.08-.92q.04-.04,3.36-3.8,4.36-4.84,5.6-6.4,2.68-3.64,2.68-6.68a7,7,0,0,0-1.38-4.42,4.606,4.606,0,0,0-3.86-1.78,4.388,4.388,0,0,0-3.76,2.08q-.08.16-.24.44a.877.877,0,0,0-.12.24q0,.04.2.04a2.036,2.036,0,0,1,1.62.72,2.5,2.5,0,0,1,.62,1.68,2.387,2.387,0,0,1-.66,1.7A2.28,2.28,0,0,1-5.6-17.16Z" transform="translate(1383.001 434)" fill="#151515"/>
      <path id="Path_137" data-name="Path 137" d="M-13.36,0q-.68-.12-6.36-.12-5.6,0-6.28.12h-.48V-1.84h1.04a22.531,22.531,0,0,0,3-.12,2.587,2.587,0,0,0,.96-.48V-23.12a.966.966,0,0,0-.32.12,11.8,11.8,0,0,1-4.12.76h-.76v-1.84h.76a11.16,11.16,0,0,0,5.6-1.52,5.553,5.553,0,0,0,1.24-.92q.08-.12.48-.12a1.009,1.009,0,0,1,.68.24v11.96l.04,12a3.873,3.873,0,0,0,2.6.6h2.36V0ZM-7,10a.726.726,0,0,1-.52-.24.726.726,0,0,1-.24-.52q0-.4,6.96-19.54T6.28-29.6A.733.733,0,0,1,7-30a.94.94,0,0,1,.56.28.6.6,0,0,1,.2.52q0,.2-6.94,19.3T-6.32,9.6A.815.815,0,0,1-7,10ZM24.92-24.04a3.774,3.774,0,0,0-2.48-1,5.729,5.729,0,0,0-4.68,2.4q-1.88,2.6-1.88,8.08l.04.16.32-.52a5.115,5.115,0,0,1,4.44-2.4,6.685,6.685,0,0,1,3.24.76,8.271,8.271,0,0,1,1.92,1.62,10.078,10.078,0,0,1,1.56,2.26,10.751,10.751,0,0,1,.84,4.28v.72a7.076,7.076,0,0,1-.2,1.72,9,9,0,0,1-2.48,4.44A7.342,7.342,0,0,1,21.72.72a6.731,6.731,0,0,1-1.6.16A6.972,6.972,0,0,1,18.76.76a7.087,7.087,0,0,1-4.72-3.2q-2.36-3.72-2.36-10.08a17.63,17.63,0,0,1,1.52-7.56,11.978,11.978,0,0,1,4.24-5.04,7.969,7.969,0,0,1,4.68-1.52,5.481,5.481,0,0,1,3.74,1.24A4.279,4.279,0,0,1,27.28-22a2.2,2.2,0,0,1-.58,1.6,2.044,2.044,0,0,1-1.54.6,2.123,2.123,0,0,1-1.54-.56,2.067,2.067,0,0,1-.58-1.56A1.979,1.979,0,0,1,24.92-24.04Zm-1.76,9.6a3.49,3.49,0,0,0-2.88-1.44,3.246,3.246,0,0,0-2.4.92Q15.92-13,15.92-8.64a16.938,16.938,0,0,0,.48,4.92,4.6,4.6,0,0,0,1.36,2.04,3.348,3.348,0,0,0,2.28.84,3.591,3.591,0,0,0,3.12-1.52,4.421,4.421,0,0,0,.76-2,26.425,26.425,0,0,0,.16-3.36V-9a27.287,27.287,0,0,0-.16-3.44A4.421,4.421,0,0,0,23.16-14.44Z" transform="translate(1221.001 505)" fill="#151515"/>
      <path id="Path_138" data-name="Path 138" d="M-25.6-17.16a2.234,2.234,0,0,1-1.76-.72A2.555,2.555,0,0,1-28-19.64a6.559,6.559,0,0,1,2.18-4.94,7.334,7.334,0,0,1,5.22-2.06,8.672,8.672,0,0,1,5.7,1.86,7.807,7.807,0,0,1,2.78,4.86,12.027,12.027,0,0,1,.08,1.32,7.566,7.566,0,0,1-1.4,4.36,26.548,26.548,0,0,1-4.52,4.6q-1.44,1.24-4,3.68l-2.36,2.24,3.04.04a48.016,48.016,0,0,0,6.68-.2q.16-.04.4-.84a25.232,25.232,0,0,0,.56-2.72v-.12h1.6v.12L-13.16-.12V0H-28V-.76a2.693,2.693,0,0,1,.08-.92q.04-.04,3.36-3.8,4.36-4.84,5.6-6.4,2.68-3.64,2.68-6.68a7,7,0,0,0-1.38-4.42,4.606,4.606,0,0,0-3.86-1.78,4.388,4.388,0,0,0-3.76,2.08q-.08.16-.24.44a.877.877,0,0,0-.12.24q0,.04.2.04a2.036,2.036,0,0,1,1.62.72,2.5,2.5,0,0,1,.62,1.68,2.387,2.387,0,0,1-.66,1.7A2.28,2.28,0,0,1-25.6-17.16ZM-7,10a.726.726,0,0,1-.52-.24.726.726,0,0,1-.24-.52q0-.4,6.96-19.54T6.28-29.6A.733.733,0,0,1,7-30a.94.94,0,0,1,.56.28.6.6,0,0,1,.2.52q0,.2-6.94,19.3T-6.32,9.6A.815.815,0,0,1-7,10ZM15.08-18.52a2.185,2.185,0,0,1-1.7-.68,2.511,2.511,0,0,1-.62-1.76,4.83,4.83,0,0,1,1.8-3.82,7.649,7.649,0,0,1,4.16-1.82h.6q1.4,0,1.76.04a9.711,9.711,0,0,1,2.68.84,5.956,5.956,0,0,1,3.32,3.76,3.892,3.892,0,0,1,.12,1.08,6.653,6.653,0,0,1-1.46,4.22A8.081,8.081,0,0,1,22.08-14q-.2.08,0,.12a2.612,2.612,0,0,0,.4.12,8.522,8.522,0,0,1,4.12,2.54A6.125,6.125,0,0,1,28.28-7a6.981,6.981,0,0,1-.76,3.16A7.929,7.929,0,0,1,24.38-.46,9.1,9.1,0,0,1,19.52.88,9.565,9.565,0,0,1,14.84-.24a5.768,5.768,0,0,1-2.76-3,4.513,4.513,0,0,1-.4-1.96,2.391,2.391,0,0,1,.74-1.82,2.5,2.5,0,0,1,1.78-.7A2.492,2.492,0,0,1,16.04-7a2.442,2.442,0,0,1,.72,1.8,2.559,2.559,0,0,1-.52,1.6,2.361,2.361,0,0,1-1.4.88l-.28.08a7.526,7.526,0,0,0,4.96,1.8,3.57,3.57,0,0,0,3.32-2.12A9.19,9.19,0,0,0,23.52-7v-.8q0-3.8-2.56-5.08a8.379,8.379,0,0,0-2.44-.28l-1.68-.04-.12-.08a1.487,1.487,0,0,1-.08-.64.949.949,0,0,1,.12-.6.328.328,0,0,1,.2-.12,14.11,14.11,0,0,0,2.32-.2,3.465,3.465,0,0,0,2.68-1.98A8.836,8.836,0,0,0,22.88-21q0-2.6-1.4-3.48a3.314,3.314,0,0,0-1.88-.56,5.922,5.922,0,0,0-3.52,1.08,1.7,1.7,0,0,0-.36.26,2.439,2.439,0,0,0-.32.34l-.12.16q.12.04.28.08a1.905,1.905,0,0,1,1.34.76,2.439,2.439,0,0,1,.54,1.56,2.2,2.2,0,0,1-.66,1.62A2.3,2.3,0,0,1,15.08-18.52Z" transform="translate(1302.001 505)" fill="#151515"/>
      <path id="Path_140" data-name="Path 140" d="M-13.36,0q-.68-.12-6.36-.12-5.6,0-6.28.12h-.48V-1.84h1.04a22.531,22.531,0,0,0,3-.12,2.587,2.587,0,0,0,.96-.48V-23.12a.966.966,0,0,0-.32.12,11.8,11.8,0,0,1-4.12.76h-.76v-1.84h.76a11.16,11.16,0,0,0,5.6-1.52,5.553,5.553,0,0,0,1.24-.92q.08-.12.48-.12a1.009,1.009,0,0,1,.68.24v11.96l.04,12a3.873,3.873,0,0,0,2.6.6h2.36V0ZM-7,10a.726.726,0,0,1-.52-.24.726.726,0,0,1-.24-.52q0-.4,6.96-19.54T6.28-29.6A.733.733,0,0,1,7-30a.94.94,0,0,1,.56.28.6.6,0,0,1,.2.52q0,.2-6.94,19.3T-6.32,9.6A.815.815,0,0,1-7,10ZM24.92-24.04a3.774,3.774,0,0,0-2.48-1,5.729,5.729,0,0,0-4.68,2.4q-1.88,2.6-1.88,8.08l.04.16.32-.52a5.115,5.115,0,0,1,4.44-2.4,6.685,6.685,0,0,1,3.24.76,8.271,8.271,0,0,1,1.92,1.62,10.078,10.078,0,0,1,1.56,2.26,10.751,10.751,0,0,1,.84,4.28v.72a7.076,7.076,0,0,1-.2,1.72,9,9,0,0,1-2.48,4.44A7.342,7.342,0,0,1,21.72.72a6.731,6.731,0,0,1-1.6.16A6.972,6.972,0,0,1,18.76.76a7.087,7.087,0,0,1-4.72-3.2q-2.36-3.72-2.36-10.08a17.63,17.63,0,0,1,1.52-7.56,11.978,11.978,0,0,1,4.24-5.04,7.969,7.969,0,0,1,4.68-1.52,5.481,5.481,0,0,1,3.74,1.24A4.279,4.279,0,0,1,27.28-22a2.2,2.2,0,0,1-.58,1.6,2.044,2.044,0,0,1-1.54.6,2.123,2.123,0,0,1-1.54-.56,2.067,2.067,0,0,1-.58-1.56A1.979,1.979,0,0,1,24.92-24.04Zm-1.76,9.6a3.49,3.49,0,0,0-2.88-1.44,3.246,3.246,0,0,0-2.4.92Q15.92-13,15.92-8.64a16.938,16.938,0,0,0,.48,4.92,4.6,4.6,0,0,0,1.36,2.04,3.348,3.348,0,0,0,2.28.84,3.591,3.591,0,0,0,3.12-1.52,4.421,4.421,0,0,0,.76-2,26.425,26.425,0,0,0,.16-3.36V-9a27.287,27.287,0,0,0-.16-3.44A4.421,4.421,0,0,0,23.16-14.44Z" transform="translate(1383.001 505)" fill="#151515"/>
    </g>
  </g>
</svg>
