<svg xmlns="http://www.w3.org/2000/svg" width="1273" height="600" viewBox="0 0 1273 600">
  <g id="Group_74" data-name="Group 74" transform="translate(-324 -261)">
    <rect id="Rectangle_3" data-name="Rectangle 3" width="1273" height="600" transform="translate(324 261)" fill="#fafafa"/>
    <rect id="Rectangle_269" data-name="Rectangle 269" width="11" height="43" transform="translate(639 713)" fill="#2196f3"/>
    <rect id="Rectangle_269-2" data-name="Rectangle 269" width="11" height="86" transform="translate(670 670)" fill="#2196f3"/>
    <rect id="Rectangle_269-3" data-name="Rectangle 269" width="11" height="158" transform="translate(701 598)" fill="#2196f3"/>
    <rect id="Rectangle_269-4" data-name="Rectangle 269" width="11" height="241" transform="translate(732 515)" fill="#2196f3"/>
    <rect id="Rectangle_269-5" data-name="Rectangle 269" width="11" height="316" transform="translate(763 440)" fill="#2196f3"/>
    <rect id="Rectangle_269-6" data-name="Rectangle 269" width="11" height="353" transform="translate(794 403)" fill="#2196f3"/>
    <rect id="Rectangle_269-7" data-name="Rectangle 269" width="11" height="339" transform="translate(825 417)" fill="#2196f3"/>
    <rect id="Rectangle_269-8" data-name="Rectangle 269" width="11" height="308" transform="translate(856 448)" fill="#2196f3"/>
    <rect id="Rectangle_269-9" data-name="Rectangle 269" width="11" height="264" transform="translate(887 492)" fill="#2196f3"/>
    <rect id="Rectangle_269-10" data-name="Rectangle 269" width="11" height="233" transform="translate(918 523)" fill="#2196f3"/>
    <rect id="Rectangle_269-11" data-name="Rectangle 269" width="11" height="181" transform="translate(949 575)" fill="#2196f3"/>
    <rect id="Rectangle_269-12" data-name="Rectangle 269" width="11" height="122" transform="translate(980 634)" fill="#2196f3"/>
    <rect id="Rectangle_269-13" data-name="Rectangle 269" width="11" height="86" transform="translate(1011 670)" fill="#2196f3"/>
    <rect id="Rectangle_269-14" data-name="Rectangle 269" width="11" height="67" transform="translate(1042 689)" fill="#2196f3"/>
    <rect id="Rectangle_269-15" data-name="Rectangle 269" width="11" height="54" transform="translate(1073 702)" fill="#2196f3"/>
    <rect id="Rectangle_269-16" data-name="Rectangle 269" width="11" height="47" transform="translate(1104 709)" fill="#2196f3"/>
    <rect id="Rectangle_269-17" data-name="Rectangle 269" width="11" height="39" transform="translate(1135 717)" fill="#2196f3"/>
    <rect id="Rectangle_269-18" data-name="Rectangle 269" width="11" height="32" transform="translate(1166 724)" fill="#2196f3"/>
    <rect id="Rectangle_269-19" data-name="Rectangle 269" width="11" height="29" transform="translate(1197 727)" fill="#2196f3"/>
    <rect id="Rectangle_269-20" data-name="Rectangle 269" width="11" height="27" transform="translate(1228 729)" fill="#2196f3"/>
    <g id="Group_73" data-name="Group 73" transform="translate(-8.028 -150.947)">
      <g id="Group_8" data-name="Group 8" transform="translate(259.029 136.541)">
        <rect id="Rectangle_4" data-name="Rectangle 4" width="6" height="454.684" transform="translate(365 319.324)" fill="#151515"/>
        <path id="Union_3" data-name="Union 3" d="M0,40V34.245H32.553L34,.245,39.755,0,38.3,34.245h.069V40Z" transform="translate(367.11 366.801) rotate(-135)" fill="#151515"/>
      </g>
      <g id="Group_11" data-name="Group 11" transform="translate(1648.569 539.865) rotate(90)">
        <rect id="Rectangle_4-2" data-name="Rectangle 4" width="6" height="705.217" transform="translate(365 319.324)" fill="#151515"/>
        <path id="Union_3-2" data-name="Union 3" d="M0,40V34.245H32.553L34,.245,39.755,0,38.3,34.245h.069V40Z" transform="translate(367.11 366.801) rotate(-135)" fill="#151515"/>
      </g>
    </g>
    <path id="Path_128" data-name="Path 128" d="M-79.81-27.034l.292-.167h6.977q5.807,0,7.332.063a12.834,12.834,0,0,1,2.778.4,11.293,11.293,0,0,1,3.258,1.211,6.674,6.674,0,0,1,3.426,6.183,6.354,6.354,0,0,1-.668,3.091,8.113,8.113,0,0,1-3.593,3.509,14.594,14.594,0,0,1-3.927,1.211,17.526,17.526,0,0,1-3.426.209h-2.423v5.1q0,.877.042,2.256.042,2.507.1,2.945a.725.725,0,0,0,.48.606l.042.042a5.734,5.734,0,0,0,1.5.251,2.351,2.351,0,0,1,1.379.292.707.707,0,0,1,0,1.044l-.292.167H-79.517l-.292-.167a.955.955,0,0,1-.209-.543.919.919,0,0,1,.209-.5,2.256,2.256,0,0,1,1.337-.292,7.87,7.87,0,0,0,.94-.1,1.4,1.4,0,0,0,.5-.188.918.918,0,0,0,.313-.418q.125-.376.125-12.073t-.125-12.073a.887.887,0,0,0-.5-.543,5.6,5.6,0,0,0-1.253-.209,2.034,2.034,0,0,1-1.337-.292.639.639,0,0,1-.209-.46A.955.955,0,0,1-79.81-27.034Zm8.731,1.838.292-.543H-75.34q0,.042.209.668.125.5.125,12.157,0,11.572-.125,12.157l-.209.627h4.47l-.209-.334q-.167-.585-.167-12.282V-24.611Zm8.1,4.094a6.558,6.558,0,0,0-1.191-3.614,4.02,4.02,0,0,0-3.07-.982,3.014,3.014,0,0,0-1.211.167,1.7,1.7,0,0,0-1.211.919,56.268,56.268,0,0,0-.125,5.932v5.765h1.671A14.209,14.209,0,0,0-65.94-13a3.833,3.833,0,0,0,2.757-3.342,13.093,13.093,0,0,0,.292-3.133Q-62.891-20.1-62.974-21.1Zm2.507-3.426q-.125-.084-1.5-.668l-.627-.167.251.752a10.218,10.218,0,0,1,.961,4.8q0,4.261-1.211,6.057a.9.9,0,0,0-.209.46h.042a8.592,8.592,0,0,0,2.089-.752q3.467-1.755,3.467-5.1A6.03,6.03,0,0,0-58.8-23.4,8.346,8.346,0,0,0-60.468-24.527ZM-41.251,11.4q0,.376-.752.376h-.543l-1.17-1q-7.52-6.851-7.52-19.885a33.686,33.686,0,0,1,1.211-9.316A22.531,22.531,0,0,1-43.716-29q.292-.251.668-.564t.5-.439H-42a.991.991,0,0,1,.627.125.361.361,0,0,1,.125.251q0,.167-.46.627-6.475,6.851-6.475,19.885t6.475,19.885Q-41.251,11.232-41.251,11.4Zm4.094-10.068q-.668,0-.668-.46A3.512,3.512,0,0,1-37.7.2a1.487,1.487,0,0,1,.292-.668,2.3,2.3,0,0,1,.794-.125,8.041,8.041,0,0,0,5.64-2.172q.418-.418,4.846-5.285t4.386-4.909Q-26.3-24.569-26.5-24.778q-.376-.46-2.632-.5h-1.17a.993.993,0,0,1-.272-.355,3.792,3.792,0,0,1,.1-.773,1.913,1.913,0,0,1,.418-.794h.585q1.42.084,5.055.084.919,0,2.674-.021t2.59-.021a1.469,1.469,0,0,1,.543.063q.125.063.125.313a1.945,1.945,0,0,1-.292,1.3q-.084.209-.71.209a4.137,4.137,0,0,0-2.172.668l-.084.042q1.88,4.6,3.217,8.1l2.214-2.465q1.963-2.131,3.091-3.426a11.024,11.024,0,0,0,1.128-1.3,1,1,0,0,0,.167-.668q-.125-.627-1-.877a2.348,2.348,0,0,1-.543-.084.746.746,0,0,1-.543-.167q-.167-.167,0-.961A1.913,1.913,0,0,1-13.6-27.2h.5q.961.125,5.013.125A33.361,33.361,0,0,0-3.945-27.2h.334q.292.292.292.46a2.483,2.483,0,0,1-.188.836,2.057,2.057,0,0,1-.313.627h-.668a8.609,8.609,0,0,0-5.264,1.8,3.339,3.339,0,0,1-.46.418.746.746,0,0,1-.209.209q-.167.167-3.76,4.136l-3.634,4.01q0,.042,1.316,3.363T-13.8-4.6a35.143,35.143,0,0,0,1.546,3.593A5.035,5.035,0,0,0-9.71-.59q1.462,0,1.462.334a4.652,4.652,0,0,1-.292,1.337q-.125.209-.668.209-.627,0-2.214-.021t-2.883-.021q-1.253,0-2.966.021t-2.381.021q-.543,0-.668-.209A1.571,1.571,0,0,1-20.28.287a1.82,1.82,0,0,1,.292-.731,1.329,1.329,0,0,1,.627-.146,5.789,5.789,0,0,0,1.587-.334q.71-.334.71-.418-.042,0-1.963-4.888l-1.963-4.93q-.042,0-3.948,4.324t-3.948,4.407a1.039,1.039,0,0,0-.334.752q0,.794,1.211,1.044.042,0,.251.021t.251.021q.5,0,.5.418a2.922,2.922,0,0,1-.125.71,1.414,1.414,0,0,1-.251.648,1.153,1.153,0,0,1-.627.1q-.794,0-2.465-.021t-2.507-.021Q-36.238,1.248-37.157,1.332ZM10.651-5.461V-8.48H34.8v3.019Zm0-7.547v-3.019H34.8v3.019ZM55.5-27.2q.042,0,3.029-.23t3.029-.23q.5,0,.5.334,0,.292-2.089,8.731-2.089,8.272-2.089,8.564.794-.5,1.3-.856a7.926,7.926,0,0,0,.794-.627q.292-.272,1.42-1.358A25.918,25.918,0,0,1,64.9-16.005a5.729,5.729,0,0,1,3.175-1.128,2.5,2.5,0,0,1,1.984.836,3.241,3.241,0,0,1,.731,2.214,3.947,3.947,0,0,1-.71,2.444,2.366,2.366,0,0,1-2.005.94,1.919,1.919,0,0,1-1.316-.46,1.536,1.536,0,0,1-.522-1.211,2.454,2.454,0,0,1,.71-1.775A2.779,2.779,0,0,1,68.615-15l.292-.084a1.444,1.444,0,0,0-1-.5,5.962,5.962,0,0,0-3.342,1.42,32.067,32.067,0,0,0-2.423,2.256Q60.929-10.7,59.3-9.321q1.963.46,2.674.71a4.7,4.7,0,0,1,2.674,2.172,3.592,3.592,0,0,1,.376,1.629,11.43,11.43,0,0,1-.23,1.8,12.291,12.291,0,0,0-.23,1.587q0,1.671,1.128,1.671A1.916,1.916,0,0,0,67.07-.381a10,10,0,0,0,1.88-4.345q.084-.334.836-.334a1.383,1.383,0,0,1,.668.084q.251.167.042.877Q69.367-.3,67.613,1.039a3.51,3.51,0,0,1-2.047.752A4.15,4.15,0,0,1,62.5.642a4.15,4.15,0,0,1-1.149-3.07,8.362,8.362,0,0,1,.125-1.17A8.36,8.36,0,0,0,61.6-4.726a2.307,2.307,0,0,0-.251-1.044A3.666,3.666,0,0,0,59.3-7.4a7.344,7.344,0,0,0-1.922-.46h-.084q-.543,2.047-1.023,3.969t-.71,2.883q-.23.961-.4,1.462a2.1,2.1,0,0,1-.752.94,1.944,1.944,0,0,1-1.17.4,1.778,1.778,0,0,1-.982-.313.94.94,0,0,1-.48-.815q0-.418,1.546-6.684t3.05-12.324L57.921-24.4q.084-.585-.272-.731a3.43,3.43,0,0,0-1.191-.146H56a2.074,2.074,0,0,1-1-.125q-.251-.209-.042-1a1.487,1.487,0,0,1,.292-.668A.361.361,0,0,1,55.5-27.2Zm18.548-2.757L74.213-30h.919l1.17,1q7.52,6.851,7.52,19.885A32.959,32.959,0,0,1,82.61.162,22.532,22.532,0,0,1,76.3,10.773q-.292.251-.668.564t-.5.439h-.5a1.566,1.566,0,0,1-.648-.084q-.146-.084-.146-.418.042-.042.46-.543,6.475-6.726,6.475-19.843T74.3-28.956q-.418-.5-.46-.543A.491.491,0,0,1,74.046-29.958Z" transform="translate(570.612 543.982) rotate(-90)" fill="#151515"/>
    <path id="Path_127" data-name="Path 127" d="M-6.422-35.516q.052,0,3.77-.286t3.77-.286q.624,0,.624.416,0,.364-2.6,10.868-2.6,10.3-2.6,10.66.988-.624,1.612-1.066a9.865,9.865,0,0,0,.988-.78q.364-.338,1.768-1.69a32.26,32.26,0,0,1,4.368-3.9,7.131,7.131,0,0,1,3.952-1.4,3.114,3.114,0,0,1,2.47,1.04,4.035,4.035,0,0,1,.91,2.756,4.912,4.912,0,0,1-.884,3.042,2.946,2.946,0,0,1-2.5,1.17,2.389,2.389,0,0,1-1.638-.572,1.911,1.911,0,0,1-.65-1.508,3.054,3.054,0,0,1,.884-2.21,3.459,3.459,0,0,1,2.08-1.066l.364-.1a1.8,1.8,0,0,0-1.248-.624,7.421,7.421,0,0,0-4.16,1.768,39.914,39.914,0,0,0-3.016,2.808Q.338-14.976-1.69-13.26q2.444.572,3.328.884a5.847,5.847,0,0,1,3.328,2.7,4.471,4.471,0,0,1,.468,2.028,14.228,14.228,0,0,1-.286,2.236,15.3,15.3,0,0,0-.286,1.976q0,2.08,1.4,2.08a2.385,2.385,0,0,0,1.716-.78q1.3-1.3,2.34-5.408.1-.416,1.04-.416a1.721,1.721,0,0,1,.832.1q.312.208.052,1.092-1.4,4.732-3.588,6.4A4.369,4.369,0,0,1,6.11.572,5.165,5.165,0,0,1,2.288-.858,5.165,5.165,0,0,1,.858-4.68a10.408,10.408,0,0,1,.156-1.456,10.405,10.405,0,0,0,.156-1.4,2.872,2.872,0,0,0-.312-1.3A4.563,4.563,0,0,0-1.69-10.868a9.142,9.142,0,0,0-2.392-.572h-.1Q-4.862-8.892-5.46-6.5t-.884,3.588q-.286,1.2-.494,1.82A2.611,2.611,0,0,1-7.774.078,2.42,2.42,0,0,1-9.23.572a2.213,2.213,0,0,1-1.222-.39,1.17,1.17,0,0,1-.6-1.014q0-.52,1.924-8.32t3.8-15.34l1.924-7.54q.1-.728-.338-.91a4.27,4.27,0,0,0-1.482-.182H-5.8a2.582,2.582,0,0,1-1.248-.156q-.312-.26-.052-1.248a1.851,1.851,0,0,1,.364-.832A.449.449,0,0,1-6.422-35.516Z" transform="translate(1263 831)" fill="#151515"/>
  </g>
</svg>
