<svg xmlns="http://www.w3.org/2000/svg" width="1520" height="500" viewBox="0 0 1520 500">
  <g id="Group_6" data-name="Group 6" transform="translate(-200 -290)">
    <rect id="Rectangle_1" data-name="Rectangle 1" width="1520" height="500" transform="translate(200 290)" fill="#fafafa"/>
    <path id="Union_1" data-name="Union 1" d="M-1653,377.26A209.077,209.077,0,0,1-1780,420c-115.979,0-210-94.02-210-210S-1895.98,0-1780,0a209.078,209.078,0,0,1,127,42.74A209.076,209.076,0,0,1-1526,0c115.98,0,210,94.02,210,210s-94.02,210-210,210A209.076,209.076,0,0,1-1653,377.26Z" transform="translate(2613 330)" fill="#2196f3"/>
    <g id="Group_1" data-name="Group 1" transform="translate(190 40)">
      <g id="Ellipse_1" data-name="Ellipse 1" transform="translate(433 290)" fill="none" stroke="#151515" stroke-width="18">
        <circle cx="210" cy="210" r="210" stroke="none"/>
        <circle cx="210" cy="210" r="201" fill="none"/>
      </g>
      <g id="Ellipse_2" data-name="Ellipse 2" transform="translate(687 290)" fill="none" stroke="#151515" stroke-width="18">
        <circle cx="210" cy="210" r="210" stroke="none"/>
        <circle cx="210" cy="210" r="201" fill="none"/>
      </g>
    </g>
  </g>
</svg>
