<svg xmlns="http://www.w3.org/2000/svg" width="1132" height="148" viewBox="0 0 1132 148">
  <g id="Group_89" data-name="Group 89" transform="translate(-394 -176)">
    <rect id="Rectangle_1" data-name="Rectangle 1" width="1132" height="148" transform="translate(394 176)" fill="#fafafa"/>
    <g id="Rectangle_282" data-name="Rectangle 282" transform="translate(490 222)" fill="none" stroke="#151515" stroke-width="4">
      <rect width="56" height="56" stroke="none"/>
      <rect x="2" y="2" width="52" height="52" fill="none"/>
    </g>
    <g id="Rectangle_282-2" data-name="Rectangle 282" transform="translate(542 222)" fill="none" stroke="#151515" stroke-width="4">
      <rect width="56" height="56" stroke="none"/>
      <rect x="2" y="2" width="52" height="52" fill="none"/>
    </g>
    <g id="Rectangle_282-3" data-name="Rectangle 282" transform="translate(594 222)" fill="none" stroke="#151515" stroke-width="4">
      <rect width="56" height="56" stroke="none"/>
      <rect x="2" y="2" width="52" height="52" fill="none"/>
    </g>
    <g id="Rectangle_282-4" data-name="Rectangle 282" transform="translate(646 222)" fill="none" stroke="#151515" stroke-width="4">
      <rect width="56" height="56" stroke="none"/>
      <rect x="2" y="2" width="52" height="52" fill="none"/>
    </g>
    <g id="Rectangle_282-5" data-name="Rectangle 282" transform="translate(698 222)" fill="#a3d6ff" stroke="#151515" stroke-width="4">
      <rect width="56" height="56" stroke="none"/>
      <rect x="2" y="2" width="52" height="52" fill="none"/>
    </g>
    <g id="Rectangle_282-6" data-name="Rectangle 282" transform="translate(750 222)" fill="#a3d6ff" stroke="#151515" stroke-width="4">
      <rect width="56" height="56" stroke="none"/>
      <rect x="2" y="2" width="52" height="52" fill="none"/>
    </g>
    <g id="Rectangle_282-7" data-name="Rectangle 282" transform="translate(802 222)" fill="#a3d6ff" stroke="#151515" stroke-width="4">
      <rect width="56" height="56" stroke="none"/>
      <rect x="2" y="2" width="52" height="52" fill="none"/>
    </g>
    <g id="Rectangle_282-8" data-name="Rectangle 282" transform="translate(854 222)" fill="#a3d6ff" stroke="#151515" stroke-width="4">
      <rect width="56" height="56" stroke="none"/>
      <rect x="2" y="2" width="52" height="52" fill="none"/>
    </g>
    <g id="Rectangle_282-9" data-name="Rectangle 282" transform="translate(906 222)" fill="#a3d6ff" stroke="#151515" stroke-width="4">
      <rect width="56" height="56" stroke="none"/>
      <rect x="2" y="2" width="52" height="52" fill="none"/>
    </g>
    <g id="Rectangle_282-10" data-name="Rectangle 282" transform="translate(958 222)" fill="#a3d6ff" stroke="#151515" stroke-width="4">
      <rect width="56" height="56" stroke="none"/>
      <rect x="2" y="2" width="52" height="52" fill="none"/>
    </g>
    <g id="Rectangle_282-11" data-name="Rectangle 282" transform="translate(1010 222)" fill="#a3d6ff" stroke="#151515" stroke-width="4">
      <rect width="56" height="56" stroke="none"/>
      <rect x="2" y="2" width="52" height="52" fill="none"/>
    </g>
    <g id="Rectangle_282-12" data-name="Rectangle 282" transform="translate(1062 222)" fill="#a3d6ff" stroke="#151515" stroke-width="4">
      <rect width="56" height="56" stroke="none"/>
      <rect x="2" y="2" width="52" height="52" fill="none"/>
    </g>
    <g id="Rectangle_282-13" data-name="Rectangle 282" transform="translate(1114 222)" fill="#a3d6ff" stroke="#151515" stroke-width="4">
      <rect width="56" height="56" stroke="none"/>
      <rect x="2" y="2" width="52" height="52" fill="none"/>
    </g>
    <g id="Rectangle_282-14" data-name="Rectangle 282" transform="translate(1166 222)" fill="#a3d6ff" stroke="#151515" stroke-width="4">
      <rect width="56" height="56" stroke="none"/>
      <rect x="2" y="2" width="52" height="52" fill="none"/>
    </g>
    <g id="Rectangle_282-15" data-name="Rectangle 282" transform="translate(1218 222)" fill="none" stroke="#151515" stroke-width="4">
      <rect width="56" height="56" stroke="none"/>
      <rect x="2" y="2" width="52" height="52" fill="none"/>
    </g>
    <g id="Rectangle_282-16" data-name="Rectangle 282" transform="translate(1270 222)" fill="none" stroke="#151515" stroke-width="4">
      <rect width="56" height="56" stroke="none"/>
      <rect x="2" y="2" width="52" height="52" fill="none"/>
    </g>
    <g id="Rectangle_282-17" data-name="Rectangle 282" transform="translate(1322 222)" fill="none" stroke="#151515" stroke-width="4">
      <rect width="56" height="56" stroke="none"/>
      <rect x="2" y="2" width="52" height="52" fill="none"/>
    </g>
    <g id="Rectangle_282-18" data-name="Rectangle 282" transform="translate(1374 222)" fill="none" stroke="#151515" stroke-width="4">
      <rect width="56" height="56" stroke="none"/>
      <rect x="2" y="2" width="52" height="52" fill="none"/>
    </g>
    <rect id="Rectangle_283" data-name="Rectangle 283" width="40" height="100" transform="translate(478 200)" fill="#fafafa"/>
    <rect id="Rectangle_284" data-name="Rectangle 284" width="40" height="100" transform="translate(1402 200)" fill="#fafafa"/>
    <path id="Path_191" data-name="Path 191" d="M-6.63.312c3.328,0,6.24-2.418,6.24-6.6,0-4.238-2.912-6.656-6.24-6.656s-6.24,2.418-6.24,6.656C-12.87-2.106-9.958.312-6.63.312Zm0-1.768c-2.418,0-4.03-1.95-4.03-4.836,0-2.912,1.612-4.888,4.03-4.888S-2.6-9.2-2.6-6.292C-2.6-3.406-4.212-1.456-6.63-1.456ZM1.4,0H12.532V-1.768H8.216v-14.82H6.63a12.656,12.656,0,0,1-4.108,1.222v1.378H6.084v12.22H1.4Z" transform="translate(726 260)" fill="#151515"/>
    <path id="Path_192" data-name="Path 192" d="M-6.63.312c3.328,0,6.24-2.418,6.24-6.6,0-4.238-2.912-6.656-6.24-6.656s-6.24,2.418-6.24,6.656C-12.87-2.106-9.958.312-6.63.312Zm0-1.768c-2.418,0-4.03-1.95-4.03-4.836,0-2.912,1.612-4.888,4.03-4.888S-2.6-9.2-2.6-6.292C-2.6-3.406-4.212-1.456-6.63-1.456ZM.728,0H12.4V-1.846H6.942c-.988,0-2.054.078-3.094.156,4.524-4.108,7.644-7.2,7.644-10.322,0-2.938-2.08-4.888-5.408-4.888a7.3,7.3,0,0,0-5.46,2.522l1.222,1.222a5.644,5.644,0,0,1,3.978-2c2.444,0,3.614,1.352,3.614,3.25,0,2.756-3.094,5.668-8.71,10.634Z" transform="translate(778 260)" fill="#151515"/>
    <path id="Path_193" data-name="Path 193" d="M-6.63.312c3.328,0,6.24-2.418,6.24-6.6,0-4.238-2.912-6.656-6.24-6.656s-6.24,2.418-6.24,6.656C-12.87-2.106-9.958.312-6.63.312Zm0-1.768c-2.418,0-4.03-1.95-4.03-4.836,0-2.912,1.612-4.888,4.03-4.888S-2.6-9.2-2.6-6.292C-2.6-3.406-4.212-1.456-6.63-1.456ZM6.292.312c3.3,0,6.006-1.794,6.006-4.732,0-2.288-1.9-3.744-4.108-4.212v-.1c2.054-.676,3.536-1.95,3.536-3.952,0-2.678-2.366-4.212-5.486-4.212a8.043,8.043,0,0,0-5.3,2.08L2.08-13.468a6.163,6.163,0,0,1,4.082-1.69c2.028,0,3.38,1.014,3.38,2.626,0,1.742-1.508,3.094-5.434,3.094V-7.8c4.368,0,6.032,1.326,6.032,3.3,0,1.846-1.716,3.042-3.978,3.042A6.723,6.723,0,0,1,1.4-3.432L.312-2.028A8.132,8.132,0,0,0,6.292.312Z" transform="translate(830 260)" fill="#151515"/>
    <path id="Path_194" data-name="Path 194" d="M-6.63.312c3.328,0,6.24-2.418,6.24-6.6,0-4.238-2.912-6.656-6.24-6.656s-6.24,2.418-6.24,6.656C-12.87-2.106-9.958.312-6.63.312Zm0-1.768c-2.418,0-4.03-1.95-4.03-4.836,0-2.912,1.612-4.888,4.03-4.888S-2.6-9.2-2.6-6.292C-2.6-3.406-4.212-1.456-6.63-1.456ZM8.4,0h2.028V-4.576H13V-6.292H10.426v-10.3H8.138L-.156-6.006v1.43H8.4ZM2.21-6.292l4.5-5.668c.546-.806,1.17-1.612,1.69-2.418h.13c-.052.91-.1,2.028-.13,2.938v5.148Z" transform="translate(882 260)" fill="#151515"/>
    <path id="Path_195" data-name="Path 195" d="M-6.63.312c3.328,0,6.24-2.418,6.24-6.6,0-4.238-2.912-6.656-6.24-6.656s-6.24,2.418-6.24,6.656C-12.87-2.106-9.958.312-6.63.312Zm0-1.768c-2.418,0-4.03-1.95-4.03-4.836,0-2.912,1.612-4.888,4.03-4.888S-2.6-9.2-2.6-6.292C-2.6-3.406-4.212-1.456-6.63-1.456ZM6.266.312C9.438.312,12.4-1.716,12.4-5.3S9.88-10.5,6.708-10.5a7.02,7.02,0,0,0-3.068.676l.442-4.914H11.57v-1.846H2.184L1.638-8.606l1.144.728a6.211,6.211,0,0,1,3.38-1.014c2.47,0,4.082,1.352,4.082,3.64,0,2.314-1.872,3.8-4.212,3.8a6.51,6.51,0,0,1-4.68-1.9L.286-1.95A8.338,8.338,0,0,0,6.266.312Z" transform="translate(934 260)" fill="#151515"/>
    <path id="Path_196" data-name="Path 196" d="M-6.63.312c3.328,0,6.24-2.418,6.24-6.6,0-4.238-2.912-6.656-6.24-6.656s-6.24,2.418-6.24,6.656C-12.87-2.106-9.958.312-6.63.312Zm0-1.768c-2.418,0-4.03-1.95-4.03-4.836,0-2.912,1.612-4.888,4.03-4.888S-2.6-9.2-2.6-6.292C-2.6-3.406-4.212-1.456-6.63-1.456ZM7.176.312a5.35,5.35,0,0,0,5.538-5.33c0-3.406-2.106-5.122-5.174-5.122A6.932,6.932,0,0,0,2.834-7.982c.1-5.33,2.418-7.124,5.07-7.124a4.868,4.868,0,0,1,3.3,1.3l1.2-1.326A6.59,6.59,0,0,0,7.774-16.9C4.16-16.9.832-14.326.832-7.67.832-2.34,3.562.312,7.176.312Zm0-1.69c-2.418,0-3.952-1.716-4.264-4.914A5.653,5.653,0,0,1,7.15-8.528a3.175,3.175,0,0,1,3.536,3.51A3.45,3.45,0,0,1,7.176-1.378Z" transform="translate(986 260)" fill="#151515"/>
    <path id="Path_197" data-name="Path 197" d="M-6.63.312c3.328,0,6.24-2.418,6.24-6.6,0-4.238-2.912-6.656-6.24-6.656s-6.24,2.418-6.24,6.656C-12.87-2.106-9.958.312-6.63.312Zm0-1.768c-2.418,0-4.03-1.95-4.03-4.836,0-2.912,1.612-4.888,4.03-4.888S-2.6-9.2-2.6-6.292C-2.6-3.406-4.212-1.456-6.63-1.456ZM4.706,0H6.942c.234-6.5,1.326-10.244,5.72-15.262v-1.326H.65v1.846h9.568C6.422-10.088,4.992-6.292,4.706,0Z" transform="translate(1038 260)" fill="#151515"/>
    <path id="Path_198" data-name="Path 198" d="M-6.63.312c3.328,0,6.24-2.418,6.24-6.6,0-4.238-2.912-6.656-6.24-6.656s-6.24,2.418-6.24,6.656C-12.87-2.106-9.958.312-6.63.312Zm0-1.768c-2.418,0-4.03-1.95-4.03-4.836,0-2.912,1.612-4.888,4.03-4.888S-2.6-9.2-2.6-6.292C-2.6-3.406-4.212-1.456-6.63-1.456ZM6.682.312c3.8,0,5.954-1.95,5.954-4.42,0-2.366-1.43-3.406-3.25-4.316v-.1a5.211,5.211,0,0,0,2.522-3.952c0-2.574-1.9-4.42-5.148-4.42-2.964,0-5.122,1.716-5.122,4.264A4.658,4.658,0,0,0,4.16-8.762v.1C2.392-7.826.6-6.526.6-4.238.6-1.612,2.938.312,6.682.312Zm1.3-9.36c-2.47-.78-4.394-1.612-4.394-3.588,0-1.612,1.274-2.678,3.12-2.678,2.184,0,3.354,1.3,3.354,2.938A4.244,4.244,0,0,1,7.982-9.048ZM6.734-1.274c-2.548,0-4.186-1.326-4.186-3.172,0-1.664,1.222-2.73,2.834-3.614,2.912.988,5.2,1.56,5.2,3.874C10.582-2.47,9.2-1.274,6.734-1.274Z" transform="translate(1090 260)" fill="#151515"/>
    <path id="Path_199" data-name="Path 199" d="M-6.63.312c3.328,0,6.24-2.418,6.24-6.6,0-4.238-2.912-6.656-6.24-6.656s-6.24,2.418-6.24,6.656C-12.87-2.106-9.958.312-6.63.312Zm0-1.768c-2.418,0-4.03-1.95-4.03-4.836,0-2.912,1.612-4.888,4.03-4.888S-2.6-9.2-2.6-6.292C-2.6-3.406-4.212-1.456-6.63-1.456ZM6.136-8.06C3.822-8.06,2.6-9.308,2.6-11.57a3.45,3.45,0,0,1,3.51-3.64c2.444,0,3.926,1.716,4.264,4.94A5.783,5.783,0,0,1,6.136-8.06ZM5.512.312c3.588,0,6.942-2.574,6.942-9.23,0-5.33-2.756-7.982-6.37-7.982A5.344,5.344,0,0,0,.572-11.57c0,3.406,2.08,5.122,5.148,5.122A6.849,6.849,0,0,0,10.426-8.58c-.1,5.3-2.418,7.124-5.044,7.124a4.793,4.793,0,0,1-3.3-1.326L.884-1.43A6.694,6.694,0,0,0,5.512.312Z" transform="translate(1142 260)" fill="#151515"/>
    <path id="Path_200" data-name="Path 200" d="M-13.26.312c3.328,0,6.24-2.418,6.24-6.6,0-4.238-2.912-6.656-6.24-6.656S-19.5-10.53-19.5-6.292C-19.5-2.106-16.588.312-13.26.312Zm0-1.768c-2.418,0-4.03-1.95-4.03-4.836,0-2.912,1.612-4.888,4.03-4.888S-9.23-9.2-9.23-6.292C-9.23-3.406-10.842-1.456-13.26-1.456ZM-5.226,0H5.9V-1.768H1.586v-14.82H0a12.656,12.656,0,0,1-4.108,1.222v1.378H-.546v12.22h-4.68ZM13.26.312c3.692,0,5.954-3.146,5.954-8.658,0-5.564-2.262-8.554-5.954-8.554S7.306-13.91,7.306-8.346C7.306-2.834,9.568.312,13.26.312Zm0-1.716c-2.314,0-3.952-2.184-3.952-6.942,0-4.784,1.638-6.838,3.952-6.838s3.952,2.054,3.952,6.838C17.212-3.588,15.574-1.4,13.26-1.4Zm0-5.382a1.622,1.622,0,0,0,1.612-1.742,1.614,1.614,0,0,0-1.612-1.716,1.614,1.614,0,0,0-1.612,1.716A1.622,1.622,0,0,0,13.26-6.786Z" transform="translate(1194 260)" fill="#151515"/>
  </g>
</svg>
