<svg xmlns="http://www.w3.org/2000/svg" width="1132" height="474" viewBox="0 0 1132 474">
  <g id="Group_72" data-name="Group 72" transform="translate(-394 -303)">
    <rect id="Rectangle_1" data-name="Rectangle 1" width="1132" height="474" transform="translate(394 303)" fill="#fafafa"/>
    <path id="Path_104" data-name="Path 104" d="M4625.951,598.97l-39.065,114.664H4664.4Z" transform="translate(-3981.886 15)" fill="none" stroke="#151515" stroke-width="4"/>
    <path id="Path_105" data-name="Path 105" d="M4625.951,598.97l-39.065,114.664H4664.4Z" transform="translate(-3889.886 -63)" fill="none" stroke="#151515" stroke-width="4"/>
    <path id="Path_106" data-name="Path 106" d="M4625.951,598.97l-39.065,114.664H4664.4Z" transform="translate(-3735.886 -130)" fill="none" stroke="#151515" stroke-width="4"/>
    <path id="Path_107" data-name="Path 107" d="M4625.951,598.97l-39.065,114.664H4664.4Z" transform="translate(-4112.886 15)" fill="none" stroke="#151515" stroke-width="4"/>
    <line id="Line_11" data-name="Line 11" x1="269" y2="242" transform="translate(513.614 370.5)" fill="none" stroke="#151515" stroke-width="4"/>
    <line id="Line_13" data-name="Line 13" x2="108" y2="97" transform="translate(781.614 370.5)" fill="none" stroke="#151515" stroke-width="4"/>
    <line id="Line_15" data-name="Line 15" x2="67" y2="60" transform="translate(668.614 474.5)" fill="none" stroke="#151515" stroke-width="4"/>
    <line id="Line_16" data-name="Line 16" x2="67" y2="60" transform="translate(576.614 552.5)" fill="none" stroke="#151515" stroke-width="4"/>
    <g id="Ellipse_76" data-name="Ellipse 76" transform="translate(559.114 534)" fill="#fafafa" stroke="#151515" stroke-width="4">
      <circle cx="19" cy="19" r="19" stroke="none"/>
      <circle cx="19" cy="19" r="17" fill="none"/>
    </g>
    <g id="Ellipse_75" data-name="Ellipse 75" transform="translate(650.114 453)" fill="#fafafa" stroke="#151515" stroke-width="4">
      <circle cx="19" cy="19" r="19" stroke="none"/>
      <circle cx="19" cy="19" r="17" fill="none"/>
    </g>
    <g id="Ellipse_74" data-name="Ellipse 74" transform="translate(763.114 351)" fill="#fafafa" stroke="#151515" stroke-width="4">
      <circle cx="19" cy="19" r="19" stroke="none"/>
      <circle cx="19" cy="19" r="17" fill="none"/>
    </g>
    <path id="Path_114" data-name="Path 114" d="M-1.827,0A24.6,24.6,0,0,0-4.7-.087,17.375,17.375,0,0,0-7.163,0h-.174V-1.334h.406a4.6,4.6,0,0,0,3.016-1.1Q-3.8-2.552-2.436-4.35L-1.1-6.09-2.784-8.352Q-4.5-10.7-4.553-10.759a1.406,1.406,0,0,0-.783-.348q-.174,0-1.044-.058h-.812V-12.5h.2q1.044.058,2.987.058h1.276A11.868,11.868,0,0,0-1.015-12.5h.232v1.334q-1.044.145-1.044.464A11.026,11.026,0,0,0-.914-9.338,18.026,18.026,0,0,0,.232-7.83l.725-.986a13.43,13.43,0,0,0,.812-1.1.918.918,0,0,0,.116-.464.712.712,0,0,0-.348-.667q-.058-.029-.159-.072a.472.472,0,0,0-.131-.043H1.1V-12.5h.2a23.633,23.633,0,0,0,2.871.087A16.569,16.569,0,0,0,6.641-12.5h.174v1.334h-.2a4.977,4.977,0,0,0-2.349.493,2.625,2.625,0,0,0-.754.522A14.676,14.676,0,0,0,2.494-8.932q-.2.29-.623.841t-.478.638l-.464.609,1.8,2.465q1.885,2.552,1.943,2.61a3.375,3.375,0,0,0,2.146.435h.493V0H7.134A21.041,21.041,0,0,0,4.35-.087,31.079,31.079,0,0,0,1.16,0H.9V-1.334H.986a1.416,1.416,0,0,0,.638-.16q.319-.16.319-.334,0-.029-2.349-3.248-.029.029-.913,1.218l-.971,1.305a.863.863,0,0,0-.116.435.778.778,0,0,0,.218.551.675.675,0,0,0,.507.232q.058,0,.058.667V0Z" transform="translate(578.114 559)" fill="#151515"/>
    <path id="Path_117" data-name="Path 117" d="M-6.7,2.291a1.54,1.54,0,0,1,1.044-.377,1.353,1.353,0,0,1,1.015.421,1.426,1.426,0,0,1,.406,1.029,1.474,1.474,0,0,1-.232.783,1.108,1.108,0,0,1-.551.493q-.116.058,0,.116a1.184,1.184,0,0,0,.58.116A2.114,2.114,0,0,0-3.6,4.7,2.906,2.906,0,0,0-2.2,3.538,12.317,12.317,0,0,0-1.131,1.247L-.638,0-2.726-5.307-4.9-10.73q-.2-.435-1.508-.435h-.7V-12.5h.2a21.492,21.492,0,0,0,2.784.087A31,31,0,0,0-.9-12.5h.232v1.334H-.928q-1.363,0-1.363.493L.638-3.248q0-.029,1.334-3.335L3.248-9.889v-.261a.894.894,0,0,0-.348-.74,1.358,1.358,0,0,0-.87-.276H1.943V-12.5h.174q.261.058,2.465.058,1.6,0,2.349-.058h.145v1.334H6.757a2.522,2.522,0,0,0-2.175,1.16q-.058.058-1.276,3.2T.725-.247A31.629,31.629,0,0,1-1.073,3.8a4.4,4.4,0,0,1-2.7,2.088,3.932,3.932,0,0,1-.609.029,2.771,2.771,0,0,1-1.957-.71,2.393,2.393,0,0,1-.768-1.842A1.451,1.451,0,0,1-6.7,2.291Z" transform="translate(670.114 477)" fill="#151515"/>
    <path id="Path_118" data-name="Path 118" d="M-5.22-7.627q0-.058.145-2.305t.174-2.335V-12.5h9.86a.627.627,0,0,1,.174.464,1.115,1.115,0,0,1-.029.377l-.493.7q-.493.667-1.465,2T1.247-6.38l-3.8,5.191,1.392.029a23.652,23.652,0,0,0,2.494-.087,2.856,2.856,0,0,0,1.827-.986,6.591,6.591,0,0,0,.812-3.132l.058-.464a2.2,2.2,0,0,1,.58-.029h.58v.174q0,.029-.232,2.755T4.7-.174V0H-.377L-5.452-.029l-.087-.058a.792.792,0,0,1-.087-.406A1.275,1.275,0,0,1-5.6-.9q.058-.058,3.843-5.235t3.842-5.292H.406a12.469,12.469,0,0,0-2.436.174,2.205,2.205,0,0,0-1.131.609,4.987,4.987,0,0,0-.9,2.987v.261H-5.22Z" transform="translate(782.114 377)" fill="#151515"/>
    <path id="Path_113" data-name="Path 113" d="M-2.784-9.309a1.445,1.445,0,0,1-1.1.464,1.445,1.445,0,0,1-1.1-.464,1.557,1.557,0,0,1-.435-1.1,2.33,2.33,0,0,1,.232-.928,2.6,2.6,0,0,1,1.508-1.218,7.7,7.7,0,0,1,2.755-.435,6.184,6.184,0,0,1,3.32.87A4.059,4.059,0,0,1,4.234-9.86a2.958,2.958,0,0,1,.159.913q.015.507.015,3.32,0,2.842.014,3.321a1.648,1.648,0,0,0,.16.74.6.6,0,0,0,.58.406.578.578,0,0,0,.551-.406,4.444,4.444,0,0,0,.174-1.6V-4.2h1.16v1.131A9.125,9.125,0,0,1,6.96-1.711,2.723,2.723,0,0,1,6-.363,2.628,2.628,0,0,1,4.35.174,1.878,1.878,0,0,1,3.06-.333a2.548,2.548,0,0,1-.769-1.232v-.116q-.087.087-.348.391T1.566-.87A5,5,0,0,1-1.74.319a5.613,5.613,0,0,1-2.7-.638A3.268,3.268,0,0,1-6.032-2a2.82,2.82,0,0,1-.232-1.1A3.465,3.465,0,0,1-5.133-5.6,5.374,5.374,0,0,1-3.48-6.7,14.186,14.186,0,0,1,1.566-7.772h.406V-8.41A4.438,4.438,0,0,0,1.8-9.86,2.883,2.883,0,0,0,.783-11.368a2.885,2.885,0,0,0-1.8-.551q-1.943,0-1.943.232a1.446,1.446,0,0,1,.638,1.276A1.505,1.505,0,0,1-2.784-9.309ZM1.972-5.075q0-1.682-.029-1.682a.323.323,0,0,0-.145.029q-3.973.261-5.075,2.349a2.662,2.662,0,0,0-.319,1.3,2.2,2.2,0,0,0,.7,1.653,2.379,2.379,0,0,0,1.711.667A2.983,2.983,0,0,0,.8-1.45,3.25,3.25,0,0,0,1.885-3.161,15.947,15.947,0,0,0,1.972-5.075Z" transform="translate(513.114 697)" fill="#151515"/>
    <path id="Path_115" data-name="Path 115" d="M-5.22-19.952q.493-.029,1.073-.072t.87-.073q.29-.029.319-.029h.087v4.379q0,4.408.029,4.408a1.152,1.152,0,0,0,.174-.145,5.983,5.983,0,0,1,3.973-1.334,4.888,4.888,0,0,1,.957.087A5.663,5.663,0,0,1,5.7-10.57,6.759,6.759,0,0,1,7.076-6.264a8.214,8.214,0,0,1-.058,1.015A6.865,6.865,0,0,1,4.973-1.291,5.718,5.718,0,0,1,.841.319,5.051,5.051,0,0,1-2.987-1.392l-.2-.2-.29.522q-.058.087-.16.275t-.174.319q-.073.131-.1.189l-.145.261L-4.64,0h-.58V-8.642q0-8.729-.029-8.845a.958.958,0,0,0-.421-.74,3.378,3.378,0,0,0-1.29-.247h-.522v-.667q0-.667.058-.667l.29-.029q.29-.029.841-.058Zm6.757,8.294q-.7-.087-.9-.087A3.816,3.816,0,0,0-2.61-10.063l-.174.232v6.989l.145.2A3.815,3.815,0,0,0-.406-.87a3.076,3.076,0,0,0,.9.116A3.37,3.37,0,0,0,3.422-2.32a4.008,4.008,0,0,0,.464-.957,9.244,9.244,0,0,0,.348-2.871,11.136,11.136,0,0,0-.348-3.219A3.269,3.269,0,0,0,1.537-11.658Z" transform="translate(644.114 697)" fill="#151515"/>
    <path id="Path_116" data-name="Path 116" d="M4.814-9.251a1.552,1.552,0,0,1-1.1.406,1.468,1.468,0,0,1-1.1-.449,1.507,1.507,0,0,1-.435-1.088,1.493,1.493,0,0,1,.435-1.1q.145-.145.13-.174t-.276-.058a9.367,9.367,0,0,0-1.421-.116,2.973,2.973,0,0,0-2.32.928Q-2.639-9.541-2.639-6.351a6.734,6.734,0,0,0,.9,3.741A3.669,3.669,0,0,0,1.45-.841a2.7,2.7,0,0,0,1.276-.29A3.375,3.375,0,0,0,4.408-3.393a.5.5,0,0,1,.145-.29,1.078,1.078,0,0,1,.464-.058h.406q.174.174.174.261a3.868,3.868,0,0,1-.725,1.711A4.691,4.691,0,0,1,.783.319,5.973,5.973,0,0,1-1.972-.348a6.393,6.393,0,0,1-3.451-4.93,8.269,8.269,0,0,1-.029-.928,9.214,9.214,0,0,1,.029-.957A6.7,6.7,0,0,1-3.045-11.6,6.028,6.028,0,0,1,.812-12.992q3.741,0,4.379,1.972a2.147,2.147,0,0,1,.087.667A1.445,1.445,0,0,1,4.814-9.251Z" transform="translate(736.114 619)" fill="#151515"/>
    <path id="Path_119" data-name="Path 119" d="M-.986-12.818A5.768,5.768,0,0,1,2.842-11.4v-2.958q0-3.016-.029-3.132a.958.958,0,0,0-.42-.74,3.378,3.378,0,0,0-1.29-.247H.58v-.667q0-.667.058-.667l.29-.029q.29-.029.841-.058l1.073-.058q.493-.029,1.073-.072t.87-.073q.29-.029.319-.029h.087v8.816q0,8.874.029,8.961a.986.986,0,0,0,.42.768,3.378,3.378,0,0,0,1.291.247h.522V0Q7.395,0,5.234.145T2.958.319h-.2v-1.6l-.232.2A5.689,5.689,0,0,1-1.247.319a5.318,5.318,0,0,1-3.6-1.363,6.8,6.8,0,0,1-2.2-4.176q-.029-.232-.029-1.015a6.54,6.54,0,0,1,1.8-4.7A5.728,5.728,0,0,1-.986-12.818Zm3.741,2.9A3.9,3.9,0,0,0-.522-11.745,3.565,3.565,0,0,0-3.045-10.7a3.8,3.8,0,0,0-.971,1.769,12.512,12.512,0,0,0-.247,2.813q0,3.219,1.218,4.408A2.972,2.972,0,0,0-.783-.754,3.751,3.751,0,0,0,1.16-1.305,4.1,4.1,0,0,0,2.639-2.813l.116-.174Z" transform="translate(890.114 552)" fill="#151515"/>
    <line id="Line_18" data-name="Line 18" x1="182" y2="164" transform="translate(1043.614 380.5)" fill="none" stroke="#151515" stroke-width="4"/>
    <line id="Line_19" data-name="Line 19" x2="182" y2="164" transform="translate(1225.614 380.5)" fill="none" stroke="#151515" stroke-width="4"/>
    <line id="Line_20" data-name="Line 20" x2="67" y2="60" transform="translate(1110.614 484.5)" fill="none" stroke="#151515" stroke-width="4"/>
    <line id="Line_21" data-name="Line 21" x1="67" y2="60" transform="translate(1272.614 484.5)" fill="none" stroke="#151515" stroke-width="4"/>
    <g id="Ellipse_77" data-name="Ellipse 77" transform="translate(1206.114 361)" fill="#fafafa" stroke="#151515" stroke-width="4">
      <circle cx="19" cy="19" r="19" stroke="none"/>
      <circle cx="19" cy="19" r="17" fill="none"/>
    </g>
    <path id="Path_122" data-name="Path 122" d="M-6.7,2.291a1.54,1.54,0,0,1,1.044-.377,1.353,1.353,0,0,1,1.015.421,1.426,1.426,0,0,1,.406,1.029,1.474,1.474,0,0,1-.232.783,1.108,1.108,0,0,1-.551.493q-.116.058,0,.116a1.184,1.184,0,0,0,.58.116A2.114,2.114,0,0,0-3.6,4.7,2.906,2.906,0,0,0-2.2,3.538,12.317,12.317,0,0,0-1.131,1.247L-.638,0-2.726-5.307-4.9-10.73q-.2-.435-1.508-.435h-.7V-12.5h.2a21.492,21.492,0,0,0,2.784.087A31,31,0,0,0-.9-12.5h.232v1.334H-.928q-1.363,0-1.363.493L.638-3.248q0-.029,1.334-3.335L3.248-9.889v-.261a.894.894,0,0,0-.348-.74,1.358,1.358,0,0,0-.87-.276H1.943V-12.5h.174q.261.058,2.465.058,1.6,0,2.349-.058h.145v1.334H6.757a2.522,2.522,0,0,0-2.175,1.16q-.058.058-1.276,3.2T.725-.247A31.629,31.629,0,0,1-1.073,3.8a4.4,4.4,0,0,1-2.7,2.088,3.932,3.932,0,0,1-.609.029,2.771,2.771,0,0,1-1.957-.71,2.393,2.393,0,0,1-.768-1.842A1.451,1.451,0,0,1-6.7,2.291Z" transform="translate(1226.114 385)" fill="#151515"/>
    <g id="Ellipse_78" data-name="Ellipse 78" transform="translate(1092.114 466)" fill="#fafafa" stroke="#151515" stroke-width="4">
      <circle cx="19" cy="19" r="19" stroke="none"/>
      <circle cx="19" cy="19" r="17" fill="none"/>
    </g>
    <path id="Path_120" data-name="Path 120" d="M-1.827,0A24.6,24.6,0,0,0-4.7-.087,17.375,17.375,0,0,0-7.163,0h-.174V-1.334h.406a4.6,4.6,0,0,0,3.016-1.1Q-3.8-2.552-2.436-4.35L-1.1-6.09-2.784-8.352Q-4.5-10.7-4.553-10.759a1.406,1.406,0,0,0-.783-.348q-.174,0-1.044-.058h-.812V-12.5h.2q1.044.058,2.987.058h1.276A11.868,11.868,0,0,0-1.015-12.5h.232v1.334q-1.044.145-1.044.464A11.026,11.026,0,0,0-.914-9.338,18.026,18.026,0,0,0,.232-7.83l.725-.986a13.43,13.43,0,0,0,.812-1.1.918.918,0,0,0,.116-.464.712.712,0,0,0-.348-.667q-.058-.029-.159-.072a.472.472,0,0,0-.131-.043H1.1V-12.5h.2a23.633,23.633,0,0,0,2.871.087A16.569,16.569,0,0,0,6.641-12.5h.174v1.334h-.2a4.977,4.977,0,0,0-2.349.493,2.625,2.625,0,0,0-.754.522A14.676,14.676,0,0,0,2.494-8.932q-.2.29-.623.841t-.478.638l-.464.609,1.8,2.465q1.885,2.552,1.943,2.61a3.375,3.375,0,0,0,2.146.435h.493V0H7.134A21.041,21.041,0,0,0,4.35-.087,31.079,31.079,0,0,0,1.16,0H.9V-1.334H.986a1.416,1.416,0,0,0,.638-.16q.319-.16.319-.334,0-.029-2.349-3.248-.029.029-.913,1.218l-.971,1.305a.863.863,0,0,0-.116.435.778.778,0,0,0,.218.551.675.675,0,0,0,.507.232q.058,0,.058.667V0Z" transform="translate(1111.114 491)" fill="#151515"/>
    <g id="Ellipse_79" data-name="Ellipse 79" transform="translate(1321.114 466)" fill="#fafafa" stroke="#151515" stroke-width="4">
      <circle cx="19" cy="19" r="19" stroke="none"/>
      <circle cx="19" cy="19" r="17" fill="none"/>
    </g>
    <path id="Path_123" data-name="Path 123" d="M-5.22-7.627q0-.058.145-2.305t.174-2.335V-12.5h9.86a.627.627,0,0,1,.174.464,1.115,1.115,0,0,1-.029.377l-.493.7q-.493.667-1.465,2T1.247-6.38l-3.8,5.191,1.392.029a23.652,23.652,0,0,0,2.494-.087,2.856,2.856,0,0,0,1.827-.986,6.591,6.591,0,0,0,.812-3.132l.058-.464a2.2,2.2,0,0,1,.58-.029h.58v.174q0,.029-.232,2.755T4.7-.174V0H-.377L-5.452-.029l-.087-.058a.792.792,0,0,1-.087-.406A1.275,1.275,0,0,1-5.6-.9q.058-.058,3.843-5.235t3.842-5.292H.406a12.469,12.469,0,0,0-2.436.174,2.205,2.205,0,0,0-1.131.609,4.987,4.987,0,0,0-.9,2.987v.261H-5.22Z" transform="translate(1340.114 492)" fill="#151515"/>
    <path id="Path_108" data-name="Path 108" d="M4625.951,598.97l-39.065,114.664H4664.4Z" transform="translate(-3582.886 -55)" fill="none" stroke="#151515" stroke-width="4"/>
    <path id="Path_121" data-name="Path 121" d="M-2.784-9.309a1.445,1.445,0,0,1-1.1.464,1.445,1.445,0,0,1-1.1-.464,1.557,1.557,0,0,1-.435-1.1,2.33,2.33,0,0,1,.232-.928,2.6,2.6,0,0,1,1.508-1.218,7.7,7.7,0,0,1,2.755-.435,6.184,6.184,0,0,1,3.32.87A4.059,4.059,0,0,1,4.234-9.86a2.958,2.958,0,0,1,.159.913q.015.507.015,3.32,0,2.842.014,3.321a1.648,1.648,0,0,0,.16.74.6.6,0,0,0,.58.406.578.578,0,0,0,.551-.406,4.444,4.444,0,0,0,.174-1.6V-4.2h1.16v1.131A9.125,9.125,0,0,1,6.96-1.711,2.723,2.723,0,0,1,6-.363,2.628,2.628,0,0,1,4.35.174,1.878,1.878,0,0,1,3.06-.333a2.548,2.548,0,0,1-.769-1.232v-.116q-.087.087-.348.391T1.566-.87A5,5,0,0,1-1.74.319a5.613,5.613,0,0,1-2.7-.638A3.268,3.268,0,0,1-6.032-2a2.82,2.82,0,0,1-.232-1.1A3.465,3.465,0,0,1-5.133-5.6,5.374,5.374,0,0,1-3.48-6.7,14.186,14.186,0,0,1,1.566-7.772h.406V-8.41A4.438,4.438,0,0,0,1.8-9.86,2.883,2.883,0,0,0,.783-11.368a2.885,2.885,0,0,0-1.8-.551q-1.943,0-1.943.232a1.446,1.446,0,0,1,.638,1.276A1.505,1.505,0,0,1-2.784-9.309ZM1.972-5.075q0-1.682-.029-1.682a.323.323,0,0,0-.145.029q-3.973.261-5.075,2.349a2.662,2.662,0,0,0-.319,1.3,2.2,2.2,0,0,0,.7,1.653,2.379,2.379,0,0,0,1.711.667A2.983,2.983,0,0,0,.8-1.45,3.25,3.25,0,0,0,1.885-3.161,15.947,15.947,0,0,0,1.972-5.075Z" transform="translate(1043.114 627)" fill="#151515"/>
    <path id="Path_109" data-name="Path 109" d="M4625.951,598.97l-39.065,114.664H4664.4Z" transform="translate(-3447.886 -55)" fill="none" stroke="#151515" stroke-width="4"/>
    <path id="Path_124" data-name="Path 124" d="M-5.22-19.952q.493-.029,1.073-.072t.87-.073q.29-.029.319-.029h.087v4.379q0,4.408.029,4.408a1.152,1.152,0,0,0,.174-.145,5.983,5.983,0,0,1,3.973-1.334,4.888,4.888,0,0,1,.957.087A5.663,5.663,0,0,1,5.7-10.57,6.759,6.759,0,0,1,7.076-6.264a8.214,8.214,0,0,1-.058,1.015A6.865,6.865,0,0,1,4.973-1.291,5.718,5.718,0,0,1,.841.319,5.051,5.051,0,0,1-2.987-1.392l-.2-.2-.29.522q-.058.087-.16.275t-.174.319q-.073.131-.1.189l-.145.261L-4.64,0h-.58V-8.642q0-8.729-.029-8.845a.958.958,0,0,0-.421-.74,3.378,3.378,0,0,0-1.29-.247h-.522v-.667q0-.667.058-.667l.29-.029q.29-.029.841-.058Zm6.757,8.294q-.7-.087-.9-.087A3.816,3.816,0,0,0-2.61-10.063l-.174.232v6.989l.145.2A3.815,3.815,0,0,0-.406-.87a3.076,3.076,0,0,0,.9.116A3.37,3.37,0,0,0,3.422-2.32a4.008,4.008,0,0,0,.464-.957,9.244,9.244,0,0,0,.348-2.871,11.136,11.136,0,0,0-.348-3.219A3.269,3.269,0,0,0,1.537-11.658Z" transform="translate(1178.114 627)" fill="#151515"/>
    <path id="Path_110" data-name="Path 110" d="M4625.951,598.97l-39.065,114.664H4664.4Z" transform="translate(-3352.886 -55)" fill="none" stroke="#151515" stroke-width="4"/>
    <path id="Path_125" data-name="Path 125" d="M4.814-9.251a1.552,1.552,0,0,1-1.1.406,1.468,1.468,0,0,1-1.1-.449,1.507,1.507,0,0,1-.435-1.088,1.493,1.493,0,0,1,.435-1.1q.145-.145.13-.174t-.276-.058a9.367,9.367,0,0,0-1.421-.116,2.973,2.973,0,0,0-2.32.928Q-2.639-9.541-2.639-6.351a6.734,6.734,0,0,0,.9,3.741A3.669,3.669,0,0,0,1.45-.841a2.7,2.7,0,0,0,1.276-.29A3.375,3.375,0,0,0,4.408-3.393a.5.5,0,0,1,.145-.29,1.078,1.078,0,0,1,.464-.058h.406q.174.174.174.261a3.868,3.868,0,0,1-.725,1.711A4.691,4.691,0,0,1,.783.319,5.973,5.973,0,0,1-1.972-.348a6.393,6.393,0,0,1-3.451-4.93,8.269,8.269,0,0,1-.029-.928,9.214,9.214,0,0,1,.029-.957A6.7,6.7,0,0,1-3.045-11.6,6.028,6.028,0,0,1,.812-12.992q3.741,0,4.379,1.972a2.147,2.147,0,0,1,.087.667A1.445,1.445,0,0,1,4.814-9.251Z" transform="translate(1273.114 627)" fill="#151515"/>
    <path id="Path_111" data-name="Path 111" d="M4625.951,598.97l-39.065,114.664H4664.4Z" transform="translate(-3217.886 -55)" fill="none" stroke="#151515" stroke-width="4"/>
    <path id="Path_126" data-name="Path 126" d="M-.986-12.818A5.768,5.768,0,0,1,2.842-11.4v-2.958q0-3.016-.029-3.132a.958.958,0,0,0-.42-.74,3.378,3.378,0,0,0-1.29-.247H.58v-.667q0-.667.058-.667l.29-.029q.29-.029.841-.058l1.073-.058q.493-.029,1.073-.072t.87-.073q.29-.029.319-.029h.087v8.816q0,8.874.029,8.961a.986.986,0,0,0,.42.768,3.378,3.378,0,0,0,1.291.247h.522V0Q7.395,0,5.234.145T2.958.319h-.2v-1.6l-.232.2A5.689,5.689,0,0,1-1.247.319a5.318,5.318,0,0,1-3.6-1.363,6.8,6.8,0,0,1-2.2-4.176q-.029-.232-.029-1.015a6.54,6.54,0,0,1,1.8-4.7A5.728,5.728,0,0,1-.986-12.818Zm3.741,2.9A3.9,3.9,0,0,0-.522-11.745,3.565,3.565,0,0,0-3.045-10.7a3.8,3.8,0,0,0-.971,1.769,12.512,12.512,0,0,0-.247,2.813q0,3.219,1.218,4.408A2.972,2.972,0,0,0-.783-.754,3.751,3.751,0,0,0,1.16-1.305,4.1,4.1,0,0,0,2.639-2.813l.116-.174Z" transform="translate(1408.114 627)" fill="#151515"/>
    <path id="Path_112" data-name="Path 112" d="M4733.137,452.5c-22.6-56.168,60.983-64.8,55.5-11.183" transform="translate(-3980.886 11)" fill="none" stroke="#151515" stroke-width="4"/>
    <g id="Group_71" data-name="Group 71" transform="matrix(-0.839, 0.545, -0.545, -0.839, 1713.322, 390.56)">
      <rect id="Rectangle_267" data-name="Rectangle 267" width="12" height="4" transform="translate(785 438)" fill="#151515"/>
      <rect id="Rectangle_268" data-name="Rectangle 268" width="12" height="4" transform="translate(797 438) rotate(90)" fill="#151515"/>
    </g>
  </g>
</svg>
