<svg xmlns="http://www.w3.org/2000/svg" width="165" height="164" viewBox="0 0 165 164">
  <g id="business-B1vknIsMV" transform="translate(-17.715 -17.774)">
    <rect id="Rectangle_255" data-name="Rectangle 255" width="165" height="164" transform="translate(17.715 17.774)" fill="none"/>
    <g id="Group_91" data-name="Group 91" transform="translate(28.797 28.797)">
      <path id="Path_234" data-name="Path 234" d="M139.813,52.76h-39.57V2.638A2.637,2.637,0,0,0,97.605,0H44.846a2.639,2.639,0,0,0-2.638,2.638V31.656H2.638A2.639,2.639,0,0,0,0,34.294V139.813a2.637,2.637,0,0,0,2.638,2.638H139.813a2.636,2.636,0,0,0,2.638-2.638V55.4a2.637,2.637,0,0,0-2.638-2.638Zm-123.985,76.5a2.638,2.638,0,1,1-5.276,0v-5.276a2.638,2.638,0,0,1,5.276,0v5.276Zm0-15.828a2.638,2.638,0,1,1-5.276,0v-5.276a2.638,2.638,0,1,1,5.276,0v5.276Zm0-13.19a2.638,2.638,0,1,1-5.276,0V94.967a2.638,2.638,0,1,1,5.276,0v5.276Zm0-15.828a2.638,2.638,0,1,1-5.276,0V79.139a2.638,2.638,0,1,1,5.276,0v5.276Zm0-15.828a2.638,2.638,0,0,1-5.276,0V63.312a2.638,2.638,0,0,1,5.276,0v5.276Zm0-15.828a2.638,2.638,0,0,1-5.276,0V47.484a2.638,2.638,0,0,1,5.276,0V52.76Zm10.552,76.5a2.638,2.638,0,1,1-5.276,0v-5.276a2.638,2.638,0,0,1,5.276,0v5.276Zm0-15.828a2.638,2.638,0,1,1-5.276,0v-5.276a2.638,2.638,0,1,1,5.276,0v5.276Zm0-13.19a2.638,2.638,0,1,1-5.276,0V94.967a2.638,2.638,0,1,1,5.276,0v5.276Zm0-15.828a2.638,2.638,0,1,1-5.276,0V79.139a2.638,2.638,0,1,1,5.276,0v5.276Zm0-15.828a2.638,2.638,0,0,1-5.276,0V63.312a2.638,2.638,0,0,1,5.276,0v5.276Zm0-15.828a2.638,2.638,0,0,1-5.276,0V47.484a2.638,2.638,0,0,1,5.276,0V52.76Zm10.552,76.5a2.638,2.638,0,1,1-5.276,0v-5.276a2.638,2.638,0,0,1,5.276,0v5.276Zm0-15.828a2.638,2.638,0,1,1-5.276,0v-5.276a2.638,2.638,0,1,1,5.276,0v5.276Zm0-13.19a2.638,2.638,0,1,1-5.276,0V94.967a2.638,2.638,0,1,1,5.276,0v5.276Zm0-15.828a2.638,2.638,0,1,1-5.276,0V79.139a2.638,2.638,0,1,1,5.276,0v5.276Zm0-15.828a2.638,2.638,0,0,1-5.276,0V63.312a2.638,2.638,0,0,1,5.276,0v5.276Zm0-15.828a2.638,2.638,0,0,1-5.276,0V47.484a2.638,2.638,0,0,1,5.276,0V52.76Zm21.1,76.5a2.638,2.638,0,1,1-5.276,0v-5.276a2.638,2.638,0,0,1,5.276,0v5.276Zm0-15.828a2.638,2.638,0,1,1-5.276,0v-5.276a2.638,2.638,0,1,1,5.276,0v5.276Zm0-15.828a2.638,2.638,0,0,1-5.276,0V92.329a2.638,2.638,0,0,1,5.276,0v5.276Zm0-15.828a2.638,2.638,0,1,1-5.276,0V76.5a2.638,2.638,0,1,1,5.276,0v5.276Zm0-15.828a2.638,2.638,0,1,1-5.276,0V60.674a2.638,2.638,0,1,1,5.276,0V65.95Zm0-15.828a2.638,2.638,0,1,1-5.276,0V44.846a2.638,2.638,0,1,1,5.276,0v5.276Zm0-15.828a2.638,2.638,0,0,1-5.276,0V29.018a2.638,2.638,0,1,1,5.276,0v5.276Zm0-15.828a2.638,2.638,0,1,1-5.276,0V13.19a2.638,2.638,0,1,1,5.276,0v5.276Zm10.552,110.8a2.638,2.638,0,0,1-5.276,0v-5.276a2.638,2.638,0,0,1,5.276,0v5.276Zm0-15.828a2.638,2.638,0,0,1-5.276,0v-5.276a2.638,2.638,0,0,1,5.276,0v5.276Zm0-15.828a2.638,2.638,0,0,1-5.276,0V92.329a2.638,2.638,0,0,1,5.276,0v5.276Zm0-15.828a2.638,2.638,0,1,1-5.276,0V76.5a2.638,2.638,0,1,1,5.276,0v5.276Zm0-15.828a2.638,2.638,0,1,1-5.276,0V60.674a2.638,2.638,0,1,1,5.276,0V65.95Zm0-15.828a2.638,2.638,0,1,1-5.276,0V44.846a2.638,2.638,0,0,1,5.276,0v5.276Zm0-15.828a2.638,2.638,0,0,1-5.276,0V29.018a2.638,2.638,0,0,1,5.276,0v5.276Zm0-15.828a2.638,2.638,0,0,1-5.276,0V13.19a2.638,2.638,0,0,1,5.276,0v5.276Zm10.552,110.8a2.638,2.638,0,0,1-5.276,0v-5.276a2.638,2.638,0,0,1,5.276,0v5.276Zm0-15.828a2.638,2.638,0,0,1-5.276,0v-5.276a2.638,2.638,0,0,1,5.276,0v5.276Zm0-15.828a2.638,2.638,0,0,1-5.276,0V92.329a2.638,2.638,0,0,1,5.276,0v5.276Zm0-15.828a2.638,2.638,0,1,1-5.276,0V76.5a2.638,2.638,0,1,1,5.276,0v5.276Zm0-15.828a2.638,2.638,0,1,1-5.276,0V60.674a2.638,2.638,0,1,1,5.276,0V65.95Zm0-15.828a2.638,2.638,0,1,1-5.276,0V44.846a2.638,2.638,0,0,1,5.276,0v5.276Zm0-15.828a2.638,2.638,0,0,1-5.276,0V29.018a2.638,2.638,0,0,1,5.276,0v5.276Zm0-15.828a2.638,2.638,0,0,1-5.276,0V13.19a2.638,2.638,0,0,1,5.276,0v5.276Zm10.552,110.8a2.638,2.638,0,0,1-5.276,0v-5.276a2.638,2.638,0,0,1,5.276,0v5.276Zm0-15.828a2.638,2.638,0,0,1-5.276,0v-5.276a2.638,2.638,0,1,1,5.276,0v5.276Zm0-15.828a2.638,2.638,0,0,1-5.276,0V92.329a2.638,2.638,0,0,1,5.276,0v5.276Zm0-15.828a2.638,2.638,0,1,1-5.276,0V76.5a2.638,2.638,0,1,1,5.276,0v5.276Zm0-15.828a2.638,2.638,0,1,1-5.276,0V60.674a2.638,2.638,0,1,1,5.276,0V65.95Zm0-15.828a2.638,2.638,0,1,1-5.276,0V44.846a2.638,2.638,0,1,1,5.276,0v5.276Zm0-15.828a2.638,2.638,0,0,1-5.276,0V29.018a2.638,2.638,0,0,1,5.276,0v5.276Zm0-15.828a2.638,2.638,0,0,1-5.276,0V13.19a2.638,2.638,0,0,1,5.276,0v5.276ZM129.261,131.9h-26.38a2.638,2.638,0,1,1,0-5.276h26.38a2.638,2.638,0,1,1,0,5.276Zm0-10.552h-26.38a2.638,2.638,0,0,1,0-5.276h26.38a2.638,2.638,0,0,1,0,5.276Zm0-10.552h-26.38a2.638,2.638,0,1,1,0-5.276h26.38a2.638,2.638,0,1,1,0,5.276Zm0-10.552h-26.38a2.638,2.638,0,1,1,0-5.276h26.38a2.638,2.638,0,1,1,0,5.276Zm0-10.552h-26.38a2.638,2.638,0,1,1,0-5.276h26.38a2.638,2.638,0,1,1,0,5.276Zm0-10.552h-26.38a2.638,2.638,0,1,1,0-5.276h26.38a2.638,2.638,0,0,1,0,5.276Zm0-10.552h-26.38a2.638,2.638,0,1,1,0-5.276h26.38a2.638,2.638,0,0,1,0,5.276Z" fill="#fff" fill-rule="evenodd"/>
    </g>
  </g>
</svg>
