<svg xmlns="http://www.w3.org/2000/svg" width="1273" height="547" viewBox="0 0 1273 547">
  <g id="Group_121" data-name="Group 121" transform="translate(-324 -315)">
    <rect id="Rectangle_3" data-name="Rectangle 3" width="1273" height="547" transform="translate(324 315)" fill="#fafafa"/>
    <g id="Group_115" data-name="Group 115" transform="translate(573.908 1267.552) rotate(-124)">
      <rect id="Rectangle_4" data-name="Rectangle 4" width="6" height="574.676" transform="translate(365 319.324)" fill="#66bb6a"/>
      <path id="Union_3" data-name="Union 3" d="M0,40V34.245H32.553L34,.245,39.755,0,38.3,34.245h.069V40Z" transform="translate(367.11 366.801) rotate(-135)" fill="#66bb6a"/>
    </g>
    <g id="Group_114" data-name="Group 114" transform="translate(1420.648 91.335) rotate(90)">
      <rect id="Rectangle_4-2" data-name="Rectangle 4" width="6" height="235.298" transform="translate(365 319.324)" fill="#d94a4a"/>
      <path id="Union_3-2" data-name="Union 3" d="M0,40V34.245H32.553L34,.245,39.755,0,38.3,34.245h.069V40Z" transform="translate(367.11 366.801) rotate(-135)" fill="#d94a4a"/>
    </g>
    <g id="Group_113" data-name="Group 113" transform="matrix(-0.809, -0.588, 0.588, -0.809, 653.921, 804.497)">
      <rect id="Rectangle_4-3" data-name="Rectangle 4" width="6.002" height="397.896" transform="translate(26.001 8.917)" fill="#2893f3"/>
      <path id="Union_3-3" data-name="Union 3" d="M0,40V34.245H32.552L34,.245,39.755,0,38.3,34.245h.069V40Z" transform="translate(28.112 56.395) rotate(-135)" fill="#2893f3"/>
    </g>
    <g id="Group_8" data-name="Group 8" transform="translate(259.029 25.874)">
      <rect id="Rectangle_4-4" data-name="Rectangle 4" width="6" height="447.351" transform="translate(365 319.324)" fill="#151515"/>
      <path id="Union_3-4" data-name="Union 3" d="M0,40V34.245H32.553L34,.245,39.755,0,38.3,34.245h.069V40Z" transform="translate(367.11 366.801) rotate(-135)" fill="#151515"/>
    </g>
    <g id="Group_11" data-name="Group 11" transform="translate(1648.57 421.865) rotate(90)">
      <rect id="Rectangle_4-5" data-name="Rectangle 4" width="6" height="705.217" transform="translate(365 319.324)" fill="#151515"/>
      <path id="Union_3-5" data-name="Union 3" d="M0,40V34.245H32.553L34,.245,39.755,0,38.3,34.245h.069V40Z" transform="translate(367.11 366.801) rotate(-135)" fill="#151515"/>
    </g>
    <rect id="Rectangle_8" data-name="Rectangle 8" width="12" height="8" transform="translate(612.027 449.548)" fill="#151515"/>
    <rect id="Rectangle_8-2" data-name="Rectangle 8" width="12" height="8" transform="translate(612.027 563.548)" fill="#151515"/>
    <rect id="Rectangle_8-3" data-name="Rectangle 8" width="12" height="8" transform="translate(612.027 677.548)" fill="#151515"/>
    <rect id="Rectangle_9" data-name="Rectangle 9" width="12" height="8" transform="translate(738.027 803.548) rotate(-90)" fill="#151515"/>
    <rect id="Rectangle_9-2" data-name="Rectangle 9" width="12" height="8" transform="translate(858.027 803.548) rotate(-90)" fill="#151515"/>
    <rect id="Rectangle_9-3" data-name="Rectangle 9" width="12" height="8" transform="translate(978.027 803.548) rotate(-90)" fill="#151515"/>
    <rect id="Rectangle_9-4" data-name="Rectangle 9" width="12" height="8" transform="translate(1098.027 803.548) rotate(-90)" fill="#151515"/>
    <rect id="Rectangle_9-5" data-name="Rectangle 9" width="12" height="8" transform="translate(1218.027 803.548) rotate(-90)" fill="#151515"/>
    <path id="Path_67" data-name="Path 67" d="M-6.457-19.145l1.715,2.24,4.69-3.745V0h2.94V-24.5H.262Z" transform="translate(742 841.548)" fill="#151515"/>
    <path id="Path_66" data-name="Path 66" d="M-7.49,0H7.35V-2.73H-1.89l6.51-8.68a10.47,10.47,0,0,0,2.555-6.335c0-4.06-2.94-7.175-7.455-7.175a7.582,7.582,0,0,0-7.35,5.53l2.52.945A5.067,5.067,0,0,1-.28-22.19a4.219,4.219,0,0,1,4.515,4.445c0,2.7-2.2,5.145-3.115,6.335Z" transform="translate(861 841.548)" fill="#151515"/>
    <path id="Path_65" data-name="Path 65" d="M4.095-18.025c0,2.8-2.24,4.165-5,4.165h-.735v2.695H-.49c3.5,0,5.18,1.68,5.18,4.41C4.69-4.41,2.8-2.31-.35-2.31A5.531,5.531,0,0,1-5.635-6.335l-2.59,1.19A8.075,8.075,0,0,0-.35.42c4.48,0,7.98-2.73,7.98-7.175,0-5.005-3.6-5.95-3.6-5.95a5.707,5.707,0,0,0,3.01-5.32A7.074,7.074,0,0,0-.28-24.92a7.687,7.687,0,0,0-7.1,4.8L-4.865-19A4.921,4.921,0,0,1-.28-22.19,4.246,4.246,0,0,1,4.095-18.025Z" transform="translate(982 841.548)" fill="#151515"/>
    <path id="Path_64" data-name="Path 64" d="M-9.765-6.44H2.73V0H5.6V-6.44H8.645V-9.17H5.6V-24.5H3.01Zm4.9-2.73L2.73-20.02V-9.17Z" transform="translate(1102 841.548)" fill="#151515"/>
    <path id="Path_63" data-name="Path 63" d="M8.382-7.805c0-5.6-3.78-8.26-7.735-8.26A9.863,9.863,0,0,0-3.867-15.05v-6.72H7.858V-24.5H-6.668v13.93s3.255-2.73,6.65-2.73a5.113,5.113,0,0,1,5.46,5.495,5.167,5.167,0,0,1-5.39,5.5c-4.025,0-5.39-3.92-5.39-3.92L-7.892-4.865A8.525,8.525,0,0,0,.052.42C4.287.42,8.382-2.31,8.382-7.805Z" transform="translate(1222 841.548)" fill="#151515"/>
    <path id="Path_62" data-name="Path 62" d="M-6.457-19.145l1.715,2.24,4.69-3.745V0h2.94V-24.5H.262Z" transform="translate(592 691.548)" fill="#151515"/>
    <path id="Path_61" data-name="Path 61" d="M-7.49,0H7.35V-2.73H-1.89l6.51-8.68a10.47,10.47,0,0,0,2.555-6.335c0-4.06-2.94-7.175-7.455-7.175a7.582,7.582,0,0,0-7.35,5.53l2.52.945A5.067,5.067,0,0,1-.28-22.19a4.219,4.219,0,0,1,4.515,4.445c0,2.7-2.2,5.145-3.115,6.335Z" transform="translate(592 577.548)" fill="#151515"/>
    <path id="Path_60" data-name="Path 60" d="M4.095-18.025c0,2.8-2.24,4.165-5,4.165h-.735v2.695H-.49c3.5,0,5.18,1.68,5.18,4.41C4.69-4.41,2.8-2.31-.35-2.31A5.531,5.531,0,0,1-5.635-6.335l-2.59,1.19A8.075,8.075,0,0,0-.35.42c4.48,0,7.98-2.73,7.98-7.175,0-5.005-3.6-5.95-3.6-5.95a5.707,5.707,0,0,0,3.01-5.32A7.074,7.074,0,0,0-.28-24.92a7.687,7.687,0,0,0-7.1,4.8L-4.865-19A4.921,4.921,0,0,1-.28-22.19,4.246,4.246,0,0,1,4.095-18.025Z" transform="translate(592 463.548)" fill="#151515"/>
    <path id="Path_240" data-name="Path 240" d="M4.018-28.208q.7-.041,1.517-.1t1.23-.1q.41-.041.451-.041h.123v6.191q0,6.232.041,6.232a1.629,1.629,0,0,0,.246-.2,8.458,8.458,0,0,1,5.617-1.886A6.911,6.911,0,0,1,14.6-18a8.006,8.006,0,0,1,4.858,3.055A9.556,9.556,0,0,1,21.4-8.856a11.613,11.613,0,0,1-.082,1.435,9.705,9.705,0,0,1-2.89,5.6A8.085,8.085,0,0,1,12.587.451,7.14,7.14,0,0,1,7.175-1.968l-.287-.287-.41.738q-.082.123-.226.39t-.246.451q-.1.185-.143.267l-.205.369L4.838,0h-.82V-12.218q0-12.341-.041-12.5a1.355,1.355,0,0,0-.595-1.045,4.776,4.776,0,0,0-1.825-.349H.82v-.943Q.82-28,.9-28l.41-.041q.41-.041,1.189-.082Zm9.553,11.726Q12.587-16.6,12.3-16.6a5.4,5.4,0,0,0-4.592,2.378l-.246.328v9.881l.205.287a5.393,5.393,0,0,0,3.157,2.5,4.349,4.349,0,0,0,1.271.164A4.765,4.765,0,0,0,16.236-3.28a5.666,5.666,0,0,0,.656-1.353,13.07,13.07,0,0,0,.492-4.059,15.744,15.744,0,0,0-.492-4.551A4.621,4.621,0,0,0,13.571-16.482Z" transform="translate(982 443)" fill="#151515"/>
    <path id="Path_239" data-name="Path 239" d="M15.908-13.079a2.194,2.194,0,0,1-1.558.574,2.076,2.076,0,0,1-1.558-.635,2.13,2.13,0,0,1-.615-1.538,2.111,2.111,0,0,1,.615-1.558q.2-.205.185-.246t-.389-.082a13.243,13.243,0,0,0-2.009-.164A4.2,4.2,0,0,0,7.3-15.416Q5.371-13.489,5.371-8.979A9.521,9.521,0,0,0,6.642-3.69a5.187,5.187,0,0,0,4.51,2.5,3.817,3.817,0,0,0,1.8-.41,4.771,4.771,0,0,0,2.378-3.2.7.7,0,0,1,.2-.41,1.524,1.524,0,0,1,.656-.082h.574q.246.246.246.369A5.469,5.469,0,0,1,15.99-2.5,6.631,6.631,0,0,1,10.209.451,8.444,8.444,0,0,1,6.314-.492a9.038,9.038,0,0,1-4.879-6.97,11.69,11.69,0,0,1-.041-1.312,13.027,13.027,0,0,1,.041-1.353A9.477,9.477,0,0,1,4.8-16.4a8.522,8.522,0,0,1,5.453-1.968q5.289,0,6.191,2.788a3.035,3.035,0,0,1,.123.943A2.043,2.043,0,0,1,15.908-13.079Z" transform="translate(880 663)" fill="#151515"/>
    <path id="Path_241" data-name="Path 241" d="M10.455,0Q9.717-.123,5.74-.123A33.91,33.91,0,0,0,1.6,0H1.312V-1.886h.615Q4.879-2.009,5.7-3.608l2.173-6.458Q10-16.4,12.116-22.694t2.152-6.334q.123-.328.779-.328h.369q.82.041.984.287.041.041,4,11.726t4.9,14.6a1.561,1.561,0,0,0,.287.41,4.879,4.879,0,0,0,2.583.451H29.4V0h-.369q-.615-.123-5.207-.123-5.289,0-5.9.123h-.41V-1.886h.533q2.87,0,2.87-.738,0-.082-.984-3.034l-.984-2.911H9.389L8.569-6.15a22.25,22.25,0,0,0-.82,2.665.6.6,0,0,0,.123.369,1.919,1.919,0,0,0,1.046.882,4.212,4.212,0,0,0,1.7.348h.2V0Zm6.6-14.227q-1.189-3.567-2.091-6.191l-.82-2.419-2.05,6.15L10-10.5q0,.041,4.141.041h4.182ZM44.4,9.881q0,.369-.738.369h-.533l-1.148-.984Q34.6,2.542,34.6-10.25a33.06,33.06,0,0,1,1.189-9.143,22.113,22.113,0,0,1,6.191-10.373q.287-.246.656-.553t.492-.431h.533a.973.973,0,0,1,.615.123.354.354,0,0,1,.123.246q0,.164-.451.615Q37.6-23.042,37.6-10.25T43.952,9.266Q44.4,9.717,44.4,9.881Zm6.806-27.47a2.29,2.29,0,0,1-1.8-.738,2.619,2.619,0,0,1-.656-1.8,6.723,6.723,0,0,1,2.235-5.063,7.517,7.517,0,0,1,5.35-2.111A8.889,8.889,0,0,1,62.177-25.4a8,8,0,0,1,2.849,4.982,12.329,12.329,0,0,1,.082,1.353A7.755,7.755,0,0,1,63.673-14.6,27.212,27.212,0,0,1,59.04-9.881q-1.476,1.271-4.1,3.772l-2.419,2.3,3.116.041a49.216,49.216,0,0,0,6.847-.205q.164-.041.41-.861a25.863,25.863,0,0,0,.574-2.788v-.123h1.64v.123L63.96-.123V0H48.749V-.779a2.761,2.761,0,0,1,.082-.943q.041-.041,3.444-3.895,4.469-4.961,5.74-6.56,2.747-3.731,2.747-6.847a7.172,7.172,0,0,0-1.415-4.531,4.721,4.721,0,0,0-3.957-1.825,4.5,4.5,0,0,0-3.854,2.132q-.082.164-.246.451a.9.9,0,0,0-.123.246q0,.041.205.041a2.087,2.087,0,0,1,1.66.738,2.557,2.557,0,0,1,.636,1.722,2.447,2.447,0,0,1-.677,1.743A2.337,2.337,0,0,1,51.209-17.589ZM71.135-.7A2.406,2.406,0,0,1,70.4-2.46a2.519,2.519,0,0,1,.676-1.763,2.257,2.257,0,0,1,1.743-.738,2.411,2.411,0,0,1,2.276,1.312,6.868,6.868,0,0,1,.717,3.321,11.614,11.614,0,0,1-.082,1.435A11.729,11.729,0,0,1,72.734,7.38q-.574.574-.738.574t-.533-.369q-.369-.369-.369-.533,0-.205.41-.615A9.61,9.61,0,0,0,74.292.123V-.369a.9.9,0,0,0-.246.123A2.613,2.613,0,0,1,72.939,0,2.529,2.529,0,0,1,71.135-.7ZM83.8-18.983a2.24,2.24,0,0,1-1.743-.7,2.574,2.574,0,0,1-.635-1.8A4.95,4.95,0,0,1,83.271-25.4a7.84,7.84,0,0,1,4.264-1.866h.615q1.435,0,1.8.041a9.954,9.954,0,0,1,2.747.861,6.105,6.105,0,0,1,3.4,3.854,3.989,3.989,0,0,1,.123,1.107,6.82,6.82,0,0,1-1.5,4.326,8.283,8.283,0,0,1-3.752,2.727q-.2.082,0,.123a2.677,2.677,0,0,0,.41.123,8.735,8.735,0,0,1,4.223,2.6,6.278,6.278,0,0,1,1.722,4.326,7.156,7.156,0,0,1-.779,3.239A8.127,8.127,0,0,1,93.337-.472,9.324,9.324,0,0,1,88.355.9a9.8,9.8,0,0,1-4.8-1.148,5.913,5.913,0,0,1-2.829-3.075,4.625,4.625,0,0,1-.41-2.009A2.451,2.451,0,0,1,81.077-7.2,2.56,2.56,0,0,1,82.9-7.913a2.554,2.554,0,0,1,1.886.738,2.5,2.5,0,0,1,.738,1.845,2.622,2.622,0,0,1-.533,1.64,2.42,2.42,0,0,1-1.435.9l-.287.082A7.714,7.714,0,0,0,88.355-.861a3.659,3.659,0,0,0,3.4-2.173,9.42,9.42,0,0,0,.7-4.141v-.82q0-3.895-2.624-5.207a8.589,8.589,0,0,0-2.5-.287l-1.722-.041-.123-.082a1.524,1.524,0,0,1-.082-.656.973.973,0,0,1,.123-.615.336.336,0,0,1,.205-.123,14.463,14.463,0,0,0,2.378-.2,3.552,3.552,0,0,0,2.747-2.03,9.057,9.057,0,0,0,.943-4.285q0-2.665-1.435-3.567a3.4,3.4,0,0,0-1.927-.574,6.07,6.07,0,0,0-3.608,1.107,1.742,1.742,0,0,0-.369.266,2.5,2.5,0,0,0-.328.348l-.123.164q.123.041.287.082a1.953,1.953,0,0,1,1.374.779,2.5,2.5,0,0,1,.553,1.6,2.258,2.258,0,0,1-.676,1.66A2.358,2.358,0,0,1,83.8-18.983Zm17.753-11.726.164-.041h.9l1.148.984q7.38,6.724,7.38,19.516a32.347,32.347,0,0,1-1.189,9.1,22.114,22.114,0,0,1-6.191,10.414q-.287.246-.656.554t-.492.431h-.492a1.537,1.537,0,0,1-.635-.082q-.143-.082-.144-.41.041-.041.451-.533,6.355-6.6,6.355-19.475T101.8-29.725q-.41-.492-.451-.533A.482.482,0,0,1,101.557-30.709Z" transform="translate(801 439)" fill="#151515"/>
    <path id="Path_242" data-name="Path 242" d="M5.371-25.5a1.658,1.658,0,0,0-.8-.492A16.561,16.561,0,0,0,2.5-26.117H1.148V-28H9.389q8.241.041,8.774.123a10.547,10.547,0,0,1,3.608,1.189,7.583,7.583,0,0,1,3.321,3.444,5.5,5.5,0,0,1,.492,2.255A5.418,5.418,0,0,1,23.9-17.159a8.819,8.819,0,0,1-4.387,2.4l-.41.123a9.713,9.713,0,0,1,4.941,1.927,6.829,6.829,0,0,1,2.6,4.059,7.413,7.413,0,0,1,.041.984A6.315,6.315,0,0,1,26.609-6.4a7.476,7.476,0,0,1-2.542,4.141A9.315,9.315,0,0,1,19.229-.123Q18.7-.041,9.922,0H1.148V-1.886H2.5a16.561,16.561,0,0,0,2.071-.123,1.658,1.658,0,0,0,.8-.492Zm15.58,4.469a5.241,5.241,0,0,0-1.086-3.321,4.528,4.528,0,0,0-2.809-1.722H16.5q-.513,0-1.312-.021t-1.538-.021q-.738,0-1.537.021t-1.332.021h-.615q-.533.041-.656.328a45.883,45.883,0,0,0-.123,5.289v5.125h3.4l3.444-.041.41-.082q.123-.041.41-.123l.246-.082a5.458,5.458,0,0,0,2.624-1.988A5.609,5.609,0,0,0,20.951-21.033ZM22.017-7.708a6.439,6.439,0,0,0-1.23-3.977,5.381,5.381,0,0,0-3.157-2.091l-4.141-.041h-4.1V-8.2q0,5.7.041,5.781a.88.88,0,0,0,.164.287,17.768,17.768,0,0,0,4.1.205H15.7a8.632,8.632,0,0,0,2.46-.246,5.322,5.322,0,0,0,2.809-2.091A5.925,5.925,0,0,0,22.017-7.708ZM42.681,9.881q0,.369-.738.369H41.41l-1.148-.984q-7.38-6.724-7.38-19.516a33.06,33.06,0,0,1,1.189-9.143,22.113,22.113,0,0,1,6.191-10.373q.287-.246.656-.553t.492-.431h.533a.973.973,0,0,1,.615.123.354.354,0,0,1,.123.246q0,.164-.451.615-6.355,6.724-6.355,19.516T42.23,9.266Q42.681,9.717,42.681,9.881ZM63.919,0q-.574-.123-5.289-.123-4.92,0-5.494.123h-.369V-1.886h1.271a8.69,8.69,0,0,0,2.173-.205A.734.734,0,0,0,56.7-2.5q.041-.082.041-2.214v-2.05H46.125V-8.651l6.191-9.471q6.273-9.512,6.355-9.553a2.159,2.159,0,0,1,.861-.082h.738l.246.246v18.86h3.772v1.886H60.516v2.091q0,1.681.02,1.968a.751.751,0,0,0,.226.492,5.214,5.214,0,0,0,2.337.328h1.189V0ZM56.99-8.651V-22.345L48.011-8.692l4.469.041ZM69.413-.7a2.406,2.406,0,0,1-.738-1.763,2.519,2.519,0,0,1,.676-1.763,2.257,2.257,0,0,1,1.743-.738,2.411,2.411,0,0,1,2.276,1.312,6.868,6.868,0,0,1,.717,3.321A11.614,11.614,0,0,1,74,1.107,11.729,11.729,0,0,1,71.012,7.38q-.574.574-.738.574t-.533-.369q-.369-.369-.369-.533,0-.205.41-.615A9.61,9.61,0,0,0,72.57.123V-.369a.9.9,0,0,0-.246.123A2.613,2.613,0,0,1,71.217,0,2.529,2.529,0,0,1,69.413-.7ZM82.082-18.983a2.24,2.24,0,0,1-1.743-.7,2.574,2.574,0,0,1-.635-1.8A4.95,4.95,0,0,1,81.549-25.4a7.84,7.84,0,0,1,4.264-1.866h.615q1.435,0,1.8.041a9.954,9.954,0,0,1,2.747.861,6.105,6.105,0,0,1,3.4,3.854,3.989,3.989,0,0,1,.123,1.107,6.82,6.82,0,0,1-1.5,4.326,8.283,8.283,0,0,1-3.752,2.727q-.2.082,0,.123a2.677,2.677,0,0,0,.41.123,8.735,8.735,0,0,1,4.223,2.6,6.278,6.278,0,0,1,1.722,4.326,7.156,7.156,0,0,1-.779,3.239A8.127,8.127,0,0,1,91.615-.472,9.324,9.324,0,0,1,86.633.9a9.8,9.8,0,0,1-4.8-1.148,5.913,5.913,0,0,1-2.829-3.075A4.625,4.625,0,0,1,78.6-5.33,2.451,2.451,0,0,1,79.355-7.2a2.56,2.56,0,0,1,1.825-.717,2.554,2.554,0,0,1,1.886.738A2.5,2.5,0,0,1,83.8-5.33a2.622,2.622,0,0,1-.533,1.64,2.42,2.42,0,0,1-1.435.9l-.287.082A7.714,7.714,0,0,0,86.633-.861a3.659,3.659,0,0,0,3.4-2.173,9.42,9.42,0,0,0,.7-4.141v-.82q0-3.895-2.624-5.207a8.589,8.589,0,0,0-2.5-.287l-1.722-.041-.123-.082a1.524,1.524,0,0,1-.082-.656.973.973,0,0,1,.123-.615.336.336,0,0,1,.205-.123,14.463,14.463,0,0,0,2.378-.2,3.552,3.552,0,0,0,2.747-2.03,9.057,9.057,0,0,0,.943-4.285q0-2.665-1.435-3.567a3.4,3.4,0,0,0-1.927-.574,6.07,6.07,0,0,0-3.608,1.107,1.742,1.742,0,0,0-.369.266,2.5,2.5,0,0,0-.328.348l-.123.164q.123.041.287.082a1.953,1.953,0,0,1,1.374.779,2.5,2.5,0,0,1,.553,1.6,2.258,2.258,0,0,1-.676,1.66A2.358,2.358,0,0,1,82.082-18.983ZM99.835-30.709,100-30.75h.9l1.148.984q7.38,6.724,7.38,19.516a32.347,32.347,0,0,1-1.189,9.1,22.114,22.114,0,0,1-6.191,10.414q-.287.246-.656.554t-.492.431h-.492a1.537,1.537,0,0,1-.635-.082q-.143-.082-.144-.41.041-.041.451-.533,6.355-6.6,6.355-19.475t-6.355-19.475q-.41-.492-.451-.533A.482.482,0,0,1,99.835-30.709Z" transform="translate(1126 472)" fill="#151515"/>
    <path id="Path_243" data-name="Path 243" d="M29.6-13.981A14.962,14.962,0,0,1,25.584-3.444,12.711,12.711,0,0,1,15.908.9,11.724,11.724,0,0,1,13.9.738a12.911,12.911,0,0,1-7.482-4A14.811,14.811,0,0,1,2.5-11.193a14.611,14.611,0,0,1-.2-2.747,15.721,15.721,0,0,1,3.362-9.881,13.949,13.949,0,0,1,2.173-2.132,12.621,12.621,0,0,1,7.011-2.911,10.38,10.38,0,0,1,1.066-.041,12.756,12.756,0,0,1,8.159,2.952A15.471,15.471,0,0,1,26.2-23.821,15.912,15.912,0,0,1,29.52-15.7,15.808,15.808,0,0,1,29.6-13.981ZM19.147-26.527a8.043,8.043,0,0,0-3.239-.738,7.132,7.132,0,0,0-3.157.738,8.9,8.9,0,0,0-3.587,3.26A12.688,12.688,0,0,0,7.339-18a21.609,21.609,0,0,0-.205,3.485q0,8.651,4.223,12.013A6.954,6.954,0,0,0,15.949-.82,9.426,9.426,0,0,0,17.1-.861a8.533,8.533,0,0,0,4.92-3.2q2.706-3.608,2.706-10.455a21.609,21.609,0,0,0-.2-3.485Q23.657-24.272,19.147-26.527Zm26.4,36.408q0,.369-.738.369H44.28l-1.148-.984q-7.38-6.724-7.38-19.516a33.06,33.06,0,0,1,1.189-9.143,22.113,22.113,0,0,1,6.191-10.373q.287-.246.656-.553t.492-.431h.533a.973.973,0,0,1,.615.123.354.354,0,0,1,.123.246q0,.164-.451.615-6.355,6.724-6.355,19.516T45.1,9.266Q45.551,9.717,45.551,9.881Zm6.232-33.866a7.234,7.234,0,0,1,6.273-3.321,7.559,7.559,0,0,1,5.248,2.05,8.917,8.917,0,0,1,1.886,2.788,23.453,23.453,0,0,1,1.517,9.348q0,6.355-1.763,9.717A7.1,7.1,0,0,1,61.582.041,7.721,7.721,0,0,1,58.1.9a7.225,7.225,0,0,1-6.888-4.3q-1.763-3.362-1.763-9.717a31.953,31.953,0,0,1,.513-6.293A13.768,13.768,0,0,1,51.783-23.985Zm9.225-.492A3.779,3.779,0,0,0,58.1-25.789a3.9,3.9,0,0,0-2.952,1.312,4.935,4.935,0,0,0-1.23,2.3,25.324,25.324,0,0,0-.41,4.674q0,.246-.021,1.6t-.021,2.255q0,3.936.082,5.494a23.423,23.423,0,0,0,.492,4.121,4.662,4.662,0,0,0,1.23,2.152A3.636,3.636,0,0,0,58.1-.656a3.591,3.591,0,0,0,2.788-1.23,4.662,4.662,0,0,0,1.23-2.152,23.423,23.423,0,0,0,.492-4.121q.082-1.558.082-5.494,0-.9-.021-2.255t-.021-1.6a25.324,25.324,0,0,0-.41-4.674A4.935,4.935,0,0,0,61.008-24.477ZM72.283-.7a2.406,2.406,0,0,1-.738-1.763,2.519,2.519,0,0,1,.676-1.763,2.257,2.257,0,0,1,1.743-.738A2.411,2.411,0,0,1,76.24-3.649a6.868,6.868,0,0,1,.717,3.321,11.614,11.614,0,0,1-.082,1.435A11.729,11.729,0,0,1,73.882,7.38q-.574.574-.738.574t-.533-.369q-.369-.369-.369-.533,0-.205.41-.615A9.61,9.61,0,0,0,75.44.123V-.369a.9.9,0,0,0-.246.123A2.613,2.613,0,0,1,74.087,0,2.529,2.529,0,0,1,72.283-.7Zm11.4-23.288a7.234,7.234,0,0,1,6.273-3.321,7.559,7.559,0,0,1,5.248,2.05,8.917,8.917,0,0,1,1.886,2.788,23.453,23.453,0,0,1,1.517,9.348q0,6.355-1.763,9.717A7.1,7.1,0,0,1,93.48.041,7.721,7.721,0,0,1,90,.9a7.225,7.225,0,0,1-6.888-4.3q-1.763-3.362-1.763-9.717a31.953,31.953,0,0,1,.513-6.293A13.768,13.768,0,0,1,83.681-23.985Zm9.225-.492A3.779,3.779,0,0,0,90-25.789a3.9,3.9,0,0,0-2.952,1.312,4.935,4.935,0,0,0-1.23,2.3,25.324,25.324,0,0,0-.41,4.674q0,.246-.021,1.6t-.021,2.255q0,3.936.082,5.494a23.423,23.423,0,0,0,.492,4.121,4.662,4.662,0,0,0,1.23,2.152A3.636,3.636,0,0,0,90-.656a3.591,3.591,0,0,0,2.788-1.23,4.662,4.662,0,0,0,1.23-2.152,23.423,23.423,0,0,0,.492-4.121q.082-1.558.082-5.494,0-.9-.021-2.255t-.021-1.6a25.324,25.324,0,0,0-.41-4.674A4.935,4.935,0,0,0,92.906-24.477Zm9.8-6.232.164-.041h.9l1.148.984q7.38,6.724,7.38,19.516a32.347,32.347,0,0,1-1.189,9.1,22.114,22.114,0,0,1-6.191,10.414q-.287.246-.656.554t-.492.431h-.492a1.537,1.537,0,0,1-.635-.082q-.143-.082-.144-.41.041-.041.451-.533,6.355-6.6,6.355-19.475t-6.355-19.475q-.41-.492-.451-.533A.482.482,0,0,1,102.705-30.709Z" transform="translate(535 837)" fill="#151515"/>
    <rect id="Rectangle_328" data-name="Rectangle 328" width="23" height="2" transform="translate(982 446)" fill="#151515"/>
    <rect id="Rectangle_329" data-name="Rectangle 329" width="17" height="2" transform="translate(881 666)" fill="#151515"/>
    <rect id="Rectangle_330" data-name="Rectangle 330" width="19" height="2" transform="translate(740 579)" fill="#151515"/>
    <path id="Path_244" data-name="Path 244" d="M4.018-28.208q.7-.041,1.517-.1t1.23-.1q.41-.041.451-.041h.123v6.191q0,6.232.041,6.232a1.629,1.629,0,0,0,.246-.2,8.458,8.458,0,0,1,5.617-1.886A6.911,6.911,0,0,1,14.6-18a8.006,8.006,0,0,1,4.858,3.055A9.556,9.556,0,0,1,21.4-8.856a11.613,11.613,0,0,1-.082,1.435,9.705,9.705,0,0,1-2.89,5.6A8.085,8.085,0,0,1,12.587.451,7.14,7.14,0,0,1,7.175-1.968l-.287-.287-.41.738q-.082.123-.226.39t-.246.451q-.1.185-.143.267l-.205.369L4.838,0h-.82V-12.218q0-12.341-.041-12.5a1.355,1.355,0,0,0-.595-1.045,4.776,4.776,0,0,0-1.825-.349H.82v-.943Q.82-28,.9-28l.41-.041q.41-.041,1.189-.082Zm9.553,11.726Q12.587-16.6,12.3-16.6a5.4,5.4,0,0,0-4.592,2.378l-.246.328v9.881l.205.287a5.393,5.393,0,0,0,3.157,2.5,4.349,4.349,0,0,0,1.271.164A4.765,4.765,0,0,0,16.236-3.28a5.666,5.666,0,0,0,.656-1.353,13.07,13.07,0,0,0,.492-4.059,15.744,15.744,0,0,0-.492-4.551A4.621,4.621,0,0,0,13.571-16.482ZM37.61,0V-10.37H27.24v-2.963H37.61V-23.7h2.963v10.37h10.37v2.963H40.573V0ZM71.3-13.079a2.194,2.194,0,0,1-1.558.574,2.076,2.076,0,0,1-1.558-.635,2.13,2.13,0,0,1-.615-1.538,2.111,2.111,0,0,1,.615-1.558q.2-.205.185-.246t-.389-.082a13.243,13.243,0,0,0-2.009-.164,4.2,4.2,0,0,0-3.28,1.312q-1.927,1.927-1.927,6.437A9.521,9.521,0,0,0,62.03-3.69a5.187,5.187,0,0,0,4.51,2.5,3.817,3.817,0,0,0,1.8-.41,4.771,4.771,0,0,0,2.378-3.2.7.7,0,0,1,.2-.41,1.524,1.524,0,0,1,.656-.082h.574q.246.246.246.369A5.469,5.469,0,0,1,71.378-2.5,6.631,6.631,0,0,1,65.6.451a8.444,8.444,0,0,1-3.9-.943,9.038,9.038,0,0,1-4.879-6.97,11.69,11.69,0,0,1-.041-1.312,13.027,13.027,0,0,1,.041-1.353A9.477,9.477,0,0,1,60.185-16.4a8.522,8.522,0,0,1,5.453-1.968q5.289,0,6.191,2.788a3.035,3.035,0,0,1,.123.943A2.043,2.043,0,0,1,71.3-13.079Z" transform="translate(685 575)" fill="#151515"/>
    <rect id="Rectangle_331" data-name="Rectangle 331" width="19" height="2" transform="translate(687 579)" fill="#151515"/>
  </g>
</svg>
