<svg id="Group_45" data-name="Group 45" xmlns="http://www.w3.org/2000/svg" xmlns:xlink="http://www.w3.org/1999/xlink" width="164.409" height="164.409" viewBox="0 0 164.409 164.409">
  <defs>
    <clipPath id="clip-path">
      <rect id="Rectangle_157" data-name="Rectangle 157" width="164.409" height="164.409" fill="#fff" stroke="#707070" stroke-width="1"/>
    </clipPath>
  </defs>
  <g id="Mask_Group_57" data-name="Mask Group 57" transform="translate(0)" clip-path="url(#clip-path)">
    <g id="electronic-rk-N5EkhQ" transform="translate(11.862 11.862)">
      <g id="Group_43" data-name="Group 43" transform="translate(0 0)">
        <path id="Path_125" data-name="Path 125" d="M138.08,0H2.605A2.606,2.606,0,0,0,0,2.605V106.817a2.6,2.6,0,0,0,2.605,2.605H56.584l-3.908,15.632H44.29a7.816,7.816,0,0,0,0,15.632H96.4a7.816,7.816,0,1,0,0-15.632H88.006L84.1,109.422H138.08a2.6,2.6,0,0,0,2.605-2.605V2.605A2.6,2.6,0,0,0,138.08,0ZM62.527,96.4a2.6,2.6,0,0,1,2.605-2.605H75.553a2.605,2.605,0,0,1,0,5.211H65.132A2.6,2.6,0,0,1,62.527,96.4Zm67.737-10.421a2.6,2.6,0,0,1-2.605,2.605H13.026a2.6,2.6,0,0,1-2.605-2.605V13.026a2.606,2.606,0,0,1,2.605-2.605H127.659a2.6,2.6,0,0,1,2.605,2.605V85.974Z" fill="#fff"/>
      </g>
    </g>
  </g>
  <rect id="Rectangle_167" data-name="Rectangle 167" width="13.036" height="5.014" rx="2.507" transform="translate(112.242 25.587) rotate(45)" fill="#fff"/>
  <rect id="Rectangle_168" data-name="Rectangle 168" width="21.058" height="5.014" rx="2.507" transform="translate(123.272 36.617) rotate(45)" fill="#fff"/>
  <rect id="Rectangle_169" data-name="Rectangle 169" width="13.036" height="5.014" rx="2.507" transform="translate(128.286 25.587) rotate(45)" fill="#fff"/>
</svg>
