<svg xmlns="http://www.w3.org/2000/svg" width="1273" height="501" viewBox="0 0 1273 501">
  <g id="Group_112" data-name="Group 112" transform="translate(-324 -290)">
    <rect id="Rectangle_3" data-name="Rectangle 3" width="1273" height="501" transform="translate(324 290)" fill="#fafafa"/>
    <g id="Group_110" data-name="Group 110" transform="translate(0.002)">
      <g id="Group_107" data-name="Group 107" transform="translate(316.021)">
        <path id="Path_152" data-name="Path 152" d="M10.416-20.688a1.865,1.865,0,0,1,1.152.36,1.164,1.164,0,0,1,.48.984q0,.624-2.352,10.08T7.008,1.1A12.718,12.718,0,0,1,4.536,5.448,12.893,12.893,0,0,1,.576,8.592,11.236,11.236,0,0,1-4.272,9.84q-3.648,0-4.944-2.3a3.272,3.272,0,0,1-.48-1.92,3.439,3.439,0,0,1,.912-2.544A3.123,3.123,0,0,1-6.672,2.16q2.112,0,2.112,2.016A2.71,2.71,0,0,1-6.24,6.768l-.24.12-.24.12a.368.368,0,0,1-.144.048l-.144.048q.144.288,1.008.624a4.348,4.348,0,0,0,1.536.288h.384a6.134,6.134,0,0,0,1.248-.1A7.308,7.308,0,0,0,.624,5.472,13.309,13.309,0,0,0,3.12.864a10.577,10.577,0,0,0,.528-1.872q0-.048-.1.024l-.288.216A6.524,6.524,0,0,1-.672.528,6.681,6.681,0,0,1-4.7-.624,5.358,5.358,0,0,1-6.768-3.936a13.814,13.814,0,0,1-.048-1.488A12.461,12.461,0,0,1-6.72-7.2a44.054,44.054,0,0,1,2.208-7.056,13.768,13.768,0,0,0,1.056-3.936,2.518,2.518,0,0,0-.12-.936q-.12-.264-.552-.264h-.24A2.984,2.984,0,0,0-6.48-18.384a10.06,10.06,0,0,0-2.352,4.608.55.55,0,0,1-.048.168.553.553,0,0,1-.072.144l-.072.072a.234.234,0,0,1-.168.048h-1.272q-.288-.288-.288-.432a3.582,3.582,0,0,1,.144-.672A11.446,11.446,0,0,1-7.584-19.68a4.95,4.95,0,0,1,3.408-1.536,4.564,4.564,0,0,1,3.216,1.1A3.966,3.966,0,0,1,.24-17.04,6.427,6.427,0,0,1,.1-16.032a10.848,10.848,0,0,1-.72,2.064A45.871,45.871,0,0,0-2.976-6.144a9.547,9.547,0,0,0-.048,1.1,5.473,5.473,0,0,0,.576,2.784A2.257,2.257,0,0,0-.336-1.3a4.068,4.068,0,0,0,2.088-.576A6.4,6.4,0,0,0,3.24-3q.5-.552,1.272-1.512,0-.048.24-.984t.7-2.808q.456-1.872.888-3.552,1.824-7.2,2.016-7.536A2.131,2.131,0,0,1,10.416-20.688Z" transform="translate(598.731 348.216)" fill="#151515"/>
        <g id="Group_8" data-name="Group 8" transform="translate(284.732 16.666)">
          <rect id="Rectangle_4" data-name="Rectangle 4" width="6" height="417.846" transform="translate(365 319.324)" fill="#151515"/>
          <path id="Union_3" data-name="Union 3" d="M0,40V34.245H32.553L34,.245,39.755,0,38.3,34.245h.069V40Z" transform="translate(367.11 366.801) rotate(-135)" fill="#151515"/>
        </g>
      </g>
      <g id="Group_108" data-name="Group 108" transform="translate(0 -28.133)">
        <path id="Path_153" data-name="Path 153" d="M-10.944-13.344a.8.8,0,0,1-.288-.528,9.136,9.136,0,0,1,1.488-3.312A8.23,8.23,0,0,1-4.08-21.12a7.823,7.823,0,0,1,1.008-.1,5.833,5.833,0,0,1,3.1.864,5.161,5.161,0,0,1,2.04,2.16q.624-.816.768-1.008a5.318,5.318,0,0,1,4.08-2.016A4.524,4.524,0,0,1,10.1-20.088a3.61,3.61,0,0,1,1.224,2.76,3.768,3.768,0,0,1-.84,2.5,2.76,2.76,0,0,1-2.232,1.008,2.116,2.116,0,0,1-1.488-.528,1.8,1.8,0,0,1-.576-1.392,3.052,3.052,0,0,1,2.4-3.024,1.924,1.924,0,0,0-.528-.336,2.737,2.737,0,0,0-1.392-.288,3.135,3.135,0,0,0-.912.1,5.026,5.026,0,0,0-2.688,3.168q-.144.384-1.392,5.352T.336-5.184a7.326,7.326,0,0,0-.144,1.44A2.465,2.465,0,0,0,.864-1.92a2.4,2.4,0,0,0,1.776.672,4.954,4.954,0,0,0,3.648-1.7A8.855,8.855,0,0,0,8.5-6.72q.144-.48.288-.552a2.333,2.333,0,0,1,.768-.072q.912,0,.912.384,0,.048-.1.528a10.444,10.444,0,0,1-3.36,5.184A7.571,7.571,0,0,1,2.256.528,5.53,5.53,0,0,1-2.832-2.5,6.719,6.719,0,0,1-6.384.384a6.134,6.134,0,0,1-1.248.1,4.185,4.185,0,0,1-3.936-1.968,3.718,3.718,0,0,1-.48-1.92,3.633,3.633,0,0,1,.864-2.448A2.778,2.778,0,0,1-8.976-6.864,1.8,1.8,0,0,1-6.912-4.848a2.71,2.71,0,0,1-1.68,2.592l-.24.12-.24.12a.368.368,0,0,1-.144.048l-.144.048q0,.144.72.432a3.212,3.212,0,0,0,1.248.24q1.728,0,2.976-2.16a36.255,36.255,0,0,0,1.872-6.24q.288-1.1.624-2.448t.5-2.064q.168-.72.216-.864A11.7,11.7,0,0,0-.96-16.9a2.575,2.575,0,0,0-.624-1.824,2.242,2.242,0,0,0-1.728-.672,5.013,5.013,0,0,0-3.744,1.656A9.106,9.106,0,0,0-9.264-13.92q-.1.432-.216.5a2.315,2.315,0,0,1-.792.072Z" transform="translate(1352.731 645.216)" fill="#151515"/>
        <g id="Group_11" data-name="Group 11" transform="translate(1674.272 211.134) rotate(90)">
          <rect id="Rectangle_4-2" data-name="Rectangle 4" width="6" height="798.95" transform="translate(365 319.324)" fill="#151515"/>
          <path id="Union_3-2" data-name="Union 3" d="M0,40V34.245H32.553L34,.245,39.755,0,38.3,34.245h.069V40Z" transform="translate(367.11 366.801) rotate(-135)" fill="#151515"/>
        </g>
      </g>
      <path id="Path_237" data-name="Path 237" d="M23070.332,2746.04s-165.617,19.131-210.783,129.119-191.344,132.309-223.291,140.545" transform="translate(-21890 -2324)" fill="none" stroke="#2893f3" stroke-linecap="round" stroke-width="7"/>
    </g>
  </g>
</svg>
