<svg xmlns="http://www.w3.org/2000/svg" width="1273" height="676" viewBox="0 0 1273 676">
  <g id="Group_65" data-name="Group 65" transform="translate(-324 -202)">
    <rect id="Rectangle_3" data-name="Rectangle 3" width="1273" height="676" transform="translate(324 202)" fill="#fafafa"/>
    <g id="Group_64" data-name="Group 64" transform="translate(-0.001)">
      <g id="Group_11" data-name="Group 11" transform="translate(417.001 370.894) rotate(-90)">
        <rect id="Rectangle_4" data-name="Rectangle 4" width="6" height="1076.099" transform="translate(26.001 0)" fill="#151515"/>
        <path id="Union_3" data-name="Union 3" d="M0,0V5.755H32.553l1.447,34L39.755,40,38.3,5.755h.069V0Z" transform="translate(56.395 1056.906) rotate(135)" fill="#151515"/>
      </g>
      <rect id="Rectangle_9" data-name="Rectangle 9" width="12" height="8" transform="translate(1253.646 328.21) rotate(90)" fill="#151515"/>
      <rect id="Rectangle_9-2" data-name="Rectangle 9" width="12" height="8" transform="translate(1406.478 330.21) rotate(90)" fill="#151515"/>
      <path id="Path_94" data-name="Path 94" d="M-14.507-7.14h9.345v-2.8h-9.345Zm10.57.7H8.557V0h2.87V-6.44h3.045V-9.17H11.428V-24.5H8.838Zm4.9-2.73L8.557-20.02V-9.17Z" transform="translate(900.125 808.183)" fill="#151515"/>
      <path id="Path_93" data-name="Path 93" d="M-14.193-7.14h9.345v-2.8h-9.345ZM9.922-18.025c0,2.8-2.24,4.165-5,4.165H4.182v2.695H5.337c3.5,0,5.18,1.68,5.18,4.41,0,2.345-1.89,4.445-5.04,4.445A5.531,5.531,0,0,1,.192-6.335L-2.4-5.145A8.075,8.075,0,0,0,5.477.42c4.48,0,7.98-2.73,7.98-7.175,0-5.005-3.6-5.95-3.6-5.95a5.707,5.707,0,0,0,3.01-5.32,7.074,7.074,0,0,0-7.315-6.9,7.687,7.687,0,0,0-7.1,4.8L.963-19A4.921,4.921,0,0,1,5.547-22.19,4.246,4.246,0,0,1,9.922-18.025Z" transform="translate(901.125 694.183)" fill="#151515"/>
      <path id="Path_92" data-name="Path 92" d="M-13.983-7.14h9.345v-2.8h-9.345ZM-1.663,0h14.84V-2.73H3.938l6.51-8.68A10.47,10.47,0,0,0,13-17.745c0-4.06-2.94-7.175-7.455-7.175A7.582,7.582,0,0,0-1.8-19.39l2.52.945a5.067,5.067,0,0,1,4.83-3.745,4.219,4.219,0,0,1,4.515,4.445c0,2.7-2.2,5.145-3.115,6.335Z" transform="translate(901.125 580.183)" fill="#151515"/>
      <path id="Path_91" data-name="Path 91" d="M-24.675-7.14h9.345v-2.8h-9.345Zm11.13-12.005,1.715,2.24,4.69-3.745V0H-4.2V-24.5H-6.825Z" transform="translate(916.125 466.183)" fill="#151515"/>
      <g id="Group_63" data-name="Group 63" transform="translate(-15.875 123.634)">
        <rect id="Rectangle_4-2" data-name="Rectangle 4" width="6" height="610.004" transform="translate(958 116.283)" fill="#151515"/>
        <path id="Union_3-2" data-name="Union 3" d="M0,40V34.245H32.553L34,.245,39.755,0,38.3,34.245h.069V40Z" transform="translate(960.11 163.76) rotate(-135)" fill="#151515"/>
      </g>
      <rect id="Rectangle_8" data-name="Rectangle 8" width="12" height="8" transform="translate(930.124 452.183)" fill="#151515"/>
      <rect id="Rectangle_8-2" data-name="Rectangle 8" width="12" height="8" transform="translate(930.124 566.183)" fill="#151515"/>
      <rect id="Rectangle_8-3" data-name="Rectangle 8" width="12" height="8" transform="translate(930.124 680.183)" fill="#151515"/>
      <rect id="Rectangle_8-4" data-name="Rectangle 8" width="12" height="8" transform="translate(930.124 794.183)" fill="#151515"/>
      <rect id="Rectangle_258" data-name="Rectangle 258" width="12" height="8" transform="translate(1100.646 328.21) rotate(90)" fill="#151515"/>
      <rect id="Rectangle_259" data-name="Rectangle 259" width="12" height="8" transform="translate(643.642 328.21) rotate(90)" fill="#151515"/>
      <rect id="Rectangle_260" data-name="Rectangle 260" width="12" height="8" transform="translate(490.81 330.21) rotate(90)" fill="#151515"/>
      <rect id="Rectangle_261" data-name="Rectangle 261" width="12" height="8" transform="translate(796.642 328.21) rotate(90)" fill="#151515"/>
      <path id="Path_88" data-name="Path 88" d="M7.927-2.625A2.985,2.985,0,0,1,6.7-2.17c-.805,0-1.855-.21-1.855-2.485V-13.44h3.64v-2.73H-8.767v2.73h3.29V0h2.94V-13.44H1.908v9.065C1.908-.525,4.5.56,6.247.56a5.177,5.177,0,0,0,2.73-.735Z" transform="translate(1097.125 314.183)" fill="#151515"/>
      <path id="Path_89" data-name="Path 89" d="M-17.728,0h14.84V-2.73h-9.24l6.51-8.68a10.47,10.47,0,0,0,2.555-6.335c0-4.06-2.94-7.175-7.455-7.175a7.582,7.582,0,0,0-7.35,5.53l2.52.945a5.067,5.067,0,0,1,4.83-3.745A4.219,4.219,0,0,1-6-17.745c0,2.7-2.2,5.145-3.115,6.335ZM17.237-2.625a2.985,2.985,0,0,1-1.225.455c-.805,0-1.855-.21-1.855-2.485V-13.44H17.8v-2.73H.543v2.73h3.29V0h2.94V-13.44h4.445v9.065c0,3.85,2.59,4.935,4.34,4.935a5.177,5.177,0,0,0,2.73-.735Z" transform="translate(1250.125 314.183)" fill="#151515"/>
      <path id="Path_90" data-name="Path 90" d="M-6.142-18.025c0,2.8-2.24,4.165-5,4.165h-.735v2.695h1.155c3.5,0,5.18,1.68,5.18,4.41,0,2.345-1.89,4.445-5.04,4.445a5.531,5.531,0,0,1-5.285-4.025l-2.59,1.19A8.075,8.075,0,0,0-10.587.42c4.48,0,7.98-2.73,7.98-7.175,0-5.005-3.6-5.95-3.6-5.95a5.707,5.707,0,0,0,3.01-5.32,7.074,7.074,0,0,0-7.315-6.9,7.687,7.687,0,0,0-7.1,4.8L-15.1-19a4.921,4.921,0,0,1,4.585-3.185A4.246,4.246,0,0,1-6.142-18.025Zm23.59,15.4a2.985,2.985,0,0,1-1.225.455c-.805,0-1.855-.21-1.855-2.485V-13.44h3.64v-2.73H.753v2.73h3.29V0h2.94V-13.44h4.445v9.065c0,3.85,2.59,4.935,4.34,4.935A5.177,5.177,0,0,0,18.5-.175Z" transform="translate(1402.125 314.183)" fill="#151515"/>
      <path id="Path_87" data-name="Path 87" d="M-14.91-7.14h9.345v-2.8H-14.91ZM13.755-2.625a2.985,2.985,0,0,1-1.225.455c-.805,0-1.855-.21-1.855-2.485V-13.44h3.64v-2.73H-2.94v2.73H.35V0H3.29V-13.44H7.735v9.065c0,3.85,2.59,4.935,4.34,4.935A5.177,5.177,0,0,0,14.8-.175Z" transform="translate(793.125 314.183)" fill="#151515"/>
      <path id="Path_86" data-name="Path 86" d="M-24.22-7.14h9.345v-2.8H-24.22ZM-11.9,0H2.94V-2.73H-6.3L.21-11.41a10.47,10.47,0,0,0,2.555-6.335c0-4.06-2.94-7.175-7.455-7.175a7.582,7.582,0,0,0-7.35,5.53l2.52.945A5.067,5.067,0,0,1-4.69-22.19,4.219,4.219,0,0,1-.175-17.745c0,2.7-2.2,5.145-3.115,6.335ZM23.065-2.625a2.985,2.985,0,0,1-1.225.455c-.805,0-1.855-.21-1.855-2.485V-13.44h3.64v-2.73H6.37v2.73H9.66V0H12.6V-13.44h4.445v9.065c0,3.85,2.59,4.935,4.34,4.935a5.177,5.177,0,0,0,2.73-.735Z" transform="translate(640.125 314.183)" fill="#151515"/>
      <path id="Path_85" data-name="Path 85" d="M-24.43-7.14h9.345v-2.8H-24.43ZM-.315-18.025c0,2.8-2.24,4.165-5,4.165h-.735v2.695H-4.9c3.5,0,5.18,1.68,5.18,4.41C.28-4.41-1.61-2.31-4.76-2.31a5.531,5.531,0,0,1-5.285-4.025l-2.59,1.19A8.075,8.075,0,0,0-4.76.42c4.48,0,7.98-2.73,7.98-7.175,0-5.005-3.6-5.95-3.6-5.95a5.707,5.707,0,0,0,3.01-5.32,7.074,7.074,0,0,0-7.315-6.9,7.687,7.687,0,0,0-7.1,4.8L-9.275-19A4.921,4.921,0,0,1-4.69-22.19,4.246,4.246,0,0,1-.315-18.025Zm23.59,15.4a2.985,2.985,0,0,1-1.225.455c-.805,0-1.855-.21-1.855-2.485V-13.44h3.64v-2.73H6.58v2.73H9.87V0h2.94V-13.44h4.445v9.065c0,3.85,2.59,4.935,4.34,4.935a5.177,5.177,0,0,0,2.73-.735Z" transform="translate(487.125 314.183)" fill="#151515"/>
      <path id="Path_82" data-name="Path 82" d="M10643.027,3005.167c5.291-319.671,24.468-494.127,69.2-494.417,50.193-.325,68.037,283.082,73.154,494.417" transform="translate(-9691.836 -2169)" fill="none" stroke="#2196f3" stroke-linecap="round" stroke-width="7"/>
      <path id="Path_83" data-name="Path 83" d="M10643.027,3005.167c5.291-319.671,24.468-494.127,69.2-494.417,50.193-.325,68.037,283.082,73.154,494.417" transform="translate(-9998.836 -2169)" fill="none" stroke="#2196f3" stroke-linecap="round" stroke-width="7"/>
      <path id="Path_84" data-name="Path 84" d="M10643.027,3005.167c5.291-319.671,24.468-494.127,69.2-494.417,50.193-.325,68.037,283.082,73.154,494.417" transform="translate(-9386.836 -2169)" fill="none" stroke="#2196f3" stroke-linecap="round" stroke-width="7"/>
    </g>
  </g>
</svg>
