<svg xmlns="http://www.w3.org/2000/svg" xmlns:xlink="http://www.w3.org/1999/xlink" width="1273" height="595.087" viewBox="0 0 1273 595.087">
  <defs>
    <linearGradient id="linear-gradient" x1="0.5" x2="0.5" y2="1" gradientUnits="objectBoundingBox">
      <stop offset="0" stop-color="#ff3b30"/>
      <stop offset="1" stop-color="#007aff"/>
    </linearGradient>
  </defs>
  <g id="Group_85" data-name="Group 85" transform="translate(-324 -239.204)">
    <path id="Path_129" data-name="Path 129" d="M0,0H1273V595.087H0Z" transform="translate(324 239.204)" fill="#fafafa"/>
    <g id="Group_84" data-name="Group 84" transform="translate(-31.945 -32.046)">
      <g id="Rectangle_273" data-name="Rectangle 273" transform="translate(774.306 288)" fill="none" stroke="#151515" stroke-width="2">
        <rect width="225.42" height="225.42" stroke="none"/>
        <rect x="1" y="1" width="223.42" height="223.42" fill="none"/>
      </g>
      <g id="Rectangle_277" data-name="Rectangle 277" transform="translate(997.471 288)" fill="none" stroke="#151515" stroke-width="2">
        <rect width="225.42" height="225.42" stroke="none"/>
        <rect x="1" y="1" width="223.42" height="223.42" fill="none"/>
      </g>
      <g id="Rectangle_278" data-name="Rectangle 278" transform="translate(774.305 511.166)" fill="none" stroke="#151515" stroke-width="2">
        <rect width="225.42" height="225.42" stroke="none"/>
        <rect x="1" y="1" width="223.42" height="223.42" fill="none"/>
      </g>
      <g id="Rectangle_279" data-name="Rectangle 279" transform="translate(997.471 511.166)" fill="none" stroke="#151515" stroke-width="2">
        <rect width="225.42" height="225.42" stroke="none"/>
        <rect x="1" y="1" width="223.42" height="223.42" fill="none"/>
      </g>
      <rect id="Rectangle_280" data-name="Rectangle 280" width="10.144" height="472.255" transform="translate(750.636 288)" fill="url(#linear-gradient)"/>
      <rect id="Rectangle_281" data-name="Rectangle 281" width="10.144" height="472.255" transform="translate(1222.891 750.111) rotate(90)" fill="url(#linear-gradient)"/>
      <path id="Path_164" data-name="Path 164" d="M-82.024-17.429a11.374,11.374,0,0,0-8.487-3.618c-6.83,0-11.7,5.41-11.7,12.24s4.869,12.24,11.7,12.24A12.033,12.033,0,0,0-81.753-.455L-83.68-2.416A9.358,9.358,0,0,1-90.511.728c-5.14,0-8.656-4.5-8.656-9.535s3.517-9.535,8.656-9.535a8.592,8.592,0,0,1,6.526,2.773Zm9.3,4.43a11.639,11.639,0,0,0-5.85,1.589l1.183,2.367a10.819,10.819,0,0,1,4.666-1.319c1.251,0,3.956.44,3.956,3.686v.845a8.744,8.744,0,0,0-4.7-1.285c-3.517,0-6.188,2.164-6.188,5.207,0,3.381,3.009,5.342,5.816,5.342A6.6,6.6,0,0,0-68.532.762V3.028h2.6V-7.252C-65.929-10.16-68.126-13-72.725-13ZM-73.232.931c-1.758,0-3.584-.812-3.584-2.84,0-1.623,1.522-2.84,3.956-2.84a7.484,7.484,0,0,1,4.091,1.116v2.2A6,6,0,0,1-73.232.931ZM-61.6-12.594V10.8h2.84V1.1a6.284,6.284,0,0,0,5.038,2.333c4.227,0,7.574-3.618,7.574-8.217S-49.5-13-53.722-13A6.149,6.149,0,0,0-59-10.329v-2.265Zm2.84,4.9a5.551,5.551,0,0,1,4.6-2.671c3.178,0,5.173,2.5,5.173,5.579S-50.983.8-54.162.8a5.551,5.551,0,0,1-4.6-2.671ZM-36.714-13a11.639,11.639,0,0,0-5.85,1.589l1.183,2.367a10.819,10.819,0,0,1,4.666-1.319c1.251,0,3.956.44,3.956,3.686v.845a8.744,8.744,0,0,0-4.7-1.285c-3.517,0-6.188,2.164-6.188,5.207,0,3.381,3.009,5.342,5.816,5.342A6.6,6.6,0,0,0-32.521.762V3.028h2.6V-7.252C-29.918-10.16-32.116-13-36.714-13ZM-37.221.931c-1.758,0-3.584-.812-3.584-2.84,0-1.623,1.522-2.84,3.956-2.84a7.484,7.484,0,0,1,4.091,1.116v2.2A6,6,0,0,1-37.221.931ZM-14.06-1.436A5.733,5.733,0,0,1-18.624.8c-3.145,0-5.207-2.5-5.207-5.579s2.063-5.579,5.207-5.579A5.773,5.773,0,0,1-14.33-8.469l1.927-1.724A8.373,8.373,0,0,0-18.624-13a8.02,8.02,0,0,0-8.047,8.217,8,8,0,0,0,8.047,8.217A8.424,8.424,0,0,0-12.234.424Zm5.106,4.463h2.84V-12.594h-2.84ZM-9.461-17.6a1.949,1.949,0,0,0,1.927,1.927A1.949,1.949,0,0,0-5.606-17.6a1.949,1.949,0,0,0-1.927-1.927A1.949,1.949,0,0,0-9.461-17.6Zm6.83,7.574H.412V-1.47a4.568,4.568,0,0,0,4.7,4.9,6.437,6.437,0,0,0,3.246-.947L7.31.153A3.708,3.708,0,0,1,5.518.8,2.092,2.092,0,0,1,3.253-1.6v-8.419H8.122v-2.57H3.253v-4.768H.412v4.768H-2.631ZM10.184,10.094A5.765,5.765,0,0,0,13.5,11.21a4.592,4.592,0,0,0,4.328-3.145c.372-.913,8.217-20.66,8.217-20.66H22.966L18.3-.252,12.822-12.594H9.61L16.913,3.1,15.7,6.172c-.609,1.522-1.183,2.4-2.435,2.4a3.635,3.635,0,0,1-1.86-.812Zm32.46-32.9-2.3-1.014L26.922,6.51l2.3,1.014ZM45.654,3.028h2.84V-12.594h-2.84ZM45.147-17.6a1.949,1.949,0,0,0,1.927,1.927A1.949,1.949,0,0,0,49-17.6a1.949,1.949,0,0,0-1.927-1.927A1.949,1.949,0,0,0,45.147-17.6ZM60.769-13a5.557,5.557,0,0,0-4.8,2.6v-2.2H53.33V3.028h2.84V-7.725s1.353-2.637,3.888-2.637a3.464,3.464,0,0,1,3.753,3.821V3.028h2.84V-7.015A5.686,5.686,0,0,0,60.769-13Zm8.859,2.976h3.043V-1.47a4.568,4.568,0,0,0,4.7,4.9,6.437,6.437,0,0,0,3.246-.947L79.569.153A3.708,3.708,0,0,1,77.777.8a2.092,2.092,0,0,1-2.265-2.4v-8.419H80.38v-2.57H75.511v-4.768h-2.84v4.768H69.628ZM90.423-13c-4.7,0-7.811,3.652-7.811,8.217a7.982,7.982,0,0,0,8.149,8.217A8.708,8.708,0,0,0,97.253.356L95.461-1.5a6.033,6.033,0,0,1-4.7,2.3,5.269,5.269,0,0,1-5.376-4.565H98a8.872,8.872,0,0,0,.034-.913C98.031-9.72,94.785-13,90.423-13ZM85.452-6.136a4.844,4.844,0,0,1,4.971-4.227,4.7,4.7,0,0,1,4.835,4.227ZM108.715-13a5.557,5.557,0,0,0-4.8,2.6v-2.2h-2.637V3.028h2.84V-7.725s1.353-2.637,3.888-2.637a3.464,3.464,0,0,1,3.753,3.821V3.028h2.84V-7.015A5.686,5.686,0,0,0,108.715-13Zm8.859,2.976h3.043V-1.47a4.568,4.568,0,0,0,4.7,4.9,6.437,6.437,0,0,0,3.246-.947L127.516.153A3.708,3.708,0,0,1,125.723.8a2.092,2.092,0,0,1-2.265-2.4v-8.419h4.869v-2.57h-4.869v-4.768h-2.84v4.768h-3.043Z" transform="translate(985.607 845.141)" fill="#151515"/>
      <path id="Path_161" data-name="Path 161" d="M0,1.894V25.563H2.84V7.067l8.081,13.119L19,7.033v18.53h2.84V1.894H19.1L10.989,15.114,2.84,1.894ZM32.968,9.535a11.639,11.639,0,0,0-5.85,1.589L28.3,13.491a10.819,10.819,0,0,1,4.666-1.319c1.251,0,3.956.44,3.956,3.686V16.7a8.744,8.744,0,0,0-4.7-1.285c-3.517,0-6.188,2.164-6.188,5.207,0,3.381,3.009,5.342,5.816,5.342A6.6,6.6,0,0,0,37.16,23.3v2.265h2.6V15.283C39.764,12.376,37.566,9.535,32.968,9.535ZM32.46,23.466c-1.758,0-3.584-.812-3.584-2.84,0-1.623,1.522-2.84,3.956-2.84A7.484,7.484,0,0,1,36.924,18.9v2.2A6,6,0,0,1,32.46,23.466ZM51.091,9.535a5.227,5.227,0,0,0-4.362,2.806v-2.4H44.092V25.563h2.84V14.81s1.116-2.637,3.584-2.637a3.962,3.962,0,0,1,1.792.338l1.048-2.57A6.53,6.53,0,0,0,51.091,9.535ZM66.1,25.563h3.956l-7.912-8.25,7.3-7.371H65.732l-6.695,6.932V0H56.2V25.563h2.84V17.989ZM78.48,9.535c-4.7,0-7.811,3.652-7.811,8.217a7.982,7.982,0,0,0,8.149,8.217,8.708,8.708,0,0,0,6.492-3.077l-1.792-1.86a6.033,6.033,0,0,1-4.7,2.3,5.269,5.269,0,0,1-5.376-4.565H86.054a8.872,8.872,0,0,0,.034-.913C86.088,12.815,82.842,9.535,78.48,9.535ZM73.509,16.4a4.844,4.844,0,0,1,4.971-4.227A4.7,4.7,0,0,1,83.315,16.4Zm14.472-3.888h3.043v8.555a4.568,4.568,0,0,0,4.7,4.9,6.437,6.437,0,0,0,3.246-.947l-1.048-2.333a3.708,3.708,0,0,1-1.792.642,2.092,2.092,0,0,1-2.265-2.4V12.511h4.869V9.941H93.865V5.173h-2.84V9.941H87.981Zm23.534-2.57v23.4h2.84v-9.7a6.284,6.284,0,0,0,5.038,2.333c4.227,0,7.574-3.618,7.574-8.217s-3.347-8.217-7.574-8.217a6.149,6.149,0,0,0-5.275,2.671V9.941Zm2.84,4.9a5.551,5.551,0,0,1,4.6-2.671c3.178,0,5.173,2.5,5.173,5.579s-1.995,5.579-5.173,5.579a5.551,5.551,0,0,1-4.6-2.671Zm22.824-5.309a8,8,0,0,0-8.047,8.217,8.049,8.049,0,1,0,16.095,0A8,8,0,0,0,137.179,9.535Zm0,13.8c-3.145,0-5.207-2.5-5.207-5.579s2.063-5.579,5.207-5.579,5.207,2.5,5.207,5.579S140.324,23.331,137.179,23.331Zm9.941-10.82h3.043v8.555a4.568,4.568,0,0,0,4.7,4.9,6.437,6.437,0,0,0,3.246-.947l-1.048-2.333a3.708,3.708,0,0,1-1.792.642A2.092,2.092,0,0,1,153,20.93V12.511h4.869V9.941H153V5.173h-2.84V9.941H147.12Zm20.795-2.976c-4.7,0-7.811,3.652-7.811,8.217a7.982,7.982,0,0,0,8.149,8.217,8.708,8.708,0,0,0,6.492-3.077l-1.792-1.86a6.033,6.033,0,0,1-4.7,2.3,5.269,5.269,0,0,1-5.376-4.565h12.612a8.87,8.87,0,0,0,.034-.913C175.523,12.815,172.277,9.535,167.915,9.535ZM162.945,16.4a4.844,4.844,0,0,1,4.971-4.227,4.7,4.7,0,0,1,4.835,4.227Zm23.263-6.864a5.557,5.557,0,0,0-4.8,2.6v-2.2h-2.637V25.563h2.84V14.81s1.353-2.637,3.888-2.637a3.464,3.464,0,0,1,3.753,3.821v9.569h2.84V15.52A5.686,5.686,0,0,0,186.208,9.535Zm8.859,2.976h3.043v8.555a4.568,4.568,0,0,0,4.7,4.9,6.437,6.437,0,0,0,3.246-.947l-1.048-2.333a3.708,3.708,0,0,1-1.792.642,2.092,2.092,0,0,1-2.265-2.4V12.511h4.869V9.941h-4.869V5.173h-2.84V9.941h-3.043Zm14.573,13.052h2.84V9.941h-2.84Zm-.507-20.626a1.927,1.927,0,1,0,1.927-1.927A1.949,1.949,0,0,0,209.133,4.937Zm14.371,4.6a11.639,11.639,0,0,0-5.85,1.589l1.183,2.367a10.819,10.819,0,0,1,4.666-1.319c1.251,0,3.956.44,3.956,3.686V16.7a8.744,8.744,0,0,0-4.7-1.285c-3.517,0-6.188,2.164-6.188,5.207,0,3.381,3.009,5.342,5.816,5.342A6.6,6.6,0,0,0,227.7,23.3v2.265h2.6V15.283C230.3,12.376,228.1,9.535,223.5,9.535ZM223,23.466c-1.758,0-3.584-.812-3.584-2.84,0-1.623,1.522-2.84,3.956-2.84A7.484,7.484,0,0,1,227.46,18.9v2.2A6,6,0,0,1,223,23.466Zm12.24,2.1h2.84V0h-2.84Z" transform="translate(656.32 631.332) rotate(-90)" fill="#151515"/>
      <path id="Path_160" data-name="Path 160" d="M12.257,10.059H2.367V1.578H0V21.3H2.367V12.314h9.89V21.3h2.367V1.578H12.257Zm6.9,11.243h2.367V8.284H19.161ZM18.738,4.114a1.606,1.606,0,1,0,1.606-1.606A1.624,1.624,0,0,0,18.738,4.114ZM35.166,21.471c0,2.93-1.719,4.452-4.48,4.452a5.745,5.745,0,0,1-4.255-2.057l-1.437,1.775a7.942,7.942,0,0,0,5.692,2.48c3.776,0,6.847-2.254,6.847-6.763V8.284h-2.17v1.888a5.068,5.068,0,0,0-4.4-2.226,6.541,6.541,0,0,0-6.312,6.847,6.541,6.541,0,0,0,6.312,6.847,5.238,5.238,0,0,0,4.2-1.972Zm0-4.227a4.628,4.628,0,0,1-3.832,2.2,4.327,4.327,0,0,1-4.311-4.649,4.327,4.327,0,0,1,4.311-4.649,4.686,4.686,0,0,1,3.832,2.2Zm12.68-9.3a4.582,4.582,0,0,0-3.832,1.916V0H41.646V21.3h2.367v-8.96s1.127-2.2,3.24-2.2a2.887,2.887,0,0,1,3.128,3.184V21.3h2.367V12.933A4.738,4.738,0,0,0,47.845,7.946Z" transform="translate(709.046 342.298) rotate(-90)" fill="#151515"/>
      <path id="Path_162" data-name="Path 162" d="M0,19.724H11.215V17.47H2.367V0H0ZM19.048,6.368a6.666,6.666,0,0,0-6.706,6.847,6.708,6.708,0,1,0,13.412,0A6.666,6.666,0,0,0,19.048,6.368Zm0,11.5a4.365,4.365,0,0,1-4.339-4.649,4.35,4.35,0,1,1,8.679,0A4.365,4.365,0,0,1,19.048,17.865ZM26.656,6.706,32.6,20.288l4.283-9.778,4.283,9.778L47.113,6.706H44.69l-3.466,8.425L37.758,6.706H36.152l-3.438,8.425L29.22,6.706Z" transform="translate(711.751 757.944) rotate(-90)" fill="#151515"/>
      <path id="Path_163" data-name="Path 163" d="M2.05,2.224H13.265V-.03H4.417V-17.5H2.05ZM21.1-11.132a6.666,6.666,0,0,0-6.706,6.847A6.666,6.666,0,0,0,21.1,2.562,6.666,6.666,0,0,0,27.8-4.285,6.666,6.666,0,0,0,21.1-11.132Zm0,11.5a4.365,4.365,0,0,1-4.339-4.649A4.365,4.365,0,0,1,21.1-8.934a4.365,4.365,0,0,1,4.339,4.649A4.365,4.365,0,0,1,21.1.365Zm7.608-11.158L34.651,2.788,38.934-6.99l4.283,9.778,5.945-13.582H46.74L43.274-2.369l-3.466-8.425H38.2L34.764-2.369,31.27-10.794Z" transform="translate(751.46 794.661)" fill="#151515"/>
      <path id="Path_165" data-name="Path 165" d="M-36.143-8.841h-9.89v-8.481H-48.4V2.4h2.367V-6.586h9.89V2.4h2.367V-17.322h-2.367Zm6.9,11.243h2.367V-10.616h-2.367Zm-.423-17.188a1.624,1.624,0,0,0,1.606,1.606,1.624,1.624,0,0,0,1.606-1.606,1.624,1.624,0,0,0-1.606-1.606A1.624,1.624,0,0,0-29.662-14.786ZM-13.234,2.571c0,2.93-1.719,4.452-4.48,4.452A5.745,5.745,0,0,1-21.97,4.966l-1.437,1.775a7.942,7.942,0,0,0,5.692,2.48c3.776,0,6.847-2.254,6.847-6.763V-10.616h-2.17v1.888a5.068,5.068,0,0,0-4.4-2.226,6.541,6.541,0,0,0-6.312,6.847A6.541,6.541,0,0,0-17.433,2.74a5.238,5.238,0,0,0,4.2-1.972Zm0-4.227a4.628,4.628,0,0,1-3.832,2.2,4.327,4.327,0,0,1-4.311-4.649,4.327,4.327,0,0,1,4.311-4.649,4.686,4.686,0,0,1,3.832,2.2Zm12.68-9.3A4.582,4.582,0,0,0-4.387-9.038V-18.9H-6.754V2.4h2.367v-8.96s1.127-2.2,3.24-2.2A2.887,2.887,0,0,1,1.981-5.572V2.4H4.348V-5.967A4.738,4.738,0,0,0-.555-10.954Z" transform="translate(1217.302 794.483)" fill="#151515"/>
      <path id="Path_166" data-name="Path 166" d="M-41.532-7.911h-2.9v-7.157h2.9c2.649,0,4.086,1.409,4.086,3.579S-38.883-7.911-41.532-7.911ZM-46.8,2.4h2.367V-5.657H-42.6L-37.277,2.4h2.846L-39.9-5.854a5.6,5.6,0,0,0,4.818-5.635c0-3.522-2.677-5.833-6.594-5.833H-46.8Zm20.682-13.356c-3.917,0-6.509,3.043-6.509,6.847A6.651,6.651,0,0,0-25.837,2.74,7.256,7.256,0,0,0-20.427.176l-1.493-1.55A5.027,5.027,0,0,1-25.837.542a4.391,4.391,0,0,1-4.48-3.8h10.51a7.391,7.391,0,0,0,.028-.761C-19.779-8.221-22.484-10.954-26.119-10.954Zm-4.142,5.72a4.037,4.037,0,0,1,4.142-3.522A3.919,3.919,0,0,1-22.09-5.234ZM-16.567,2.4H-14.2V-18.9h-2.367Zm11.384.338A4.613,4.613,0,0,0-1.182.4v2h2.2V-10.616H-1.351V-1.6A3.918,3.918,0,0,1-4.591.542,2.887,2.887,0,0,1-7.719-2.642v-7.974h-2.367v8.369A4.738,4.738,0,0,0-5.183,2.74ZM14.231-1.317a4.778,4.778,0,0,1-3.8,1.86A4.365,4.365,0,0,1,6.088-4.107a4.365,4.365,0,0,1,4.339-4.649,4.811,4.811,0,0,1,3.579,1.578l1.606-1.437a6.977,6.977,0,0,0-5.185-2.339A6.683,6.683,0,0,0,3.721-4.107,6.666,6.666,0,0,0,10.427,2.74,7.02,7.02,0,0,0,15.753.233Zm2.705-7.157h2.536v7.129A3.806,3.806,0,0,0,23.389,2.74a5.364,5.364,0,0,0,2.705-.789L25.22.007a3.09,3.09,0,0,1-1.493.535,1.743,1.743,0,0,1-1.888-2V-8.474H25.9v-2.141H21.839v-3.973H19.472v3.973H16.936Zm16.878-2.48A9.7,9.7,0,0,0,28.94-9.63l.986,1.972a9.016,9.016,0,0,1,3.888-1.1,2.967,2.967,0,0,1,3.3,3.071v.7a7.287,7.287,0,0,0-3.917-1.071c-2.93,0-5.156,1.8-5.156,4.339A4.632,4.632,0,0,0,32.885,2.74,5.5,5.5,0,0,0,37.309.514V2.4h2.17V-6.164C39.478-8.587,37.647-10.954,33.815-10.954ZM33.392.655c-1.465,0-2.987-.676-2.987-2.367,0-1.353,1.268-2.367,3.3-2.367a6.236,6.236,0,0,1,3.409.93v1.832A5,5,0,0,1,33.392.655ZM49.284-10.954a4.631,4.631,0,0,0-4,2.17v-1.832h-2.2V2.4h2.367v-8.96s1.127-2.2,3.24-2.2A2.887,2.887,0,0,1,51.82-5.572V2.4h2.367V-5.967A4.738,4.738,0,0,0,49.284-10.954Zm7.383,2.48H59.2v7.129A3.806,3.806,0,0,0,63.119,2.74a5.364,5.364,0,0,0,2.705-.789L64.951.007a3.09,3.09,0,0,1-1.493.535,1.743,1.743,0,0,1-1.888-2V-8.474h4.058v-2.141H61.569v-3.973H59.2v3.973H56.666ZM-62.228,22.859c-3.917,0-6.509,3.043-6.509,6.847a6.651,6.651,0,0,0,6.791,6.847,7.256,7.256,0,0,0,5.41-2.564l-1.493-1.55a5.027,5.027,0,0,1-3.917,1.916,4.391,4.391,0,0,1-4.48-3.8h10.51a7.39,7.39,0,0,0,.028-.761C-55.889,25.592-58.594,22.859-62.228,22.859Zm-4.142,5.72a4.037,4.037,0,0,1,4.142-3.522A3.919,3.919,0,0,1-58.2,28.579Zm19.386-5.72a4.631,4.631,0,0,0-4,2.17V23.2h-2.2V36.215h2.367v-8.96s1.127-2.2,3.24-2.2a2.887,2.887,0,0,1,3.128,3.184v7.974h2.367V27.846A4.738,4.738,0,0,0-46.984,22.859Zm7.383,2.48h2.536v7.129a3.806,3.806,0,0,0,3.917,4.086,5.364,5.364,0,0,0,2.705-.789l-.874-1.944a3.09,3.09,0,0,1-1.493.535,1.743,1.743,0,0,1-1.888-2V25.339h4.058V23.2H-34.7V19.224h-2.367V23.2H-39.6Zm17.555-2.48A4.356,4.356,0,0,0-25.682,25.2v-2h-2.2V36.215h2.367v-8.96s.93-2.2,2.987-2.2a3.3,3.3,0,0,1,1.493.282l.874-2.141A5.442,5.442,0,0,0-22.047,22.859Zm8.9,0c-3.917,0-6.509,3.043-6.509,6.847a6.651,6.651,0,0,0,6.791,6.847,7.256,7.256,0,0,0,5.41-2.564l-1.493-1.55a5.027,5.027,0,0,1-3.917,1.916,4.391,4.391,0,0,1-4.48-3.8h10.51a7.391,7.391,0,0,0,.028-.761C-6.8,25.592-9.508,22.859-13.143,22.859Zm-4.142,5.72a4.037,4.037,0,0,1,4.142-3.522,3.919,3.919,0,0,1,4.029,3.522ZM-4.1,23.2V42.7h2.367V34.609a5.237,5.237,0,0,0,4.2,1.944,6.541,6.541,0,0,0,6.312-6.847,6.541,6.541,0,0,0-6.312-6.847,5.124,5.124,0,0,0-4.4,2.226V23.2Zm2.367,4.086A4.626,4.626,0,0,1,2.1,25.057a4.327,4.327,0,0,1,4.311,4.649A4.327,4.327,0,0,1,2.1,34.355a4.626,4.626,0,0,1-3.832-2.226Zm19.048-4.424A4.356,4.356,0,0,0,13.682,25.2v-2h-2.2V36.215h2.367v-8.96s.93-2.2,2.987-2.2a3.3,3.3,0,0,1,1.493.282L19.2,23.2A5.442,5.442,0,0,0,17.317,22.859Zm8.9,0c-3.917,0-6.509,3.043-6.509,6.847A6.651,6.651,0,0,0,26.5,36.553a7.256,7.256,0,0,0,5.41-2.564l-1.493-1.55A5.027,5.027,0,0,1,26.5,34.355a4.391,4.391,0,0,1-4.48-3.8h10.51a7.391,7.391,0,0,0,.028-.761C32.561,25.592,29.856,22.859,26.221,22.859Zm-4.142,5.72a4.037,4.037,0,0,1,4.142-3.522,3.919,3.919,0,0,1,4.029,3.522Zm19.386-5.72a4.631,4.631,0,0,0-4,2.17V23.2h-2.2V36.215h2.367v-8.96s1.127-2.2,3.24-2.2A2.887,2.887,0,0,1,44,28.241v7.974h2.367V27.846A4.738,4.738,0,0,0,41.465,22.859Zm14.117,0c-3.917,0-6.509,3.043-6.509,6.847a6.651,6.651,0,0,0,6.791,6.847,7.256,7.256,0,0,0,5.41-2.564l-1.493-1.55a5.027,5.027,0,0,1-3.917,1.916,4.391,4.391,0,0,1-4.48-3.8h10.51a7.391,7.391,0,0,0,.028-.761C61.922,25.592,59.217,22.859,55.582,22.859Zm-4.142,5.72a4.037,4.037,0,0,1,4.142-3.522,3.919,3.919,0,0,1,4.029,3.522Zm18.09,7.974a4.613,4.613,0,0,0,4-2.339v2h2.2V23.2H73.362v9.017a3.918,3.918,0,0,1-3.24,2.141,2.887,2.887,0,0,1-3.128-3.184V23.2H64.627v8.369A4.738,4.738,0,0,0,69.529,36.553ZM85.168,22.859A4.356,4.356,0,0,0,81.533,25.2v-2h-2.2V36.215H81.7v-8.96s.93-2.2,2.987-2.2a3.3,3.3,0,0,1,1.493.282l.873-2.141A5.442,5.442,0,0,0,85.168,22.859Z" transform="translate(878.278 389.291)" fill="#151515"/>
      <path id="Path_167" data-name="Path 167" d="M-44.815,2.224h2.367V-17.5h-2.367ZM-31.74-11.132a4.631,4.631,0,0,0-4,2.17v-1.832h-2.2V2.224h2.367v-8.96s1.127-2.2,3.24-2.2A2.887,2.887,0,0,1-29.2-5.75V2.224h2.367V-6.144A4.738,4.738,0,0,0-31.74-11.132Zm6.875.338,6.509,13.582,6.509-13.582H-14.27l-4,8.82-4-8.82Zm20.2-.338c-3.917,0-6.509,3.043-6.509,6.847A6.651,6.651,0,0,0-4.38,2.562,7.256,7.256,0,0,0,1.03,0L-.463-1.552A5.027,5.027,0,0,1-4.38.365a4.391,4.391,0,0,1-4.48-3.8H1.65A7.391,7.391,0,0,0,1.678-4.2C1.678-8.4-1.027-11.132-4.662-11.132ZM-8.8-5.412A4.037,4.037,0,0,1-4.662-8.934,3.919,3.919,0,0,1-.632-5.412Zm19.386-5.72a4.631,4.631,0,0,0-4,2.17v-1.832h-2.2V2.224H6.75v-8.96s1.127-2.2,3.24-2.2A2.887,2.887,0,0,1,13.118-5.75V2.224h2.367V-6.144A4.738,4.738,0,0,0,10.582-11.132Zm7.383,2.48H20.5v7.129a3.806,3.806,0,0,0,3.917,4.086,5.364,5.364,0,0,0,2.705-.789L26.249-.171a3.09,3.09,0,0,1-1.493.535,1.743,1.743,0,0,1-1.888-2V-8.652h4.058v-2.141H22.868v-3.973H20.5v3.973H17.965ZM30.109,2.224h2.367V-10.794H30.109Zm-.423-17.188a1.624,1.624,0,0,0,1.606,1.606A1.624,1.624,0,0,0,32.9-14.964a1.624,1.624,0,0,0-1.606-1.606A1.624,1.624,0,0,0,29.687-14.964ZM42.7-11.132a4.631,4.631,0,0,0-4,2.17v-1.832h-2.2V2.224h2.367v-8.96s1.127-2.2,3.24-2.2A2.887,2.887,0,0,1,45.24-5.75V2.224h2.367V-6.144A4.738,4.738,0,0,0,42.7-11.132ZM60.823,2.393c0,2.93-1.719,4.452-4.48,4.452a5.745,5.745,0,0,1-4.255-2.057L50.651,6.564a7.942,7.942,0,0,0,5.692,2.48c3.776,0,6.847-2.254,6.847-6.763V-10.794H61.02v1.888a5.068,5.068,0,0,0-4.4-2.226,6.541,6.541,0,0,0-6.312,6.847,6.541,6.541,0,0,0,6.312,6.847A5.238,5.238,0,0,0,60.823.59Zm0-4.227a4.628,4.628,0,0,1-3.832,2.2,4.327,4.327,0,0,1-4.311-4.649,4.327,4.327,0,0,1,4.311-4.649,4.686,4.686,0,0,1,3.832,2.2ZM-62.228,22.681c-3.917,0-6.509,3.043-6.509,6.847a6.651,6.651,0,0,0,6.791,6.847,7.256,7.256,0,0,0,5.41-2.564l-1.493-1.55a5.027,5.027,0,0,1-3.917,1.916,4.391,4.391,0,0,1-4.48-3.8h10.51a7.39,7.39,0,0,0,.028-.761C-55.889,25.414-58.594,22.681-62.228,22.681Zm-4.142,5.72a4.037,4.037,0,0,1,4.142-3.522A3.919,3.919,0,0,1-58.2,28.4Zm19.386-5.72a4.631,4.631,0,0,0-4,2.17V23.019h-2.2V36.037h2.367v-8.96s1.127-2.2,3.24-2.2a2.887,2.887,0,0,1,3.128,3.184v7.974h2.367V27.669A4.738,4.738,0,0,0-46.984,22.681Zm7.383,2.48h2.536V32.29a3.806,3.806,0,0,0,3.917,4.086,5.364,5.364,0,0,0,2.705-.789l-.874-1.944a3.09,3.09,0,0,1-1.493.535,1.743,1.743,0,0,1-1.888-2V25.161h4.058V23.019H-34.7V19.046h-2.367v3.973H-39.6Zm17.555-2.48a4.356,4.356,0,0,0-3.635,2.339v-2h-2.2V36.037h2.367v-8.96s.93-2.2,2.987-2.2a3.3,3.3,0,0,1,1.493.282l.874-2.141A5.442,5.442,0,0,0-22.047,22.681Zm8.9,0c-3.917,0-6.509,3.043-6.509,6.847a6.651,6.651,0,0,0,6.791,6.847,7.256,7.256,0,0,0,5.41-2.564l-1.493-1.55a5.027,5.027,0,0,1-3.917,1.916,4.391,4.391,0,0,1-4.48-3.8h10.51a7.391,7.391,0,0,0,.028-.761C-6.8,25.414-9.508,22.681-13.143,22.681Zm-4.142,5.72a4.037,4.037,0,0,1,4.142-3.522A3.919,3.919,0,0,1-9.114,28.4ZM-4.1,23.019v19.5h2.367V34.431a5.237,5.237,0,0,0,4.2,1.944,6.541,6.541,0,0,0,6.312-6.847,6.541,6.541,0,0,0-6.312-6.847,5.124,5.124,0,0,0-4.4,2.226V23.019ZM-1.731,27.1A4.626,4.626,0,0,1,2.1,24.879a4.327,4.327,0,0,1,4.311,4.649A4.327,4.327,0,0,1,2.1,34.178a4.626,4.626,0,0,1-3.832-2.226Zm19.048-4.424a4.356,4.356,0,0,0-3.635,2.339v-2h-2.2V36.037h2.367v-8.96s.93-2.2,2.987-2.2a3.3,3.3,0,0,1,1.493.282l.874-2.141A5.442,5.442,0,0,0,17.317,22.681Zm8.9,0c-3.917,0-6.509,3.043-6.509,6.847A6.651,6.651,0,0,0,26.5,36.375a7.256,7.256,0,0,0,5.41-2.564l-1.493-1.55A5.027,5.027,0,0,1,26.5,34.178a4.391,4.391,0,0,1-4.48-3.8h10.51a7.391,7.391,0,0,0,.028-.761C32.561,25.414,29.856,22.681,26.221,22.681ZM22.079,28.4a4.037,4.037,0,0,1,4.142-3.522A3.919,3.919,0,0,1,30.25,28.4Zm19.386-5.72a4.631,4.631,0,0,0-4,2.17V23.019h-2.2V36.037h2.367v-8.96s1.127-2.2,3.24-2.2A2.887,2.887,0,0,1,44,28.063v7.974h2.367V27.669A4.738,4.738,0,0,0,41.465,22.681Zm14.117,0c-3.917,0-6.509,3.043-6.509,6.847a6.651,6.651,0,0,0,6.791,6.847,7.256,7.256,0,0,0,5.41-2.564l-1.493-1.55a5.027,5.027,0,0,1-3.917,1.916,4.391,4.391,0,0,1-4.48-3.8h10.51a7.391,7.391,0,0,0,.028-.761C61.922,25.414,59.217,22.681,55.582,22.681ZM51.44,28.4a4.037,4.037,0,0,1,4.142-3.522A3.919,3.919,0,0,1,59.611,28.4Zm18.09,7.974a4.613,4.613,0,0,0,4-2.339v2h2.2V23.019H73.362v9.017a3.918,3.918,0,0,1-3.24,2.141,2.887,2.887,0,0,1-3.128-3.184V23.019H64.627v8.369A4.738,4.738,0,0,0,69.529,36.375ZM85.168,22.681a4.356,4.356,0,0,0-3.635,2.339v-2h-2.2V36.037H81.7v-8.96s.93-2.2,2.987-2.2a3.3,3.3,0,0,1,1.493.282l.873-2.141A5.442,5.442,0,0,0,85.168,22.681Z" transform="translate(1101.444 389.469)" fill="#151515"/>
      <path id="Path_168" data-name="Path 168" d="M-40.8,2.44h11.215V.186h-8.848v-17.47H-40.8Zm13.666,0h2.367V-10.578h-2.367Zm-.423-17.188a1.624,1.624,0,0,0,1.606,1.606,1.624,1.624,0,0,0,1.606-1.606,1.624,1.624,0,0,0-1.606-1.606A1.624,1.624,0,0,0-27.556-14.748Zm5.579,6.312h2.705V2.44H-16.9V-8.436h3.381v-2.141H-16.9v-4.339A1.868,1.868,0,0,1-14.933-17a3.364,3.364,0,0,1,1.522.507l.874-1.944a5.373,5.373,0,0,0-2.733-.761,3.987,3.987,0,0,0-4,4.142v4.48h-2.705ZM-5.8-10.916c-3.917,0-6.509,3.043-6.509,6.847A6.651,6.651,0,0,0-5.521,2.778,7.256,7.256,0,0,0-.111.214L-1.6-1.335A5.027,5.027,0,0,1-5.521.581,4.391,4.391,0,0,1-10-3.223H.509a7.391,7.391,0,0,0,.028-.761C.537-8.183-2.168-10.916-5.8-10.916ZM-9.945-5.2A4.037,4.037,0,0,1-5.8-8.718,3.919,3.919,0,0,1-1.774-5.2ZM2.4.045A7.134,7.134,0,0,0,7.976,2.778c2.508,0,5.156-1.3,5.156-3.8,0-2.649-2.113-3.579-4.593-4.114C6.4-5.59,5.383-6.126,5.383-7.112c0-.845.817-1.662,2.48-1.662a4.78,4.78,0,0,1,3.269,1.437l1.55-1.606a6.766,6.766,0,0,0-4.818-1.972c-2.9,0-4.79,1.86-4.79,3.748,0,2.451,1.972,3.55,4.762,4.114,2,.394,2.959.958,2.959,2.085C10.793.073,9.3.637,7.976.637A5.021,5.021,0,0,1,4.031-1.476ZM14.936-8.436h2.536v7.129a3.806,3.806,0,0,0,3.917,4.086,5.364,5.364,0,0,0,2.705-.789L23.22.045a3.09,3.09,0,0,1-1.493.535,1.743,1.743,0,0,1-1.888-2V-8.436H23.9v-2.141H19.838v-3.973H17.472v3.973H14.936ZM25.615,8.329a4.8,4.8,0,0,0,2.761.93,3.827,3.827,0,0,0,3.607-2.621c.31-.761,6.847-17.216,6.847-17.216H36.266L32.377-.293,27.813-10.578H25.136L31.222,2.5,30.208,5.061c-.507,1.268-.986,2-2.029,2a3.029,3.029,0,0,1-1.55-.676ZM41.253,2.44H43.62v-21.3H41.253ZM53.342-10.916c-3.917,0-6.509,3.043-6.509,6.847a6.651,6.651,0,0,0,6.791,6.847A7.256,7.256,0,0,0,59.033.214L57.54-1.335A5.027,5.027,0,0,1,53.623.581a4.391,4.391,0,0,1-4.48-3.8h10.51a7.391,7.391,0,0,0,.028-.761C59.681-8.183,56.976-10.916,53.342-10.916ZM49.2-5.2a4.037,4.037,0,0,1,4.142-3.522A3.919,3.919,0,0,1,57.371-5.2ZM-62.228,22.9c-3.917,0-6.509,3.043-6.509,6.847a6.651,6.651,0,0,0,6.791,6.847,7.256,7.256,0,0,0,5.41-2.564l-1.493-1.55a5.027,5.027,0,0,1-3.917,1.916,4.391,4.391,0,0,1-4.48-3.8h10.51a7.39,7.39,0,0,0,.028-.761C-55.889,25.63-58.594,22.9-62.228,22.9Zm-4.142,5.72A4.037,4.037,0,0,1-62.228,25.1,3.919,3.919,0,0,1-58.2,28.617Zm19.386-5.72a4.631,4.631,0,0,0-4,2.17V23.235h-2.2V36.253h2.367v-8.96s1.127-2.2,3.24-2.2a2.887,2.887,0,0,1,3.128,3.184v7.974h2.367V27.885A4.738,4.738,0,0,0-46.984,22.9Zm7.383,2.48h2.536v7.129a3.806,3.806,0,0,0,3.917,4.086,5.364,5.364,0,0,0,2.705-.789l-.874-1.944a3.09,3.09,0,0,1-1.493.535,1.743,1.743,0,0,1-1.888-2V25.377h4.058V23.235H-34.7V19.262h-2.367v3.973H-39.6Zm17.555-2.48a4.356,4.356,0,0,0-3.635,2.339v-2h-2.2V36.253h2.367v-8.96s.93-2.2,2.987-2.2a3.3,3.3,0,0,1,1.493.282l.874-2.141A5.442,5.442,0,0,0-22.047,22.9Zm8.9,0c-3.917,0-6.509,3.043-6.509,6.847a6.651,6.651,0,0,0,6.791,6.847,7.256,7.256,0,0,0,5.41-2.564l-1.493-1.55a5.027,5.027,0,0,1-3.917,1.916,4.391,4.391,0,0,1-4.48-3.8h10.51a7.391,7.391,0,0,0,.028-.761C-6.8,25.63-9.508,22.9-13.143,22.9Zm-4.142,5.72A4.037,4.037,0,0,1-13.143,25.1a3.919,3.919,0,0,1,4.029,3.522ZM-4.1,23.235v19.5h2.367V34.647a5.237,5.237,0,0,0,4.2,1.944,6.541,6.541,0,0,0,6.312-6.847A6.541,6.541,0,0,0,2.467,22.9a5.124,5.124,0,0,0-4.4,2.226V23.235Zm2.367,4.086A4.626,4.626,0,0,1,2.1,25.1a4.327,4.327,0,0,1,4.311,4.649A4.327,4.327,0,0,1,2.1,34.394a4.626,4.626,0,0,1-3.832-2.226ZM17.317,22.9a4.356,4.356,0,0,0-3.635,2.339v-2h-2.2V36.253h2.367v-8.96s.93-2.2,2.987-2.2a3.3,3.3,0,0,1,1.493.282l.874-2.141A5.442,5.442,0,0,0,17.317,22.9Zm8.9,0c-3.917,0-6.509,3.043-6.509,6.847A6.651,6.651,0,0,0,26.5,36.591a7.256,7.256,0,0,0,5.41-2.564l-1.493-1.55A5.027,5.027,0,0,1,26.5,34.394a4.391,4.391,0,0,1-4.48-3.8h10.51a7.391,7.391,0,0,0,.028-.761C32.561,25.63,29.856,22.9,26.221,22.9Zm-4.142,5.72A4.037,4.037,0,0,1,26.221,25.1a3.919,3.919,0,0,1,4.029,3.522ZM41.465,22.9a4.631,4.631,0,0,0-4,2.17V23.235h-2.2V36.253h2.367v-8.96s1.127-2.2,3.24-2.2A2.887,2.887,0,0,1,44,28.279v7.974h2.367V27.885A4.738,4.738,0,0,0,41.465,22.9Zm14.117,0c-3.917,0-6.509,3.043-6.509,6.847a6.651,6.651,0,0,0,6.791,6.847,7.256,7.256,0,0,0,5.41-2.564l-1.493-1.55a5.027,5.027,0,0,1-3.917,1.916,4.391,4.391,0,0,1-4.48-3.8h10.51a7.391,7.391,0,0,0,.028-.761C61.922,25.63,59.217,22.9,55.582,22.9Zm-4.142,5.72A4.037,4.037,0,0,1,55.582,25.1a3.919,3.919,0,0,1,4.029,3.522Zm18.09,7.974a4.613,4.613,0,0,0,4-2.339v2h2.2V23.235H73.362v9.017a3.918,3.918,0,0,1-3.24,2.141,2.887,2.887,0,0,1-3.128-3.184V23.235H64.627V31.6A4.738,4.738,0,0,0,69.529,36.591ZM85.168,22.9a4.356,4.356,0,0,0-3.635,2.339v-2h-2.2V36.253H81.7v-8.96s.93-2.2,2.987-2.2a3.3,3.3,0,0,1,1.493.282l.873-2.141A5.442,5.442,0,0,0,85.168,22.9Z" transform="translate(1101.444 612.419)" fill="#151515"/>
      <path id="Path_169" data-name="Path 169" d="M-55.808-15.068h8.763v-2.254h-11.13V2.4h2.367V-6.586h8.2V-8.841h-8.2ZM-43.523,2.4h2.367V-10.616h-2.367Zm-.423-17.188a1.624,1.624,0,0,0,1.606,1.606,1.624,1.624,0,0,0,1.606-1.606,1.624,1.624,0,0,0-1.606-1.606A1.624,1.624,0,0,0-43.945-14.786ZM-36.619,2.4h2.367V-18.9h-2.367Zm12.088-13.356c-3.917,0-6.509,3.043-6.509,6.847A6.651,6.651,0,0,0-24.249,2.74,7.256,7.256,0,0,0-18.839.176l-1.493-1.55A5.027,5.027,0,0,1-24.249.542a4.391,4.391,0,0,1-4.48-3.8h10.51a7.391,7.391,0,0,0,.028-.761C-18.191-8.221-20.9-10.954-24.531-10.954Zm-4.142,5.72a4.037,4.037,0,0,1,4.142-3.522A3.919,3.919,0,0,1-20.5-5.234Zm26.487-5.72A6.541,6.541,0,0,0-8.5-4.107,6.541,6.541,0,0,0-2.186,2.74,5.068,5.068,0,0,0,2.209.514V2.4h2.17V-18.9H2.012v9.89A5.172,5.172,0,0,0-2.186-10.954Zm4.2,9.242A4.624,4.624,0,0,1-1.82.542,4.327,4.327,0,0,1-6.131-4.107,4.36,4.36,0,0,1-1.82-8.756,4.624,4.624,0,0,1,2.012-6.5Zm12.314-9.242a4.356,4.356,0,0,0-3.635,2.339v-2h-2.2V2.4H10.86v-8.96s.93-2.2,2.987-2.2a3.3,3.3,0,0,1,1.493.282l.874-2.141A5.442,5.442,0,0,0,14.326-10.954Zm8.566,0A9.7,9.7,0,0,0,18.017-9.63L19-7.657a9.016,9.016,0,0,1,3.888-1.1,2.967,2.967,0,0,1,3.3,3.071v.7a7.287,7.287,0,0,0-3.917-1.071c-2.93,0-5.156,1.8-5.156,4.339A4.632,4.632,0,0,0,21.962,2.74,5.5,5.5,0,0,0,26.386.514V2.4h2.17V-6.164C28.555-8.587,26.724-10.954,22.892-10.954ZM22.469.655c-1.465,0-2.987-.676-2.987-2.367,0-1.353,1.268-2.367,3.3-2.367a6.236,6.236,0,0,1,3.409.93v1.832A5,5,0,0,1,22.469.655Zm8.115-11.271L36.53,2.966l4.283-9.778L45.1,2.966l5.945-13.582H48.618L45.152-2.191l-3.466-8.425H40.08L36.642-2.191l-3.494-8.425Zm27.868-.338c-3.917,0-6.509,3.043-6.509,6.847A6.651,6.651,0,0,0,58.733,2.74,7.256,7.256,0,0,0,64.144.176L62.65-1.374A5.027,5.027,0,0,1,58.733.542a4.391,4.391,0,0,1-4.48-3.8h10.51a7.39,7.39,0,0,0,.028-.761C64.792-8.221,62.087-10.954,58.452-10.954ZM54.31-5.234a4.037,4.037,0,0,1,4.142-3.522,3.919,3.919,0,0,1,4.029,3.522Zm19.02-5.72a4.356,4.356,0,0,0-3.635,2.339v-2H67.5V2.4h2.367v-8.96s.93-2.2,2.987-2.2a3.3,3.3,0,0,1,1.493.282l.874-2.141A5.442,5.442,0,0,0,73.329-10.954Zm-89.7,47.169h2.367V23.2h-2.367ZM-16.8,19.027a1.624,1.624,0,0,0,1.606,1.606,1.624,1.624,0,0,0,1.606-1.606,1.624,1.624,0,0,0-1.606-1.606A1.624,1.624,0,0,0-16.8,19.027Zm12.229,3.832a6.541,6.541,0,0,0-6.312,6.847,6.541,6.541,0,0,0,6.312,6.847,5.068,5.068,0,0,0,4.4-2.226v1.888H2v-21.3H-.369V24.8A5.172,5.172,0,0,0-4.567,22.859Zm4.2,9.242A4.624,4.624,0,0,1-4.2,34.355a4.327,4.327,0,0,1-4.311-4.649A4.36,4.36,0,0,1-4.2,25.057,4.624,4.624,0,0,1-.369,27.311Zm12.088-9.242C7.8,22.859,5.21,25.9,5.21,29.706A6.651,6.651,0,0,0,12,36.553a7.256,7.256,0,0,0,5.41-2.564l-1.493-1.55A5.027,5.027,0,0,1,12,34.355a4.391,4.391,0,0,1-4.48-3.8h10.51a7.391,7.391,0,0,0,.028-.761C18.059,25.592,15.354,22.859,11.719,22.859Zm-4.142,5.72a4.037,4.037,0,0,1,4.142-3.522,3.919,3.919,0,0,1,4.029,3.522Zm18.344-5.72a9.7,9.7,0,0,0-4.875,1.324l.986,1.972a9.016,9.016,0,0,1,3.888-1.1,2.967,2.967,0,0,1,3.3,3.071v.7A7.287,7.287,0,0,0,25.3,27.762c-2.93,0-5.156,1.8-5.156,4.339a4.632,4.632,0,0,0,4.847,4.452,5.5,5.5,0,0,0,4.424-2.226v1.888h2.17V27.649C31.584,25.226,29.753,22.859,25.921,22.859ZM25.5,34.468c-1.465,0-2.987-.676-2.987-2.367,0-1.353,1.268-2.367,3.3-2.367a6.236,6.236,0,0,1,3.409.93V32.5A5,5,0,0,1,25.5,34.468Z" transform="translate(876.24 612.457)" fill="#151515"/>
    </g>
  </g>
</svg>
