<svg xmlns="http://www.w3.org/2000/svg" width="1132" height="200" viewBox="0 0 1132 200">
  <g id="Group_91" data-name="Group 91" transform="translate(-394 -666)">
    <rect id="Rectangle_306" data-name="Rectangle 306" width="1132" height="200" transform="translate(394 666)" fill="#fafafa"/>
    <g id="Rectangle_307" data-name="Rectangle 307" transform="translate(490 738)" fill="none" stroke="#151515" stroke-width="4">
      <rect width="56" height="56" stroke="none"/>
      <rect x="2" y="2" width="52" height="52" fill="none"/>
    </g>
    <g id="Rectangle_308" data-name="Rectangle 308" transform="translate(542 738)" fill="none" stroke="#151515" stroke-width="4">
      <rect width="56" height="56" stroke="none"/>
      <rect x="2" y="2" width="52" height="52" fill="none"/>
    </g>
    <g id="Rectangle_309" data-name="Rectangle 309" transform="translate(594 738)" fill="#a3d6ff" stroke="#151515" stroke-width="4">
      <rect width="56" height="56" stroke="none"/>
      <rect x="2" y="2" width="52" height="52" fill="none"/>
    </g>
    <g id="Rectangle_310" data-name="Rectangle 310" transform="translate(646 738)" fill="#a3d6ff" stroke="#151515" stroke-width="4">
      <rect width="56" height="56" stroke="none"/>
      <rect x="2" y="2" width="52" height="52" fill="none"/>
    </g>
    <g id="Rectangle_311" data-name="Rectangle 311" transform="translate(698 738)" fill="#a3d6ff" stroke="#151515" stroke-width="4">
      <rect width="56" height="56" stroke="none"/>
      <rect x="2" y="2" width="52" height="52" fill="none"/>
    </g>
    <g id="Rectangle_312" data-name="Rectangle 312" transform="translate(750 738)" fill="none" stroke="#151515" stroke-width="4">
      <rect width="56" height="56" stroke="none"/>
      <rect x="2" y="2" width="52" height="52" fill="none"/>
    </g>
    <g id="Rectangle_313" data-name="Rectangle 313" transform="translate(802 738)" fill="#a3d6ff" stroke="#151515" stroke-width="4">
      <rect width="56" height="56" stroke="none"/>
      <rect x="2" y="2" width="52" height="52" fill="none"/>
    </g>
    <g id="Rectangle_314" data-name="Rectangle 314" transform="translate(854 738)" fill="#a3d6ff" stroke="#151515" stroke-width="4">
      <rect width="56" height="56" stroke="none"/>
      <rect x="2" y="2" width="52" height="52" fill="none"/>
    </g>
    <g id="Rectangle_315" data-name="Rectangle 315" transform="translate(906 738)" fill="#a3d6ff" stroke="#151515" stroke-width="4">
      <rect width="56" height="56" stroke="none"/>
      <rect x="2" y="2" width="52" height="52" fill="none"/>
    </g>
    <g id="Rectangle_316" data-name="Rectangle 316" transform="translate(958 738)" fill="#a3d6ff" stroke="#151515" stroke-width="4">
      <rect width="56" height="56" stroke="none"/>
      <rect x="2" y="2" width="52" height="52" fill="none"/>
    </g>
    <g id="Rectangle_317" data-name="Rectangle 317" transform="translate(1010 738)" fill="#a3d6ff" stroke="#151515" stroke-width="4">
      <rect width="56" height="56" stroke="none"/>
      <rect x="2" y="2" width="52" height="52" fill="none"/>
    </g>
    <g id="Rectangle_318" data-name="Rectangle 318" transform="translate(1062 738)" fill="#a3d6ff" stroke="#151515" stroke-width="4">
      <rect width="56" height="56" stroke="none"/>
      <rect x="2" y="2" width="52" height="52" fill="none"/>
    </g>
    <g id="Rectangle_319" data-name="Rectangle 319" transform="translate(1114 738)" fill="none" stroke="#151515" stroke-width="4">
      <rect width="56" height="56" stroke="none"/>
      <rect x="2" y="2" width="52" height="52" fill="none"/>
    </g>
    <g id="Rectangle_320" data-name="Rectangle 320" transform="translate(1166 738)" fill="#a3d6ff" stroke="#151515" stroke-width="4">
      <rect width="56" height="56" stroke="none"/>
      <rect x="2" y="2" width="52" height="52" fill="none"/>
    </g>
    <g id="Rectangle_321" data-name="Rectangle 321" transform="translate(1218 738)" fill="#a3d6ff" stroke="#151515" stroke-width="4">
      <rect width="56" height="56" stroke="none"/>
      <rect x="2" y="2" width="52" height="52" fill="none"/>
    </g>
    <g id="Rectangle_322" data-name="Rectangle 322" transform="translate(1270 738)" fill="#a3d6ff" stroke="#151515" stroke-width="4">
      <rect width="56" height="56" stroke="none"/>
      <rect x="2" y="2" width="52" height="52" fill="none"/>
    </g>
    <g id="Rectangle_323" data-name="Rectangle 323" transform="translate(1322 738)" fill="none" stroke="#151515" stroke-width="4">
      <rect width="56" height="56" stroke="none"/>
      <rect x="2" y="2" width="52" height="52" fill="none"/>
    </g>
    <g id="Rectangle_324" data-name="Rectangle 324" transform="translate(1374 738)" fill="none" stroke="#151515" stroke-width="4">
      <rect width="56" height="56" stroke="none"/>
      <rect x="2" y="2" width="52" height="52" fill="none"/>
    </g>
    <rect id="Rectangle_325" data-name="Rectangle 325" width="40" height="100" transform="translate(478 716)" fill="#fafafa"/>
    <rect id="Rectangle_326" data-name="Rectangle 326" width="40" height="100" transform="translate(1402 716)" fill="#fafafa"/>
    <circle id="Ellipse_89" data-name="Ellipse 89" cx="10" cy="10" r="10" transform="translate(1288 756)" fill="#151515"/>
    <circle id="Ellipse_90" data-name="Ellipse 90" cx="10" cy="10" r="10" transform="translate(1184 756)" fill="#151515"/>
    <circle id="Ellipse_91" data-name="Ellipse 91" cx="10" cy="10" r="10" transform="translate(1080 756)" fill="#151515"/>
    <circle id="Ellipse_92" data-name="Ellipse 92" cx="10" cy="10" r="10" transform="translate(976 756)" fill="#151515"/>
    <circle id="Ellipse_93" data-name="Ellipse 93" cx="10" cy="10" r="10" transform="translate(924 756)" fill="#151515"/>
    <circle id="Ellipse_94" data-name="Ellipse 94" cx="10" cy="10" r="10" transform="translate(820 756)" fill="#151515"/>
    <circle id="Ellipse_95" data-name="Ellipse 95" cx="10" cy="10" r="10" transform="translate(716 756)" fill="#151515"/>
    <circle id="Ellipse_96" data-name="Ellipse 96" cx="10" cy="10" r="10" transform="translate(612 756)" fill="#151515"/>
    <path id="Path_207" data-name="Path 207" d="M-6.63.312c3.328,0,6.24-2.418,6.24-6.6,0-4.238-2.912-6.656-6.24-6.656s-6.24,2.418-6.24,6.656C-12.87-2.106-9.958.312-6.63.312Zm0-1.768c-2.418,0-4.03-1.95-4.03-4.836,0-2.912,1.612-4.888,4.03-4.888S-2.6-9.2-2.6-6.292C-2.6-3.406-4.212-1.456-6.63-1.456ZM1.4,0H12.532V-1.768H8.216v-14.82H6.63a12.656,12.656,0,0,1-4.108,1.222v1.378H6.084v12.22H1.4Z" transform="translate(882 776)" fill="#151515"/>
    <path id="Path_208" data-name="Path 208" d="M-6.63.312c3.328,0,6.24-2.418,6.24-6.6,0-4.238-2.912-6.656-6.24-6.656s-6.24,2.418-6.24,6.656C-12.87-2.106-9.958.312-6.63.312Zm0-1.768c-2.418,0-4.03-1.95-4.03-4.836,0-2.912,1.612-4.888,4.03-4.888S-2.6-9.2-2.6-6.292C-2.6-3.406-4.212-1.456-6.63-1.456ZM.728,0H12.4V-1.846H6.942c-.988,0-2.054.078-3.094.156,4.524-4.108,7.644-7.2,7.644-10.322,0-2.938-2.08-4.888-5.408-4.888a7.3,7.3,0,0,0-5.46,2.522l1.222,1.222a5.644,5.644,0,0,1,3.978-2c2.444,0,3.614,1.352,3.614,3.25,0,2.756-3.094,5.668-8.71,10.634Z" transform="translate(1038 776)" fill="#151515"/>
    <path id="Path_206" data-name="Path 206" d="M-6.63.312c3.328,0,6.24-2.418,6.24-6.6,0-4.238-2.912-6.656-6.24-6.656s-6.24,2.418-6.24,6.656C-12.87-2.106-9.958.312-6.63.312Zm0-1.768c-2.418,0-4.03-1.95-4.03-4.836,0-2.912,1.612-4.888,4.03-4.888S-2.6-9.2-2.6-6.292C-2.6-3.406-4.212-1.456-6.63-1.456ZM6.292.312c3.3,0,6.006-1.794,6.006-4.732,0-2.288-1.9-3.744-4.108-4.212v-.1c2.054-.676,3.536-1.95,3.536-3.952,0-2.678-2.366-4.212-5.486-4.212a8.043,8.043,0,0,0-5.3,2.08L2.08-13.468a6.163,6.163,0,0,1,4.082-1.69c2.028,0,3.38,1.014,3.38,2.626,0,1.742-1.508,3.094-5.434,3.094V-7.8c4.368,0,6.032,1.326,6.032,3.3,0,1.846-1.716,3.042-3.978,3.042A6.723,6.723,0,0,1,1.4-3.432L.312-2.028A8.132,8.132,0,0,0,6.292.312Z" transform="translate(674 776)" fill="#151515"/>
    <path id="Path_209" data-name="Path 209" d="M-6.63.312c3.328,0,6.24-2.418,6.24-6.6,0-4.238-2.912-6.656-6.24-6.656s-6.24,2.418-6.24,6.656C-12.87-2.106-9.958.312-6.63.312Zm0-1.768c-2.418,0-4.03-1.95-4.03-4.836,0-2.912,1.612-4.888,4.03-4.888S-2.6-9.2-2.6-6.292C-2.6-3.406-4.212-1.456-6.63-1.456ZM8.4,0h2.028V-4.576H13V-6.292H10.426v-10.3H8.138L-.156-6.006v1.43H8.4ZM2.21-6.292l4.5-5.668c.546-.806,1.17-1.612,1.69-2.418h.13c-.052.91-.1,2.028-.13,2.938v5.148Z" transform="translate(1246 776)" fill="#151515"/>
    <path id="Path_185" data-name="Path 185" d="M8894,766c-.994,68.263,43.356,102.327,52.309,0" transform="translate(-7960)" fill="none" stroke="#151515" stroke-width="4"/>
    <path id="Path_186" data-name="Path 186" d="M9050.244,827.62c2.971-65.118-129.516-97.612-156.258,0" transform="translate(-8063.984 -61.296)" fill="none" stroke="#151515" stroke-width="4"/>
    <path id="Path_187" data-name="Path 187" d="M9361.779,842.325c-51.583-101.667-413.915-100.362-467.794,0" transform="translate(-8271.986 -76)" fill="none" stroke="#151515" stroke-width="4"/>
    <path id="Path_188" data-name="Path 188" d="M8893.986,766.563c51.583,101.667,413.915,100.362,467.794,0" transform="translate(-8167.987 -1)" fill="none" stroke="#151515" stroke-width="4"/>
    <path id="Path_189" data-name="Path 189" d="M8893.986,766.563c40.358,101.667,323.846,100.362,366,0" transform="translate(-8273.987 -1)" fill="none" stroke="#151515" stroke-width="4"/>
    <path id="Path_190" data-name="Path 190" d="M8893.985,842.325c63.01-101.667,505.6-100.362,571.416,0" transform="translate(-8271.609 -78)" fill="none" stroke="#151515" stroke-width="4"/>
  </g>
</svg>
