<svg xmlns="http://www.w3.org/2000/svg" width="1132" height="200" viewBox="0 0 1132 200">
  <g id="Group_90" data-name="Group 90" transform="translate(-394 -408)">
    <rect id="Rectangle_285" data-name="Rectangle 285" width="1132" height="200" transform="translate(394 408)" fill="#fafafa"/>
    <g id="Rectangle_286" data-name="Rectangle 286" transform="translate(490 480)" fill="none" stroke="#151515" stroke-width="4">
      <rect width="56" height="56" stroke="none"/>
      <rect x="2" y="2" width="52" height="52" fill="none"/>
    </g>
    <g id="Rectangle_287" data-name="Rectangle 287" transform="translate(542 480)" fill="#fafafa" stroke="#151515" stroke-width="4">
      <rect width="56" height="56" stroke="none"/>
      <rect x="2" y="2" width="52" height="52" fill="none"/>
    </g>
    <g id="Rectangle_298" data-name="Rectangle 298" transform="translate(1114 480)" fill="#a3d6ff" stroke="#151515" stroke-width="4">
      <rect width="56" height="56" stroke="none"/>
      <rect x="2" y="2" width="52" height="52" fill="none"/>
    </g>
    <g id="Rectangle_299" data-name="Rectangle 299" transform="translate(1166 480)" fill="#fafafa" stroke="#151515" stroke-width="4">
      <rect width="56" height="56" stroke="none"/>
      <rect x="2" y="2" width="52" height="52" fill="none"/>
    </g>
    <g id="Rectangle_300" data-name="Rectangle 300" transform="translate(1218 480)" fill="#a3d6ff" stroke="#151515" stroke-width="4">
      <rect width="56" height="56" stroke="none"/>
      <rect x="2" y="2" width="52" height="52" fill="none"/>
    </g>
    <g id="Rectangle_301" data-name="Rectangle 301" transform="translate(1270 480)" fill="#a3d6ff" stroke="#151515" stroke-width="4">
      <rect width="56" height="56" stroke="none"/>
      <rect x="2" y="2" width="52" height="52" fill="none"/>
    </g>
    <g id="Rectangle_302" data-name="Rectangle 302" transform="translate(1322 480)" fill="#fafafa" stroke="#151515" stroke-width="4">
      <rect width="56" height="56" stroke="none"/>
      <rect x="2" y="2" width="52" height="52" fill="none"/>
    </g>
    <g id="Rectangle_303" data-name="Rectangle 303" transform="translate(1374 480)" fill="none" stroke="#151515" stroke-width="4">
      <rect width="56" height="56" stroke="none"/>
      <rect x="2" y="2" width="52" height="52" fill="none"/>
    </g>
    <rect id="Rectangle_304" data-name="Rectangle 304" width="40" height="100" transform="translate(478 458)" fill="#fafafa"/>
    <rect id="Rectangle_305" data-name="Rectangle 305" width="40" height="100" transform="translate(1402 458)" fill="#fafafa"/>
    <circle id="Ellipse_87" data-name="Ellipse 87" cx="10" cy="10" r="10" transform="translate(1132 498)" fill="#151515"/>
    <circle id="Ellipse_88" data-name="Ellipse 88" cx="10" cy="10" r="10" transform="translate(1288 498)" fill="#151515"/>
    <path id="Path_205" data-name="Path 205" d="M-6.63.312c3.328,0,6.24-2.418,6.24-6.6,0-4.238-2.912-6.656-6.24-6.656s-6.24,2.418-6.24,6.656C-12.87-2.106-9.958.312-6.63.312Zm0-1.768c-2.418,0-4.03-1.95-4.03-4.836,0-2.912,1.612-4.888,4.03-4.888S-2.6-9.2-2.6-6.292C-2.6-3.406-4.212-1.456-6.63-1.456ZM8.4,0h2.028V-4.576H13V-6.292H10.426v-10.3H8.138L-.156-6.006v1.43H8.4ZM2.21-6.292l4.5-5.668c.546-.806,1.17-1.612,1.69-2.418h.13c-.052.91-.1,2.028-.13,2.938v5.148Z" transform="translate(1246 518)" fill="#151515"/>
    <g id="Rectangle_289" data-name="Rectangle 289" transform="translate(646 480)" fill="#a3d6ff" stroke="#151515" stroke-width="4">
      <rect width="56" height="56" stroke="none"/>
      <rect x="2" y="2" width="52" height="52" fill="none"/>
    </g>
    <g id="Rectangle_292" data-name="Rectangle 292" transform="translate(802 480)" fill="#a3d6ff" stroke="#151515" stroke-width="4">
      <rect width="56" height="56" stroke="none"/>
      <rect x="2" y="2" width="52" height="52" fill="none"/>
    </g>
    <circle id="Ellipse_84" data-name="Ellipse 84" cx="10" cy="10" r="10" transform="translate(664 498)" fill="#151515"/>
    <circle id="Ellipse_85" data-name="Ellipse 85" cx="10" cy="10" r="10" transform="translate(820 498)" fill="#151515"/>
    <g id="Rectangle_291" data-name="Rectangle 291" transform="translate(750 480)" fill="#a3d6ff" stroke="#151515" stroke-width="4">
      <rect width="56" height="56" stroke="none"/>
      <rect x="2" y="2" width="52" height="52" fill="none"/>
    </g>
    <path id="Path_202" data-name="Path 202" d="M-6.63.312c3.328,0,6.24-2.418,6.24-6.6,0-4.238-2.912-6.656-6.24-6.656s-6.24,2.418-6.24,6.656C-12.87-2.106-9.958.312-6.63.312Zm0-1.768c-2.418,0-4.03-1.95-4.03-4.836,0-2.912,1.612-4.888,4.03-4.888S-2.6-9.2-2.6-6.292C-2.6-3.406-4.212-1.456-6.63-1.456ZM1.4,0H12.532V-1.768H8.216v-14.82H6.63a12.656,12.656,0,0,1-4.108,1.222v1.378H6.084v12.22H1.4Z" transform="translate(778 518)" fill="#151515"/>
    <g id="Rectangle_290" data-name="Rectangle 290" transform="translate(698 480)" fill="#fafafa" stroke="#151515" stroke-width="4">
      <rect width="56" height="56" stroke="none"/>
      <rect x="2" y="2" width="52" height="52" fill="none"/>
    </g>
    <g id="Rectangle_288" data-name="Rectangle 288" transform="translate(594 480)" fill="#a3d6ff" stroke="#151515" stroke-width="4">
      <rect width="56" height="56" stroke="none"/>
      <rect x="2" y="2" width="52" height="52" fill="none"/>
    </g>
    <path id="Path_201" data-name="Path 201" d="M-6.63.312c3.328,0,6.24-2.418,6.24-6.6,0-4.238-2.912-6.656-6.24-6.656s-6.24,2.418-6.24,6.656C-12.87-2.106-9.958.312-6.63.312Zm0-1.768c-2.418,0-4.03-1.95-4.03-4.836,0-2.912,1.612-4.888,4.03-4.888S-2.6-9.2-2.6-6.292C-2.6-3.406-4.212-1.456-6.63-1.456ZM.728,0H12.4V-1.846H6.942c-.988,0-2.054.078-3.094.156,4.524-4.108,7.644-7.2,7.644-10.322,0-2.938-2.08-4.888-5.408-4.888a7.3,7.3,0,0,0-5.46,2.522l1.222,1.222a5.644,5.644,0,0,1,3.978-2c2.444,0,3.614,1.352,3.614,3.25,0,2.756-3.094,5.668-8.71,10.634Z" transform="translate(622 518)" fill="#151515"/>
    <g id="Rectangle_293" data-name="Rectangle 293" transform="translate(854 480)" fill="#a3d6ff" stroke="#151515" stroke-width="4">
      <rect width="56" height="56" stroke="none"/>
      <rect x="2" y="2" width="52" height="52" fill="none"/>
    </g>
    <path id="Path_203" data-name="Path 203" d="M-6.63.312c3.328,0,6.24-2.418,6.24-6.6,0-4.238-2.912-6.656-6.24-6.656s-6.24,2.418-6.24,6.656C-12.87-2.106-9.958.312-6.63.312Zm0-1.768c-2.418,0-4.03-1.95-4.03-4.836,0-2.912,1.612-4.888,4.03-4.888S-2.6-9.2-2.6-6.292C-2.6-3.406-4.212-1.456-6.63-1.456ZM6.266.312C9.438.312,12.4-1.716,12.4-5.3S9.88-10.5,6.708-10.5a7.02,7.02,0,0,0-3.068.676l.442-4.914H11.57v-1.846H2.184L1.638-8.606l1.144.728a6.211,6.211,0,0,1,3.38-1.014c2.47,0,4.082,1.352,4.082,3.64,0,2.314-1.872,3.8-4.212,3.8a6.51,6.51,0,0,1-4.68-1.9L.286-1.95A8.338,8.338,0,0,0,6.266.312Z" transform="translate(882 518)" fill="#151515"/>
    <g id="Rectangle_294" data-name="Rectangle 294" transform="translate(906 480)" fill="#a3d6ff" stroke="#151515" stroke-width="4">
      <rect width="56" height="56" stroke="none"/>
      <rect x="2" y="2" width="52" height="52" fill="none"/>
    </g>
    <circle id="Ellipse_86" data-name="Ellipse 86" cx="10" cy="10" r="10" transform="translate(924 498)" fill="#151515"/>
    <g id="Rectangle_295" data-name="Rectangle 295" transform="translate(958 480)" fill="#fafafa" stroke="#151515" stroke-width="4">
      <rect width="56" height="56" stroke="none"/>
      <rect x="2" y="2" width="52" height="52" fill="none"/>
    </g>
    <g id="Rectangle_296" data-name="Rectangle 296" transform="translate(1010 480)" fill="#fafafa" stroke="#151515" stroke-width="4">
      <rect width="56" height="56" stroke="none"/>
      <rect x="2" y="2" width="52" height="52" fill="none"/>
    </g>
    <g id="Rectangle_297" data-name="Rectangle 297" transform="translate(1062 480)" fill="#a3d6ff" stroke="#151515" stroke-width="4">
      <rect width="56" height="56" stroke="none"/>
      <rect x="2" y="2" width="52" height="52" fill="none"/>
    </g>
    <path id="Path_204" data-name="Path 204" d="M-6.63.312c3.328,0,6.24-2.418,6.24-6.6,0-4.238-2.912-6.656-6.24-6.656s-6.24,2.418-6.24,6.656C-12.87-2.106-9.958.312-6.63.312Zm0-1.768c-2.418,0-4.03-1.95-4.03-4.836,0-2.912,1.612-4.888,4.03-4.888S-2.6-9.2-2.6-6.292C-2.6-3.406-4.212-1.456-6.63-1.456ZM6.292.312c3.3,0,6.006-1.794,6.006-4.732,0-2.288-1.9-3.744-4.108-4.212v-.1c2.054-.676,3.536-1.95,3.536-3.952,0-2.678-2.366-4.212-5.486-4.212a8.043,8.043,0,0,0-5.3,2.08L2.08-13.468a6.163,6.163,0,0,1,4.082-1.69c2.028,0,3.38,1.014,3.38,2.626,0,1.742-1.508,3.094-5.434,3.094V-7.8c4.368,0,6.032,1.326,6.032,3.3,0,1.846-1.716,3.042-3.978,3.042A6.723,6.723,0,0,1,1.4-3.432L.312-2.028A8.132,8.132,0,0,0,6.292.312Z" transform="translate(1090 518)" fill="#151515"/>
    <path id="Path_181" data-name="Path 181" d="M8793,508.5c-15.856-104.352-193.409-93.562-207.623-25.925" transform="translate(-7963)" fill="none" stroke="#151515" stroke-width="4"/>
    <path id="Path_182" data-name="Path 182" d="M8585.379,430.916c32,104.352,390.367,93.562,419.058,25.925" transform="translate(-7911 77)" fill="none" stroke="#151515" stroke-width="4"/>
    <path id="Path_183" data-name="Path 183" d="M8585.377,508.5c7.914-104.352,96.529-93.562,103.623-25.925" transform="translate(-7443)" fill="none" stroke="#151515" stroke-width="4"/>
    <path id="Path_184" data-name="Path 184" d="M9004.438,430.916c-32,104.352-390.367,93.562-419.058,25.925" transform="translate(-7705.001 77)" fill="none" stroke="#151515" stroke-width="4"/>
  </g>
</svg>
