<svg xmlns="http://www.w3.org/2000/svg" width="196" height="164" viewBox="0 0 196 164">
  <g id="hierarchy-ry59iMAz4" transform="translate(-18.982 -22.065)">
    <rect id="Rectangle_255" data-name="Rectangle 255" width="196" height="164" transform="translate(18.982 22.065)" fill="none"/>
    <g id="Group_92" data-name="Group 92" transform="translate(34.791 34.825)">
      <path id="Path_235" data-name="Path 235" d="M161.587,92.335H145.1V69.251a3.3,3.3,0,0,0-3.3-3.3H85.74V46.168h16.488a3.3,3.3,0,0,0,3.3-3.3V3.3a3.3,3.3,0,0,0-3.3-3.3H62.656a3.3,3.3,0,0,0-3.3,3.3V42.87a3.3,3.3,0,0,0,3.3,3.3H79.145V65.954H23.084a3.3,3.3,0,0,0-3.3,3.3V92.335H3.3a3.3,3.3,0,0,0-3.3,3.3v39.572a3.3,3.3,0,0,0,3.3,3.3H42.87a3.3,3.3,0,0,0,3.3-3.3V95.633a3.3,3.3,0,0,0-3.3-3.3H26.382V72.549H79.145V92.335H62.656a3.3,3.3,0,0,0-3.3,3.3v39.572a3.3,3.3,0,0,0,3.3,3.3h39.572a3.3,3.3,0,0,0,3.3-3.3V95.633a3.3,3.3,0,0,0-3.3-3.3H85.74V72.549H138.5V92.335H122.014a3.3,3.3,0,0,0-3.3,3.3v39.572a3.3,3.3,0,0,0,3.3,3.3h39.572a3.3,3.3,0,0,0,3.3-3.3V95.633a3.3,3.3,0,0,0-3.3-3.3Z" fill="#fff" fill-rule="evenodd"/>
    </g>
  </g>
</svg>
