<svg xmlns="http://www.w3.org/2000/svg" width="165" height="164" viewBox="0 0 165 164">
  <g id="maths-ry_hGdcG4" transform="translate(-28.913 -28.913)">
    <rect id="Rectangle_254" data-name="Rectangle 254" width="165" height="164" transform="translate(28.913 28.913)" fill="none"/>
    <g id="Group_87" data-name="Group 87" transform="translate(39.853 39.853)">
      <path id="Path_229" data-name="Path 229" d="M138.331,0h-15.16a4.076,4.076,0,0,0-3.79,3.79V22.266H75.8A13.276,13.276,0,0,0,62.533,11.843,13.771,13.771,0,0,0,49.269,22.266h-27V3.79A3.737,3.737,0,0,0,18.476,0H3.79A4.076,4.076,0,0,0,0,3.79V138.331a4.076,4.076,0,0,0,3.79,3.79H18.95a4.076,4.076,0,0,0,3.79-3.79V119.856H72.956a12.82,12.82,0,0,0,12.317,8.527,13.491,13.491,0,0,0,12.317-8.527h21.792v18.476a4.076,4.076,0,0,0,3.79,3.79h15.16a4.076,4.076,0,0,0,3.79-3.79V3.79A4.076,4.076,0,0,0,138.331,0ZM76.272,82.43A13.276,13.276,0,0,0,63.007,72.008,13.771,13.771,0,0,0,49.742,82.43H22.266V60.165H72.482A12.82,12.82,0,0,0,84.8,68.692a13.491,13.491,0,0,0,12.317-8.527h21.792V82.43Zm-16.581,0H57.8a5.826,5.826,0,0,1,5.211-3.316A5.76,5.76,0,0,1,68.692,84.8c0,3.316-2.842,6.159-5.685,6.159a4.3,4.3,0,0,1-3.316-1.421h.474a4.076,4.076,0,0,0,3.79-3.79,4.15,4.15,0,0,0-4.264-3.316ZM82.43,52.585H80.535a5.825,5.825,0,0,1,5.211-3.316c3.316,0,6.159,2.842,6.159,5.685a6.271,6.271,0,0,1-6.159,6.159,4.3,4.3,0,0,1-3.316-1.421H82.9a4.076,4.076,0,0,0,3.79-3.79,4.55,4.55,0,0,0-4.264-3.316ZM63.007,19.423a5.76,5.76,0,0,1,5.685,5.685c0,3.316-2.842,6.159-5.685,6.159a4.3,4.3,0,0,1-3.316-1.421h.474a4.076,4.076,0,0,0,3.79-3.79,4.076,4.076,0,0,0-3.79-3.79H58.27a4.992,4.992,0,0,1,4.737-2.842ZM50.216,29.845a12.82,12.82,0,0,0,12.317,8.527,13.491,13.491,0,0,0,12.317-8.527h44.058V52.111H97.59A13.276,13.276,0,0,0,84.325,41.689,13.771,13.771,0,0,0,71.061,52.111h-48.8V29.845ZM85.273,120.8a4.3,4.3,0,0,1-3.316-1.421h.474a3.79,3.79,0,0,0,0-7.58H80.535a5.825,5.825,0,0,1,5.211-3.316c3.316,0,6.159,2.842,6.159,5.685-.474,4.264-3.316,6.632-6.632,6.632Zm13.265-8.527a13.276,13.276,0,0,0-13.265-10.422,13.771,13.771,0,0,0-13.265,10.422H22.266V90.01H50.216a12.82,12.82,0,0,0,12.317,8.527A13.491,13.491,0,0,0,74.851,90.01h44.058v22.266Z" fill="#fff" fill-rule="evenodd"/>
    </g>
  </g>
</svg>
