<svg xmlns="http://www.w3.org/2000/svg" width="1520" height="334" viewBox="0 0 1520 334">
  <g id="Group_57" data-name="Group 57" transform="translate(-200 -373)">
    <rect id="Rectangle_1" data-name="Rectangle 1" width="1520" height="334" transform="translate(200 373)" fill="#fafafa"/>
    <g id="Group_56" data-name="Group 56">
      <g id="Group_55" data-name="Group 55" transform="translate(0 20.034)">
        <rect id="Rectangle_237" data-name="Rectangle 237" width="123.079" height="147.234" transform="translate(1110.61 482.035) rotate(90)" fill="#2196f3"/>
        <rect id="Rectangle_241" data-name="Rectangle 241" width="123.079" height="147.234" transform="translate(1418.881 482.035) rotate(90)" fill="#2196f3"/>
        <rect id="Rectangle_246" data-name="Rectangle 246" width="123.079" height="147.234" transform="translate(802.338 482.035) rotate(90)" fill="#2196f3"/>
        <rect id="Rectangle_235" data-name="Rectangle 235" width="1399.875" height="16.104" transform="translate(260.563 534.947)" fill="#151515"/>
        <rect id="Rectangle_236" data-name="Rectangle 236" width="123.079" height="6.902" transform="translate(963.376 482.035) rotate(90)" fill="#151515"/>
        <rect id="Rectangle_238" data-name="Rectangle 238" width="123.079" height="6.902" transform="translate(1117.511 482.035) rotate(90)" fill="#151515"/>
        <rect id="Rectangle_240" data-name="Rectangle 240" width="123.079" height="6.902" transform="translate(1271.647 482.035) rotate(90)" fill="#151515"/>
        <rect id="Rectangle_242" data-name="Rectangle 242" width="123.079" height="6.902" transform="translate(1425.783 482.035) rotate(90)" fill="#151515"/>
        <rect id="Rectangle_243" data-name="Rectangle 243" width="123.079" height="6.902" transform="translate(809.24 482.035) rotate(90)" fill="#151515"/>
        <rect id="Rectangle_245" data-name="Rectangle 245" width="123.079" height="6.902" transform="translate(655.104 482.035) rotate(90)" fill="#151515"/>
        <path id="Path_68" data-name="Path 68" d="M1.376-24.92C-5.79-24.92-8.89-17.875-8.89-10.346S-5.79,4.228,1.376,4.228,11.562-2.818,11.562-10.346,8.542-24.92,1.376-24.92Zm0,26.008c-4.992,0-6.884-5.918-6.884-11.434S-3.616-21.78,1.376-21.78s6.8,5.918,6.8,11.434S6.368,1.088,1.376,1.088Z" transform="translate(958.589 459.886)" fill="#151515"/>
        <path id="Path_69" data-name="Path 69" d="M10.436-.59a3.434,3.434,0,0,1-1.409.523c-.926,0-2.134-.242-2.134-2.858V-13.03H11.08v-3.14H-8.767v3.14h3.784V2.43H-1.6V-13.03H3.512V-2.6c0,4.429,2.979,5.677,4.992,5.677a5.955,5.955,0,0,0,3.14-.845Z" transform="translate(1112.743 461.201)" fill="#151515"/>
        <path id="Path_73" data-name="Path 73" d="M-17.706,3.745H-.637V.6H-11.265L-3.777-9.38c.6-.845,2.939-3.5,2.939-7.287,0-4.67-3.382-8.253-8.575-8.253a8.721,8.721,0,0,0-8.454,6.361l2.9,1.087A5.828,5.828,0,0,1-9.413-21.78,4.854,4.854,0,0,1-4.22-16.667c0,3.1-2.536,5.918-3.583,7.287ZM22.513.725a3.434,3.434,0,0,1-1.409.523c-.926,0-2.134-.242-2.134-2.858V-11.715h4.187v-3.14H3.309v3.14H7.093V3.745h3.382v-15.46h5.113V-1.288c0,4.429,2.979,5.677,4.992,5.677a5.955,5.955,0,0,0,3.14-.845Z" transform="translate(1265.512 459.886)" fill="#151515"/>
        <path id="Path_74" data-name="Path 74" d="M-4.291-16.989c0,3.221-2.577,4.791-5.757,4.791h-.845v3.1h1.329c4.026,0,5.958,1.932,5.958,5.073,0,2.7-2.174,5.113-5.8,5.113a6.362,6.362,0,0,1-6.079-4.63l-2.979,1.369A9.289,9.289,0,0,0-9.4,4.228c5.153,0,9.179-3.14,9.179-8.253,0-5.757-4.147-6.844-4.147-6.844A6.564,6.564,0,0,0-.909-16.989,8.137,8.137,0,0,0-9.324-24.92,8.842,8.842,0,0,0-17.5-19.4l2.9,1.288A5.66,5.66,0,0,1-9.324-21.78,4.884,4.884,0,0,1-4.291-16.989ZM22.844.725a3.434,3.434,0,0,1-1.409.523c-.926,0-2.134-.242-2.134-2.858V-11.715h4.187v-3.14H3.64v3.14H7.424V3.745h3.382v-15.46h5.113V-1.288c0,4.429,2.979,5.677,4.992,5.677a5.955,5.955,0,0,0,3.14-.845Z" transform="translate(1419.558 459.886)" fill="#151515"/>
        <path id="Path_70" data-name="Path 70" d="M-14.91-5.783H-4.161V-9H-14.91ZM18.062-.59a3.434,3.434,0,0,1-1.409.523c-.926,0-2.134-.242-2.134-2.858V-13.03h4.187v-3.14H-1.141v3.14H2.643V2.43H6.025V-13.03h5.113V-2.6c0,4.429,2.979,5.677,4.992,5.677a5.955,5.955,0,0,0,3.14-.845Z" transform="translate(803.549 461.201)" fill="#151515"/>
        <path id="Path_71" data-name="Path 71" d="M-24.22-4.468h10.749V-7.689H-24.22Zm14.171,8.213H7.021V.6H-3.607L3.881-9.38c.6-.845,2.939-3.5,2.939-7.287,0-4.67-3.382-8.253-8.575-8.253a8.721,8.721,0,0,0-8.454,6.361l2.9,1.087A5.828,5.828,0,0,1-1.755-21.78a4.854,4.854,0,0,1,5.193,5.113c0,3.1-2.536,5.918-3.583,7.287ZM30.17.725a3.434,3.434,0,0,1-1.409.523c-.926,0-2.134-.242-2.134-2.858V-11.715h4.187v-3.14H10.967v3.14h3.784V3.745h3.382v-15.46h5.113V-1.288c0,4.429,2.979,5.677,4.992,5.677a5.955,5.955,0,0,0,3.14-.845Z" transform="translate(648.014 459.886)" fill="#151515"/>
        <rect id="Rectangle_248" data-name="Rectangle 248" width="123.079" height="6.902" transform="translate(500.968 482.035) rotate(90)" fill="#151515"/>
        <path id="Path_72" data-name="Path 72" d="M-24.43-4.468h10.749V-7.689H-24.43ZM3.309-16.989c0,3.221-2.577,4.791-5.757,4.791h-.845v3.1h1.329c4.026,0,5.958,1.932,5.958,5.073,0,2.7-2.174,5.113-5.8,5.113a6.362,6.362,0,0,1-6.079-4.63l-2.979,1.369A9.289,9.289,0,0,0-1.8,4.228c5.153,0,9.179-3.14,9.179-8.253,0-5.757-4.147-6.844-4.147-6.844A6.564,6.564,0,0,0,6.69-16.989,8.137,8.137,0,0,0-1.724-24.92,8.842,8.842,0,0,0-9.9-19.4L-7-18.116A5.66,5.66,0,0,1-1.724-21.78,4.884,4.884,0,0,1,3.309-16.989ZM30.443.725a3.434,3.434,0,0,1-1.409.523c-.926,0-2.134-.242-2.134-2.858V-11.715h4.187v-3.14H11.24v3.14h3.784V3.745h3.382v-15.46h5.113V-1.288c0,4.429,2.979,5.677,4.992,5.677a5.955,5.955,0,0,0,3.14-.845Z" transform="translate(493.846 459.886)" fill="#151515"/>
      </g>
      <line id="Line_1" data-name="Line 1" y1="78" transform="translate(959.92 592.5)" fill="none" stroke="#151515" stroke-width="6.9" stroke-dasharray="8"/>
      <line id="Line_2" data-name="Line 2" y1="78" transform="translate(959.92 483.5)" fill="none" stroke="#151515" stroke-width="6.9" stroke-dasharray="8"/>
      <line id="Line_3" data-name="Line 3" y1="29" transform="translate(959.92 417.5)" fill="none" stroke="#151515" stroke-width="6.9" stroke-dasharray="8"/>
    </g>
  </g>
</svg>
