<svg xmlns="http://www.w3.org/2000/svg" width="1167" height="570" viewBox="0 0 1167 570">
  <g id="Group_31" data-name="Group 31" transform="translate(-377 -265)">
    <rect id="Rectangle_3" data-name="Rectangle 3" width="1167" height="570" transform="translate(377 265)" fill="#fafafa"/>
    <g id="Group_30" data-name="Group 30">
      <g id="Group_16" data-name="Group 16" transform="translate(212.529 -29.758)">
        <g id="Group_8" data-name="Group 8" transform="translate(184.001 22.352)">
          <rect id="Rectangle_4" data-name="Rectangle 4" width="6" height="391.083" transform="translate(365 319.324)" fill="#151515"/>
          <path id="Union_3" data-name="Union 3" d="M0,40V34.245H32.553L34,.245,39.755,0,38.3,34.245h.069V40Z" transform="translate(367.11 366.801) rotate(-135)" fill="#151515"/>
        </g>
        <g id="Group_11" data-name="Group 11" transform="translate(1359.406 362.074) rotate(90)">
          <rect id="Rectangle_4-2" data-name="Rectangle 4" width="6" height="491.083" transform="translate(365 319.324)" fill="#151515"/>
          <path id="Union_3-2" data-name="Union 3" d="M0,40V34.245H32.553L34,.245,39.755,0,38.3,34.245h.069V40Z" transform="translate(367.11 366.801) rotate(-135)" fill="#151515"/>
        </g>
      </g>
      <circle id="Ellipse_3" data-name="Ellipse 3" cx="10" cy="10" r="10" transform="translate(858.529 438)" fill="#9f9f9f"/>
      <circle id="Ellipse_29" data-name="Ellipse 29" cx="10" cy="10" r="10" transform="translate(876.529 446)" fill="#9f9f9f"/>
      <circle id="Ellipse_30" data-name="Ellipse 30" cx="10" cy="10" r="10" transform="translate(866.529 458)" fill="#9f9f9f"/>
      <circle id="Ellipse_31" data-name="Ellipse 31" cx="10" cy="10" r="10" transform="translate(866.529 471)" fill="#9f9f9f"/>
      <circle id="Ellipse_40" data-name="Ellipse 40" cx="10" cy="10" r="10" transform="translate(848.529 491)" fill="#9f9f9f"/>
      <circle id="Ellipse_41" data-name="Ellipse 41" cx="10" cy="10" r="10" transform="translate(844.529 505)" fill="#9f9f9f"/>
      <circle id="Ellipse_32" data-name="Ellipse 32" cx="10" cy="10" r="10" transform="translate(878.529 468)" fill="#9f9f9f"/>
      <circle id="Ellipse_33" data-name="Ellipse 33" cx="10" cy="10" r="10" transform="translate(868.529 493)" fill="#9f9f9f"/>
      <circle id="Ellipse_34" data-name="Ellipse 34" cx="10" cy="10" r="10" transform="translate(888.529 485)" fill="#9f9f9f"/>
      <circle id="Ellipse_35" data-name="Ellipse 35" cx="10" cy="10" r="10" transform="translate(901.529 448)" fill="#9f9f9f"/>
      <circle id="Ellipse_36" data-name="Ellipse 36" cx="10" cy="10" r="10" transform="translate(943.529 415)" fill="#9f9f9f"/>
      <circle id="Ellipse_37" data-name="Ellipse 37" cx="10" cy="10" r="10" transform="translate(950.529 393)" fill="#9f9f9f"/>
      <circle id="Ellipse_38" data-name="Ellipse 38" cx="10" cy="10" r="10" transform="translate(940.529 378)" fill="#9f9f9f"/>
      <circle id="Ellipse_39" data-name="Ellipse 39" cx="10" cy="10" r="10" transform="translate(953.529 371)" fill="#9f9f9f"/>
      <circle id="Ellipse_4" data-name="Ellipse 4" cx="10" cy="10" r="10" transform="translate(850.529 630)" fill="#9f9f9f"/>
      <rect id="Rectangle_8" data-name="Rectangle 8" width="12" height="8" transform="translate(750.529 380)" fill="#151515"/>
      <rect id="Rectangle_8-2" data-name="Rectangle 8" width="12" height="8" transform="translate(750.529 458)" fill="#151515"/>
      <rect id="Rectangle_8-3" data-name="Rectangle 8" width="12" height="8" transform="translate(750.529 536)" fill="#151515"/>
      <rect id="Rectangle_8-4" data-name="Rectangle 8" width="12" height="8" transform="translate(750.529 614)" fill="#151515"/>
      <rect id="Rectangle_9" data-name="Rectangle 9" width="12" height="8" transform="translate(875.529 714) rotate(-90)" fill="#151515"/>
      <rect id="Rectangle_9-2" data-name="Rectangle 9" width="12" height="8" transform="translate(995.529 714) rotate(-90)" fill="#151515"/>
      <rect id="Rectangle_9-3" data-name="Rectangle 9" width="12" height="8" transform="translate(1115.529 714) rotate(-90)" fill="#151515"/>
      <path id="Path_4" data-name="Path 4" d="M15.283-12.865H6.014V-21.7H2.294V0h3.72V-9.331h9.269V0H19V-21.7h-3.72Zm14.26-2.2a7.418,7.418,0,0,0-7.378,7.719A7.723,7.723,0,0,0,30.07.372a9.411,9.411,0,0,0,5.89-2.108L34.1-4.526a5.914,5.914,0,0,1-4.03,1.488,4.194,4.194,0,0,1-4.123-2.976H36.921c.031-.558.031-1.116.031-1.395A7.39,7.39,0,0,0,29.543-15.066Zm-3.6,6.355a3.381,3.381,0,0,1,3.6-2.976,3.415,3.415,0,0,1,3.689,2.976ZM40.269,0h3.72V-14.694h-3.72ZM39.68-19.437a2.434,2.434,0,0,0,2.449,2.449,2.434,2.434,0,0,0,2.449-2.449,2.434,2.434,0,0,0-2.449-2.449A2.434,2.434,0,0,0,39.68-19.437ZM58.621-1.519V.248c0,2.2-1.3,3.782-4.185,3.782a7.435,7.435,0,0,1-4.867-2.17L47.461,4.712A10.575,10.575,0,0,0,54.436,7.5c4.123,0,7.9-2.263,7.9-7.378V-14.694H58.9v1.922a5.265,5.265,0,0,0-4.433-2.294,7.381,7.381,0,0,0-7.161,7.719A7.381,7.381,0,0,0,54.467.372,5.246,5.246,0,0,0,58.621-1.519Zm0-3.627a4.132,4.132,0,0,1-3.5,2.046,3.931,3.931,0,0,1-4.03-4.247,3.931,3.931,0,0,1,4.03-4.247,4.072,4.072,0,0,1,3.5,2.046Zm15.748-9.92a4.987,4.987,0,0,0-4.154,2.139V-23.436h-3.72V0h3.72V-9.672a3.631,3.631,0,0,1,2.914-1.922,2.712,2.712,0,0,1,2.914,3.007V0h3.72V-9.517A5.265,5.265,0,0,0,74.369-15.066Zm7.936,3.72h2.883v6.51A4.919,4.919,0,0,0,90.21.372a6.693,6.693,0,0,0,3.534-.961L92.38-3.627a2.944,2.944,0,0,1-1.55.527c-.992,0-1.922-.527-1.922-2.325v-5.921h4.433v-3.348H88.908v-4.371h-3.72v4.371H82.305Zm26.474,2.2A22.639,22.639,0,0,1,112.747-21.7l-3.038-1.829a25.837,25.837,0,0,0-4.588,14.384A26,26,0,0,0,109.709,5.27l3.038-1.86A22.639,22.639,0,0,1,108.779-9.145Zm13.3,6.045a4.072,4.072,0,0,1-4.123-4.247,4.072,4.072,0,0,1,4.123-4.247,4.568,4.568,0,0,1,3.441,1.55l2.573-2.294a7.877,7.877,0,0,0-6.014-2.728,7.742,7.742,0,0,0-7.9,7.719,7.762,7.762,0,0,0,7.9,7.719,7.953,7.953,0,0,0,6.076-2.79L125.705-4.9A4.339,4.339,0,0,1,122.078-3.1Zm25.544-11.966a5.146,5.146,0,0,0-4.681,2.573,4.7,4.7,0,0,0-4.557-2.573,5.1,5.1,0,0,0-4.34,2.511v-2.139h-3.472V0h3.72V-9.7a3.488,3.488,0,0,1,2.883-1.891c1.86,0,2.635,1.085,2.635,3.1V0h3.72V-9.7a3.488,3.488,0,0,1,2.883-1.891c1.86,0,2.635,1.085,2.635,3.1V0h3.72V-9.455C152.768-12.989,150.6-15.066,147.622-15.066Zm11.532,5.921A22.639,22.639,0,0,1,155.186,3.41l3.038,1.86a26,26,0,0,0,4.588-14.415,25.837,25.837,0,0,0-4.588-14.384L155.186-21.7A22.639,22.639,0,0,1,159.154-9.145Z" transform="translate(681.529 597) rotate(-90)" fill="#151515"/>
      <path id="Path_12" data-name="Path 12" d="M30.349-21.7H26.474L21.762-8.68,16.926-21.7H13.857L8.928-8.68,4.34-21.7H.124L8.68.744l6.6-16.275L21.793.744ZM32.922,0h3.72V-14.694h-3.72Zm-.589-19.437a2.434,2.434,0,0,0,2.449,2.449,2.434,2.434,0,0,0,2.449-2.449,2.434,2.434,0,0,0-2.449-2.449A2.434,2.434,0,0,0,32.333-19.437Zm22.661-4h-3.72v10.292a5.241,5.241,0,0,0-4.154-1.922,7.381,7.381,0,0,0-7.161,7.719A7.381,7.381,0,0,0,47.12.372a5.08,5.08,0,0,0,4.433-2.294V0h3.441Zm-3.72,18.29a4.072,4.072,0,0,1-3.5,2.046,3.931,3.931,0,0,1-4.03-4.247,3.931,3.931,0,0,1,4.03-4.247,4.072,4.072,0,0,1,3.5,2.046Zm6.7-6.2h2.883v6.51A4.919,4.919,0,0,0,65.875.372a6.693,6.693,0,0,0,3.534-.961L68.045-3.627a2.944,2.944,0,0,1-1.55.527c-.992,0-1.922-.527-1.922-2.325v-5.921h4.433v-3.348H64.573v-4.371h-3.72v4.371H57.97Zm22.382-3.72A4.987,4.987,0,0,0,76.2-12.927V-23.436h-3.72V0H76.2V-9.672a3.631,3.631,0,0,1,2.914-1.922,2.712,2.712,0,0,1,2.914,3.007V0h3.72V-9.517A5.265,5.265,0,0,0,80.352-15.066Zm21.514,5.921A22.639,22.639,0,0,1,105.834-21.7L102.8-23.529A25.837,25.837,0,0,0,98.208-9.145,26,26,0,0,0,102.8,5.27l3.038-1.86A22.639,22.639,0,0,1,101.866-9.145Zm13.3,6.045a4.072,4.072,0,0,1-4.123-4.247,4.072,4.072,0,0,1,4.123-4.247,4.568,4.568,0,0,1,3.441,1.55l2.573-2.294a7.877,7.877,0,0,0-6.014-2.728,7.742,7.742,0,0,0-7.905,7.719A7.762,7.762,0,0,0,115.165.372a7.953,7.953,0,0,0,6.076-2.79L118.792-4.9A4.339,4.339,0,0,1,115.165-3.1Zm25.544-11.966a5.146,5.146,0,0,0-4.681,2.573,4.7,4.7,0,0,0-4.557-2.573,5.1,5.1,0,0,0-4.34,2.511v-2.139h-3.472V0h3.72V-9.7a3.488,3.488,0,0,1,2.883-1.891c1.86,0,2.635,1.085,2.635,3.1V0h3.72V-9.7a3.488,3.488,0,0,1,2.883-1.891c1.86,0,2.635,1.085,2.635,3.1V0h3.72V-9.455C145.855-12.989,143.685-15.066,140.709-15.066Zm11.532,5.921A22.639,22.639,0,0,1,148.273,3.41l3.038,1.86A26,26,0,0,0,155.9-9.145a25.837,25.837,0,0,0-4.588-14.384L148.273-21.7A22.639,22.639,0,0,1,152.241-9.145Z" transform="translate(930.529 798)" fill="#151515"/>
      <path id="Path_9" data-name="Path 9" d="M3.605-23.8l-2.38-1.54s-7.49,12.425-7.98,13.335a9.735,9.735,0,0,0-1.19,4.34A7.864,7.864,0,0,0,.07.42,7.881,7.881,0,0,0,8.085-7.735,7.75,7.75,0,0,0,.07-15.75a4.453,4.453,0,0,0-1.75.35ZM.07-13.02A5.04,5.04,0,0,1,5.145-7.735,5.116,5.116,0,0,1,.07-2.31,5.116,5.116,0,0,1-5-7.735,5.04,5.04,0,0,1,.07-13.02Z" transform="translate(879.529 752)" fill="#151515"/>
      <path id="Path_10" data-name="Path 10" d="M0-24.92a6.641,6.641,0,0,0-6.895,6.58,6.1,6.1,0,0,0,2.73,5.075A6.92,6.92,0,0,0-7.77-7,7.422,7.422,0,0,0,0,.42,7.422,7.422,0,0,0,7.77-7a6.92,6.92,0,0,0-3.6-6.265A6.1,6.1,0,0,0,6.9-18.34,6.641,6.641,0,0,0,0-24.92ZM0-2.31A4.719,4.719,0,0,1-4.83-7,4.735,4.735,0,0,1,0-11.865,4.735,4.735,0,0,1,4.83-7,4.719,4.719,0,0,1,0-2.31ZM0-14.42a3.828,3.828,0,0,1-3.955-3.885A3.828,3.828,0,0,1,0-22.19a3.828,3.828,0,0,1,3.955,3.885A3.828,3.828,0,0,1,0-14.42Z" transform="translate(999.529 752)" fill="#151515"/>
      <path id="Path_11" data-name="Path 11" d="M-16.818-19.145l1.715,2.24,4.69-3.745V0h2.94V-24.5H-10.1ZM7.122-24.92C.892-24.92-1.8-18.8-1.8-12.25S.892.42,7.122.42,15.977-5.7,15.977-12.25,13.352-24.92,7.122-24.92Zm0,22.61c-4.34,0-5.985-5.145-5.985-9.94s1.645-9.94,5.985-9.94,5.915,5.145,5.915,9.94S11.463-2.31,7.122-2.31Z" transform="translate(1119.529 752)" fill="#151515"/>
      <path id="Path_5" data-name="Path 5" d="M-34.265-19.145l1.715,2.24,4.69-3.745V0h2.94V-24.5h-2.625Zm23.94-5.775c-6.23,0-8.925,6.125-8.925,12.67S-16.555.42-10.325.42-1.47-5.7-1.47-12.25-4.1-24.92-10.325-24.92Zm0,22.61c-4.34,0-5.985-5.145-5.985-9.94s1.645-9.94,5.985-9.94,5.915,5.145,5.915,9.94S-5.985-2.31-10.325-2.31Z" transform="translate(739.529 394)" fill="#151515"/>
      <path id="Path_6" data-name="Path 6" d="M-9.66-24.92a6.641,6.641,0,0,0-6.9,6.58,6.1,6.1,0,0,0,2.73,5.075A6.92,6.92,0,0,0-17.43-7,7.422,7.422,0,0,0-9.66.42,7.422,7.422,0,0,0-1.89-7a6.92,6.92,0,0,0-3.6-6.265,6.1,6.1,0,0,0,2.73-5.075A6.641,6.641,0,0,0-9.66-24.92Zm0,22.61A4.719,4.719,0,0,1-14.49-7a4.735,4.735,0,0,1,4.83-4.865A4.735,4.735,0,0,1-4.83-7,4.719,4.719,0,0,1-9.66-2.31Zm0-12.11a3.828,3.828,0,0,1-3.955-3.885A3.828,3.828,0,0,1-9.66-22.19,3.828,3.828,0,0,1-5.7-18.305,3.828,3.828,0,0,1-9.66-14.42Z" transform="translate(739.529 472)" fill="#151515"/>
      <path id="Path_7" data-name="Path 7" d="M-5.88-23.8l-2.38-1.54s-7.49,12.425-7.98,13.335a9.735,9.735,0,0,0-1.19,4.34A7.864,7.864,0,0,0-9.415.42,7.881,7.881,0,0,0-1.4-7.735,7.75,7.75,0,0,0-9.415-15.75a4.453,4.453,0,0,0-1.75.35ZM-9.415-13.02A5.04,5.04,0,0,1-4.34-7.735,5.116,5.116,0,0,1-9.415-2.31,5.116,5.116,0,0,1-14.49-7.735,5.04,5.04,0,0,1-9.415-13.02Z" transform="translate(739.529 550)" fill="#151515"/>
      <path id="Path_8" data-name="Path 8" d="M-19.6-6.44H-7.105V0h2.87V-6.44H-1.19V-9.17H-4.235V-24.5h-2.59Zm4.9-2.73,7.595-10.85V-9.17Z" transform="translate(739.529 628)" fill="#151515"/>
      <circle id="Ellipse_7" data-name="Ellipse 7" cx="10" cy="10" r="10" transform="translate(843.529 644)" fill="#9f9f9f"/>
      <circle id="Ellipse_8" data-name="Ellipse 8" cx="10" cy="10" r="10" transform="translate(840.529 624)" fill="#9f9f9f"/>
      <circle id="Ellipse_9" data-name="Ellipse 9" cx="10" cy="10" r="10" transform="translate(859.529 620)" fill="#9f9f9f"/>
      <circle id="Ellipse_10" data-name="Ellipse 10" cx="10" cy="10" r="10" transform="translate(855.529 612)" fill="#9f9f9f"/>
      <circle id="Ellipse_11" data-name="Ellipse 11" cx="10" cy="10" r="10" transform="translate(871.529 604)" fill="#9f9f9f"/>
      <circle id="Ellipse_12" data-name="Ellipse 12" cx="10" cy="10" r="10" transform="translate(912.529 513)" fill="#9f9f9f"/>
      <circle id="Ellipse_13" data-name="Ellipse 13" cx="10" cy="10" r="10" transform="translate(943.529 518)" fill="#9f9f9f"/>
      <circle id="Ellipse_19" data-name="Ellipse 19" cx="10" cy="10" r="10" transform="translate(943.529 513)" fill="#9f9f9f"/>
      <circle id="Ellipse_20" data-name="Ellipse 20" cx="10" cy="10" r="10" transform="translate(953.529 503)" fill="#9f9f9f"/>
      <circle id="Ellipse_21" data-name="Ellipse 21" cx="10" cy="10" r="10" transform="translate(969.529 483)" fill="#9f9f9f"/>
      <circle id="Ellipse_22" data-name="Ellipse 22" cx="10" cy="10" r="10" transform="translate(980.529 473)" fill="#9f9f9f"/>
      <circle id="Ellipse_23" data-name="Ellipse 23" cx="10" cy="10" r="10" transform="translate(970.529 464)" fill="#9f9f9f"/>
      <circle id="Ellipse_24" data-name="Ellipse 24" cx="10" cy="10" r="10" transform="translate(963.529 466)" fill="#9f9f9f"/>
      <circle id="Ellipse_25" data-name="Ellipse 25" cx="10" cy="10" r="10" transform="translate(963.529 415)" fill="#9f9f9f"/>
      <circle id="Ellipse_26" data-name="Ellipse 26" cx="10" cy="10" r="10" transform="translate(1052.529 405)" fill="#9f9f9f"/>
      <circle id="Ellipse_27" data-name="Ellipse 27" cx="10" cy="10" r="10" transform="translate(1070.529 415)" fill="#9f9f9f"/>
      <circle id="Ellipse_28" data-name="Ellipse 28" cx="10" cy="10" r="10" transform="translate(1095.529 415)" fill="#9f9f9f"/>
      <circle id="Ellipse_14" data-name="Ellipse 14" cx="10" cy="10" r="10" transform="translate(918.529 498)" fill="#9f9f9f"/>
      <circle id="Ellipse_15" data-name="Ellipse 15" cx="10" cy="10" r="10" transform="translate(933.529 498)" fill="#9f9f9f"/>
      <circle id="Ellipse_16" data-name="Ellipse 16" cx="10" cy="10" r="10" transform="translate(933.529 488)" fill="#9f9f9f"/>
      <circle id="Ellipse_17" data-name="Ellipse 17" cx="10" cy="10" r="10" transform="translate(949.529 480)" fill="#9f9f9f"/>
      <circle id="Ellipse_18" data-name="Ellipse 18" cx="10" cy="10" r="10" transform="translate(938.529 476)" fill="#9f9f9f"/>
    </g>
  </g>
</svg>
