<svg xmlns="http://www.w3.org/2000/svg" width="1167" height="570" viewBox="0 0 1167 570">
  <g id="Group_18" data-name="Group 18" transform="translate(-377 -265)">
    <rect id="Rectangle_3" data-name="Rectangle 3" width="1167" height="570" transform="translate(377 265)" fill="#fafafa"/>
    <g id="Group_17" data-name="Group 17" transform="translate(-78 -25)">
      <g id="Group_16" data-name="Group 16" transform="translate(174 -4.758)">
        <g id="Group_8" data-name="Group 8" transform="translate(184.001 22.352)">
          <rect id="Rectangle_4" data-name="Rectangle 4" width="6" height="391.083" transform="translate(365 319.324)" fill="#151515"/>
          <path id="Union_3" data-name="Union 3" d="M0,40V34.245H32.553L34,.245,39.755,0,38.3,34.245h.069V40Z" transform="translate(367.11 366.801) rotate(-135)" fill="#151515"/>
        </g>
        <g id="Group_11" data-name="Group 11" transform="translate(1359.406 362.074) rotate(90)">
          <rect id="Rectangle_4-2" data-name="Rectangle 4" width="6" height="491.083" transform="translate(365 319.324)" fill="#151515"/>
          <path id="Union_3-2" data-name="Union 3" d="M0,40V34.245H32.553L34,.245,39.755,0,38.3,34.245h.069V40Z" transform="translate(367.11 366.801) rotate(-135)" fill="#151515"/>
        </g>
      </g>
      <circle id="Ellipse_3" data-name="Ellipse 3" cx="10" cy="10" r="10" transform="translate(820 463)" fill="#f2db2b"/>
      <circle id="Ellipse_29" data-name="Ellipse 29" cx="10" cy="10" r="10" transform="translate(838 471)" fill="#f2db2b"/>
      <circle id="Ellipse_30" data-name="Ellipse 30" cx="10" cy="10" r="10" transform="translate(828 483)" fill="#f2db2b"/>
      <circle id="Ellipse_31" data-name="Ellipse 31" cx="10" cy="10" r="10" transform="translate(828 496)" fill="#f2db2b"/>
      <circle id="Ellipse_40" data-name="Ellipse 40" cx="10" cy="10" r="10" transform="translate(810 516)" fill="#f2db2b"/>
      <circle id="Ellipse_41" data-name="Ellipse 41" cx="10" cy="10" r="10" transform="translate(806 530)" fill="#f2db2b"/>
      <circle id="Ellipse_32" data-name="Ellipse 32" cx="10" cy="10" r="10" transform="translate(840 493)" fill="#f2db2b"/>
      <circle id="Ellipse_33" data-name="Ellipse 33" cx="10" cy="10" r="10" transform="translate(830 518)" fill="#f2db2b"/>
      <circle id="Ellipse_34" data-name="Ellipse 34" cx="10" cy="10" r="10" transform="translate(850 510)" fill="#f2db2b"/>
      <circle id="Ellipse_35" data-name="Ellipse 35" cx="10" cy="10" r="10" transform="translate(863 473)" fill="#f2db2b"/>
      <circle id="Ellipse_36" data-name="Ellipse 36" cx="10" cy="10" r="10" transform="translate(905 440)" fill="#f2db2b"/>
      <circle id="Ellipse_37" data-name="Ellipse 37" cx="10" cy="10" r="10" transform="translate(912 418)" fill="#f2db2b"/>
      <circle id="Ellipse_38" data-name="Ellipse 38" cx="10" cy="10" r="10" transform="translate(902 403)" fill="#f2db2b"/>
      <circle id="Ellipse_39" data-name="Ellipse 39" cx="10" cy="10" r="10" transform="translate(915 396)" fill="#f2db2b"/>
      <circle id="Ellipse_4" data-name="Ellipse 4" cx="10" cy="10" r="10" transform="translate(812 655)" fill="#f48a21"/>
      <rect id="Rectangle_8" data-name="Rectangle 8" width="12" height="8" transform="translate(712 405)" fill="#151515"/>
      <rect id="Rectangle_8-2" data-name="Rectangle 8" width="12" height="8" transform="translate(712 483)" fill="#151515"/>
      <rect id="Rectangle_8-3" data-name="Rectangle 8" width="12" height="8" transform="translate(712 561)" fill="#151515"/>
      <rect id="Rectangle_8-4" data-name="Rectangle 8" width="12" height="8" transform="translate(712 639)" fill="#151515"/>
      <rect id="Rectangle_9" data-name="Rectangle 9" width="12" height="8" transform="translate(837 739) rotate(-90)" fill="#151515"/>
      <rect id="Rectangle_9-2" data-name="Rectangle 9" width="12" height="8" transform="translate(957 739) rotate(-90)" fill="#151515"/>
      <rect id="Rectangle_9-3" data-name="Rectangle 9" width="12" height="8" transform="translate(1077 739) rotate(-90)" fill="#151515"/>
      <path id="Path_4" data-name="Path 4" d="M15.283-12.865H6.014V-21.7H2.294V0h3.72V-9.331h9.269V0H19V-21.7h-3.72Zm14.26-2.2a7.418,7.418,0,0,0-7.378,7.719A7.723,7.723,0,0,0,30.07.372a9.411,9.411,0,0,0,5.89-2.108L34.1-4.526a5.914,5.914,0,0,1-4.03,1.488,4.194,4.194,0,0,1-4.123-2.976H36.921c.031-.558.031-1.116.031-1.395A7.39,7.39,0,0,0,29.543-15.066Zm-3.6,6.355a3.381,3.381,0,0,1,3.6-2.976,3.415,3.415,0,0,1,3.689,2.976ZM40.269,0h3.72V-14.694h-3.72ZM39.68-19.437a2.434,2.434,0,0,0,2.449,2.449,2.434,2.434,0,0,0,2.449-2.449,2.434,2.434,0,0,0-2.449-2.449A2.434,2.434,0,0,0,39.68-19.437ZM58.621-1.519V.248c0,2.2-1.3,3.782-4.185,3.782a7.435,7.435,0,0,1-4.867-2.17L47.461,4.712A10.575,10.575,0,0,0,54.436,7.5c4.123,0,7.9-2.263,7.9-7.378V-14.694H58.9v1.922a5.265,5.265,0,0,0-4.433-2.294,7.381,7.381,0,0,0-7.161,7.719A7.381,7.381,0,0,0,54.467.372,5.246,5.246,0,0,0,58.621-1.519Zm0-3.627a4.132,4.132,0,0,1-3.5,2.046,3.931,3.931,0,0,1-4.03-4.247,3.931,3.931,0,0,1,4.03-4.247,4.072,4.072,0,0,1,3.5,2.046Zm15.748-9.92a4.987,4.987,0,0,0-4.154,2.139V-23.436h-3.72V0h3.72V-9.672a3.631,3.631,0,0,1,2.914-1.922,2.712,2.712,0,0,1,2.914,3.007V0h3.72V-9.517A5.265,5.265,0,0,0,74.369-15.066Zm7.936,3.72h2.883v6.51A4.919,4.919,0,0,0,90.21.372a6.693,6.693,0,0,0,3.534-.961L92.38-3.627a2.944,2.944,0,0,1-1.55.527c-.992,0-1.922-.527-1.922-2.325v-5.921h4.433v-3.348H88.908v-4.371h-3.72v4.371H82.305Zm26.474,2.2A22.639,22.639,0,0,1,112.747-21.7l-3.038-1.829a25.837,25.837,0,0,0-4.588,14.384A26,26,0,0,0,109.709,5.27l3.038-1.86A22.639,22.639,0,0,1,108.779-9.145Zm13.3,6.045a4.072,4.072,0,0,1-4.123-4.247,4.072,4.072,0,0,1,4.123-4.247,4.568,4.568,0,0,1,3.441,1.55l2.573-2.294a7.877,7.877,0,0,0-6.014-2.728,7.742,7.742,0,0,0-7.9,7.719,7.762,7.762,0,0,0,7.9,7.719,7.953,7.953,0,0,0,6.076-2.79L125.705-4.9A4.339,4.339,0,0,1,122.078-3.1Zm25.544-11.966a5.146,5.146,0,0,0-4.681,2.573,4.7,4.7,0,0,0-4.557-2.573,5.1,5.1,0,0,0-4.34,2.511v-2.139h-3.472V0h3.72V-9.7a3.488,3.488,0,0,1,2.883-1.891c1.86,0,2.635,1.085,2.635,3.1V0h3.72V-9.7a3.488,3.488,0,0,1,2.883-1.891c1.86,0,2.635,1.085,2.635,3.1V0h3.72V-9.455C152.768-12.989,150.6-15.066,147.622-15.066Zm11.532,5.921A22.639,22.639,0,0,1,155.186,3.41l3.038,1.86a26,26,0,0,0,4.588-14.415,25.837,25.837,0,0,0-4.588-14.384L155.186-21.7A22.639,22.639,0,0,1,159.154-9.145Z" transform="translate(643 622) rotate(-90)" fill="#151515"/>
      <path id="Path_12" data-name="Path 12" d="M30.349-21.7H26.474L21.762-8.68,16.926-21.7H13.857L8.928-8.68,4.34-21.7H.124L8.68.744l6.6-16.275L21.793.744ZM32.922,0h3.72V-14.694h-3.72Zm-.589-19.437a2.434,2.434,0,0,0,2.449,2.449,2.434,2.434,0,0,0,2.449-2.449,2.434,2.434,0,0,0-2.449-2.449A2.434,2.434,0,0,0,32.333-19.437Zm22.661-4h-3.72v10.292a5.241,5.241,0,0,0-4.154-1.922,7.381,7.381,0,0,0-7.161,7.719A7.381,7.381,0,0,0,47.12.372a5.08,5.08,0,0,0,4.433-2.294V0h3.441Zm-3.72,18.29a4.072,4.072,0,0,1-3.5,2.046,3.931,3.931,0,0,1-4.03-4.247,3.931,3.931,0,0,1,4.03-4.247,4.072,4.072,0,0,1,3.5,2.046Zm6.7-6.2h2.883v6.51A4.919,4.919,0,0,0,65.875.372a6.693,6.693,0,0,0,3.534-.961L68.045-3.627a2.944,2.944,0,0,1-1.55.527c-.992,0-1.922-.527-1.922-2.325v-5.921h4.433v-3.348H64.573v-4.371h-3.72v4.371H57.97Zm22.382-3.72A4.987,4.987,0,0,0,76.2-12.927V-23.436h-3.72V0H76.2V-9.672a3.631,3.631,0,0,1,2.914-1.922,2.712,2.712,0,0,1,2.914,3.007V0h3.72V-9.517A5.265,5.265,0,0,0,80.352-15.066Zm21.514,5.921A22.639,22.639,0,0,1,105.834-21.7L102.8-23.529A25.837,25.837,0,0,0,98.208-9.145,26,26,0,0,0,102.8,5.27l3.038-1.86A22.639,22.639,0,0,1,101.866-9.145Zm13.3,6.045a4.072,4.072,0,0,1-4.123-4.247,4.072,4.072,0,0,1,4.123-4.247,4.568,4.568,0,0,1,3.441,1.55l2.573-2.294a7.877,7.877,0,0,0-6.014-2.728,7.742,7.742,0,0,0-7.905,7.719A7.762,7.762,0,0,0,115.165.372a7.953,7.953,0,0,0,6.076-2.79L118.792-4.9A4.339,4.339,0,0,1,115.165-3.1Zm25.544-11.966a5.146,5.146,0,0,0-4.681,2.573,4.7,4.7,0,0,0-4.557-2.573,5.1,5.1,0,0,0-4.34,2.511v-2.139h-3.472V0h3.72V-9.7a3.488,3.488,0,0,1,2.883-1.891c1.86,0,2.635,1.085,2.635,3.1V0h3.72V-9.7a3.488,3.488,0,0,1,2.883-1.891c1.86,0,2.635,1.085,2.635,3.1V0h3.72V-9.455C145.855-12.989,143.685-15.066,140.709-15.066Zm11.532,5.921A22.639,22.639,0,0,1,148.273,3.41l3.038,1.86A26,26,0,0,0,155.9-9.145a25.837,25.837,0,0,0-4.588-14.384L148.273-21.7A22.639,22.639,0,0,1,152.241-9.145Z" transform="translate(892 823)" fill="#151515"/>
      <path id="Path_9" data-name="Path 9" d="M3.605-23.8l-2.38-1.54s-7.49,12.425-7.98,13.335a9.735,9.735,0,0,0-1.19,4.34A7.864,7.864,0,0,0,.07.42,7.881,7.881,0,0,0,8.085-7.735,7.75,7.75,0,0,0,.07-15.75a4.453,4.453,0,0,0-1.75.35ZM.07-13.02A5.04,5.04,0,0,1,5.145-7.735,5.116,5.116,0,0,1,.07-2.31,5.116,5.116,0,0,1-5-7.735,5.04,5.04,0,0,1,.07-13.02Z" transform="translate(841 777)" fill="#151515"/>
      <path id="Path_10" data-name="Path 10" d="M0-24.92a6.641,6.641,0,0,0-6.895,6.58,6.1,6.1,0,0,0,2.73,5.075A6.92,6.92,0,0,0-7.77-7,7.422,7.422,0,0,0,0,.42,7.422,7.422,0,0,0,7.77-7a6.92,6.92,0,0,0-3.6-6.265A6.1,6.1,0,0,0,6.9-18.34,6.641,6.641,0,0,0,0-24.92ZM0-2.31A4.719,4.719,0,0,1-4.83-7,4.735,4.735,0,0,1,0-11.865,4.735,4.735,0,0,1,4.83-7,4.719,4.719,0,0,1,0-2.31ZM0-14.42a3.828,3.828,0,0,1-3.955-3.885A3.828,3.828,0,0,1,0-22.19a3.828,3.828,0,0,1,3.955,3.885A3.828,3.828,0,0,1,0-14.42Z" transform="translate(961 777)" fill="#151515"/>
      <path id="Path_11" data-name="Path 11" d="M-16.818-19.145l1.715,2.24,4.69-3.745V0h2.94V-24.5H-10.1ZM7.122-24.92C.892-24.92-1.8-18.8-1.8-12.25S.892.42,7.122.42,15.977-5.7,15.977-12.25,13.352-24.92,7.122-24.92Zm0,22.61c-4.34,0-5.985-5.145-5.985-9.94s1.645-9.94,5.985-9.94,5.915,5.145,5.915,9.94S11.463-2.31,7.122-2.31Z" transform="translate(1081 777)" fill="#151515"/>
      <path id="Path_5" data-name="Path 5" d="M-34.265-19.145l1.715,2.24,4.69-3.745V0h2.94V-24.5h-2.625Zm23.94-5.775c-6.23,0-8.925,6.125-8.925,12.67S-16.555.42-10.325.42-1.47-5.7-1.47-12.25-4.1-24.92-10.325-24.92Zm0,22.61c-4.34,0-5.985-5.145-5.985-9.94s1.645-9.94,5.985-9.94,5.915,5.145,5.915,9.94S-5.985-2.31-10.325-2.31Z" transform="translate(701 419)" fill="#151515"/>
      <path id="Path_6" data-name="Path 6" d="M-9.66-24.92a6.641,6.641,0,0,0-6.9,6.58,6.1,6.1,0,0,0,2.73,5.075A6.92,6.92,0,0,0-17.43-7,7.422,7.422,0,0,0-9.66.42,7.422,7.422,0,0,0-1.89-7a6.92,6.92,0,0,0-3.6-6.265,6.1,6.1,0,0,0,2.73-5.075A6.641,6.641,0,0,0-9.66-24.92Zm0,22.61A4.719,4.719,0,0,1-14.49-7a4.735,4.735,0,0,1,4.83-4.865A4.735,4.735,0,0,1-4.83-7,4.719,4.719,0,0,1-9.66-2.31Zm0-12.11a3.828,3.828,0,0,1-3.955-3.885A3.828,3.828,0,0,1-9.66-22.19,3.828,3.828,0,0,1-5.7-18.305,3.828,3.828,0,0,1-9.66-14.42Z" transform="translate(701 497)" fill="#151515"/>
      <path id="Path_7" data-name="Path 7" d="M-5.88-23.8l-2.38-1.54s-7.49,12.425-7.98,13.335a9.735,9.735,0,0,0-1.19,4.34A7.864,7.864,0,0,0-9.415.42,7.881,7.881,0,0,0-1.4-7.735,7.75,7.75,0,0,0-9.415-15.75a4.453,4.453,0,0,0-1.75.35ZM-9.415-13.02A5.04,5.04,0,0,1-4.34-7.735,5.116,5.116,0,0,1-9.415-2.31,5.116,5.116,0,0,1-14.49-7.735,5.04,5.04,0,0,1-9.415-13.02Z" transform="translate(701 575)" fill="#151515"/>
      <path id="Path_8" data-name="Path 8" d="M-19.6-6.44H-7.105V0h2.87V-6.44H-1.19V-9.17H-4.235V-24.5h-2.59Zm4.9-2.73,7.595-10.85V-9.17Z" transform="translate(701 653)" fill="#151515"/>
      <circle id="Ellipse_5" data-name="Ellipse 5" cx="12.5" cy="12.5" r="12.5" transform="translate(1307 445)" fill="#f2db2b"/>
      <circle id="Ellipse_6" data-name="Ellipse 6" cx="12.5" cy="12.5" r="12.5" transform="translate(1307 512)" fill="#f48a21"/>
      <path id="Path_13" data-name="Path 13" d="M2.46,0H14.4V-2.4H4.98V-21H2.46ZM22.53-14.22c-4.17,0-6.93,3.24-6.93,7.29A7.082,7.082,0,0,0,22.83.36a7.726,7.726,0,0,0,5.76-2.73L27-4.02a5.352,5.352,0,0,1-4.17,2.04,4.675,4.675,0,0,1-4.77-4.05H29.25a7.869,7.869,0,0,0,.03-.81C29.28-11.31,26.4-14.22,22.53-14.22ZM18.12-8.13a4.3,4.3,0,0,1,4.41-3.75,4.173,4.173,0,0,1,4.29,3.75ZM46.8-14.22a4.579,4.579,0,0,0-4.14,2.58,4.318,4.318,0,0,0-4.32-2.58,4.232,4.232,0,0,0-3.84,2.4v-2.04H32.16V0h2.52V-9.66s.93-2.22,2.97-2.22c1.8,0,2.97,1.11,2.97,3.36V0h2.52V-9.66s.9-2.22,2.97-2.22c1.8,0,2.97,1.11,2.97,3.36V0H51.6V-8.91C51.6-12.33,49.68-14.22,46.8-14.22Zm14.82,0a7.1,7.1,0,0,0-7.14,7.29A7.1,7.1,0,0,0,61.62.36a7.1,7.1,0,0,0,7.14-7.29A7.1,7.1,0,0,0,61.62-14.22Zm0,12.24A4.648,4.648,0,0,1,57-6.93a4.648,4.648,0,0,1,4.62-4.95,4.648,4.648,0,0,1,4.62,4.95A4.648,4.648,0,0,1,61.62-1.98ZM78.24-14.22a4.93,4.93,0,0,0-4.26,2.31v-1.95H71.64V0h2.52V-9.54s1.2-2.34,3.45-2.34a3.074,3.074,0,0,1,3.33,3.39V0h2.52V-8.91A5.044,5.044,0,0,0,78.24-14.22ZM86.4-2.55A7.6,7.6,0,0,0,92.34.36c2.67,0,5.49-1.38,5.49-4.05,0-2.82-2.25-3.81-4.89-4.38-2.28-.48-3.36-1.05-3.36-2.1,0-.9.87-1.77,2.64-1.77a5.089,5.089,0,0,1,3.48,1.53l1.65-1.71a7.2,7.2,0,0,0-5.13-2.1c-3.09,0-5.1,1.98-5.1,3.99,0,2.61,2.1,3.78,5.07,4.38,2.13.42,3.15,1.02,3.15,2.22,0,1.11-1.59,1.71-3,1.71a5.346,5.346,0,0,1-4.2-2.25Z" transform="translate(1354 467)" fill="#151515"/>
      <path id="Path_14" data-name="Path 14" d="M11.52-21.36c-6.06,0-10.38,4.8-10.38,10.86S5.46.36,11.52.36,21.9-4.44,21.9-10.5,17.58-21.36,11.52-21.36Zm0,19.32c-4.59,0-7.68-3.99-7.68-8.46s3.09-8.46,7.68-8.46,7.68,3.99,7.68,8.46S16.11-2.04,11.52-2.04ZM31.17-14.22a4.638,4.638,0,0,0-3.87,2.49v-2.13H24.96V0h2.52V-9.54s.99-2.34,3.18-2.34a3.515,3.515,0,0,1,1.59.3l.93-2.28A5.794,5.794,0,0,0,31.17-14.22Zm9.12,0a10.326,10.326,0,0,0-5.19,1.41l1.05,2.1a9.6,9.6,0,0,1,4.14-1.17c1.11,0,3.51.39,3.51,3.27v.75A7.758,7.758,0,0,0,39.63-9c-3.12,0-5.49,1.92-5.49,4.62A4.931,4.931,0,0,0,39.3.36a5.858,5.858,0,0,0,4.71-2.37V0h2.31V-9.12C46.32-11.7,44.37-14.22,40.29-14.22ZM39.84-1.86c-1.56,0-3.18-.72-3.18-2.52,0-1.44,1.35-2.52,3.51-2.52a6.64,6.64,0,0,1,3.63.99v1.95A5.321,5.321,0,0,1,39.84-1.86ZM56.76-14.22a4.93,4.93,0,0,0-4.26,2.31v-1.95H50.16V0h2.52V-9.54s1.2-2.34,3.45-2.34a3.074,3.074,0,0,1,3.33,3.39V0h2.52V-8.91A5.044,5.044,0,0,0,56.76-14.22ZM76.05.18c0,3.12-1.83,4.74-4.77,4.74a6.117,6.117,0,0,1-4.53-2.19L65.22,4.62a8.455,8.455,0,0,0,6.06,2.64c4.02,0,7.29-2.4,7.29-7.2V-13.86H76.26v2.01a5.4,5.4,0,0,0-4.68-2.37c-3.75,0-6.72,3.21-6.72,7.29S67.83.36,71.58.36a5.577,5.577,0,0,0,4.47-2.1Zm0-4.5a4.927,4.927,0,0,1-4.08,2.34c-2.82,0-4.59-2.22-4.59-4.95s1.77-4.95,4.59-4.95a4.989,4.989,0,0,1,4.08,2.34Zm12.33-9.9c-4.17,0-6.93,3.24-6.93,7.29A7.082,7.082,0,0,0,88.68.36a7.726,7.726,0,0,0,5.76-2.73L92.85-4.02a5.353,5.353,0,0,1-4.17,2.04,4.675,4.675,0,0,1-4.77-4.05H95.1a7.87,7.87,0,0,0,.03-.81C95.13-11.31,92.25-14.22,88.38-14.22ZM83.97-8.13a4.3,4.3,0,0,1,4.41-3.75,4.173,4.173,0,0,1,4.29,3.75ZM97.11-2.55A7.6,7.6,0,0,0,103.05.36c2.67,0,5.49-1.38,5.49-4.05,0-2.82-2.25-3.81-4.89-4.38-2.28-.48-3.36-1.05-3.36-2.1,0-.9.87-1.77,2.64-1.77a5.089,5.089,0,0,1,3.48,1.53l1.65-1.71a7.2,7.2,0,0,0-5.13-2.1c-3.09,0-5.1,1.98-5.1,3.99,0,2.61,2.1,3.78,5.07,4.38,2.13.42,3.15,1.02,3.15,2.22,0,1.11-1.59,1.71-3,1.71a5.346,5.346,0,0,1-4.2-2.25Z" transform="translate(1354 534)" fill="#151515"/>
      <circle id="Ellipse_7" data-name="Ellipse 7" cx="10" cy="10" r="10" transform="translate(805 669)" fill="#f48a21"/>
      <circle id="Ellipse_8" data-name="Ellipse 8" cx="10" cy="10" r="10" transform="translate(802 649)" fill="#f48a21"/>
      <circle id="Ellipse_9" data-name="Ellipse 9" cx="10" cy="10" r="10" transform="translate(821 645)" fill="#f48a21"/>
      <circle id="Ellipse_10" data-name="Ellipse 10" cx="10" cy="10" r="10" transform="translate(817 637)" fill="#f48a21"/>
      <circle id="Ellipse_11" data-name="Ellipse 11" cx="10" cy="10" r="10" transform="translate(833 629)" fill="#f48a21"/>
      <circle id="Ellipse_12" data-name="Ellipse 12" cx="10" cy="10" r="10" transform="translate(874 538)" fill="#f48a21"/>
      <circle id="Ellipse_13" data-name="Ellipse 13" cx="10" cy="10" r="10" transform="translate(905 543)" fill="#f48a21"/>
      <circle id="Ellipse_19" data-name="Ellipse 19" cx="10" cy="10" r="10" transform="translate(905 538)" fill="#f48a21"/>
      <circle id="Ellipse_20" data-name="Ellipse 20" cx="10" cy="10" r="10" transform="translate(915 528)" fill="#f48a21"/>
      <circle id="Ellipse_21" data-name="Ellipse 21" cx="10" cy="10" r="10" transform="translate(931 508)" fill="#f48a21"/>
      <circle id="Ellipse_22" data-name="Ellipse 22" cx="10" cy="10" r="10" transform="translate(942 498)" fill="#f48a21"/>
      <circle id="Ellipse_23" data-name="Ellipse 23" cx="10" cy="10" r="10" transform="translate(932 489)" fill="#f48a21"/>
      <circle id="Ellipse_24" data-name="Ellipse 24" cx="10" cy="10" r="10" transform="translate(925 491)" fill="#f48a21"/>
      <circle id="Ellipse_25" data-name="Ellipse 25" cx="10" cy="10" r="10" transform="translate(925 440)" fill="#f48a21"/>
      <circle id="Ellipse_26" data-name="Ellipse 26" cx="10" cy="10" r="10" transform="translate(1014 430)" fill="#f48a21"/>
      <circle id="Ellipse_27" data-name="Ellipse 27" cx="10" cy="10" r="10" transform="translate(1032 440)" fill="#f48a21"/>
      <circle id="Ellipse_28" data-name="Ellipse 28" cx="10" cy="10" r="10" transform="translate(1057 440)" fill="#f48a21"/>
      <circle id="Ellipse_14" data-name="Ellipse 14" cx="10" cy="10" r="10" transform="translate(880 523)" fill="#f48a21"/>
      <circle id="Ellipse_15" data-name="Ellipse 15" cx="10" cy="10" r="10" transform="translate(895 523)" fill="#f48a21"/>
      <circle id="Ellipse_16" data-name="Ellipse 16" cx="10" cy="10" r="10" transform="translate(895 513)" fill="#f48a21"/>
      <circle id="Ellipse_17" data-name="Ellipse 17" cx="10" cy="10" r="10" transform="translate(911 505)" fill="#f48a21"/>
      <circle id="Ellipse_18" data-name="Ellipse 18" cx="10" cy="10" r="10" transform="translate(900 501)" fill="#f48a21"/>
    </g>
  </g>
</svg>
