<svg xmlns="http://www.w3.org/2000/svg" width="1273" height="672" viewBox="0 0 1273 672">
  <g id="Group_58" data-name="Group 58" transform="translate(-324 -322)">
    <rect id="Rectangle_3" data-name="Rectangle 3" width="1273" height="672" transform="translate(324 322)" fill="#fafafa"/>
    <path id="Subtraction_138" data-name="Subtraction 138" d="M-11582-710.17h-358V-1114.25l248.938,17.332,18.6,1.426c15.121,19.192,28.7,39.422,41.833,58.985l.021.033.121.179.011.016c8.741,13.018,17,25.315,25.015,36.221,9.041,12.3,16.5,21.1,23.466,27.678v262.21h0Z" transform="translate(12682.501 1616.669)" fill="#a3d6ff"/>
    <g id="Group_8" data-name="Group 8" transform="translate(259.029 42.11)">
      <rect id="Rectangle_4" data-name="Rectangle 4" width="6" height="549.115" transform="translate(365 319.324)" fill="#151515"/>
      <path id="Union_3" data-name="Union 3" d="M0,40V34.245H32.553L34,.245,39.755,0,38.3,34.245h.069V40Z" transform="translate(367.11 366.801) rotate(-135)" fill="#151515"/>
    </g>
    <g id="Group_11" data-name="Group 11" transform="translate(1648.569 539.865) rotate(90)">
      <rect id="Rectangle_4-2" data-name="Rectangle 4" width="6" height="705.217" transform="translate(365 319.324)" fill="#151515"/>
      <path id="Union_3-2" data-name="Union 3" d="M0,40V34.245H32.553L34,.245,39.755,0,38.3,34.245h.069V40Z" transform="translate(367.11 366.801) rotate(-135)" fill="#151515"/>
    </g>
    <rect id="Rectangle_8" data-name="Rectangle 8" width="12" height="8" transform="translate(612.028 453.548)" fill="#151515"/>
    <rect id="Rectangle_8-2" data-name="Rectangle 8" width="12" height="8" transform="translate(612.028 567.548)" fill="#151515"/>
    <rect id="Rectangle_8-3" data-name="Rectangle 8" width="12" height="8" transform="translate(612.028 681.548)" fill="#151515"/>
    <rect id="Rectangle_8-4" data-name="Rectangle 8" width="12" height="8" transform="translate(612.028 795.548)" fill="#151515"/>
    <rect id="Rectangle_9" data-name="Rectangle 9" width="12" height="8" transform="translate(738.028 921.548) rotate(-90)" fill="#151515"/>
    <rect id="Rectangle_9-2" data-name="Rectangle 9" width="12" height="8" transform="translate(858.028 921.548) rotate(-90)" fill="#151515"/>
    <rect id="Rectangle_9-3" data-name="Rectangle 9" width="12" height="8" transform="translate(978.028 921.548) rotate(-90)" fill="#151515"/>
    <rect id="Rectangle_9-4" data-name="Rectangle 9" width="12" height="8" transform="translate(1098.028 921.548) rotate(-90)" fill="#151515"/>
    <rect id="Rectangle_9-5" data-name="Rectangle 9" width="12" height="8" transform="translate(1218.028 921.548) rotate(-90)" fill="#151515"/>
    <path id="Path_67" data-name="Path 67" d="M-6.457-19.145l1.715,2.24,4.69-3.745V0h2.94V-24.5H.262Z" transform="translate(742 959.548)" fill="#151515"/>
    <path id="Path_66" data-name="Path 66" d="M-7.49,0H7.35V-2.73H-1.89l6.51-8.68a10.47,10.47,0,0,0,2.555-6.335c0-4.06-2.94-7.175-7.455-7.175a7.582,7.582,0,0,0-7.35,5.53l2.52.945A5.067,5.067,0,0,1-.28-22.19a4.219,4.219,0,0,1,4.515,4.445c0,2.7-2.2,5.145-3.115,6.335Z" transform="translate(861 959.548)" fill="#151515"/>
    <path id="Path_65" data-name="Path 65" d="M4.095-18.025c0,2.8-2.24,4.165-5,4.165h-.735v2.695H-.49c3.5,0,5.18,1.68,5.18,4.41C4.69-4.41,2.8-2.31-.35-2.31A5.531,5.531,0,0,1-5.635-6.335l-2.59,1.19A8.075,8.075,0,0,0-.35.42c4.48,0,7.98-2.73,7.98-7.175,0-5.005-3.6-5.95-3.6-5.95a5.707,5.707,0,0,0,3.01-5.32A7.074,7.074,0,0,0-.28-24.92a7.687,7.687,0,0,0-7.1,4.8L-4.865-19A4.921,4.921,0,0,1-.28-22.19,4.246,4.246,0,0,1,4.095-18.025Z" transform="translate(982 959.548)" fill="#151515"/>
    <path id="Path_64" data-name="Path 64" d="M-9.765-6.44H2.73V0H5.6V-6.44H8.645V-9.17H5.6V-24.5H3.01Zm4.9-2.73L2.73-20.02V-9.17Z" transform="translate(1102 959.548)" fill="#151515"/>
    <path id="Path_63" data-name="Path 63" d="M8.382-7.805c0-5.6-3.78-8.26-7.735-8.26A9.863,9.863,0,0,0-3.867-15.05v-6.72H7.858V-24.5H-6.668v13.93s3.255-2.73,6.65-2.73a5.113,5.113,0,0,1,5.46,5.495,5.167,5.167,0,0,1-5.39,5.5c-4.025,0-5.39-3.92-5.39-3.92L-7.892-4.865A8.525,8.525,0,0,0,.052.42C4.287.42,8.382-2.31,8.382-7.805Z" transform="translate(1222 959.548)" fill="#151515"/>
    <path id="Path_62" data-name="Path 62" d="M-6.457-19.145l1.715,2.24,4.69-3.745V0h2.94V-24.5H.262Z" transform="translate(592 809.548)" fill="#151515"/>
    <path id="Path_61" data-name="Path 61" d="M-7.49,0H7.35V-2.73H-1.89l6.51-8.68a10.47,10.47,0,0,0,2.555-6.335c0-4.06-2.94-7.175-7.455-7.175a7.582,7.582,0,0,0-7.35,5.53l2.52.945A5.067,5.067,0,0,1-.28-22.19a4.219,4.219,0,0,1,4.515,4.445c0,2.7-2.2,5.145-3.115,6.335Z" transform="translate(592 695.548)" fill="#151515"/>
    <path id="Path_60" data-name="Path 60" d="M4.095-18.025c0,2.8-2.24,4.165-5,4.165h-.735v2.695H-.49c3.5,0,5.18,1.68,5.18,4.41C4.69-4.41,2.8-2.31-.35-2.31A5.531,5.531,0,0,1-5.635-6.335l-2.59,1.19A8.075,8.075,0,0,0-.35.42c4.48,0,7.98-2.73,7.98-7.175,0-5.005-3.6-5.95-3.6-5.95a5.707,5.707,0,0,0,3.01-5.32A7.074,7.074,0,0,0-.28-24.92a7.687,7.687,0,0,0-7.1,4.8L-4.865-19A4.921,4.921,0,0,1-.28-22.19,4.246,4.246,0,0,1,4.095-18.025Z" transform="translate(592 581.548)" fill="#151515"/>
    <path id="Path_59" data-name="Path 59" d="M-9.765-6.44H2.73V0H5.6V-6.44H8.645V-9.17H5.6V-24.5H3.01Zm4.9-2.73L2.73-20.02V-9.17Z" transform="translate(592 467.548)" fill="#151515"/>
    <path id="Subtraction_140" data-name="Subtraction 140" d="M-11385-1060.154l-266-18.474v-25.638c12.984-5.7,25.169-10.486,37.25-14.641,8.163-2.807,16.3-5.32,24.186-7.467,8.492-2.317,16.992-4.294,25.264-5.876,8.807-1.687,17.633-2.981,26.234-3.848,9.1-.915,18.219-1.378,27.1-1.378,2.52,0,5.089.038,7.636.114a105.956,105.956,0,0,1,17.542,2,111.023,111.023,0,0,1,16.663,4.729,125.654,125.654,0,0,1,15.834,7.156,151.026,151.026,0,0,1,15.046,9.28c4.759,3.323,9.571,7.059,14.306,11.105,4.5,3.843,9.08,8.092,13.613,12.627a342.171,342.171,0,0,1,25.326,28.62v1.695Z" transform="translate(12393.5 1582)" fill="#a3d6ff"/>
    <path id="Path_75" data-name="Path 75" d="M12438.249,1679.268c63.588,36.863,94.667,47.1,132.372,43.536s138.956-88.8,261.551-85.17,180.884,218.248,240.24,214.717,144.556-119,144.556-119" transform="translate(-11942 -1193)" fill="none" stroke="#2196f3" stroke-linecap="round" stroke-width="7"/>
  </g>
</svg>
