<svg xmlns="http://www.w3.org/2000/svg" width="1273" height="672" viewBox="0 0 1273 672">
  <g id="Group_88" data-name="Group 88" transform="translate(-324 -204)">
    <rect id="Rectangle_3" data-name="Rectangle 3" width="1273" height="672" transform="translate(324 204)" fill="#fafafa"/>
    <path id="Subtraction_138" data-name="Subtraction 138" d="M-11582-710.17h-358V-1114.25l248.938,17.332,18.6,1.426c15.121,19.192,28.7,39.422,41.833,58.985l.021.033.121.179.011.016c8.741,13.018,17,25.315,25.015,36.221,9.041,12.3,16.5,21.1,23.466,27.678v262.21h0Z" transform="translate(12682.501 1498.669)" fill="#a3d6ff"/>
    <g id="Group_8" data-name="Group 8" transform="translate(259.029 -75.89)">
      <rect id="Rectangle_4" data-name="Rectangle 4" width="6" height="549.115" transform="translate(365 319.324)" fill="#151515"/>
      <path id="Union_3" data-name="Union 3" d="M0,40V34.245H32.553L34,.245,39.755,0,38.3,34.245h.069V40Z" transform="translate(367.11 366.801) rotate(-135)" fill="#151515"/>
    </g>
    <g id="Group_11" data-name="Group 11" transform="translate(1648.569 421.865) rotate(90)">
      <rect id="Rectangle_4-2" data-name="Rectangle 4" width="6" height="705.217" transform="translate(365 319.324)" fill="#151515"/>
      <path id="Union_3-2" data-name="Union 3" d="M0,40V34.245H32.553L34,.245,39.755,0,38.3,34.245h.069V40Z" transform="translate(367.11 366.801) rotate(-135)" fill="#151515"/>
    </g>
    <rect id="Rectangle_9" data-name="Rectangle 9" width="12" height="8" transform="translate(738.028 803.548) rotate(-90)" fill="#151515"/>
    <rect id="Rectangle_9-2" data-name="Rectangle 9" width="12" height="8" transform="translate(858.028 803.548) rotate(-90)" fill="#151515"/>
    <rect id="Rectangle_9-3" data-name="Rectangle 9" width="12" height="8" transform="translate(978.028 803.548) rotate(-90)" fill="#151515"/>
    <rect id="Rectangle_9-4" data-name="Rectangle 9" width="12" height="8" transform="translate(1098.028 803.548) rotate(-90)" fill="#151515"/>
    <rect id="Rectangle_9-5" data-name="Rectangle 9" width="12" height="8" transform="translate(1218.028 803.548) rotate(-90)" fill="#151515"/>
    <path id="Subtraction_140" data-name="Subtraction 140" d="M-11385-1060.154l-266-18.474v-25.638c12.984-5.7,25.169-10.486,37.25-14.641,8.163-2.807,16.3-5.32,24.186-7.467,8.492-2.317,16.992-4.294,25.264-5.876,8.807-1.687,17.633-2.981,26.234-3.848,9.1-.915,18.219-1.378,27.1-1.378,2.52,0,5.089.038,7.636.114a105.956,105.956,0,0,1,17.542,2,111.023,111.023,0,0,1,16.663,4.729,125.654,125.654,0,0,1,15.834,7.156,151.026,151.026,0,0,1,15.046,9.28c4.759,3.323,9.571,7.059,14.306,11.105,4.5,3.843,9.08,8.092,13.613,12.627a342.171,342.171,0,0,1,25.326,28.62v1.695Z" transform="translate(12393.5 1464)" fill="#a3d6ff"/>
    <path id="Path_75" data-name="Path 75" d="M12438.249,1679.268c63.588,36.863,94.667,47.1,132.372,43.536s138.956-88.8,261.551-85.17,180.884,218.248,240.24,214.717,144.556-119,144.556-119" transform="translate(-11942 -1311)" fill="none" stroke="#2196f3" stroke-linecap="round" stroke-width="7"/>
    <path id="Path_178" data-name="Path 178" d="M-27.86,6.48q1.08.24,1.16.24.92,0,1.6-1.68.48-1.32,2.92-14.24,1.12-6.04,1.16-6.08v-.12H-22.9a10.794,10.794,0,0,1-2-.08q-.28-.16-.08-.88a3.517,3.517,0,0,1,.2-.64.359.359,0,0,1,.34-.22q.26-.02,1.86-.02a17.318,17.318,0,0,0,1.92-.04q0-.08.36-2t.48-2.32q.84-3.8,2.52-5.28a5.168,5.168,0,0,1,3.32-1.32,4.075,4.075,0,0,1,2.42.88,2.6,2.6,0,0,1,.98,2.12,2.824,2.824,0,0,1-.72,1.96,2.321,2.321,0,0,1-1.8.8q-1.76,0-1.76-1.68a2.258,2.258,0,0,1,1.4-2.16l.36-.2a3.948,3.948,0,0,0-1.2-.24q-1.16,0-1.52,1.52-.32,1.2-1.04,5.24l-.52,2.64a11.419,11.419,0,0,0,2.2.08q1.8,0,2.16.04t.36.28a4.455,4.455,0,0,1-.28,1.28.392.392,0,0,1-.38.22q-.3.02-2.14.02H-17.7l-.92,4.88q-1.48,7.64-1.84,9.24-1.36,6.04-3.64,8.2A4.509,4.509,0,0,1-27.02,8.2a3.622,3.622,0,0,1-2.4-.8,2.622,2.622,0,0,1-.96-2.12,2.952,2.952,0,0,1,.72-2.02,2.3,2.3,0,0,1,1.8-.82q1.76,0,1.76,1.68a2.258,2.258,0,0,1-1.4,2.16ZM.34,9.64q0,.36-.72.36H-.9l-1.12-.96Q-9.22,2.48-9.22-10a32.254,32.254,0,0,1,1.16-8.92A21.573,21.573,0,0,1-2.02-29.04q.28-.24.64-.54T-.9-30h.52a.949.949,0,0,1,.6.12.346.346,0,0,1,.12.24q0,.16-.44.6Q-6.3-22.48-6.3-10T-.1,9.04Q.34,9.48.34,9.64ZM3.62-15.4q-.28-.28-.28-.4a3.191,3.191,0,0,1,.14-.66A2.67,2.67,0,0,1,3.66-17a.392.392,0,0,1,.38-.22q.3-.02,2.02-.02H8.18l.76-3.2q.84-3.24.96-3.48a1.815,1.815,0,0,1,1.84-1.12,1.545,1.545,0,0,1,.9.36,1.045,1.045,0,0,1,.38.84,25.141,25.141,0,0,1-.76,3.4q-.16.68-.38,1.5t-.34,1.22l-.08.4a9.451,9.451,0,0,0,2,.08H15.5q.28.28.28.44a1.892,1.892,0,0,1-.52,1.4H10.98L9.54-9.6Q8.06-3.64,8.02-3.32a3.313,3.313,0,0,0-.04.6q0,1.68,1.08,1.68a2.485,2.485,0,0,0,.48-.04q2-.36,3.64-3.2a8.5,8.5,0,0,0,.72-1.48.491.491,0,0,1,.2-.3,1.755,1.755,0,0,1,.6-.06q.8,0,.8.32a2.228,2.228,0,0,1-.16.48,9.394,9.394,0,0,1-1.42,2.58A10.507,10.507,0,0,1,11.94-.68,5.144,5.144,0,0,1,8.78.44,4.076,4.076,0,0,1,6.32-.3,3.623,3.623,0,0,1,4.94-2.24a5.029,5.029,0,0,1-.08-1.08v-.72l1.4-5.6q1.4-5.64,1.44-5.68a9.829,9.829,0,0,0-2.04-.08Zm15.8-14.56.16-.04h.88l1.12.96q7.2,6.56,7.2,19.04a31.558,31.558,0,0,1-1.16,8.88A21.575,21.575,0,0,1,21.58,9.04q-.28.24-.64.54t-.48.42h-.48a1.5,1.5,0,0,1-.62-.08q-.14-.08-.14-.4.04-.04.44-.52,6.2-6.44,6.2-19t-6.2-19q-.4-.48-.44-.52A.47.47,0,0,1,19.42-29.96Z" transform="translate(1047 373)" fill="#151515"/>
    <path id="Path_177" data-name="Path 177" d="M-33.58,2.84a1.708,1.708,0,0,1,1.2.44,1.5,1.5,0,0,1,.48,1.16,2.445,2.445,0,0,1-.8,1.84q-.28.28-.2.28a12.9,12.9,0,0,0,2.4.12,5.04,5.04,0,0,0,2.4-.48,5.489,5.489,0,0,0,1.72-1.34A5.375,5.375,0,0,0-25.26,3q.24-.76.64-2.48a15.866,15.866,0,0,0,.52-2.24A7.964,7.964,0,0,1-27.3-.08a6.076,6.076,0,0,1-1,.08,5.029,5.029,0,0,1-4.1-1.82A6.962,6.962,0,0,1-33.9-6.4a10.69,10.69,0,0,1,1.16-4.84,11.539,11.539,0,0,1,5.28-5.56,8.087,8.087,0,0,1,3.48-.88,4.629,4.629,0,0,1,3.48,1.92,1.311,1.311,0,0,0,.16-.2,1.839,1.839,0,0,1,1.68-.92,1.431,1.431,0,0,1,.92.32.985.985,0,0,1,.4.8q0,.6-2.28,9.68t-2.4,9.28a6.842,6.842,0,0,1-3.14,3.58A10.222,10.222,0,0,1-30.5,8.2q-4.6,0-5.44-1.76a1.976,1.976,0,0,1-.2-.96,2.67,2.67,0,0,1,.72-1.84A2.365,2.365,0,0,1-33.58,2.84Zm12.4-15.96a9.365,9.365,0,0,0-.62-1.6,3.057,3.057,0,0,0-.94-1.02,2.6,2.6,0,0,0-1.56-.46q-.08,0-.26.02t-.22.02a5.1,5.1,0,0,0-2.92,2.08,16.288,16.288,0,0,0-2.12,5.4,18.557,18.557,0,0,0-.68,4q0,3.16,2.48,3.16,2.28,0,4.4-2.8l.32-.4Q-21.86-10.32-21.18-13.12ZM-4.14,9.64q0,.36-.72.36h-.52L-6.5,9.04Q-13.7,2.48-13.7-10a32.254,32.254,0,0,1,1.16-8.92A21.573,21.573,0,0,1-6.5-29.04q.28-.24.64-.54t.48-.42h.52a.949.949,0,0,1,.6.12.346.346,0,0,1,.12.24q0,.16-.44.6-6.2,6.56-6.2,19.04t6.2,19.04Q-4.14,9.48-4.14,9.64ZM.42-11.12a.666.666,0,0,1-.24-.44,7.613,7.613,0,0,1,1.24-2.76A6.858,6.858,0,0,1,6.14-17.6a6.519,6.519,0,0,1,.84-.08,4.86,4.86,0,0,1,2.58.72,4.3,4.3,0,0,1,1.7,1.8q.52-.68.64-.84a4.432,4.432,0,0,1,3.4-1.68,3.77,3.77,0,0,1,2.66.94,3.008,3.008,0,0,1,1.02,2.3,3.14,3.14,0,0,1-.7,2.08,2.3,2.3,0,0,1-1.86.84,1.763,1.763,0,0,1-1.24-.44,1.5,1.5,0,0,1-.48-1.16,2.543,2.543,0,0,1,2-2.52,1.6,1.6,0,0,0-.44-.28,2.28,2.28,0,0,0-1.16-.24,2.613,2.613,0,0,0-.76.08,4.188,4.188,0,0,0-2.24,2.64q-.12.32-1.16,4.46T9.82-4.32a6.1,6.1,0,0,0-.12,1.2,2.054,2.054,0,0,0,.56,1.52,2,2,0,0,0,1.48.56,4.129,4.129,0,0,0,3.04-1.42A7.379,7.379,0,0,0,16.62-5.6q.12-.4.24-.46a1.944,1.944,0,0,1,.64-.06q.76,0,.76.32,0,.04-.08.44a8.7,8.7,0,0,1-2.8,4.32A6.309,6.309,0,0,1,11.42.44,4.609,4.609,0,0,1,7.18-2.08,5.6,5.6,0,0,1,4.22.32,5.112,5.112,0,0,1,3.18.4,3.488,3.488,0,0,1-.1-1.24a3.1,3.1,0,0,1-.4-1.6A3.028,3.028,0,0,1,.22-4.88a2.315,2.315,0,0,1,1.84-.84A1.5,1.5,0,0,1,3.78-4.04a2.258,2.258,0,0,1-1.4,2.16l-.2.1-.2.1a.307.307,0,0,1-.12.04l-.12.04q0,.12.6.36a2.677,2.677,0,0,0,1.04.2,2.953,2.953,0,0,0,2.48-1.8,30.212,30.212,0,0,0,1.56-5.2q.24-.92.52-2.04t.42-1.72q.14-.6.18-.72a9.753,9.753,0,0,0,.2-1.56,2.146,2.146,0,0,0-.52-1.52,1.868,1.868,0,0,0-1.44-.56,4.177,4.177,0,0,0-3.12,1.38A7.588,7.588,0,0,0,1.82-11.6q-.08.36-.18.42a1.929,1.929,0,0,1-.66.06ZM23.38-29.96l.16-.04h.88l1.12.96q7.2,6.56,7.2,19.04a31.558,31.558,0,0,1-1.16,8.88A21.575,21.575,0,0,1,25.54,9.04q-.28.24-.64.54t-.48.42h-.48a1.5,1.5,0,0,1-.62-.08q-.14-.08-.14-.4.04-.04.44-.52,6.2-6.44,6.2-19t-6.2-19q-.4-.48-.44-.52A.47.47,0,0,1,23.38-29.96Z" transform="translate(923 599)" fill="#151515"/>
    <path id="Path_176" data-name="Path 176" d="M8.9-6.12a3.616,3.616,0,0,1,.48.02.358.358,0,0,1,.2.1.326.326,0,0,1,.08.24,3.608,3.608,0,0,1-.12.6A10.426,10.426,0,0,1,7.38-.52,3.955,3.955,0,0,1,6.1.32,4.264,4.264,0,0,1,5.14.4,3.611,3.611,0,0,1,1.62-1.56a2.969,2.969,0,0,0-.2-.48q-.04-.04-.16.04l-.16.16A8.184,8.184,0,0,1-2.7.36,7.7,7.7,0,0,1-3.7.4,5.309,5.309,0,0,1-8.06-1.8a7.785,7.785,0,0,1-1.2-4.48,6.343,6.343,0,0,1,.04-.88,12.167,12.167,0,0,1,1.66-4.9,12.718,12.718,0,0,1,3.3-3.78,7.846,7.846,0,0,1,4.88-1.8,4.611,4.611,0,0,1,3.6,1.96,2,2,0,0,1,1.84-1.2,1.431,1.431,0,0,1,.92.32.985.985,0,0,1,.4.8q0,.52-1.5,6.42a61.065,61.065,0,0,0-1.5,6.62q0,1.68,1.12,1.68a1.738,1.738,0,0,0,.8-.36A9.07,9.07,0,0,0,7.94-5.24q.24-.8.4-.84a1.17,1.17,0,0,1,.4-.04ZM-5.86-4.24a3.948,3.948,0,0,0,.62,2.32,2.084,2.084,0,0,0,1.82.88A4.292,4.292,0,0,0-.94-2,8.4,8.4,0,0,0,.36-3.2a7.092,7.092,0,0,0,.98-1.2q.08-.16,1.1-4.28t1.02-4.44a3.384,3.384,0,0,0-.44-1.36A2.742,2.742,0,0,0,.5-16.2a3.694,3.694,0,0,0-2.82,1.36,9.471,9.471,0,0,0-1.86,3.12A31.934,31.934,0,0,0-5.82-5.16q0,.12-.02.44T-5.86-4.24Z" transform="translate(742 839)" fill="#151515"/>
    <path id="Path_180" data-name="Path 180" d="M-5.02-27.32q.04,0,2.9-.22t2.9-.22q.48,0,.48.36T-.1-21.68q-.32,1.36-.7,2.8t-.58,2.16l-.16.76q0,.12.24-.12A7.437,7.437,0,0,1,1.74-17.6a6.076,6.076,0,0,1,1-.08,6.076,6.076,0,0,1,1,.08,5.541,5.541,0,0,1,3.32,2.16A6.949,6.949,0,0,1,8.3-11.2,11.906,11.906,0,0,1,5.16-3.14Q2.02.44-1.66.44a4.855,4.855,0,0,1-2.2-.52Q-6.98-1.48-6.98-6a10.851,10.851,0,0,1,.24-2.28q0-.04,2-8.2l2.04-8.16q.08-.56-.26-.7a3.284,3.284,0,0,0-1.14-.14h-.44a1.986,1.986,0,0,1-.96-.12q-.24-.2-.04-.96a1.424,1.424,0,0,1,.28-.64A.346.346,0,0,1-5.02-27.32ZM4.86-13q0-3.2-2.44-3.2-.08,0-.26.02t-.22.02a6.9,6.9,0,0,0-3.92,2.88,2.338,2.338,0,0,0-.2.24l-.12.16q0,.04-.7,2.86T-3.78-6.8a11.9,11.9,0,0,0-.24,2.24,3.912,3.912,0,0,0,.96,2.88,2.171,2.171,0,0,0,1.6.64A3.983,3.983,0,0,0,1.22-2.32,7.05,7.05,0,0,0,2.84-4.58a24.057,24.057,0,0,0,1.3-4.18A19.65,19.65,0,0,0,4.86-13Z" transform="translate(1222 839)" fill="#151515"/>
    <path id="Path_179" data-name="Path 179" d="M-9.12-11.12a.666.666,0,0,1-.24-.44,7.613,7.613,0,0,1,1.24-2.76A6.858,6.858,0,0,1-3.4-17.6a6.519,6.519,0,0,1,.84-.08,4.86,4.86,0,0,1,2.58.72,4.3,4.3,0,0,1,1.7,1.8q.52-.68.64-.84a4.432,4.432,0,0,1,3.4-1.68,3.77,3.77,0,0,1,2.66.94,3.008,3.008,0,0,1,1.02,2.3,3.14,3.14,0,0,1-.7,2.08,2.3,2.3,0,0,1-1.86.84,1.763,1.763,0,0,1-1.24-.44,1.5,1.5,0,0,1-.48-1.16,2.543,2.543,0,0,1,2-2.52,1.6,1.6,0,0,0-.44-.28,2.28,2.28,0,0,0-1.16-.24,2.613,2.613,0,0,0-.76.08,4.188,4.188,0,0,0-2.24,2.64q-.12.32-1.16,4.46T.28-4.32a6.1,6.1,0,0,0-.12,1.2A2.054,2.054,0,0,0,.72-1.6a2,2,0,0,0,1.48.56A4.129,4.129,0,0,0,5.24-2.46,7.379,7.379,0,0,0,7.08-5.6q.12-.4.24-.46a1.944,1.944,0,0,1,.64-.06q.76,0,.76.32,0,.04-.08.44a8.7,8.7,0,0,1-2.8,4.32A6.309,6.309,0,0,1,1.88.44,4.609,4.609,0,0,1-2.36-2.08,5.6,5.6,0,0,1-5.32.32,5.112,5.112,0,0,1-6.36.4,3.488,3.488,0,0,1-9.64-1.24a3.1,3.1,0,0,1-.4-1.6,3.028,3.028,0,0,1,.72-2.04,2.315,2.315,0,0,1,1.84-.84A1.5,1.5,0,0,1-5.76-4.04a2.258,2.258,0,0,1-1.4,2.16l-.2.1-.2.1a.307.307,0,0,1-.12.04l-.12.04q0,.12.6.36a2.677,2.677,0,0,0,1.04.2,2.953,2.953,0,0,0,2.48-1.8,30.212,30.212,0,0,0,1.56-5.2q.24-.92.52-2.04t.42-1.72q.14-.6.18-.72a9.753,9.753,0,0,0,.2-1.56,2.146,2.146,0,0,0-.52-1.52,1.868,1.868,0,0,0-1.44-.56,4.177,4.177,0,0,0-3.12,1.38A7.588,7.588,0,0,0-7.72-11.6q-.08.36-.18.42a1.929,1.929,0,0,1-.66.06Z" transform="translate(1102 839)" fill="#151515"/>
  </g>
</svg>
