<svg xmlns="http://www.w3.org/2000/svg" width="1273" height="908" viewBox="0 0 1273 908">
  <g id="Group_54" data-name="Group 54" transform="translate(-324 -86)">
    <rect id="Rectangle_3" data-name="Rectangle 3" width="1273" height="908" transform="translate(324 86)" fill="#fafafa"/>
    <g id="Group_51" data-name="Group 51" transform="translate(-30.5 34.548)">
      <g id="Group_8" data-name="Group 8" transform="translate(289.529 -231.954)">
        <rect id="Rectangle_4" data-name="Rectangle 4" width="6" height="788.631" transform="translate(365 319.324)" fill="#151515"/>
        <path id="Union_3" data-name="Union 3" d="M0,40V34.245H32.553L34,.245,39.755,0,38.3,34.245h.069V40Z" transform="translate(367.11 366.801) rotate(-135)" fill="#151515"/>
      </g>
      <g id="Group_11" data-name="Group 11" transform="translate(1679.069 505.317) rotate(90)">
        <rect id="Rectangle_4-2" data-name="Rectangle 4" width="6" height="705.217" transform="translate(365 319.324)" fill="#151515"/>
        <path id="Union_3-2" data-name="Union 3" d="M0,40V34.245H32.553L34,.245,39.755,0,38.3,34.245h.069V40Z" transform="translate(367.11 366.801) rotate(-135)" fill="#151515"/>
      </g>
      <rect id="Rectangle_8" data-name="Rectangle 8" width="12" height="8" transform="translate(642.528 305)" fill="#151515"/>
      <rect id="Rectangle_8-2" data-name="Rectangle 8" width="12" height="8" transform="translate(642.528 419)" fill="#151515"/>
      <rect id="Rectangle_8-3" data-name="Rectangle 8" width="12" height="8" transform="translate(642.528 533)" fill="#151515"/>
      <rect id="Rectangle_8-4" data-name="Rectangle 8" width="12" height="8" transform="translate(642.528 647)" fill="#151515"/>
      <rect id="Rectangle_8-5" data-name="Rectangle 8" width="12" height="8" transform="translate(642.528 761)" fill="#151515"/>
      <rect id="Rectangle_9" data-name="Rectangle 9" width="12" height="8" transform="translate(768.528 887) rotate(-90)" fill="#151515"/>
      <rect id="Rectangle_9-2" data-name="Rectangle 9" width="12" height="8" transform="translate(888.528 887) rotate(-90)" fill="#151515"/>
      <rect id="Rectangle_9-3" data-name="Rectangle 9" width="12" height="8" transform="translate(1008.528 887) rotate(-90)" fill="#151515"/>
      <rect id="Rectangle_9-4" data-name="Rectangle 9" width="12" height="8" transform="translate(1128.528 887) rotate(-90)" fill="#151515"/>
      <rect id="Rectangle_9-5" data-name="Rectangle 9" width="12" height="8" transform="translate(1248.528 887) rotate(-90)" fill="#151515"/>
      <rect id="Rectangle_234" data-name="Rectangle 234" width="12" height="8" transform="translate(642.528 167)" fill="#151515"/>
      <path id="Path_67" data-name="Path 67" d="M-6.457-19.145l1.715,2.24,4.69-3.745V0h2.94V-24.5H.262Z" transform="translate(772.5 925)" fill="#151515"/>
      <path id="Path_66" data-name="Path 66" d="M-7.49,0H7.35V-2.73H-1.89l6.51-8.68a10.47,10.47,0,0,0,2.555-6.335c0-4.06-2.94-7.175-7.455-7.175a7.582,7.582,0,0,0-7.35,5.53l2.52.945A5.067,5.067,0,0,1-.28-22.19a4.219,4.219,0,0,1,4.515,4.445c0,2.7-2.2,5.145-3.115,6.335Z" transform="translate(891.5 925)" fill="#151515"/>
      <path id="Path_65" data-name="Path 65" d="M4.095-18.025c0,2.8-2.24,4.165-5,4.165h-.735v2.695H-.49c3.5,0,5.18,1.68,5.18,4.41C4.69-4.41,2.8-2.31-.35-2.31A5.531,5.531,0,0,1-5.635-6.335l-2.59,1.19A8.075,8.075,0,0,0-.35.42c4.48,0,7.98-2.73,7.98-7.175,0-5.005-3.6-5.95-3.6-5.95a5.707,5.707,0,0,0,3.01-5.32A7.074,7.074,0,0,0-.28-24.92a7.687,7.687,0,0,0-7.1,4.8L-4.865-19A4.921,4.921,0,0,1-.28-22.19,4.246,4.246,0,0,1,4.095-18.025Z" transform="translate(1012.5 925)" fill="#151515"/>
      <path id="Path_64" data-name="Path 64" d="M-9.765-6.44H2.73V0H5.6V-6.44H8.645V-9.17H5.6V-24.5H3.01Zm4.9-2.73L2.73-20.02V-9.17Z" transform="translate(1132.5 925)" fill="#151515"/>
      <path id="Path_63" data-name="Path 63" d="M8.382-7.805c0-5.6-3.78-8.26-7.735-8.26A9.863,9.863,0,0,0-3.867-15.05v-6.72H7.858V-24.5H-6.668v13.93s3.255-2.73,6.65-2.73a5.113,5.113,0,0,1,5.46,5.495,5.167,5.167,0,0,1-5.39,5.5c-4.025,0-5.39-3.92-5.39-3.92L-7.892-4.865A8.525,8.525,0,0,0,.052.42C4.287.42,8.382-2.31,8.382-7.805Z" transform="translate(1252.5 925)" fill="#151515"/>
      <path id="Path_62" data-name="Path 62" d="M-6.457-19.145l1.715,2.24,4.69-3.745V0h2.94V-24.5H.262Z" transform="translate(622.5 775)" fill="#151515"/>
      <path id="Path_61" data-name="Path 61" d="M-7.49,0H7.35V-2.73H-1.89l6.51-8.68a10.47,10.47,0,0,0,2.555-6.335c0-4.06-2.94-7.175-7.455-7.175a7.582,7.582,0,0,0-7.35,5.53l2.52.945A5.067,5.067,0,0,1-.28-22.19a4.219,4.219,0,0,1,4.515,4.445c0,2.7-2.2,5.145-3.115,6.335Z" transform="translate(622.5 661)" fill="#151515"/>
      <path id="Path_60" data-name="Path 60" d="M4.095-18.025c0,2.8-2.24,4.165-5,4.165h-.735v2.695H-.49c3.5,0,5.18,1.68,5.18,4.41C4.69-4.41,2.8-2.31-.35-2.31A5.531,5.531,0,0,1-5.635-6.335l-2.59,1.19A8.075,8.075,0,0,0-.35.42c4.48,0,7.98-2.73,7.98-7.175,0-5.005-3.6-5.95-3.6-5.95a5.707,5.707,0,0,0,3.01-5.32A7.074,7.074,0,0,0-.28-24.92a7.687,7.687,0,0,0-7.1,4.8L-4.865-19A4.921,4.921,0,0,1-.28-22.19,4.246,4.246,0,0,1,4.095-18.025Z" transform="translate(622.5 547)" fill="#151515"/>
      <path id="Path_59" data-name="Path 59" d="M-9.765-6.44H2.73V0H5.6V-6.44H8.645V-9.17H5.6V-24.5H3.01Zm4.9-2.73L2.73-20.02V-9.17Z" transform="translate(622.5 433)" fill="#151515"/>
      <path id="Path_58" data-name="Path 58" d="M8.382-7.805c0-5.6-3.78-8.26-7.735-8.26A9.863,9.863,0,0,0-3.867-15.05v-6.72H7.858V-24.5H-6.668v13.93s3.255-2.73,6.65-2.73a5.113,5.113,0,0,1,5.46,5.495,5.167,5.167,0,0,1-5.39,5.5c-4.025,0-5.39-3.92-5.39-3.92L-7.892-4.865A8.525,8.525,0,0,0,.052.42C4.287.42,8.382-2.31,8.382-7.805Z" transform="translate(622.5 319)" fill="#151515"/>
      <path id="Path_57" data-name="Path 57" d="M3.605-23.8l-2.38-1.54s-7.49,12.425-7.98,13.335a9.735,9.735,0,0,0-1.19,4.34A7.864,7.864,0,0,0,.07.42,7.881,7.881,0,0,0,8.085-7.735,7.75,7.75,0,0,0,.07-15.75a4.453,4.453,0,0,0-1.75.35ZM.07-13.02A5.04,5.04,0,0,1,5.145-7.735,5.116,5.116,0,0,1,.07-2.31,5.116,5.116,0,0,1-5-7.735,5.04,5.04,0,0,1,.07-13.02Z" transform="translate(622.5 181)" fill="#151515"/>
    </g>
    <path id="Path_51" data-name="Path 51" d="M10553.957,2586.374c53.793,222.745,146.316,525,252.246,525.366,118.855.407,215.573-380.4,261.879-602.626" transform="translate(-9950 -2324)" fill="none" stroke="#2196f3" stroke-linecap="round" stroke-width="7"/>
    <path id="Path_52" data-name="Path 52" d="M10504.122,3111.741s134.205-758.8,302.081-759.372,291.587,759.372,291.587,759.372" transform="translate(-9823.671 -2144)" fill="none" stroke="#d94a4a" stroke-linecap="round" stroke-width="7"/>
    <g id="Group_52" data-name="Group 52">
      <path id="Path_53" data-name="Path 53" d="M-93.031-11.12a.666.666,0,0,1-.24-.44,7.613,7.613,0,0,1,1.24-2.76,6.858,6.858,0,0,1,4.72-3.28,6.519,6.519,0,0,1,.84-.08,4.86,4.86,0,0,1,2.58.72,4.3,4.3,0,0,1,1.7,1.8q.52-.68.64-.84a4.432,4.432,0,0,1,3.4-1.68,3.77,3.77,0,0,1,2.66.94,3.008,3.008,0,0,1,1.02,2.3,3.14,3.14,0,0,1-.7,2.08,2.3,2.3,0,0,1-1.86.84,1.763,1.763,0,0,1-1.24-.44,1.5,1.5,0,0,1-.48-1.16,2.543,2.543,0,0,1,2-2.52,1.6,1.6,0,0,0-.44-.28,2.28,2.28,0,0,0-1.16-.24,2.613,2.613,0,0,0-.76.08,4.188,4.188,0,0,0-2.24,2.64q-.12.32-1.16,4.46t-1.12,4.66a6.1,6.1,0,0,0-.12,1.2,2.054,2.054,0,0,0,.56,1.52,2,2,0,0,0,1.48.56,4.129,4.129,0,0,0,3.04-1.42,7.379,7.379,0,0,0,1.84-3.14q.12-.4.24-.46a1.944,1.944,0,0,1,.64-.06q.76,0,.76.32,0,.04-.08.44a8.7,8.7,0,0,1-2.8,4.32A6.309,6.309,0,0,1-82.031.44a4.609,4.609,0,0,1-4.24-2.52,5.6,5.6,0,0,1-2.96,2.4,5.112,5.112,0,0,1-1.04.08,3.488,3.488,0,0,1-3.28-1.64,3.1,3.1,0,0,1-.4-1.6,3.028,3.028,0,0,1,.72-2.04,2.315,2.315,0,0,1,1.84-.84,1.5,1.5,0,0,1,1.72,1.68,2.258,2.258,0,0,1-1.4,2.16l-.2.1-.2.1a.307.307,0,0,1-.12.04l-.12.04q0,.12.6.36a2.677,2.677,0,0,0,1.04.2,2.953,2.953,0,0,0,2.48-1.8,30.213,30.213,0,0,0,1.56-5.2q.24-.92.52-2.04t.42-1.72q.14-.6.18-.72a9.754,9.754,0,0,0,.2-1.56,2.146,2.146,0,0,0-.52-1.52,1.868,1.868,0,0,0-1.44-.56,4.177,4.177,0,0,0-3.12,1.38,7.588,7.588,0,0,0-1.84,3.18q-.08.36-.18.42a1.929,1.929,0,0,1-.66.06Zm43.451,1v-2.891h17.344v2.891ZM-.846,0q-.56-.12-5.16-.12-4.8,0-5.36.12h-.36V-1.84h1.24a8.478,8.478,0,0,0,2.12-.2.716.716,0,0,0,.48-.4q.04-.08.04-2.16v-2h-10.36V-8.44l6.04-9.24q6.12-9.28,6.2-9.32a2.106,2.106,0,0,1,.84-.08h.72l.24.24v18.4h3.68V-6.6h-3.68v2.04q0,1.64.02,1.92a.732.732,0,0,0,.22.48,5.087,5.087,0,0,0,2.28.32h1.16V0Zm-6.76-8.44V-21.8l-8.76,13.32,4.36.04Zm10.6-2.68a.666.666,0,0,1-.24-.44,7.613,7.613,0,0,1,1.24-2.76,6.858,6.858,0,0,1,4.72-3.28,6.519,6.519,0,0,1,.84-.08,4.86,4.86,0,0,1,2.58.72,4.3,4.3,0,0,1,1.7,1.8q.52-.68.64-.84a4.432,4.432,0,0,1,3.4-1.68,3.77,3.77,0,0,1,2.66.94,3.008,3.008,0,0,1,1.02,2.3,3.14,3.14,0,0,1-.7,2.08,2.3,2.3,0,0,1-1.86.84,1.763,1.763,0,0,1-1.24-.44,1.5,1.5,0,0,1-.48-1.16,2.543,2.543,0,0,1,2-2.52,1.6,1.6,0,0,0-.44-.28,2.28,2.28,0,0,0-1.16-.24,2.613,2.613,0,0,0-.76.08,4.188,4.188,0,0,0-2.24,2.64q-.12.32-1.16,4.46t-1.12,4.66a6.1,6.1,0,0,0-.12,1.2,2.054,2.054,0,0,0,.56,1.52,2,2,0,0,0,1.48.56,4.129,4.129,0,0,0,3.04-1.42,7.379,7.379,0,0,0,1.84-3.14q.12-.4.24-.46a1.944,1.944,0,0,1,.64-.06q.76,0,.76.32,0,.04-.08.44a8.7,8.7,0,0,1-2.8,4.32A6.309,6.309,0,0,1,13.994.44a4.609,4.609,0,0,1-4.24-2.52A5.6,5.6,0,0,1,6.794.32,5.112,5.112,0,0,1,5.754.4a3.488,3.488,0,0,1-3.28-1.64,3.1,3.1,0,0,1-.4-1.6,3.028,3.028,0,0,1,.72-2.04,2.315,2.315,0,0,1,1.84-.84,1.5,1.5,0,0,1,1.72,1.68,2.258,2.258,0,0,1-1.4,2.16l-.2.1-.2.1a.307.307,0,0,1-.12.04l-.12.04q0,.12.6.36a2.677,2.677,0,0,0,1.04.2,2.953,2.953,0,0,0,2.48-1.8,30.212,30.212,0,0,0,1.56-5.2q.24-.92.52-2.04t.42-1.72q.14-.6.18-.72a9.753,9.753,0,0,0,.2-1.56,2.146,2.146,0,0,0-.52-1.52,1.868,1.868,0,0,0-1.44-.56,4.177,4.177,0,0,0-3.12,1.38,7.588,7.588,0,0,0-1.84,3.18q-.08.36-.18.42a1.929,1.929,0,0,1-.66.06ZM48.007,0V-10.117H37.89v-2.891H48.007V-23.125H50.9v10.117H61.015v2.891H50.9V0ZM79.631-8.56a2.2,2.2,0,0,1,1.62.66,2.251,2.251,0,0,1,.66,1.66,2.061,2.061,0,0,1-.68,1.56,2.166,2.166,0,0,1-1.52.64h-.28l.12.2a5.2,5.2,0,0,0,1.84,2.12,5.081,5.081,0,0,0,2.92.84,4.249,4.249,0,0,0,4.08-2.4,12.2,12.2,0,0,0,.76-5.12q0-4.12-1.08-5.56a3.149,3.149,0,0,0-2.56-1.32,5.152,5.152,0,0,0-4.72,2.72.775.775,0,0,1-.3.34,1.772,1.772,0,0,1-.58.06q-.68,0-.76-.24-.08-.16-.08-7,0-1.2-.02-2.84t-.02-2.08q0-2.24.24-2.24a.23.23,0,0,1,.16-.08l.72.24a14.206,14.206,0,0,0,5.32,1.04,13.609,13.609,0,0,0,5.44-1.12,1.246,1.246,0,0,1,.52-.16q.32,0,.32.72v.52a10.228,10.228,0,0,1-8.2,3.88,9.616,9.616,0,0,1-2.24-.24l-.4-.08v6.88a7.4,7.4,0,0,1,4.68-1.84,7.426,7.426,0,0,1,1.64.2,7.571,7.571,0,0,1,4.38,3.04,9.2,9.2,0,0,1,1.7,5.52,8.747,8.747,0,0,1-2.54,6.28A8.344,8.344,0,0,1,84.511.88a6.661,6.661,0,0,1-4.28-1.4,4.446,4.446,0,0,1-1.32-1.32,7.086,7.086,0,0,1-1.52-3.56q0-.12-.02-.38t-.02-.38a2.378,2.378,0,0,1,.64-1.76A2.22,2.22,0,0,1,79.631-8.56Z" transform="translate(1233 222)" fill="#151515"/>
      <path id="Path_54" data-name="Path 54" d="M-2.8-8.58a1.117,1.117,0,0,1-.88-.36A1.277,1.277,0,0,1-4-9.82a3.279,3.279,0,0,1,1.09-2.47A3.667,3.667,0,0,1-.3-13.32a4.336,4.336,0,0,1,2.85.93A3.9,3.9,0,0,1,3.94-9.96a6.014,6.014,0,0,1,.04.66,3.783,3.783,0,0,1-.7,2.18,13.274,13.274,0,0,1-2.26,2.3q-.72.62-2,1.84L-2.16-1.86l1.52.02a24.008,24.008,0,0,0,3.34-.1q.08-.02.2-.42a12.616,12.616,0,0,0,.28-1.36v-.06h.8v.06L3.42-.06V0H-4V-.38a1.347,1.347,0,0,1,.04-.46q.02-.02,1.68-1.9Q-.1-5.16.52-5.94A5.8,5.8,0,0,0,1.86-9.28a3.5,3.5,0,0,0-.69-2.21,2.3,2.3,0,0,0-1.93-.89,2.194,2.194,0,0,0-1.88,1.04q-.04.08-.12.22a.438.438,0,0,0-.06.12q0,.02.1.02a1.018,1.018,0,0,1,.81.36,1.248,1.248,0,0,1,.31.84,1.194,1.194,0,0,1-.33.85A1.14,1.14,0,0,1-2.8-8.58Z" transform="translate(1167.096 205.59)" fill="#151515"/>
    </g>
    <g id="Group_53" data-name="Group 53" transform="translate(78 314)">
      <path id="Path_55" data-name="Path 55" d="M-104.032-10.117v-2.891h17.344v2.891Zm22.574-1a.666.666,0,0,1-.24-.44,7.613,7.613,0,0,1,1.24-2.76,6.858,6.858,0,0,1,4.72-3.28,6.519,6.519,0,0,1,.84-.08,4.86,4.86,0,0,1,2.58.72,4.3,4.3,0,0,1,1.7,1.8q.52-.68.64-.84a4.432,4.432,0,0,1,3.4-1.68,3.77,3.77,0,0,1,2.66.94,3.008,3.008,0,0,1,1.02,2.3,3.14,3.14,0,0,1-.7,2.08,2.3,2.3,0,0,1-1.86.84,1.763,1.763,0,0,1-1.24-.44,1.5,1.5,0,0,1-.48-1.16,2.543,2.543,0,0,1,2-2.52,1.6,1.6,0,0,0-.44-.28,2.28,2.28,0,0,0-1.16-.24,2.613,2.613,0,0,0-.76.08,4.188,4.188,0,0,0-2.24,2.64q-.12.32-1.16,4.46t-1.12,4.66a6.1,6.1,0,0,0-.12,1.2,2.054,2.054,0,0,0,.56,1.52,2,2,0,0,0,1.48.56A4.129,4.129,0,0,0-67.1-2.46a7.379,7.379,0,0,0,1.84-3.14q.12-.4.24-.46a1.944,1.944,0,0,1,.64-.06q.76,0,.76.32,0,.04-.08.44a8.7,8.7,0,0,1-2.8,4.32A6.309,6.309,0,0,1-70.458.44,4.609,4.609,0,0,1-74.7-2.08a5.6,5.6,0,0,1-2.96,2.4A5.112,5.112,0,0,1-78.7.4a3.488,3.488,0,0,1-3.28-1.64,3.1,3.1,0,0,1-.4-1.6,3.028,3.028,0,0,1,.72-2.04,2.315,2.315,0,0,1,1.84-.84A1.5,1.5,0,0,1-78.1-4.04a2.258,2.258,0,0,1-1.4,2.16l-.2.1-.2.1a.307.307,0,0,1-.12.04l-.12.04q0,.12.6.36a2.677,2.677,0,0,0,1.04.2,2.953,2.953,0,0,0,2.48-1.8,30.213,30.213,0,0,0,1.56-5.2q.24-.92.52-2.04t.42-1.72q.14-.6.18-.72a9.754,9.754,0,0,0,.2-1.56,2.146,2.146,0,0,0-.52-1.52,1.868,1.868,0,0,0-1.44-.56,4.177,4.177,0,0,0-3.12,1.38,7.588,7.588,0,0,0-1.84,3.18q-.08.36-.18.42a1.929,1.929,0,0,1-.66.06ZM-26.445,0V-10.117H-36.562v-2.891h10.117V-23.125h2.891v10.117h10.117v2.891H-23.555V0ZM15.818-24.04a3.774,3.774,0,0,0-2.48-1,5.729,5.729,0,0,0-4.68,2.4q-1.88,2.6-1.88,8.08l.04.16.32-.52a5.115,5.115,0,0,1,4.44-2.4,6.685,6.685,0,0,1,3.24.76,8.271,8.271,0,0,1,1.92,1.62,10.078,10.078,0,0,1,1.56,2.26,10.751,10.751,0,0,1,.84,4.28v.72a7.076,7.076,0,0,1-.2,1.72,9,9,0,0,1-2.48,4.44A7.342,7.342,0,0,1,12.618.72a6.731,6.731,0,0,1-1.6.16A6.972,6.972,0,0,1,9.658.76a7.087,7.087,0,0,1-4.72-3.2q-2.36-3.72-2.36-10.08A17.63,17.63,0,0,1,4.1-20.08a11.978,11.978,0,0,1,4.24-5.04,7.97,7.97,0,0,1,4.68-1.52,5.481,5.481,0,0,1,3.74,1.24,4.279,4.279,0,0,1,1.42,3.4,2.2,2.2,0,0,1-.58,1.6,2.044,2.044,0,0,1-1.54.6,2.123,2.123,0,0,1-1.54-.56,2.067,2.067,0,0,1-.58-1.56A1.979,1.979,0,0,1,15.818-24.04Zm-1.76,9.6a3.49,3.49,0,0,0-2.88-1.44,3.246,3.246,0,0,0-2.4.92Q6.818-13,6.818-8.64A16.938,16.938,0,0,0,7.3-3.72a4.6,4.6,0,0,0,1.36,2.04,3.348,3.348,0,0,0,2.28.84,3.591,3.591,0,0,0,3.12-1.52,4.421,4.421,0,0,0,.76-2,26.425,26.425,0,0,0,.16-3.36V-9a27.287,27.287,0,0,0-.16-3.44A4.421,4.421,0,0,0,14.058-14.44Zm9.16,3.32a.666.666,0,0,1-.24-.44,7.613,7.613,0,0,1,1.24-2.76,6.858,6.858,0,0,1,4.72-3.28,6.519,6.519,0,0,1,.84-.08,4.86,4.86,0,0,1,2.58.72,4.3,4.3,0,0,1,1.7,1.8q.52-.68.64-.84a4.432,4.432,0,0,1,3.4-1.68,3.77,3.77,0,0,1,2.66.94,3.008,3.008,0,0,1,1.02,2.3,3.14,3.14,0,0,1-.7,2.08,2.3,2.3,0,0,1-1.86.84,1.763,1.763,0,0,1-1.24-.44,1.5,1.5,0,0,1-.48-1.16,2.543,2.543,0,0,1,2-2.52,1.6,1.6,0,0,0-.44-.28,2.28,2.28,0,0,0-1.16-.24,2.613,2.613,0,0,0-.76.08,4.188,4.188,0,0,0-2.24,2.64q-.12.32-1.16,4.46t-1.12,4.66a6.1,6.1,0,0,0-.12,1.2,2.054,2.054,0,0,0,.56,1.52,2,2,0,0,0,1.48.56,4.129,4.129,0,0,0,3.04-1.42,7.379,7.379,0,0,0,1.84-3.14q.12-.4.24-.46a1.944,1.944,0,0,1,.64-.06q.76,0,.76.32,0,.04-.08.44a8.7,8.7,0,0,1-2.8,4.32A6.309,6.309,0,0,1,34.218.44a4.609,4.609,0,0,1-4.24-2.52,5.6,5.6,0,0,1-2.96,2.4,5.112,5.112,0,0,1-1.04.08A3.488,3.488,0,0,1,22.7-1.24a3.1,3.1,0,0,1-.4-1.6,3.028,3.028,0,0,1,.72-2.04,2.315,2.315,0,0,1,1.84-.84,1.5,1.5,0,0,1,1.72,1.68,2.258,2.258,0,0,1-1.4,2.16l-.2.1-.2.1a.307.307,0,0,1-.12.04l-.12.04q0,.12.6.36a2.677,2.677,0,0,0,1.04.2,2.953,2.953,0,0,0,2.48-1.8,30.212,30.212,0,0,0,1.56-5.2q.24-.92.52-2.04t.42-1.72q.14-.6.18-.72a9.753,9.753,0,0,0,.2-1.56,2.146,2.146,0,0,0-.52-1.52,1.868,1.868,0,0,0-1.44-.56,4.177,4.177,0,0,0-3.12,1.38,7.588,7.588,0,0,0-1.84,3.18q-.08.36-.18.42a1.929,1.929,0,0,1-.66.06Zm33.451,1v-2.891H74.013v2.891ZM92-18.52a2.185,2.185,0,0,1-1.7-.68,2.511,2.511,0,0,1-.62-1.76,4.83,4.83,0,0,1,1.8-3.82,7.649,7.649,0,0,1,4.16-1.82h.6q1.4,0,1.76.04a9.712,9.712,0,0,1,2.68.84A5.956,5.956,0,0,1,104-21.96a3.892,3.892,0,0,1,.12,1.08,6.653,6.653,0,0,1-1.46,4.22A8.081,8.081,0,0,1,99-14q-.2.08,0,.12a2.611,2.611,0,0,0,.4.12,8.522,8.522,0,0,1,4.12,2.54A6.125,6.125,0,0,1,105.2-7a6.981,6.981,0,0,1-.76,3.16A7.929,7.929,0,0,1,101.3-.46,9.1,9.1,0,0,1,96.443.88a9.565,9.565,0,0,1-4.68-1.12,5.768,5.768,0,0,1-2.76-3,4.513,4.513,0,0,1-.4-1.96,2.391,2.391,0,0,1,.74-1.82,2.5,2.5,0,0,1,1.78-.7,2.492,2.492,0,0,1,1.84.72,2.442,2.442,0,0,1,.72,1.8,2.559,2.559,0,0,1-.52,1.6,2.361,2.361,0,0,1-1.4.88l-.28.08a7.526,7.526,0,0,0,4.96,1.8,3.57,3.57,0,0,0,3.32-2.12,9.19,9.19,0,0,0,.68-4.04v-.8q0-3.8-2.56-5.08a8.379,8.379,0,0,0-2.44-.28l-1.68-.04-.12-.08a1.487,1.487,0,0,1-.08-.64.949.949,0,0,1,.12-.6.328.328,0,0,1,.2-.12,14.11,14.11,0,0,0,2.32-.2,3.465,3.465,0,0,0,2.68-1.98A8.836,8.836,0,0,0,99.8-21q0-2.6-1.4-3.48a3.314,3.314,0,0,0-1.88-.56A5.922,5.922,0,0,0,93-23.96a1.7,1.7,0,0,0-.36.26,2.438,2.438,0,0,0-.32.34l-.12.16q.12.04.28.08a1.905,1.905,0,0,1,1.34.76,2.439,2.439,0,0,1,.54,1.56,2.2,2.2,0,0,1-.66,1.62A2.3,2.3,0,0,1,92-18.52Z" transform="translate(1233 222)" fill="#151515"/>
      <path id="Path_56" data-name="Path 56" d="M-2.8-8.58a1.117,1.117,0,0,1-.88-.36A1.277,1.277,0,0,1-4-9.82a3.279,3.279,0,0,1,1.09-2.47A3.667,3.667,0,0,1-.3-13.32a4.336,4.336,0,0,1,2.85.93A3.9,3.9,0,0,1,3.94-9.96a6.014,6.014,0,0,1,.04.66,3.783,3.783,0,0,1-.7,2.18,13.274,13.274,0,0,1-2.26,2.3q-.72.62-2,1.84L-2.16-1.86l1.52.02a24.008,24.008,0,0,0,3.34-.1q.08-.02.2-.42a12.616,12.616,0,0,0,.28-1.36v-.06h.8v.06L3.42-.06V0H-4V-.38a1.347,1.347,0,0,1,.04-.46q.02-.02,1.68-1.9Q-.1-5.16.52-5.94A5.8,5.8,0,0,0,1.86-9.28a3.5,3.5,0,0,0-.69-2.21,2.3,2.3,0,0,0-1.93-.89,2.194,2.194,0,0,0-1.88,1.04q-.04.08-.12.22a.438.438,0,0,0-.06.12q0,.02.1.02a1.018,1.018,0,0,1,.81.36,1.248,1.248,0,0,1,.31.84,1.194,1.194,0,0,1-.33.85A1.14,1.14,0,0,1-2.8-8.58Z" transform="translate(1179.096 205.59)" fill="#151515"/>
    </g>
  </g>
</svg>
