<svg xmlns="http://www.w3.org/2000/svg" width="1273" height="325" viewBox="0 0 1273 325">
  <g id="Group_87" data-name="Group 87" transform="translate(-324 -378)">
    <rect id="Rectangle_3" data-name="Rectangle 3" width="1273" height="325" transform="translate(324 378)" fill="#fafafa"/>
    <g id="Group_86" data-name="Group 86">
      <g id="Ellipse_80" data-name="Ellipse 80" transform="translate(609 453)" fill="none" stroke="#151515" stroke-width="10">
        <circle cx="87" cy="87" r="87" stroke="none"/>
        <circle cx="87" cy="87" r="82" fill="none"/>
      </g>
      <g id="Ellipse_81" data-name="Ellipse 81" transform="translate(1138 453)" fill="none" stroke="#151515" stroke-width="10">
        <circle cx="87" cy="87" r="87" stroke="none"/>
        <circle cx="87" cy="87" r="82" fill="none"/>
      </g>
      <path id="Path_171" data-name="Path 171" d="M20641,3962.541s201.2,147.283,438.721,0" transform="translate(-19900 -3423)" fill="none" stroke="#2196f3" stroke-width="10"/>
      <path id="Path_170" data-name="Path 170" d="M20641,4028s201.2-147.283,438.721,0" transform="translate(-19900 -3486)" fill="none" stroke="#2196f3" stroke-width="10"/>
      <circle id="Ellipse_82" data-name="Ellipse 82" cx="8" cy="8" r="8" transform="translate(733 534)" fill="#151515"/>
      <circle id="Ellipse_83" data-name="Ellipse 83" cx="8" cy="8" r="8" transform="translate(1172 534)" fill="#151515"/>
      <path id="Path_173" data-name="Path 173" d="M-31.22,6.48q1.08.24,1.16.24.92,0,1.6-1.68.48-1.32,2.92-14.24,1.12-6.04,1.16-6.08v-.12h-1.88a10.794,10.794,0,0,1-2-.08q-.28-.16-.08-.88a3.517,3.517,0,0,1,.2-.64.359.359,0,0,1,.34-.22q.26-.02,1.86-.02a17.318,17.318,0,0,0,1.92-.04q0-.08.36-2t.48-2.32q.84-3.8,2.52-5.28a5.168,5.168,0,0,1,3.32-1.32,4.075,4.075,0,0,1,2.42.88,2.6,2.6,0,0,1,.98,2.12,2.824,2.824,0,0,1-.72,1.96,2.321,2.321,0,0,1-1.8.8q-1.76,0-1.76-1.68a2.258,2.258,0,0,1,1.4-2.16l.36-.2a3.948,3.948,0,0,0-1.2-.24q-1.16,0-1.52,1.52-.32,1.2-1.04,5.24l-.52,2.64a11.419,11.419,0,0,0,2.2.08q1.8,0,2.16.04t.36.28a4.455,4.455,0,0,1-.28,1.28.392.392,0,0,1-.38.22q-.3.02-2.14.02h-2.24l-.92,4.88q-1.48,7.64-1.84,9.24-1.36,6.04-3.64,8.2A4.509,4.509,0,0,1-30.38,8.2a3.622,3.622,0,0,1-2.4-.8,2.622,2.622,0,0,1-.96-2.12,2.952,2.952,0,0,1,.72-2.02,2.3,2.3,0,0,1,1.8-.82q1.76,0,1.76,1.68a2.258,2.258,0,0,1-1.4,2.16Zm28.2,3.16q0,.36-.72.36h-.52l-1.12-.96q-7.2-6.56-7.2-19.04a32.254,32.254,0,0,1,1.16-8.92A21.573,21.573,0,0,1-5.38-29.04q.28-.24.64-.54t.48-.42h.52a.949.949,0,0,1,.6.12.346.346,0,0,1,.12.24q0,.16-.44.6Q-9.66-22.48-9.66-10t6.2,19.04Q-3.02,9.48-3.02,9.64ZM18.7-6.12a3.616,3.616,0,0,1,.48.02.358.358,0,0,1,.2.1.326.326,0,0,1,.08.24,3.608,3.608,0,0,1-.12.6A10.426,10.426,0,0,1,17.18-.52,3.955,3.955,0,0,1,15.9.32a4.264,4.264,0,0,1-.96.08,3.611,3.611,0,0,1-3.52-1.96,2.969,2.969,0,0,0-.2-.48q-.04-.04-.16.04l-.16.16A8.184,8.184,0,0,1,7.1.36,7.7,7.7,0,0,1,6.1.4,5.309,5.309,0,0,1,1.74-1.8,7.785,7.785,0,0,1,.54-6.28a6.343,6.343,0,0,1,.04-.88,12.167,12.167,0,0,1,1.66-4.9,12.718,12.718,0,0,1,3.3-3.78,7.846,7.846,0,0,1,4.88-1.8,4.611,4.611,0,0,1,3.6,1.96,2,2,0,0,1,1.84-1.2,1.431,1.431,0,0,1,.92.32.985.985,0,0,1,.4.8q0,.52-1.5,6.42a61.065,61.065,0,0,0-1.5,6.62q0,1.68,1.12,1.68a1.738,1.738,0,0,0,.8-.36,9.07,9.07,0,0,0,1.64-3.84q.24-.8.4-.84a1.17,1.17,0,0,1,.4-.04ZM3.94-4.24a3.948,3.948,0,0,0,.62,2.32,2.084,2.084,0,0,0,1.82.88A4.292,4.292,0,0,0,8.86-2a8.4,8.4,0,0,0,1.3-1.2,7.092,7.092,0,0,0,.98-1.2q.08-.16,1.1-4.28t1.02-4.44a3.384,3.384,0,0,0-.44-1.36A2.742,2.742,0,0,0,10.3-16.2a3.694,3.694,0,0,0-2.82,1.36,9.471,9.471,0,0,0-1.86,3.12A31.934,31.934,0,0,0,3.98-5.16q0,.12-.02.44T3.94-4.24ZM22.78-29.96l.16-.04h.88l1.12.96q7.2,6.56,7.2,19.04a31.558,31.558,0,0,1-1.16,8.88A21.575,21.575,0,0,1,24.94,9.04q-.28.24-.64.54t-.48.42h-.48a1.5,1.5,0,0,1-.62-.08q-.14-.08-.14-.4.04-.04.44-.52,6.2-6.44,6.2-19t-6.2-19q-.4-.48-.44-.52A.47.47,0,0,1,22.78-29.96Z" transform="translate(960 451)" fill="#151515"/>
      <path id="Path_174" data-name="Path 174" d="M-44.343,6.48q1.08.24,1.16.24.92,0,1.6-1.68.48-1.32,2.92-14.24,1.12-6.04,1.16-6.08v-.12h-1.88a10.794,10.794,0,0,1-2-.08q-.28-.16-.08-.88a3.518,3.518,0,0,1,.2-.64.359.359,0,0,1,.34-.22q.26-.02,1.86-.02a17.318,17.318,0,0,0,1.92-.04q0-.08.36-2t.48-2.32q.84-3.8,2.52-5.28a5.168,5.168,0,0,1,3.32-1.32,4.075,4.075,0,0,1,2.42.88,2.6,2.6,0,0,1,.98,2.12,2.824,2.824,0,0,1-.72,1.96,2.321,2.321,0,0,1-1.8.8q-1.76,0-1.76-1.68a2.258,2.258,0,0,1,1.4-2.16l.36-.2a3.948,3.948,0,0,0-1.2-.24q-1.16,0-1.52,1.52-.32,1.2-1.04,5.24l-.52,2.64a11.419,11.419,0,0,0,2.2.08q1.8,0,2.16.04t.36.28a4.455,4.455,0,0,1-.28,1.28.392.392,0,0,1-.38.22q-.3.02-2.14.02h-2.24l-.92,4.88q-1.48,7.64-1.84,9.24-1.36,6.04-3.64,8.2A4.509,4.509,0,0,1-43.5,8.2a3.622,3.622,0,0,1-2.4-.8,2.622,2.622,0,0,1-.96-2.12,2.952,2.952,0,0,1,.72-2.02,2.3,2.3,0,0,1,1.8-.82q1.76,0,1.76,1.68a2.258,2.258,0,0,1-1.4,2.16ZM-27.777-18.9v-1.686H-17.66V-18.9ZM-6.257-13q-.4-.07-3.71-.07-3.266,0-3.663.07h-.28v-1.073h.607a13.143,13.143,0,0,0,1.75-.07,1.509,1.509,0,0,0,.56-.28V-26.486a.563.563,0,0,0-.187.07,6.884,6.884,0,0,1-2.4.443h-.443v-1.073h.443a6.51,6.51,0,0,0,3.266-.887,3.239,3.239,0,0,0,.723-.537q.047-.07.28-.07a.589.589,0,0,1,.4.14v6.976l.023,7a2.259,2.259,0,0,0,1.517.35H-6V-13ZM9.023,9.64q0,.36-.72.36h-.52l-1.12-.96Q-.537,2.48-.537-10a32.254,32.254,0,0,1,1.16-8.92,21.573,21.573,0,0,1,6.04-10.12q.28-.24.64-.54t.48-.42H8.3a.949.949,0,0,1,.6.12.346.346,0,0,1,.12.24q0,.16-.44.6-6.2,6.56-6.2,19.04t6.2,19.04Q9.023,9.48,9.023,9.64Zm6.16-37.16q.68-.04,1.48-.1t1.2-.1q.4-.04.44-.04h.12v6.04q0,6.08.04,6.08a1.589,1.589,0,0,0,.24-.2,8.252,8.252,0,0,1,5.48-1.84,6.743,6.743,0,0,1,1.32.12,7.811,7.811,0,0,1,4.74,2.98,9.323,9.323,0,0,1,1.9,5.94,11.33,11.33,0,0,1-.08,1.4,9.468,9.468,0,0,1-2.82,5.46,7.887,7.887,0,0,1-5.7,2.22,6.966,6.966,0,0,1-5.28-2.36l-.28-.28-.4.72q-.08.12-.22.38t-.24.44q-.1.18-.14.26l-.2.36-.8.04h-.8V-11.92q0-12.04-.04-12.2a1.322,1.322,0,0,0-.58-1.02,4.659,4.659,0,0,0-1.78-.34h-.72v-.92q0-.92.08-.92l.4-.04q.4-.04,1.16-.08ZM24.5-16.08q-.96-.12-1.24-.12a5.264,5.264,0,0,0-4.48,2.32l-.24.32v9.64l.2.28a5.262,5.262,0,0,0,3.08,2.44,4.243,4.243,0,0,0,1.24.16A4.648,4.648,0,0,0,27.1-3.2a5.528,5.528,0,0,0,.64-1.32,12.751,12.751,0,0,0,.48-3.96,15.36,15.36,0,0,0-.48-4.44A4.509,4.509,0,0,0,24.5-16.08ZM35.9-29.96l.16-.04h.88l1.12.96q7.2,6.56,7.2,19.04A31.558,31.558,0,0,1,44.1-1.12a21.575,21.575,0,0,1-6.04,10.16q-.28.24-.64.54t-.48.42h-.48a1.5,1.5,0,0,1-.62-.08q-.14-.08-.14-.4.04-.04.44-.52,6.2-6.44,6.2-19t-6.2-19q-.4-.48-.44-.52A.47.47,0,0,1,35.9-29.96Z" transform="translate(960 656)" fill="#151515"/>
      <path id="Path_172" data-name="Path 172" d="M15.353-10.557a6.238,6.238,0,0,1,.828.035.618.618,0,0,1,.345.172.562.562,0,0,1,.138.414A6.224,6.224,0,0,1,16.457-8.9q-1.518,5.8-3.726,8A6.823,6.823,0,0,1,10.522.552,7.356,7.356,0,0,1,8.867.69Q4.52.69,2.795-2.691a5.121,5.121,0,0,0-.345-.828q-.069-.069-.276.069L1.9-3.174A14.118,14.118,0,0,1-4.658.621,13.283,13.283,0,0,1-6.382.69a9.159,9.159,0,0,1-7.521-3.8,13.429,13.429,0,0,1-2.07-7.728,10.942,10.942,0,0,1,.069-1.518A20.988,20.988,0,0,1-13.041-20.8a21.938,21.938,0,0,1,5.693-6.521,13.534,13.534,0,0,1,8.418-3.105q3.45,0,6.21,3.381a3.453,3.453,0,0,1,3.174-2.07,2.469,2.469,0,0,1,1.587.552,1.7,1.7,0,0,1,.69,1.38q0,.9-2.587,11.074T7.556-4.692q0,2.9,1.932,2.9a3,3,0,0,0,1.38-.621Q12.316-3.8,13.7-9.039q.414-1.38.69-1.449a2.018,2.018,0,0,1,.69-.069ZM-10.108-7.314a6.809,6.809,0,0,0,1.069,4A3.6,3.6,0,0,0-5.9-1.794,7.4,7.4,0,0,0-1.622-3.45,14.494,14.494,0,0,0,.621-5.52,12.233,12.233,0,0,0,2.312-7.59q.138-.276,1.9-7.383t1.759-7.659a5.837,5.837,0,0,0-.759-2.346A4.729,4.729,0,0,0,.863-27.945,6.373,6.373,0,0,0-4-25.6,16.338,16.338,0,0,0-7.21-20.217,55.086,55.086,0,0,0-10.039-8.9q0,.207-.035.759T-10.108-7.314Z" transform="translate(693 557)" fill="#151515"/>
      <path id="Path_175" data-name="Path 175" d="M-8.66-47.127q.069,0,5-.379t5-.38q.828,0,.828.621T-.172-37.4q-.552,2.346-1.208,4.83t-1,3.726l-.276,1.311q0,.207.414-.207A12.828,12.828,0,0,1,3-30.36,10.481,10.481,0,0,1,4.727-30.5a10.481,10.481,0,0,1,1.725.138,9.558,9.558,0,0,1,5.727,3.726,11.987,11.987,0,0,1,2.139,7.314A20.537,20.537,0,0,1,8.9-5.417Q3.484.759-2.864.759a8.374,8.374,0,0,1-3.795-.9Q-12.041-2.553-12.04-10.35a18.718,18.718,0,0,1,.414-3.933q0-.069,3.45-14.145L-4.658-42.5q.138-.966-.448-1.207a5.666,5.666,0,0,0-1.966-.242h-.759a3.426,3.426,0,0,1-1.656-.207q-.414-.345-.069-1.656a2.456,2.456,0,0,1,.483-1.1A.6.6,0,0,1-8.66-47.127Zm17.043,24.7q0-5.52-4.209-5.52-.138,0-.448.035t-.379.034q-3.588.759-6.762,4.968a4.034,4.034,0,0,0-.345.414l-.207.276q0,.069-1.207,4.934T-6.521-11.73a20.52,20.52,0,0,0-.414,3.864A6.747,6.747,0,0,0-5.279-2.9a3.745,3.745,0,0,0,2.76,1.1A6.871,6.871,0,0,0,2.1-4,12.161,12.161,0,0,0,4.9-7.9a41.5,41.5,0,0,0,2.243-7.21A33.9,33.9,0,0,0,8.384-22.425Z" transform="translate(1225 557)" fill="#151515"/>
    </g>
  </g>
</svg>
