<svg xmlns="http://www.w3.org/2000/svg" width="185.637" height="216.571" viewBox="0 0 185.637 216.571">
  <g id="unknown" transform="translate(-21.846 -19.658)">
    <g id="Group_6" data-name="Group 6" transform="translate(21.846 19.658)">
      <path id="Path_9" data-name="Path 9" d="M165.038,0H20.657A20.623,20.623,0,0,0,.029,20.628v144.38a20.615,20.615,0,0,0,20.628,20.619H61.906l30.942,30.942,30.933-30.942h41.257a20.685,20.685,0,0,0,20.628-20.619V20.628A20.693,20.693,0,0,0,165.038,0ZM103.162,165.008H82.534V144.38h20.628v20.628ZM124.5,85.085l-9.276,9.484c-7.426,7.526-12.065,13.716-12.065,29.183H82.534V118.6A41.5,41.5,0,0,1,94.6,89.416l12.787-12.994a20.194,20.194,0,0,0,6.091-14.537,20.628,20.628,0,1,0-41.257,0H51.6a41.248,41.248,0,1,1,82.5,0,32.806,32.806,0,0,1-9.592,23.2Z" transform="translate(-0.029)" fill="#fff" fill-rule="evenodd"/>
    </g>
  </g>
</svg>
