<svg xmlns="http://www.w3.org/2000/svg" width="1548" height="498" viewBox="0 0 1548 498">
  <g id="Group_23" data-name="Group 23" transform="translate(-186 -291)">
    <rect id="Rectangle_11" data-name="Rectangle 11" width="1548" height="498" transform="translate(186 291)" fill="#fafafa"/>
    <g id="Group_22" data-name="Group 22">
      <path id="Path_15" data-name="Path 15" d="M4.352,0h48.96L93.024-102.816H257.312L297.024,0H344.9L196.384-380.8H153.952ZM175.168-315.52l65.28,169.184H109.888Z" transform="translate(298.648 727.8)" fill="#151515"/>
      <g id="Group_20" data-name="Group 20" transform="translate(54.648 37.8)">
        <g id="Rectangle_10" data-name="Rectangle 10" transform="translate(1180.51 311.897)" fill="#fafafa" stroke="#d3d3d3" stroke-width="1">
          <rect width="47.812" height="47.812" stroke="none"/>
          <rect x="0.5" y="0.5" width="46.812" height="46.812" fill="none"/>
        </g>
        <g id="Rectangle_10-2" data-name="Rectangle 10" transform="translate(1228.323 311.897)" fill="#fafafa" stroke="#d3d3d3" stroke-width="1">
          <rect width="47.812" height="47.812" stroke="none"/>
          <rect x="0.5" y="0.5" width="46.812" height="46.812" fill="none"/>
        </g>
        <g id="Rectangle_10-3" data-name="Rectangle 10" transform="translate(1276.135 311.897)" fill="#fafafa" stroke="#d3d3d3" stroke-width="1">
          <rect width="47.812" height="47.812" stroke="none"/>
          <rect x="0.5" y="0.5" width="46.812" height="46.812" fill="none"/>
        </g>
        <g id="Rectangle_10-4" data-name="Rectangle 10" transform="translate(1323.947 311.897)" fill="#747474" stroke="#d3d3d3" stroke-width="1">
          <rect width="47.812" height="47.812" stroke="none"/>
          <rect x="0.5" y="0.5" width="46.812" height="46.812" fill="none"/>
        </g>
        <g id="Rectangle_10-5" data-name="Rectangle 10" transform="translate(1371.759 311.897)" fill="#747474" stroke="#d3d3d3" stroke-width="1">
          <rect width="47.812" height="47.812" stroke="none"/>
          <rect x="0.5" y="0.5" width="46.812" height="46.812" fill="none"/>
        </g>
        <g id="Rectangle_10-6" data-name="Rectangle 10" transform="translate(1419.571 311.897)" fill="#fafafa" stroke="#d3d3d3" stroke-width="1">
          <rect width="47.812" height="47.812" stroke="none"/>
          <rect x="0.5" y="0.5" width="46.812" height="46.812" fill="none"/>
        </g>
        <g id="Rectangle_10-7" data-name="Rectangle 10" transform="translate(1467.383 311.897)" fill="#fafafa" stroke="#d3d3d3" stroke-width="1">
          <rect width="47.812" height="47.812" stroke="none"/>
          <rect x="0.5" y="0.5" width="46.812" height="46.812" fill="none"/>
        </g>
        <g id="Rectangle_10-8" data-name="Rectangle 10" transform="translate(1515.195 311.897)" fill="#fafafa" stroke="#d3d3d3" stroke-width="1">
          <rect width="47.812" height="47.812" stroke="none"/>
          <rect x="0.5" y="0.5" width="46.812" height="46.812" fill="none"/>
        </g>
        <g id="Rectangle_10-9" data-name="Rectangle 10" transform="translate(1180.51 359.709)" fill="#fafafa" stroke="#d3d3d3" stroke-width="1">
          <rect width="47.812" height="47.812" stroke="none"/>
          <rect x="0.5" y="0.5" width="46.812" height="46.812" fill="none"/>
        </g>
        <g id="Rectangle_10-10" data-name="Rectangle 10" transform="translate(1228.323 359.709)" fill="#fafafa" stroke="#d3d3d3" stroke-width="1">
          <rect width="47.812" height="47.812" stroke="none"/>
          <rect x="0.5" y="0.5" width="46.812" height="46.812" fill="none"/>
        </g>
        <g id="Rectangle_10-11" data-name="Rectangle 10" transform="translate(1276.135 359.709)" fill="#bebebe" stroke="#d3d3d3" stroke-width="1">
          <rect width="47.812" height="47.812" stroke="none"/>
          <rect x="0.5" y="0.5" width="46.812" height="46.812" fill="none"/>
        </g>
        <g id="Rectangle_10-12" data-name="Rectangle 10" transform="translate(1323.947 359.709)" fill="#343434" stroke="#d3d3d3" stroke-width="1">
          <rect width="47.812" height="47.812" stroke="none"/>
          <rect x="0.5" y="0.5" width="46.812" height="46.812" fill="none"/>
        </g>
        <g id="Rectangle_10-13" data-name="Rectangle 10" transform="translate(1371.759 359.709)" fill="#343434" stroke="#d3d3d3" stroke-width="1">
          <rect width="47.812" height="47.812" stroke="none"/>
          <rect x="0.5" y="0.5" width="46.812" height="46.812" fill="none"/>
        </g>
        <g id="Rectangle_10-14" data-name="Rectangle 10" transform="translate(1419.571 359.709)" fill="#bebebe" stroke="#d3d3d3" stroke-width="1">
          <rect width="47.812" height="47.812" stroke="none"/>
          <rect x="0.5" y="0.5" width="46.812" height="46.812" fill="none"/>
        </g>
        <g id="Rectangle_10-15" data-name="Rectangle 10" transform="translate(1467.383 359.709)" fill="#fafafa" stroke="#d3d3d3" stroke-width="1">
          <rect width="47.812" height="47.812" stroke="none"/>
          <rect x="0.5" y="0.5" width="46.812" height="46.812" fill="none"/>
        </g>
        <g id="Rectangle_10-16" data-name="Rectangle 10" transform="translate(1515.195 359.709)" fill="#fafafa" stroke="#d3d3d3" stroke-width="1">
          <rect width="47.812" height="47.812" stroke="none"/>
          <rect x="0.5" y="0.5" width="46.812" height="46.812" fill="none"/>
        </g>
        <g id="Rectangle_10-17" data-name="Rectangle 10" transform="translate(1180.51 407.521)" fill="#fafafa" stroke="#d3d3d3" stroke-width="1">
          <rect width="47.812" height="47.812" stroke="none"/>
          <rect x="0.5" y="0.5" width="46.812" height="46.812" fill="none"/>
        </g>
        <g id="Rectangle_10-18" data-name="Rectangle 10" transform="translate(1228.323 407.521)" fill="#fafafa" stroke="#d3d3d3" stroke-width="1">
          <rect width="47.812" height="47.812" stroke="none"/>
          <rect x="0.5" y="0.5" width="46.812" height="46.812" fill="none"/>
        </g>
        <g id="Rectangle_10-19" data-name="Rectangle 10" transform="translate(1276.135 407.521)" fill="#9f9f9f" stroke="#d3d3d3" stroke-width="1">
          <rect width="47.812" height="47.812" stroke="none"/>
          <rect x="0.5" y="0.5" width="46.812" height="46.812" fill="none"/>
        </g>
        <g id="Rectangle_10-20" data-name="Rectangle 10" transform="translate(1323.947 407.521)" fill="#747474" stroke="#d3d3d3" stroke-width="1">
          <rect width="47.812" height="47.812" stroke="none"/>
          <rect x="0.5" y="0.5" width="46.812" height="46.812" fill="none"/>
        </g>
        <g id="Rectangle_10-21" data-name="Rectangle 10" transform="translate(1371.759 407.521)" fill="#747474" stroke="#d3d3d3" stroke-width="1">
          <rect width="47.812" height="47.812" stroke="none"/>
          <rect x="0.5" y="0.5" width="46.812" height="46.812" fill="none"/>
        </g>
        <g id="Rectangle_10-22" data-name="Rectangle 10" transform="translate(1419.571 407.521)" fill="#9f9f9f" stroke="#d3d3d3" stroke-width="1">
          <rect width="47.812" height="47.812" stroke="none"/>
          <rect x="0.5" y="0.5" width="46.812" height="46.812" fill="none"/>
        </g>
        <g id="Rectangle_10-23" data-name="Rectangle 10" transform="translate(1467.383 407.521)" fill="#fafafa" stroke="#d3d3d3" stroke-width="1">
          <rect width="47.812" height="47.812" stroke="none"/>
          <rect x="0.5" y="0.5" width="46.812" height="46.812" fill="none"/>
        </g>
        <g id="Rectangle_10-24" data-name="Rectangle 10" transform="translate(1515.195 407.521)" fill="#fafafa" stroke="#d3d3d3" stroke-width="1">
          <rect width="47.812" height="47.812" stroke="none"/>
          <rect x="0.5" y="0.5" width="46.812" height="46.812" fill="none"/>
        </g>
        <g id="Rectangle_10-25" data-name="Rectangle 10" transform="translate(1180.51 455.333)" fill="#fafafa" stroke="#d3d3d3" stroke-width="1">
          <rect width="47.812" height="47.812" stroke="none"/>
          <rect x="0.5" y="0.5" width="46.812" height="46.812" fill="none"/>
        </g>
        <g id="Rectangle_10-26" data-name="Rectangle 10" transform="translate(1228.323 455.333)" fill="#fafafa" stroke="#d3d3d3" stroke-width="1">
          <rect width="47.812" height="47.812" stroke="none"/>
          <rect x="0.5" y="0.5" width="46.812" height="46.812" fill="none"/>
        </g>
        <g id="Rectangle_10-27" data-name="Rectangle 10" transform="translate(1276.135 455.333)" fill="#343434" stroke="#d3d3d3" stroke-width="1">
          <rect width="47.812" height="47.812" stroke="none"/>
          <rect x="0.5" y="0.5" width="46.812" height="46.812" fill="none"/>
        </g>
        <g id="Rectangle_10-28" data-name="Rectangle 10" transform="translate(1323.947 455.333)" fill="#e0e0e0" stroke="#d3d3d3" stroke-width="1">
          <rect width="47.812" height="47.812" stroke="none"/>
          <rect x="0.5" y="0.5" width="46.812" height="46.812" fill="none"/>
        </g>
        <g id="Rectangle_10-29" data-name="Rectangle 10" transform="translate(1371.759 455.333)" fill="#e0e0e0" stroke="#d3d3d3" stroke-width="1">
          <rect width="47.812" height="47.812" stroke="none"/>
          <rect x="0.5" y="0.5" width="46.812" height="46.812" fill="none"/>
        </g>
        <g id="Rectangle_10-30" data-name="Rectangle 10" transform="translate(1419.571 455.333)" fill="#343434" stroke="#d3d3d3" stroke-width="1">
          <rect width="47.812" height="47.812" stroke="none"/>
          <rect x="0.5" y="0.5" width="46.812" height="46.812" fill="none"/>
        </g>
        <g id="Rectangle_10-31" data-name="Rectangle 10" transform="translate(1467.383 455.333)" fill="#fafafa" stroke="#d3d3d3" stroke-width="1">
          <rect width="47.812" height="47.812" stroke="none"/>
          <rect x="0.5" y="0.5" width="46.812" height="46.812" fill="none"/>
        </g>
        <g id="Rectangle_10-32" data-name="Rectangle 10" transform="translate(1515.195 455.333)" fill="#fafafa" stroke="#d3d3d3" stroke-width="1">
          <rect width="47.812" height="47.812" stroke="none"/>
          <rect x="0.5" y="0.5" width="46.812" height="46.812" fill="none"/>
        </g>
        <g id="Rectangle_10-33" data-name="Rectangle 10" transform="translate(1180.51 503.145)" fill="#fafafa" stroke="#d3d3d3" stroke-width="1">
          <rect width="47.812" height="47.812" stroke="none"/>
          <rect x="0.5" y="0.5" width="46.812" height="46.812" fill="none"/>
        </g>
        <g id="Rectangle_10-34" data-name="Rectangle 10" transform="translate(1228.323 503.145)" fill="#bebebe" stroke="#d3d3d3" stroke-width="1">
          <rect width="47.812" height="47.812" stroke="none"/>
          <rect x="0.5" y="0.5" width="46.812" height="46.812" fill="none"/>
        </g>
        <g id="Rectangle_10-35" data-name="Rectangle 10" transform="translate(1276.135 503.145)" fill="#343434" stroke="#d3d3d3" stroke-width="1">
          <rect width="47.812" height="47.812" stroke="none"/>
          <rect x="0.5" y="0.5" width="46.812" height="46.812" fill="none"/>
        </g>
        <g id="Rectangle_10-36" data-name="Rectangle 10" transform="translate(1323.947 503.145)" fill="#fff" stroke="#d3d3d3" stroke-width="1">
          <rect width="47.812" height="47.812" stroke="none"/>
          <rect x="0.5" y="0.5" width="46.812" height="46.812" fill="none"/>
        </g>
        <g id="Rectangle_10-37" data-name="Rectangle 10" transform="translate(1371.759 503.145)" fill="#fff" stroke="#d3d3d3" stroke-width="1">
          <rect width="47.812" height="47.812" stroke="none"/>
          <rect x="0.5" y="0.5" width="46.812" height="46.812" fill="none"/>
        </g>
        <g id="Rectangle_10-38" data-name="Rectangle 10" transform="translate(1419.571 503.145)" fill="#343434" stroke="#d3d3d3" stroke-width="1">
          <rect width="47.812" height="47.812" stroke="none"/>
          <rect x="0.5" y="0.5" width="46.812" height="46.812" fill="none"/>
        </g>
        <g id="Rectangle_10-39" data-name="Rectangle 10" transform="translate(1467.383 503.145)" fill="#bebebe" stroke="#d3d3d3" stroke-width="1">
          <rect width="47.812" height="47.812" stroke="none"/>
          <rect x="0.5" y="0.5" width="46.812" height="46.812" fill="none"/>
        </g>
        <g id="Rectangle_10-40" data-name="Rectangle 10" transform="translate(1515.195 503.145)" fill="#fafafa" stroke="#d3d3d3" stroke-width="1">
          <rect width="47.812" height="47.812" stroke="none"/>
          <rect x="0.5" y="0.5" width="46.812" height="46.812" fill="none"/>
        </g>
        <g id="Rectangle_10-41" data-name="Rectangle 10" transform="translate(1180.51 550.958)" fill="#fafafa" stroke="#d3d3d3" stroke-width="1">
          <rect width="47.812" height="47.812" stroke="none"/>
          <rect x="0.5" y="0.5" width="46.812" height="46.812" fill="none"/>
        </g>
        <g id="Rectangle_10-42" data-name="Rectangle 10" transform="translate(1228.323 550.958)" fill="#747474" stroke="#d3d3d3" stroke-width="1">
          <rect width="47.812" height="47.812" stroke="none"/>
          <rect x="0.5" y="0.5" width="46.812" height="46.812" fill="none"/>
        </g>
        <g id="Rectangle_10-43" data-name="Rectangle 10" transform="translate(1276.135 550.958)" fill="#343434" stroke="#d3d3d3" stroke-width="1">
          <rect width="47.812" height="47.812" stroke="none"/>
          <rect x="0.5" y="0.5" width="46.812" height="46.812" fill="none"/>
        </g>
        <g id="Rectangle_10-44" data-name="Rectangle 10" transform="translate(1323.947 550.958)" fill="#484848" stroke="#d3d3d3" stroke-width="1">
          <rect width="47.812" height="47.812" stroke="none"/>
          <rect x="0.5" y="0.5" width="46.812" height="46.812" fill="none"/>
        </g>
        <g id="Rectangle_10-45" data-name="Rectangle 10" transform="translate(1371.759 550.958)" fill="#484848" stroke="#d3d3d3" stroke-width="1">
          <rect width="47.812" height="47.812" stroke="none"/>
          <rect x="0.5" y="0.5" width="46.812" height="46.812" fill="none"/>
        </g>
        <g id="Rectangle_10-46" data-name="Rectangle 10" transform="translate(1419.571 550.958)" fill="#343434" stroke="#d3d3d3" stroke-width="1">
          <rect width="47.812" height="47.812" stroke="none"/>
          <rect x="0.5" y="0.5" width="46.812" height="46.812" fill="none"/>
        </g>
        <g id="Rectangle_10-47" data-name="Rectangle 10" transform="translate(1467.383 550.958)" fill="#747474" stroke="#d3d3d3" stroke-width="1">
          <rect width="47.812" height="47.812" stroke="none"/>
          <rect x="0.5" y="0.5" width="46.812" height="46.812" fill="none"/>
        </g>
        <g id="Rectangle_10-48" data-name="Rectangle 10" transform="translate(1515.195 550.958)" fill="#fafafa" stroke="#d3d3d3" stroke-width="1">
          <rect width="47.812" height="47.812" stroke="none"/>
          <rect x="0.5" y="0.5" width="46.812" height="46.812" fill="none"/>
        </g>
        <g id="Rectangle_10-49" data-name="Rectangle 10" transform="translate(1180.51 598.77)" fill="#bebebe" stroke="#d3d3d3" stroke-width="1">
          <rect width="47.812" height="47.812" stroke="none"/>
          <rect x="0.5" y="0.5" width="46.812" height="46.812" fill="none"/>
        </g>
        <g id="Rectangle_10-50" data-name="Rectangle 10" transform="translate(1228.323 598.77)" fill="#343434" stroke="#d3d3d3" stroke-width="1">
          <rect width="47.812" height="47.812" stroke="none"/>
          <rect x="0.5" y="0.5" width="46.812" height="46.812" fill="none"/>
        </g>
        <g id="Rectangle_10-51" data-name="Rectangle 10" transform="translate(1276.135 598.77)" fill="#e0e0e0" stroke="#d3d3d3" stroke-width="1">
          <rect width="47.812" height="47.812" stroke="none"/>
          <rect x="0.5" y="0.5" width="46.812" height="46.812" fill="none"/>
        </g>
        <g id="Rectangle_10-52" data-name="Rectangle 10" transform="translate(1323.947 598.77)" fill="#fafafa" stroke="#d3d3d3" stroke-width="1">
          <rect width="47.812" height="47.812" stroke="none"/>
          <rect x="0.5" y="0.5" width="46.812" height="46.812" fill="none"/>
        </g>
        <g id="Rectangle_10-53" data-name="Rectangle 10" transform="translate(1371.759 598.77)" fill="#fafafa" stroke="#d3d3d3" stroke-width="1">
          <rect width="47.812" height="47.812" stroke="none"/>
          <rect x="0.5" y="0.5" width="46.812" height="46.812" fill="none"/>
        </g>
        <g id="Rectangle_10-54" data-name="Rectangle 10" transform="translate(1419.571 598.77)" fill="#e0e0e0" stroke="#d3d3d3" stroke-width="1">
          <rect width="47.812" height="47.812" stroke="none"/>
          <rect x="0.5" y="0.5" width="46.812" height="46.812" fill="none"/>
        </g>
        <g id="Rectangle_10-55" data-name="Rectangle 10" transform="translate(1467.383 598.77)" fill="#343434" stroke="#d3d3d3" stroke-width="1">
          <rect width="47.812" height="47.812" stroke="none"/>
          <rect x="0.5" y="0.5" width="46.812" height="46.812" fill="none"/>
        </g>
        <g id="Rectangle_10-56" data-name="Rectangle 10" transform="translate(1515.195 598.77)" fill="#bebebe" stroke="#d3d3d3" stroke-width="1">
          <rect width="47.812" height="47.812" stroke="none"/>
          <rect x="0.5" y="0.5" width="46.812" height="46.812" fill="none"/>
        </g>
        <g id="Rectangle_10-57" data-name="Rectangle 10" transform="translate(1180.51 646.582)" fill="#9f9f9f" stroke="#d3d3d3" stroke-width="1">
          <rect width="47.812" height="47.812" stroke="none"/>
          <rect x="0.5" y="0.5" width="46.812" height="46.812" fill="none"/>
        </g>
        <g id="Rectangle_10-58" data-name="Rectangle 10" transform="translate(1228.323 646.582)" fill="#747474" stroke="#d3d3d3" stroke-width="1">
          <rect width="47.812" height="47.812" stroke="none"/>
          <rect x="0.5" y="0.5" width="46.812" height="46.812" fill="none"/>
        </g>
        <g id="Rectangle_10-59" data-name="Rectangle 10" transform="translate(1276.135 646.582)" fill="#fafafa" stroke="#d3d3d3" stroke-width="1">
          <rect width="47.812" height="47.812" stroke="none"/>
          <rect x="0.5" y="0.5" width="46.812" height="46.812" fill="none"/>
        </g>
        <g id="Rectangle_10-60" data-name="Rectangle 10" transform="translate(1323.947 646.582)" fill="#fafafa" stroke="#d3d3d3" stroke-width="1">
          <rect width="47.812" height="47.812" stroke="none"/>
          <rect x="0.5" y="0.5" width="46.812" height="46.812" fill="none"/>
        </g>
        <g id="Rectangle_10-61" data-name="Rectangle 10" transform="translate(1371.759 646.582)" fill="#fafafa" stroke="#d3d3d3" stroke-width="1">
          <rect width="47.812" height="47.812" stroke="none"/>
          <rect x="0.5" y="0.5" width="46.812" height="46.812" fill="none"/>
        </g>
        <g id="Rectangle_10-62" data-name="Rectangle 10" transform="translate(1419.571 646.582)" fill="#fafafa" stroke="#d3d3d3" stroke-width="1">
          <rect width="47.812" height="47.812" stroke="none"/>
          <rect x="0.5" y="0.5" width="46.812" height="46.812" fill="none"/>
        </g>
        <g id="Rectangle_10-63" data-name="Rectangle 10" transform="translate(1467.383 646.582)" fill="#747474" stroke="#d3d3d3" stroke-width="1">
          <rect width="47.812" height="47.812" stroke="none"/>
          <rect x="0.5" y="0.5" width="46.812" height="46.812" fill="none"/>
        </g>
        <g id="Rectangle_10-64" data-name="Rectangle 10" transform="translate(1515.195 646.582)" fill="#9f9f9f" stroke="#d3d3d3" stroke-width="1">
          <rect width="47.812" height="47.812" stroke="none"/>
          <rect x="0.5" y="0.5" width="46.812" height="46.812" fill="none"/>
        </g>
      </g>
      <g id="Group_21" data-name="Group 21">
        <g id="Rectangle_10-65" data-name="Rectangle 10" transform="translate(750.158 349.697)" fill="#fafafa" stroke="#d3d3d3" stroke-width="1">
          <rect width="47.812" height="47.812" stroke="none"/>
          <rect x="0.5" y="0.5" width="46.812" height="46.812" fill="none"/>
        </g>
        <g id="Rectangle_10-66" data-name="Rectangle 10" transform="translate(797.971 349.697)" fill="#fafafa" stroke="#d3d3d3" stroke-width="1">
          <rect width="47.812" height="47.812" stroke="none"/>
          <rect x="0.5" y="0.5" width="46.812" height="46.812" fill="none"/>
        </g>
        <g id="Rectangle_10-67" data-name="Rectangle 10" transform="translate(845.783 349.697)" fill="#fafafa" stroke="#d3d3d3" stroke-width="1">
          <rect width="47.812" height="47.812" stroke="none"/>
          <rect x="0.5" y="0.5" width="46.812" height="46.812" fill="none"/>
        </g>
        <g id="Rectangle_10-68" data-name="Rectangle 10" transform="translate(893.595 349.697)" fill="#fafafa" stroke="#d3d3d3" stroke-width="1">
          <rect width="47.812" height="47.812" stroke="none"/>
          <rect x="0.5" y="0.5" width="46.812" height="46.812" fill="none"/>
        </g>
        <g id="Rectangle_10-69" data-name="Rectangle 10" transform="translate(941.407 349.697)" fill="#fafafa" stroke="#d3d3d3" stroke-width="1">
          <rect width="47.812" height="47.812" stroke="none"/>
          <rect x="0.5" y="0.5" width="46.812" height="46.812" fill="none"/>
        </g>
        <g id="Rectangle_10-70" data-name="Rectangle 10" transform="translate(989.219 349.697)" fill="#fafafa" stroke="#d3d3d3" stroke-width="1">
          <rect width="47.812" height="47.812" stroke="none"/>
          <rect x="0.5" y="0.5" width="46.812" height="46.812" fill="none"/>
        </g>
        <g id="Rectangle_10-71" data-name="Rectangle 10" transform="translate(1037.031 349.697)" fill="#fafafa" stroke="#d3d3d3" stroke-width="1">
          <rect width="47.812" height="47.812" stroke="none"/>
          <rect x="0.5" y="0.5" width="46.812" height="46.812" fill="none"/>
        </g>
        <g id="Rectangle_10-72" data-name="Rectangle 10" transform="translate(1084.844 349.697)" fill="#fafafa" stroke="#d3d3d3" stroke-width="1">
          <rect width="47.812" height="47.812" stroke="none"/>
          <rect x="0.5" y="0.5" width="46.812" height="46.812" fill="none"/>
        </g>
        <g id="Rectangle_10-73" data-name="Rectangle 10" transform="translate(750.158 397.509)" fill="#fafafa" stroke="#d3d3d3" stroke-width="1">
          <rect width="47.812" height="47.812" stroke="none"/>
          <rect x="0.5" y="0.5" width="46.812" height="46.812" fill="none"/>
        </g>
        <g id="Rectangle_10-74" data-name="Rectangle 10" transform="translate(797.971 397.509)" fill="#fafafa" stroke="#d3d3d3" stroke-width="1">
          <rect width="47.812" height="47.812" stroke="none"/>
          <rect x="0.5" y="0.5" width="46.812" height="46.812" fill="none"/>
        </g>
        <g id="Rectangle_10-75" data-name="Rectangle 10" transform="translate(845.783 397.509)" fill="#fafafa" stroke="#d3d3d3" stroke-width="1">
          <rect width="47.812" height="47.812" stroke="none"/>
          <rect x="0.5" y="0.5" width="46.812" height="46.812" fill="none"/>
        </g>
        <g id="Rectangle_10-76" data-name="Rectangle 10" transform="translate(893.595 397.509)" fill="#fafafa" stroke="#d3d3d3" stroke-width="1">
          <rect width="47.812" height="47.812" stroke="none"/>
          <rect x="0.5" y="0.5" width="46.812" height="46.812" fill="none"/>
        </g>
        <g id="Rectangle_10-77" data-name="Rectangle 10" transform="translate(941.407 397.509)" fill="#fafafa" stroke="#d3d3d3" stroke-width="1">
          <rect width="47.812" height="47.812" stroke="none"/>
          <rect x="0.5" y="0.5" width="46.812" height="46.812" fill="none"/>
        </g>
        <g id="Rectangle_10-78" data-name="Rectangle 10" transform="translate(989.219 397.509)" fill="#fafafa" stroke="#d3d3d3" stroke-width="1">
          <rect width="47.812" height="47.812" stroke="none"/>
          <rect x="0.5" y="0.5" width="46.812" height="46.812" fill="none"/>
        </g>
        <g id="Rectangle_10-79" data-name="Rectangle 10" transform="translate(1037.031 397.509)" fill="#fafafa" stroke="#d3d3d3" stroke-width="1">
          <rect width="47.812" height="47.812" stroke="none"/>
          <rect x="0.5" y="0.5" width="46.812" height="46.812" fill="none"/>
        </g>
        <g id="Rectangle_10-80" data-name="Rectangle 10" transform="translate(1084.844 397.509)" fill="#fafafa" stroke="#d3d3d3" stroke-width="1">
          <rect width="47.812" height="47.812" stroke="none"/>
          <rect x="0.5" y="0.5" width="46.812" height="46.812" fill="none"/>
        </g>
        <g id="Rectangle_10-81" data-name="Rectangle 10" transform="translate(750.158 445.321)" fill="#fafafa" stroke="#d3d3d3" stroke-width="1">
          <rect width="47.812" height="47.812" stroke="none"/>
          <rect x="0.5" y="0.5" width="46.812" height="46.812" fill="none"/>
        </g>
        <g id="Rectangle_10-82" data-name="Rectangle 10" transform="translate(797.971 445.321)" fill="#fafafa" stroke="#d3d3d3" stroke-width="1">
          <rect width="47.812" height="47.812" stroke="none"/>
          <rect x="0.5" y="0.5" width="46.812" height="46.812" fill="none"/>
        </g>
        <g id="Rectangle_10-83" data-name="Rectangle 10" transform="translate(845.783 445.321)" fill="#fafafa" stroke="#d3d3d3" stroke-width="1">
          <rect width="47.812" height="47.812" stroke="none"/>
          <rect x="0.5" y="0.5" width="46.812" height="46.812" fill="none"/>
        </g>
        <g id="Rectangle_10-84" data-name="Rectangle 10" transform="translate(893.595 445.321)" fill="#fafafa" stroke="#d3d3d3" stroke-width="1">
          <rect width="47.812" height="47.812" stroke="none"/>
          <rect x="0.5" y="0.5" width="46.812" height="46.812" fill="none"/>
        </g>
        <g id="Rectangle_10-85" data-name="Rectangle 10" transform="translate(941.407 445.321)" fill="#fafafa" stroke="#d3d3d3" stroke-width="1">
          <rect width="47.812" height="47.812" stroke="none"/>
          <rect x="0.5" y="0.5" width="46.812" height="46.812" fill="none"/>
        </g>
        <g id="Rectangle_10-86" data-name="Rectangle 10" transform="translate(989.219 445.321)" fill="#fafafa" stroke="#d3d3d3" stroke-width="1">
          <rect width="47.812" height="47.812" stroke="none"/>
          <rect x="0.5" y="0.5" width="46.812" height="46.812" fill="none"/>
        </g>
        <g id="Rectangle_10-87" data-name="Rectangle 10" transform="translate(1037.031 445.321)" fill="#fafafa" stroke="#d3d3d3" stroke-width="1">
          <rect width="47.812" height="47.812" stroke="none"/>
          <rect x="0.5" y="0.5" width="46.812" height="46.812" fill="none"/>
        </g>
        <g id="Rectangle_10-88" data-name="Rectangle 10" transform="translate(1084.844 445.321)" fill="#fafafa" stroke="#d3d3d3" stroke-width="1">
          <rect width="47.812" height="47.812" stroke="none"/>
          <rect x="0.5" y="0.5" width="46.812" height="46.812" fill="none"/>
        </g>
        <g id="Rectangle_10-89" data-name="Rectangle 10" transform="translate(750.158 493.133)" fill="#fafafa" stroke="#d3d3d3" stroke-width="1">
          <rect width="47.812" height="47.812" stroke="none"/>
          <rect x="0.5" y="0.5" width="46.812" height="46.812" fill="none"/>
        </g>
        <g id="Rectangle_10-90" data-name="Rectangle 10" transform="translate(797.971 493.133)" fill="#fafafa" stroke="#d3d3d3" stroke-width="1">
          <rect width="47.812" height="47.812" stroke="none"/>
          <rect x="0.5" y="0.5" width="46.812" height="46.812" fill="none"/>
        </g>
        <g id="Rectangle_10-91" data-name="Rectangle 10" transform="translate(845.783 493.133)" fill="#fafafa" stroke="#d3d3d3" stroke-width="1">
          <rect width="47.812" height="47.812" stroke="none"/>
          <rect x="0.5" y="0.5" width="46.812" height="46.812" fill="none"/>
        </g>
        <g id="Rectangle_10-92" data-name="Rectangle 10" transform="translate(893.595 493.133)" fill="#fafafa" stroke="#d3d3d3" stroke-width="1">
          <rect width="47.812" height="47.812" stroke="none"/>
          <rect x="0.5" y="0.5" width="46.812" height="46.812" fill="none"/>
        </g>
        <g id="Rectangle_10-93" data-name="Rectangle 10" transform="translate(941.407 493.133)" fill="#fafafa" stroke="#d3d3d3" stroke-width="1">
          <rect width="47.812" height="47.812" stroke="none"/>
          <rect x="0.5" y="0.5" width="46.812" height="46.812" fill="none"/>
        </g>
        <g id="Rectangle_10-94" data-name="Rectangle 10" transform="translate(989.219 493.133)" fill="#fafafa" stroke="#d3d3d3" stroke-width="1">
          <rect width="47.812" height="47.812" stroke="none"/>
          <rect x="0.5" y="0.5" width="46.812" height="46.812" fill="none"/>
        </g>
        <g id="Rectangle_10-95" data-name="Rectangle 10" transform="translate(1037.031 493.133)" fill="#fafafa" stroke="#d3d3d3" stroke-width="1">
          <rect width="47.812" height="47.812" stroke="none"/>
          <rect x="0.5" y="0.5" width="46.812" height="46.812" fill="none"/>
        </g>
        <g id="Rectangle_10-96" data-name="Rectangle 10" transform="translate(1084.844 493.133)" fill="#fafafa" stroke="#d3d3d3" stroke-width="1">
          <rect width="47.812" height="47.812" stroke="none"/>
          <rect x="0.5" y="0.5" width="46.812" height="46.812" fill="none"/>
        </g>
        <g id="Rectangle_10-97" data-name="Rectangle 10" transform="translate(750.158 540.945)" fill="#fafafa" stroke="#d3d3d3" stroke-width="1">
          <rect width="47.812" height="47.812" stroke="none"/>
          <rect x="0.5" y="0.5" width="46.812" height="46.812" fill="none"/>
        </g>
        <g id="Rectangle_10-98" data-name="Rectangle 10" transform="translate(797.971 540.945)" fill="#fafafa" stroke="#d3d3d3" stroke-width="1">
          <rect width="47.812" height="47.812" stroke="none"/>
          <rect x="0.5" y="0.5" width="46.812" height="46.812" fill="none"/>
        </g>
        <g id="Rectangle_10-99" data-name="Rectangle 10" transform="translate(845.783 540.945)" fill="#fafafa" stroke="#d3d3d3" stroke-width="1">
          <rect width="47.812" height="47.812" stroke="none"/>
          <rect x="0.5" y="0.5" width="46.812" height="46.812" fill="none"/>
        </g>
        <g id="Rectangle_10-100" data-name="Rectangle 10" transform="translate(893.595 540.945)" fill="#fafafa" stroke="#d3d3d3" stroke-width="1">
          <rect width="47.812" height="47.812" stroke="none"/>
          <rect x="0.5" y="0.5" width="46.812" height="46.812" fill="none"/>
        </g>
        <g id="Rectangle_10-101" data-name="Rectangle 10" transform="translate(941.407 540.945)" fill="#fafafa" stroke="#d3d3d3" stroke-width="1">
          <rect width="47.812" height="47.812" stroke="none"/>
          <rect x="0.5" y="0.5" width="46.812" height="46.812" fill="none"/>
        </g>
        <g id="Rectangle_10-102" data-name="Rectangle 10" transform="translate(989.219 540.945)" fill="#fafafa" stroke="#d3d3d3" stroke-width="1">
          <rect width="47.812" height="47.812" stroke="none"/>
          <rect x="0.5" y="0.5" width="46.812" height="46.812" fill="none"/>
        </g>
        <g id="Rectangle_10-103" data-name="Rectangle 10" transform="translate(1037.031 540.945)" fill="#fafafa" stroke="#d3d3d3" stroke-width="1">
          <rect width="47.812" height="47.812" stroke="none"/>
          <rect x="0.5" y="0.5" width="46.812" height="46.812" fill="none"/>
        </g>
        <g id="Rectangle_10-104" data-name="Rectangle 10" transform="translate(1084.844 540.945)" fill="#fafafa" stroke="#d3d3d3" stroke-width="1">
          <rect width="47.812" height="47.812" stroke="none"/>
          <rect x="0.5" y="0.5" width="46.812" height="46.812" fill="none"/>
        </g>
        <g id="Rectangle_10-105" data-name="Rectangle 10" transform="translate(750.158 588.757)" fill="#fafafa" stroke="#d3d3d3" stroke-width="1">
          <rect width="47.812" height="47.812" stroke="none"/>
          <rect x="0.5" y="0.5" width="46.812" height="46.812" fill="none"/>
        </g>
        <g id="Rectangle_10-106" data-name="Rectangle 10" transform="translate(797.971 588.757)" fill="#fafafa" stroke="#d3d3d3" stroke-width="1">
          <rect width="47.812" height="47.812" stroke="none"/>
          <rect x="0.5" y="0.5" width="46.812" height="46.812" fill="none"/>
        </g>
        <g id="Rectangle_10-107" data-name="Rectangle 10" transform="translate(845.783 588.757)" fill="#fafafa" stroke="#d3d3d3" stroke-width="1">
          <rect width="47.812" height="47.812" stroke="none"/>
          <rect x="0.5" y="0.5" width="46.812" height="46.812" fill="none"/>
        </g>
        <g id="Rectangle_10-108" data-name="Rectangle 10" transform="translate(893.595 588.757)" fill="#fafafa" stroke="#d3d3d3" stroke-width="1">
          <rect width="47.812" height="47.812" stroke="none"/>
          <rect x="0.5" y="0.5" width="46.812" height="46.812" fill="none"/>
        </g>
        <g id="Rectangle_10-109" data-name="Rectangle 10" transform="translate(941.407 588.757)" fill="#fafafa" stroke="#d3d3d3" stroke-width="1">
          <rect width="47.812" height="47.812" stroke="none"/>
          <rect x="0.5" y="0.5" width="46.812" height="46.812" fill="none"/>
        </g>
        <g id="Rectangle_10-110" data-name="Rectangle 10" transform="translate(989.219 588.757)" fill="#fafafa" stroke="#d3d3d3" stroke-width="1">
          <rect width="47.812" height="47.812" stroke="none"/>
          <rect x="0.5" y="0.5" width="46.812" height="46.812" fill="none"/>
        </g>
        <g id="Rectangle_10-111" data-name="Rectangle 10" transform="translate(1037.031 588.757)" fill="#fafafa" stroke="#d3d3d3" stroke-width="1">
          <rect width="47.812" height="47.812" stroke="none"/>
          <rect x="0.5" y="0.5" width="46.812" height="46.812" fill="none"/>
        </g>
        <g id="Rectangle_10-112" data-name="Rectangle 10" transform="translate(1084.844 588.757)" fill="#fafafa" stroke="#d3d3d3" stroke-width="1">
          <rect width="47.812" height="47.812" stroke="none"/>
          <rect x="0.5" y="0.5" width="46.812" height="46.812" fill="none"/>
        </g>
        <g id="Rectangle_10-113" data-name="Rectangle 10" transform="translate(750.158 636.57)" fill="#fafafa" stroke="#d3d3d3" stroke-width="1">
          <rect width="47.812" height="47.812" stroke="none"/>
          <rect x="0.5" y="0.5" width="46.812" height="46.812" fill="none"/>
        </g>
        <g id="Rectangle_10-114" data-name="Rectangle 10" transform="translate(797.971 636.57)" fill="#fafafa" stroke="#d3d3d3" stroke-width="1">
          <rect width="47.812" height="47.812" stroke="none"/>
          <rect x="0.5" y="0.5" width="46.812" height="46.812" fill="none"/>
        </g>
        <g id="Rectangle_10-115" data-name="Rectangle 10" transform="translate(845.783 636.57)" fill="#fafafa" stroke="#d3d3d3" stroke-width="1">
          <rect width="47.812" height="47.812" stroke="none"/>
          <rect x="0.5" y="0.5" width="46.812" height="46.812" fill="none"/>
        </g>
        <g id="Rectangle_10-116" data-name="Rectangle 10" transform="translate(893.595 636.57)" fill="#fafafa" stroke="#d3d3d3" stroke-width="1">
          <rect width="47.812" height="47.812" stroke="none"/>
          <rect x="0.5" y="0.5" width="46.812" height="46.812" fill="none"/>
        </g>
        <g id="Rectangle_10-117" data-name="Rectangle 10" transform="translate(941.407 636.57)" fill="#fafafa" stroke="#d3d3d3" stroke-width="1">
          <rect width="47.812" height="47.812" stroke="none"/>
          <rect x="0.5" y="0.5" width="46.812" height="46.812" fill="none"/>
        </g>
        <g id="Rectangle_10-118" data-name="Rectangle 10" transform="translate(989.219 636.57)" fill="#fafafa" stroke="#d3d3d3" stroke-width="1">
          <rect width="47.812" height="47.812" stroke="none"/>
          <rect x="0.5" y="0.5" width="46.812" height="46.812" fill="none"/>
        </g>
        <g id="Rectangle_10-119" data-name="Rectangle 10" transform="translate(1037.031 636.57)" fill="#fafafa" stroke="#d3d3d3" stroke-width="1">
          <rect width="47.812" height="47.812" stroke="none"/>
          <rect x="0.5" y="0.5" width="46.812" height="46.812" fill="none"/>
        </g>
        <g id="Rectangle_10-120" data-name="Rectangle 10" transform="translate(1084.844 636.57)" fill="#fafafa" stroke="#d3d3d3" stroke-width="1">
          <rect width="47.812" height="47.812" stroke="none"/>
          <rect x="0.5" y="0.5" width="46.812" height="46.812" fill="none"/>
        </g>
        <g id="Rectangle_10-121" data-name="Rectangle 10" transform="translate(750.158 684.382)" fill="#fafafa" stroke="#d3d3d3" stroke-width="1">
          <rect width="47.812" height="47.812" stroke="none"/>
          <rect x="0.5" y="0.5" width="46.812" height="46.812" fill="none"/>
        </g>
        <g id="Rectangle_10-122" data-name="Rectangle 10" transform="translate(797.971 684.382)" fill="#fafafa" stroke="#d3d3d3" stroke-width="1">
          <rect width="47.812" height="47.812" stroke="none"/>
          <rect x="0.5" y="0.5" width="46.812" height="46.812" fill="none"/>
        </g>
        <g id="Rectangle_10-123" data-name="Rectangle 10" transform="translate(845.783 684.382)" fill="#fafafa" stroke="#d3d3d3" stroke-width="1">
          <rect width="47.812" height="47.812" stroke="none"/>
          <rect x="0.5" y="0.5" width="46.812" height="46.812" fill="none"/>
        </g>
        <g id="Rectangle_10-124" data-name="Rectangle 10" transform="translate(893.595 684.382)" fill="#fafafa" stroke="#d3d3d3" stroke-width="1">
          <rect width="47.812" height="47.812" stroke="none"/>
          <rect x="0.5" y="0.5" width="46.812" height="46.812" fill="none"/>
        </g>
        <g id="Rectangle_10-125" data-name="Rectangle 10" transform="translate(941.407 684.382)" fill="#fafafa" stroke="#d3d3d3" stroke-width="1">
          <rect width="47.812" height="47.812" stroke="none"/>
          <rect x="0.5" y="0.5" width="46.812" height="46.812" fill="none"/>
        </g>
        <g id="Rectangle_10-126" data-name="Rectangle 10" transform="translate(989.219 684.382)" fill="#fafafa" stroke="#d3d3d3" stroke-width="1">
          <rect width="47.812" height="47.812" stroke="none"/>
          <rect x="0.5" y="0.5" width="46.812" height="46.812" fill="none"/>
        </g>
        <g id="Rectangle_10-127" data-name="Rectangle 10" transform="translate(1037.031 684.382)" fill="#fafafa" stroke="#d3d3d3" stroke-width="1">
          <rect width="47.812" height="47.812" stroke="none"/>
          <rect x="0.5" y="0.5" width="46.812" height="46.812" fill="none"/>
        </g>
        <g id="Rectangle_10-128" data-name="Rectangle 10" transform="translate(1084.844 684.382)" fill="#fafafa" stroke="#d3d3d3" stroke-width="1">
          <rect width="47.812" height="47.812" stroke="none"/>
          <rect x="0.5" y="0.5" width="46.812" height="46.812" fill="none"/>
        </g>
        <path id="Path_16" data-name="Path 16" d="M4.352,0h48.96L93.024-102.816H257.312L297.024,0H344.9L196.384-380.8H153.952ZM175.168-315.52l65.28,169.184H109.888Z" transform="translate(767.124 730.74)" fill="#151515" opacity="0.419"/>
      </g>
    </g>
  </g>
</svg>
