<svg xmlns="http://www.w3.org/2000/svg" width="1520" height="380" viewBox="0 0 1520 380">
  <g id="Group_101" data-name="Group 101" transform="translate(-200 -368)">
    <rect id="Rectangle_327" data-name="Rectangle 327" width="1520" height="380" transform="translate(200 368)" fill="#fafafa"/>
    <g id="Group_100" data-name="Group 100">
      <circle id="Ellipse_97" data-name="Ellipse 97" cx="10" cy="10" r="10" transform="translate(259.225 640)" fill="#151515"/>
      <circle id="Ellipse_98" data-name="Ellipse 98" cx="10" cy="10" r="10" transform="translate(375.225 640)" fill="#151515"/>
      <circle id="Ellipse_99" data-name="Ellipse 99" cx="10" cy="10" r="10" transform="translate(525.225 640)" fill="#151515"/>
      <circle id="Ellipse_100" data-name="Ellipse 100" cx="10" cy="10" r="10" transform="translate(641.225 640)" fill="#151515"/>
      <circle id="Ellipse_101" data-name="Ellipse 101" cx="10" cy="10" r="10" transform="translate(791.225 640)" fill="#151515"/>
      <circle id="Ellipse_102" data-name="Ellipse 102" cx="10" cy="10" r="10" transform="translate(715.225 457)" fill="#151515"/>
      <circle id="Ellipse_103" data-name="Ellipse 103" cx="10" cy="10" r="10" transform="translate(907.225 457)" fill="#151515"/>
      <circle id="Ellipse_104" data-name="Ellipse 104" cx="10" cy="10" r="10" transform="translate(1057.225 457)" fill="#151515"/>
      <circle id="Ellipse_105" data-name="Ellipse 105" cx="10" cy="10" r="10" transform="translate(1057.225 640)" fill="#151515"/>
      <circle id="Ellipse_106" data-name="Ellipse 106" cx="10" cy="10" r="10" transform="translate(907.225 640)" fill="#151515"/>
      <circle id="Ellipse_107" data-name="Ellipse 107" cx="10" cy="10" r="10" transform="translate(1187.225 640)" fill="#151515"/>
      <circle id="Ellipse_108" data-name="Ellipse 108" cx="10" cy="10" r="10" transform="translate(1327.225 640)" fill="#151515"/>
      <circle id="Ellipse_109" data-name="Ellipse 109" cx="10" cy="10" r="10" transform="translate(1167.225 520)" fill="#151515"/>
      <circle id="Ellipse_110" data-name="Ellipse 110" cx="10" cy="10" r="10" transform="translate(1347.225 520)" fill="#151515"/>
      <circle id="Ellipse_111" data-name="Ellipse 111" cx="10" cy="10" r="10" transform="translate(1257.225 425)" fill="#151515"/>
      <circle id="Ellipse_112" data-name="Ellipse 112" cx="10" cy="10" r="10" transform="translate(1467.225 567)" fill="#151515"/>
      <circle id="Ellipse_113" data-name="Ellipse 113" cx="10" cy="10" r="10" transform="translate(1647.225 567)" fill="#151515"/>
      <circle id="Ellipse_114" data-name="Ellipse 114" cx="10" cy="10" r="10" transform="translate(1557.225 640)" fill="#151515"/>
      <circle id="Ellipse_115" data-name="Ellipse 115" cx="10" cy="10" r="10" transform="translate(1467.225 472)" fill="#151515"/>
      <circle id="Ellipse_116" data-name="Ellipse 116" cx="10" cy="10" r="10" transform="translate(1647.225 472)" fill="#151515"/>
      <circle id="Ellipse_117" data-name="Ellipse 117" cx="10" cy="10" r="10" transform="translate(1557.225 399)" fill="#151515"/>
      <line id="Line_30" data-name="Line 30" x2="150" transform="translate(385.725 650.5)" fill="none" stroke="#151515" stroke-width="4"/>
      <line id="Line_31" data-name="Line 31" x2="150" transform="translate(651.725 650.5)" fill="none" stroke="#151515" stroke-width="4"/>
      <line id="Line_32" data-name="Line 32" x2="150" transform="translate(917.725 650.5)" fill="none" stroke="#151515" stroke-width="4"/>
      <line id="Line_33" data-name="Line 33" x2="140" transform="translate(1197.725 650.5)" fill="none" stroke="#151515" stroke-width="4"/>
      <line id="Line_34" data-name="Line 34" x2="150" transform="translate(917.725 467.5)" fill="none" stroke="#151515" stroke-width="4"/>
      <line id="Line_35" data-name="Line 35" y1="183" x2="74" transform="translate(651.725 467.5)" fill="none" stroke="#151515" stroke-width="4"/>
      <line id="Line_36" data-name="Line 36" x1="76" y1="183" transform="translate(725.725 467.5)" fill="none" stroke="#151515" stroke-width="4"/>
      <line id="Line_37" data-name="Line 37" y2="183" transform="translate(917.725 467.5)" fill="none" stroke="#151515" stroke-width="4"/>
      <line id="Line_38" data-name="Line 38" y1="183" transform="translate(1067.725 467.5)" fill="none" stroke="#151515" stroke-width="4"/>
      <line id="Line_39" data-name="Line 39" x2="150" y2="183" transform="translate(917.725 467.5)" fill="none" stroke="#151515" stroke-width="4"/>
      <line id="Line_40" data-name="Line 40" y1="183" x2="150" transform="translate(917.725 467.5)" fill="none" stroke="#151515" stroke-width="4"/>
      <line id="Line_41" data-name="Line 41" x1="20" y1="120" transform="translate(1177.725 530.5)" fill="none" stroke="#151515" stroke-width="4"/>
      <line id="Line_42" data-name="Line 42" x1="20" y2="120" transform="translate(1337.725 530.5)" fill="none" stroke="#151515" stroke-width="4"/>
      <line id="Line_43" data-name="Line 43" x1="89.775" y2="95" transform="translate(1177.725 435.5)" fill="none" stroke="#151515" stroke-width="4"/>
      <line id="Line_44" data-name="Line 44" x2="90.225" y2="95" transform="translate(1267.5 435.5)" fill="none" stroke="#151515" stroke-width="4"/>
      <line id="Line_45" data-name="Line 45" x2="70.225" y2="215" transform="translate(1267.5 435.5)" fill="none" stroke="#151515" stroke-width="4"/>
      <line id="Line_46" data-name="Line 46" x1="69.775" y2="215" transform="translate(1197.725 435.5)" fill="none" stroke="#151515" stroke-width="4"/>
      <line id="Line_47" data-name="Line 47" y1="120" x2="160" transform="translate(1197.725 530.5)" fill="none" stroke="#151515" stroke-width="4"/>
      <line id="Line_48" data-name="Line 48" x2="160" y2="120" transform="translate(1177.725 530.5)" fill="none" stroke="#151515" stroke-width="4"/>
      <line id="Line_49" data-name="Line 49" x2="180" transform="translate(1477.725 577.5)" fill="none" stroke="#151515" stroke-width="4"/>
      <line id="Line_50" data-name="Line 50" x2="180" transform="translate(1477.725 482.5)" fill="none" stroke="#151515" stroke-width="4"/>
      <line id="Line_51" data-name="Line 51" x2="90" y2="73" transform="translate(1477.725 577.5)" fill="none" stroke="#151515" stroke-width="4"/>
      <line id="Line_52" data-name="Line 52" y1="73" x2="90" transform="translate(1567.725 577.5)" fill="none" stroke="#151515" stroke-width="4"/>
      <line id="Line_53" data-name="Line 53" x2="90" y2="168" transform="translate(1477.725 482.5)" fill="none" stroke="#151515" stroke-width="4"/>
      <line id="Line_54" data-name="Line 54" y1="168" x2="90" transform="translate(1567.725 482.5)" fill="none" stroke="#151515" stroke-width="4"/>
      <line id="Line_55" data-name="Line 55" y2="241" transform="translate(1567.725 409.5)" fill="none" stroke="#151515" stroke-width="4"/>
      <line id="Line_56" data-name="Line 56" y1="73" x2="90" transform="translate(1477.725 409.5)" fill="none" stroke="#151515" stroke-width="4"/>
      <line id="Line_57" data-name="Line 57" x1="90" y1="73" transform="translate(1567.725 409.5)" fill="none" stroke="#151515" stroke-width="4"/>
      <line id="Line_58" data-name="Line 58" y1="168" x2="90" transform="translate(1477.725 409.5)" fill="none" stroke="#151515" stroke-width="4"/>
      <line id="Line_59" data-name="Line 59" x1="90" y1="168" transform="translate(1567.725 409.5)" fill="none" stroke="#151515" stroke-width="4"/>
      <line id="Line_60" data-name="Line 60" y1="95" transform="translate(1657.725 482.5)" fill="none" stroke="#151515" stroke-width="4"/>
      <line id="Line_61" data-name="Line 61" y1="95" transform="translate(1477.725 482.5)" fill="none" stroke="#151515" stroke-width="4"/>
      <line id="Line_62" data-name="Line 62" y1="95" x2="180" transform="translate(1477.725 482.5)" fill="none" stroke="#151515" stroke-width="4"/>
      <line id="Line_63" data-name="Line 63" x1="180" y1="95" transform="translate(1477.725 482.5)" fill="none" stroke="#151515" stroke-width="4"/>
      <path id="Path_210" data-name="Path 210" d="M3.968-19.282a1.254,1.254,0,0,0-.6-.372A12.522,12.522,0,0,0,1.8-19.747H.775v-1.426h.341q.527.093,4.464.093t4.464-.093h.341v1.426H8.959q-1.674,0-1.736.527-.031.062-.031,4.9l.031,4.805,4.526-4.4q4.526-4.433,4.588-4.557a1.2,1.2,0,0,0,.124-.341q0-.682-.868-.9a1.281,1.281,0,0,1-.171-.016,1.326,1.326,0,0,0-.139-.016h-.124v-1.426h.31q.527.093,4.061.093.248,0,.682-.015t.651-.016q.248,0,.589-.016t.527-.031q.186-.016.217-.016h.186v1.426h-.434a6.2,6.2,0,0,0-3.689,1.24q-.155.155-2.914,2.821t-2.759,2.7q0,.031,3.395,5.13l3.58,5.379a2.218,2.218,0,0,0,.744.713,4.288,4.288,0,0,0,1.86.341h.651V0h-.248q-.062,0-.294-.016t-.713-.031q-.481-.015-.791-.016T19.9-.078q-.558-.016-.837-.016-3.782,0-4.433.093h-.341V-1.426h.248q1.426,0,1.426-.806a.825.825,0,0,0-.093-.372q-.341-.5-2.759-4.216l-2.7-4.061a4.724,4.724,0,0,0-.372.341q-.217.217-.62.6t-.806.759l-1.426,1.4v2.945A20.5,20.5,0,0,0,7.285-1.8q.248.341,2.077.372h1.023V0h-.341Q9.517-.093,5.58-.093T1.116,0H.775V-1.426H1.8a12.522,12.522,0,0,0,1.565-.093,1.254,1.254,0,0,0,.6-.372Z" transform="translate(252.225 713)" fill="#151515"/>
      <path id="Path_211" data-name="Path 211" d="M7.9,0Q7.581-.057,4.883-.057,2.223-.057,1.9,0H1.672V-.874h.494A10.7,10.7,0,0,0,3.591-.931a1.229,1.229,0,0,0,.456-.228v-9.823a.459.459,0,0,0-.152.057,5.606,5.606,0,0,1-1.957.361H1.577v-.874h.361A5.3,5.3,0,0,0,4.6-12.16a2.637,2.637,0,0,0,.589-.437q.038-.057.228-.057a.479.479,0,0,1,.323.114v5.681l.019,5.7a1.84,1.84,0,0,0,1.235.285H8.113V0Z" transform="translate(275.225 720)" fill="#151515"/>
      <path id="Path_212" data-name="Path 212" d="M3.968-19.282a1.254,1.254,0,0,0-.6-.372A12.522,12.522,0,0,0,1.8-19.747H.775v-1.426h.341q.527.093,4.464.093t4.464-.093h.341v1.426H8.959q-1.674,0-1.736.527-.031.062-.031,4.9l.031,4.805,4.526-4.4q4.526-4.433,4.588-4.557a1.2,1.2,0,0,0,.124-.341q0-.682-.868-.9a1.281,1.281,0,0,1-.171-.016,1.326,1.326,0,0,0-.139-.016h-.124v-1.426h.31q.527.093,4.061.093.248,0,.682-.015t.651-.016q.248,0,.589-.016t.527-.031q.186-.016.217-.016h.186v1.426h-.434a6.2,6.2,0,0,0-3.689,1.24q-.155.155-2.914,2.821t-2.759,2.7q0,.031,3.395,5.13l3.58,5.379a2.218,2.218,0,0,0,.744.713,4.288,4.288,0,0,0,1.86.341h.651V0h-.248q-.062,0-.294-.016t-.713-.031q-.481-.015-.791-.016T19.9-.078q-.558-.016-.837-.016-3.782,0-4.433.093h-.341V-1.426h.248q1.426,0,1.426-.806a.825.825,0,0,0-.093-.372q-.341-.5-2.759-4.216l-2.7-4.061a4.724,4.724,0,0,0-.372.341q-.217.217-.62.6t-.806.759l-1.426,1.4v2.945A20.5,20.5,0,0,0,7.285-1.8q.248.341,2.077.372h1.023V0h-.341Q9.517-.093,5.58-.093T1.116,0H.775V-1.426H1.8a12.522,12.522,0,0,0,1.565-.093,1.254,1.254,0,0,0,.6-.372Z" transform="translate(444.225 713)" fill="#151515"/>
      <path id="Path_213" data-name="Path 213" d="M2.09-8.151a1.061,1.061,0,0,1-.836-.342,1.214,1.214,0,0,1-.3-.836,3.115,3.115,0,0,1,1.036-2.347,3.484,3.484,0,0,1,2.48-.979,4.119,4.119,0,0,1,2.707.884,3.708,3.708,0,0,1,1.32,2.308,5.713,5.713,0,0,1,.038.627,3.594,3.594,0,0,1-.665,2.071A12.61,12.61,0,0,1,5.719-4.579q-.684.589-1.9,1.748L2.7-1.767l1.444.019a22.807,22.807,0,0,0,3.173-.1q.076-.019.19-.4a11.985,11.985,0,0,0,.266-1.292v-.057h.76v.057L8-.057V0H.95V-.361A1.279,1.279,0,0,1,.988-.8q.019-.019,1.6-1.8,2.071-2.3,2.66-3.04A5.509,5.509,0,0,0,6.517-8.816a3.323,3.323,0,0,0-.655-2.1,2.188,2.188,0,0,0-1.833-.845,2.084,2.084,0,0,0-1.786.988q-.038.076-.114.209a.416.416,0,0,0-.057.114q0,.019.1.019a.967.967,0,0,1,.77.342,1.185,1.185,0,0,1,.295.8,1.134,1.134,0,0,1-.313.807A1.083,1.083,0,0,1,2.09-8.151Z" transform="translate(467.225 720)" fill="#151515"/>
      <path id="Path_214" data-name="Path 214" d="M3.968-19.282a1.254,1.254,0,0,0-.6-.372A12.522,12.522,0,0,0,1.8-19.747H.775v-1.426h.341q.527.093,4.464.093t4.464-.093h.341v1.426H8.959q-1.674,0-1.736.527-.031.062-.031,4.9l.031,4.805,4.526-4.4q4.526-4.433,4.588-4.557a1.2,1.2,0,0,0,.124-.341q0-.682-.868-.9a1.281,1.281,0,0,1-.171-.016,1.326,1.326,0,0,0-.139-.016h-.124v-1.426h.31q.527.093,4.061.093.248,0,.682-.015t.651-.016q.248,0,.589-.016t.527-.031q.186-.016.217-.016h.186v1.426h-.434a6.2,6.2,0,0,0-3.689,1.24q-.155.155-2.914,2.821t-2.759,2.7q0,.031,3.395,5.13l3.58,5.379a2.218,2.218,0,0,0,.744.713,4.288,4.288,0,0,0,1.86.341h.651V0h-.248q-.062,0-.294-.016t-.713-.031q-.481-.015-.791-.016T19.9-.078q-.558-.016-.837-.016-3.782,0-4.433.093h-.341V-1.426h.248q1.426,0,1.426-.806a.825.825,0,0,0-.093-.372q-.341-.5-2.759-4.216l-2.7-4.061a4.724,4.724,0,0,0-.372.341q-.217.217-.62.6t-.806.759l-1.426,1.4v2.945A20.5,20.5,0,0,0,7.285-1.8q.248.341,2.077.372h1.023V0h-.341Q9.517-.093,5.58-.093T1.116,0H.775V-1.426H1.8a12.522,12.522,0,0,0,1.565-.093,1.254,1.254,0,0,0,.6-.372Z" transform="translate(709.225 713)" fill="#151515"/>
      <path id="Path_215" data-name="Path 215" d="M2.413-8.8a1.038,1.038,0,0,1-.808-.323,1.193,1.193,0,0,1-.294-.836,2.294,2.294,0,0,1,.855-1.814,3.633,3.633,0,0,1,1.976-.865h.285q.665,0,.836.019a4.613,4.613,0,0,1,1.273.4,2.829,2.829,0,0,1,1.577,1.786,1.849,1.849,0,0,1,.057.513,3.16,3.16,0,0,1-.694,2A3.838,3.838,0,0,1,5.738-6.65q-.1.038,0,.057a1.241,1.241,0,0,0,.19.057A4.048,4.048,0,0,1,7.885-5.329a2.91,2.91,0,0,1,.8,2,3.316,3.316,0,0,1-.361,1.5A3.766,3.766,0,0,1,6.83-.219,4.321,4.321,0,0,1,4.522.418,4.543,4.543,0,0,1,2.3-.114,2.74,2.74,0,0,1,.988-1.539,2.144,2.144,0,0,1,.8-2.47a1.136,1.136,0,0,1,.352-.865,1.187,1.187,0,0,1,.845-.332,1.184,1.184,0,0,1,.874.342,1.16,1.16,0,0,1,.342.855,1.215,1.215,0,0,1-.247.76,1.121,1.121,0,0,1-.665.418l-.133.038A3.575,3.575,0,0,0,4.522-.4,1.7,1.7,0,0,0,6.1-1.406a4.365,4.365,0,0,0,.323-1.919V-3.7A2.433,2.433,0,0,0,5.206-6.118a3.98,3.98,0,0,0-1.159-.133l-.8-.019-.057-.038a.706.706,0,0,1-.038-.3A.451.451,0,0,1,3.211-6.9a.156.156,0,0,1,.1-.057,6.7,6.7,0,0,0,1.1-.095A1.646,1.646,0,0,0,5.681-7.99a4.2,4.2,0,0,0,.437-1.985,1.806,1.806,0,0,0-.665-1.653,1.574,1.574,0,0,0-.893-.266,2.813,2.813,0,0,0-1.672.513.807.807,0,0,0-.171.123,1.158,1.158,0,0,0-.152.161l-.057.076q.057.019.133.038a.905.905,0,0,1,.636.361,1.158,1.158,0,0,1,.257.741,1.046,1.046,0,0,1-.314.769A1.093,1.093,0,0,1,2.413-8.8Z" transform="translate(732.225 720)" fill="#151515"/>
      <path id="Path_216" data-name="Path 216" d="M3.968-19.282a1.254,1.254,0,0,0-.6-.372A12.522,12.522,0,0,0,1.8-19.747H.775v-1.426h.341q.527.093,4.464.093t4.464-.093h.341v1.426H8.959q-1.674,0-1.736.527-.031.062-.031,4.9l.031,4.805,4.526-4.4q4.526-4.433,4.588-4.557a1.2,1.2,0,0,0,.124-.341q0-.682-.868-.9a1.281,1.281,0,0,1-.171-.016,1.326,1.326,0,0,0-.139-.016h-.124v-1.426h.31q.527.093,4.061.093.248,0,.682-.015t.651-.016q.248,0,.589-.016t.527-.031q.186-.016.217-.016h.186v1.426h-.434a6.2,6.2,0,0,0-3.689,1.24q-.155.155-2.914,2.821t-2.759,2.7q0,.031,3.395,5.13l3.58,5.379a2.218,2.218,0,0,0,.744.713,4.288,4.288,0,0,0,1.86.341h.651V0h-.248q-.062,0-.294-.016t-.713-.031q-.481-.015-.791-.016T19.9-.078q-.558-.016-.837-.016-3.782,0-4.433.093h-.341V-1.426h.248q1.426,0,1.426-.806a.825.825,0,0,0-.093-.372q-.341-.5-2.759-4.216l-2.7-4.061a4.724,4.724,0,0,0-.372.341q-.217.217-.62.6t-.806.759l-1.426,1.4v2.945A20.5,20.5,0,0,0,7.285-1.8q.248.341,2.077.372h1.023V0h-.341Q9.517-.093,5.58-.093T1.116,0H.775V-1.426H1.8a12.522,12.522,0,0,0,1.565-.093,1.254,1.254,0,0,0,.6-.372Z" transform="translate(976.225 713)" fill="#151515"/>
      <path id="Path_217" data-name="Path 217" d="M8.778,0Q8.512-.057,6.327-.057q-2.28,0-2.546.057H3.61V-.874H4.2A4.027,4.027,0,0,0,5.206-.969a.34.34,0,0,0,.228-.19q.019-.038.019-1.026v-.95H.532v-.874L3.4-8.4q2.907-4.408,2.945-4.427a1,1,0,0,1,.4-.038h.342l.114.114v8.74H8.949v.874H7.2v.969q0,.779.01.912a.348.348,0,0,0,.1.228A2.416,2.416,0,0,0,8.4-.874h.551V0ZM5.567-4.009v-6.346L1.406-4.028l2.071.019Z" transform="translate(999.225 720)" fill="#151515"/>
      <path id="Path_218" data-name="Path 218" d="M3.968-19.282a1.254,1.254,0,0,0-.6-.372A12.522,12.522,0,0,0,1.8-19.747H.775v-1.426h.341q.527.093,4.464.093t4.464-.093h.341v1.426H8.959q-1.674,0-1.736.527-.031.062-.031,4.9l.031,4.805,4.526-4.4q4.526-4.433,4.588-4.557a1.2,1.2,0,0,0,.124-.341q0-.682-.868-.9a1.281,1.281,0,0,1-.171-.016,1.326,1.326,0,0,0-.139-.016h-.124v-1.426h.31q.527.093,4.061.093.248,0,.682-.015t.651-.016q.248,0,.589-.016t.527-.031q.186-.016.217-.016h.186v1.426h-.434a6.2,6.2,0,0,0-3.689,1.24q-.155.155-2.914,2.821t-2.759,2.7q0,.031,3.395,5.13l3.58,5.379a2.218,2.218,0,0,0,.744.713,4.288,4.288,0,0,0,1.86.341h.651V0h-.248q-.062,0-.294-.016t-.713-.031q-.481-.015-.791-.016T19.9-.078q-.558-.016-.837-.016-3.782,0-4.433.093h-.341V-1.426h.248q1.426,0,1.426-.806a.825.825,0,0,0-.093-.372q-.341-.5-2.759-4.216l-2.7-4.061a4.724,4.724,0,0,0-.372.341q-.217.217-.62.6t-.806.759l-1.426,1.4v2.945A20.5,20.5,0,0,0,7.285-1.8q.248.341,2.077.372h1.023V0h-.341Q9.517-.093,5.58-.093T1.116,0H.775V-1.426H1.8a12.522,12.522,0,0,0,1.565-.093,1.254,1.254,0,0,0,.6-.372Z" transform="translate(1251.225 713)" fill="#151515"/>
      <path id="Path_219" data-name="Path 219" d="M2.033-4.066a1.046,1.046,0,0,1,.769.313,1.069,1.069,0,0,1,.314.789.979.979,0,0,1-.323.741,1.029,1.029,0,0,1-.722.3H1.938l.057.1A2.47,2.47,0,0,0,2.869-.817a2.413,2.413,0,0,0,1.387.4,2.018,2.018,0,0,0,1.938-1.14A5.794,5.794,0,0,0,6.555-3.99a4.729,4.729,0,0,0-.513-2.641,1.5,1.5,0,0,0-1.216-.627A2.447,2.447,0,0,0,2.584-5.966a.368.368,0,0,1-.143.161.842.842,0,0,1-.276.029q-.323,0-.361-.114-.038-.076-.038-3.325,0-.57-.01-1.349t-.01-.988q0-1.064.114-1.064a.109.109,0,0,1,.076-.038l.342.114a6.748,6.748,0,0,0,2.527.494,6.464,6.464,0,0,0,2.584-.532.592.592,0,0,1,.247-.076q.152,0,.152.342v.247a4.858,4.858,0,0,1-3.895,1.843,4.568,4.568,0,0,1-1.064-.114l-.19-.038v3.268A3.514,3.514,0,0,1,4.864-7.98a3.528,3.528,0,0,1,.779.095A3.6,3.6,0,0,1,7.724-6.441a4.368,4.368,0,0,1,.807,2.622A4.155,4.155,0,0,1,7.325-.836,3.963,3.963,0,0,1,4.351.418,3.164,3.164,0,0,1,2.318-.247a2.112,2.112,0,0,1-.627-.627A3.366,3.366,0,0,1,.969-2.565q0-.057-.009-.181t-.01-.18a1.13,1.13,0,0,1,.3-.836A1.055,1.055,0,0,1,2.033-4.066Z" transform="translate(1274.225 720)" fill="#151515"/>
      <path id="Path_220" data-name="Path 220" d="M3.968-19.282a1.254,1.254,0,0,0-.6-.372A12.522,12.522,0,0,0,1.8-19.747H.775v-1.426h.341q.527.093,4.464.093t4.464-.093h.341v1.426H8.959q-1.674,0-1.736.527-.031.062-.031,4.9l.031,4.805,4.526-4.4q4.526-4.433,4.588-4.557a1.2,1.2,0,0,0,.124-.341q0-.682-.868-.9a1.281,1.281,0,0,1-.171-.016,1.326,1.326,0,0,0-.139-.016h-.124v-1.426h.31q.527.093,4.061.093.248,0,.682-.015t.651-.016q.248,0,.589-.016t.527-.031q.186-.016.217-.016h.186v1.426h-.434a6.2,6.2,0,0,0-3.689,1.24q-.155.155-2.914,2.821t-2.759,2.7q0,.031,3.395,5.13l3.58,5.379a2.218,2.218,0,0,0,.744.713,4.288,4.288,0,0,0,1.86.341h.651V0h-.248q-.062,0-.294-.016t-.713-.031q-.481-.015-.791-.016T19.9-.078q-.558-.016-.837-.016-3.782,0-4.433.093h-.341V-1.426h.248q1.426,0,1.426-.806a.825.825,0,0,0-.093-.372q-.341-.5-2.759-4.216l-2.7-4.061a4.724,4.724,0,0,0-.372.341q-.217.217-.62.6t-.806.759l-1.426,1.4v2.945A20.5,20.5,0,0,0,7.285-1.8q.248.341,2.077.372h1.023V0h-.341Q9.517-.093,5.58-.093T1.116,0H.775V-1.426H1.8a12.522,12.522,0,0,0,1.565-.093,1.254,1.254,0,0,0,.6-.372Z" transform="translate(1551.225 713)" fill="#151515"/>
      <path id="Path_221" data-name="Path 221" d="M7.087-11.419a1.793,1.793,0,0,0-1.178-.475,2.721,2.721,0,0,0-2.223,1.14,6.6,6.6,0,0,0-.893,3.838l.019.076.152-.247a2.43,2.43,0,0,1,2.109-1.14,3.175,3.175,0,0,1,1.539.361,3.929,3.929,0,0,1,.912.77,4.787,4.787,0,0,1,.741,1.073,5.107,5.107,0,0,1,.4,2.033v.342a3.361,3.361,0,0,1-.095.817A4.274,4.274,0,0,1,7.391-.722,3.487,3.487,0,0,1,5.567.342a3.2,3.2,0,0,1-.76.076A3.312,3.312,0,0,1,4.161.361a3.366,3.366,0,0,1-2.242-1.52A8.869,8.869,0,0,1,.8-5.947,8.374,8.374,0,0,1,1.52-9.538a5.689,5.689,0,0,1,2.014-2.394,3.786,3.786,0,0,1,2.223-.722,2.6,2.6,0,0,1,1.776.589,2.033,2.033,0,0,1,.675,1.615,1.047,1.047,0,0,1-.276.76A.971.971,0,0,1,7.2-9.4a1.009,1.009,0,0,1-.732-.266.982.982,0,0,1-.275-.741A.94.94,0,0,1,7.087-11.419Zm-.836,4.56a1.658,1.658,0,0,0-1.368-.684,1.542,1.542,0,0,0-1.14.437,4.117,4.117,0,0,0-.931,3A8.045,8.045,0,0,0,3.04-1.767,2.184,2.184,0,0,0,3.686-.8a1.59,1.59,0,0,0,1.083.4,1.706,1.706,0,0,0,1.482-.722,2.1,2.1,0,0,0,.361-.95,12.552,12.552,0,0,0,.076-1.6v-.608a12.961,12.961,0,0,0-.076-1.634A2.1,2.1,0,0,0,6.251-6.859Z" transform="translate(1574.225 720)" fill="#151515"/>
      <line id="Line_64" data-name="Line 64" x2="180.225" transform="translate(1177.5 530.5)" fill="none" stroke="#151515" stroke-width="4"/>
    </g>
  </g>
</svg>
