<svg xmlns="http://www.w3.org/2000/svg" width="1520" height="380" viewBox="0 0 1520 380">
  <g id="Group_103" data-name="Group 103" transform="translate(-200 -365)">
    <rect id="Rectangle_327" data-name="Rectangle 327" width="1520" height="380" transform="translate(200 365)" fill="#fafafa"/>
    <g id="Group_102" data-name="Group 102">
      <circle id="Ellipse_100" data-name="Ellipse 100" cx="10" cy="10" r="10" transform="translate(447 640)" fill="#151515"/>
      <circle id="Ellipse_101" data-name="Ellipse 101" cx="10" cy="10" r="10" transform="translate(597 640)" fill="#151515"/>
      <circle id="Ellipse_102" data-name="Ellipse 102" cx="10" cy="10" r="10" transform="translate(521 457)" fill="#151515"/>
      <circle id="Ellipse_103" data-name="Ellipse 103" cx="10" cy="10" r="10" transform="translate(713 457)" fill="#151515"/>
      <circle id="Ellipse_104" data-name="Ellipse 104" cx="10" cy="10" r="10" transform="translate(863 457)" fill="#151515"/>
      <circle id="Ellipse_105" data-name="Ellipse 105" cx="10" cy="10" r="10" transform="translate(863 640)" fill="#151515"/>
      <circle id="Ellipse_106" data-name="Ellipse 106" cx="10" cy="10" r="10" transform="translate(713 640)" fill="#151515"/>
      <circle id="Ellipse_107" data-name="Ellipse 107" cx="10" cy="10" r="10" transform="translate(993 640)" fill="#151515"/>
      <circle id="Ellipse_108" data-name="Ellipse 108" cx="10" cy="10" r="10" transform="translate(1133 640)" fill="#151515"/>
      <circle id="Ellipse_109" data-name="Ellipse 109" cx="10" cy="10" r="10" transform="translate(973 520)" fill="#151515"/>
      <circle id="Ellipse_110" data-name="Ellipse 110" cx="10" cy="10" r="10" transform="translate(1153 520)" fill="#151515"/>
      <circle id="Ellipse_111" data-name="Ellipse 111" cx="10" cy="10" r="10" transform="translate(1063 425)" fill="#151515"/>
      <circle id="Ellipse_112" data-name="Ellipse 112" cx="10" cy="10" r="10" transform="translate(1273 567)" fill="#151515"/>
      <circle id="Ellipse_113" data-name="Ellipse 113" cx="10" cy="10" r="10" transform="translate(1453 567)" fill="#151515"/>
      <circle id="Ellipse_114" data-name="Ellipse 114" cx="10" cy="10" r="10" transform="translate(1363 640)" fill="#151515"/>
      <circle id="Ellipse_115" data-name="Ellipse 115" cx="10" cy="10" r="10" transform="translate(1273 472)" fill="#151515"/>
      <circle id="Ellipse_116" data-name="Ellipse 116" cx="10" cy="10" r="10" transform="translate(1453 472)" fill="#151515"/>
      <circle id="Ellipse_117" data-name="Ellipse 117" cx="10" cy="10" r="10" transform="translate(1363 399)" fill="#151515"/>
      <line id="Line_31" data-name="Line 31" x2="150" transform="translate(457.5 650.5)" fill="none" stroke="#151515" stroke-width="4"/>
      <line id="Line_32" data-name="Line 32" x2="150" transform="translate(723.5 650.5)" fill="none" stroke="#151515" stroke-width="4"/>
      <line id="Line_33" data-name="Line 33" x2="140" transform="translate(1003.5 650.5)" fill="none" stroke="#151515" stroke-width="4"/>
      <line id="Line_34" data-name="Line 34" x2="150" transform="translate(723.5 467.5)" fill="none" stroke="#151515" stroke-width="4"/>
      <line id="Line_35" data-name="Line 35" y1="183" x2="74" transform="translate(457.5 467.5)" fill="none" stroke="#151515" stroke-width="4"/>
      <line id="Line_36" data-name="Line 36" x1="76" y1="183" transform="translate(531.5 467.5)" fill="none" stroke="#151515" stroke-width="4"/>
      <line id="Line_37" data-name="Line 37" y2="183" transform="translate(723.5 467.5)" fill="none" stroke="#151515" stroke-width="4"/>
      <line id="Line_38" data-name="Line 38" y1="183" transform="translate(873.5 467.5)" fill="none" stroke="#151515" stroke-width="4"/>
      <line id="Line_41" data-name="Line 41" x1="20" y1="120" transform="translate(983.5 530.5)" fill="none" stroke="#151515" stroke-width="4"/>
      <line id="Line_42" data-name="Line 42" x1="20" y2="120" transform="translate(1143.5 530.5)" fill="none" stroke="#151515" stroke-width="4"/>
      <line id="Line_43" data-name="Line 43" x1="90" y2="95" transform="translate(983.5 435.5)" fill="none" stroke="#151515" stroke-width="4"/>
      <line id="Line_44" data-name="Line 44" x2="90" y2="95" transform="translate(1073.5 435.5)" fill="none" stroke="#151515" stroke-width="4"/>
      <line id="Line_51" data-name="Line 51" x2="90" y2="73" transform="translate(1283.5 577.5)" fill="none" stroke="#151515" stroke-width="4"/>
      <line id="Line_52" data-name="Line 52" y1="73" x2="90" transform="translate(1373.5 577.5)" fill="none" stroke="#151515" stroke-width="4"/>
      <line id="Line_56" data-name="Line 56" y1="73" x2="90" transform="translate(1283.5 409.5)" fill="none" stroke="#151515" stroke-width="4"/>
      <line id="Line_57" data-name="Line 57" x1="90" y1="73" transform="translate(1373.5 409.5)" fill="none" stroke="#151515" stroke-width="4"/>
      <line id="Line_60" data-name="Line 60" y1="95" transform="translate(1463.5 482.5)" fill="none" stroke="#151515" stroke-width="4"/>
      <line id="Line_61" data-name="Line 61" y1="95" transform="translate(1283.5 482.5)" fill="none" stroke="#151515" stroke-width="4"/>
      <path id="Path_222" data-name="Path 222" d="M20.46-7.967l.186.186v.465a8.579,8.579,0,0,1-1.829,4.929A7.817,7.817,0,0,1,14.508.434a8.6,8.6,0,0,1-2.015.217A8.816,8.816,0,0,1,10.54.465,10.424,10.424,0,0,1,4.7-2.821,11.852,11.852,0,0,1,1.767-9.269q-.031-.279-.031-1.333,0-1.023.031-1.333a11.643,11.643,0,0,1,2.914-6.4,10.63,10.63,0,0,1,5.859-3.333,9.062,9.062,0,0,1,1.581-.186q.062,0,.248.015t.279.016a6.127,6.127,0,0,1,1.054.062,7.346,7.346,0,0,1,3.937,2.046l.4.372.93-1.209q.837-1.147.961-1.271a.951.951,0,0,0,.124-.016,1.13,1.13,0,0,1,.186-.015.563.563,0,0,1,.4.186v8.68l-.186.186H19.406a.824.824,0,0,1-.217-.527,9.944,9.944,0,0,0-1.488-4.4,5.731,5.731,0,0,0-2.945-2.449,4.577,4.577,0,0,0-1.55-.217,7.323,7.323,0,0,0-5.394,2.17Q5.363-15.779,5.363-10.6A12.487,12.487,0,0,0,6.541-4.681,7.153,7.153,0,0,0,9.285-1.8,7.679,7.679,0,0,0,13.268-.744,5.464,5.464,0,0,0,17.2-2.372,6.818,6.818,0,0,0,19.251-6.2a7.063,7.063,0,0,0,.155-1.364.563.563,0,0,1,.186-.4Z" transform="translate(515 713)" fill="#151515"/>
      <path id="Path_223" data-name="Path 223" d="M2.413-8.8a1.038,1.038,0,0,1-.808-.323,1.193,1.193,0,0,1-.294-.836,2.294,2.294,0,0,1,.855-1.814,3.633,3.633,0,0,1,1.976-.865h.285q.665,0,.836.019a4.613,4.613,0,0,1,1.273.4,2.829,2.829,0,0,1,1.577,1.786,1.849,1.849,0,0,1,.057.513,3.16,3.16,0,0,1-.694,2A3.838,3.838,0,0,1,5.738-6.65q-.1.038,0,.057a1.241,1.241,0,0,0,.19.057A4.048,4.048,0,0,1,7.885-5.329a2.91,2.91,0,0,1,.8,2,3.316,3.316,0,0,1-.361,1.5A3.766,3.766,0,0,1,6.83-.219,4.321,4.321,0,0,1,4.522.418,4.543,4.543,0,0,1,2.3-.114,2.74,2.74,0,0,1,.988-1.539,2.144,2.144,0,0,1,.8-2.47a1.136,1.136,0,0,1,.352-.865,1.187,1.187,0,0,1,.845-.332,1.184,1.184,0,0,1,.874.342,1.16,1.16,0,0,1,.342.855,1.215,1.215,0,0,1-.247.76,1.121,1.121,0,0,1-.665.418l-.133.038A3.575,3.575,0,0,0,4.522-.4,1.7,1.7,0,0,0,6.1-1.406a4.365,4.365,0,0,0,.323-1.919V-3.7A2.433,2.433,0,0,0,5.206-6.118a3.98,3.98,0,0,0-1.159-.133l-.8-.019-.057-.038a.706.706,0,0,1-.038-.3A.451.451,0,0,1,3.211-6.9a.156.156,0,0,1,.1-.057,6.7,6.7,0,0,0,1.1-.095A1.646,1.646,0,0,0,5.681-7.99a4.2,4.2,0,0,0,.437-1.985,1.806,1.806,0,0,0-.665-1.653,1.574,1.574,0,0,0-.893-.266,2.813,2.813,0,0,0-1.672.513.807.807,0,0,0-.171.123,1.158,1.158,0,0,0-.152.161l-.057.076q.057.019.133.038a.905.905,0,0,1,.636.361,1.158,1.158,0,0,1,.257.741,1.046,1.046,0,0,1-.314.769A1.093,1.093,0,0,1,2.413-8.8Z" transform="translate(538 720)" fill="#151515"/>
      <path id="Path_224" data-name="Path 224" d="M20.46-7.967l.186.186v.465a8.579,8.579,0,0,1-1.829,4.929A7.817,7.817,0,0,1,14.508.434a8.6,8.6,0,0,1-2.015.217A8.816,8.816,0,0,1,10.54.465,10.424,10.424,0,0,1,4.7-2.821,11.852,11.852,0,0,1,1.767-9.269q-.031-.279-.031-1.333,0-1.023.031-1.333a11.643,11.643,0,0,1,2.914-6.4,10.63,10.63,0,0,1,5.859-3.333,9.062,9.062,0,0,1,1.581-.186q.062,0,.248.015t.279.016a6.127,6.127,0,0,1,1.054.062,7.346,7.346,0,0,1,3.937,2.046l.4.372.93-1.209q.837-1.147.961-1.271a.951.951,0,0,0,.124-.016,1.13,1.13,0,0,1,.186-.015.563.563,0,0,1,.4.186v8.68l-.186.186H19.406a.824.824,0,0,1-.217-.527,9.944,9.944,0,0,0-1.488-4.4,5.731,5.731,0,0,0-2.945-2.449,4.577,4.577,0,0,0-1.55-.217,7.323,7.323,0,0,0-5.394,2.17Q5.363-15.779,5.363-10.6A12.487,12.487,0,0,0,6.541-4.681,7.153,7.153,0,0,0,9.285-1.8,7.679,7.679,0,0,0,13.268-.744,5.464,5.464,0,0,0,17.2-2.372,6.818,6.818,0,0,0,19.251-6.2a7.063,7.063,0,0,0,.155-1.364.563.563,0,0,1,.186-.4Z" transform="translate(782 713)" fill="#151515"/>
      <path id="Path_225" data-name="Path 225" d="M8.778,0Q8.512-.057,6.327-.057q-2.28,0-2.546.057H3.61V-.874H4.2A4.027,4.027,0,0,0,5.206-.969a.34.34,0,0,0,.228-.19q.019-.038.019-1.026v-.95H.532v-.874L3.4-8.4q2.907-4.408,2.945-4.427a1,1,0,0,1,.4-.038h.342l.114.114v8.74H8.949v.874H7.2v.969q0,.779.01.912a.348.348,0,0,0,.1.228A2.416,2.416,0,0,0,8.4-.874h.551V0ZM5.567-4.009v-6.346L1.406-4.028l2.071.019Z" transform="translate(805 720)" fill="#151515"/>
      <path id="Path_226" data-name="Path 226" d="M20.46-7.967l.186.186v.465a8.579,8.579,0,0,1-1.829,4.929A7.817,7.817,0,0,1,14.508.434a8.6,8.6,0,0,1-2.015.217A8.816,8.816,0,0,1,10.54.465,10.424,10.424,0,0,1,4.7-2.821,11.852,11.852,0,0,1,1.767-9.269q-.031-.279-.031-1.333,0-1.023.031-1.333a11.643,11.643,0,0,1,2.914-6.4,10.63,10.63,0,0,1,5.859-3.333,9.062,9.062,0,0,1,1.581-.186q.062,0,.248.015t.279.016a6.127,6.127,0,0,1,1.054.062,7.346,7.346,0,0,1,3.937,2.046l.4.372.93-1.209q.837-1.147.961-1.271a.951.951,0,0,0,.124-.016,1.13,1.13,0,0,1,.186-.015.563.563,0,0,1,.4.186v8.68l-.186.186H19.406a.824.824,0,0,1-.217-.527,9.944,9.944,0,0,0-1.488-4.4,5.731,5.731,0,0,0-2.945-2.449,4.577,4.577,0,0,0-1.55-.217,7.323,7.323,0,0,0-5.394,2.17Q5.363-15.779,5.363-10.6A12.487,12.487,0,0,0,6.541-4.681,7.153,7.153,0,0,0,9.285-1.8,7.679,7.679,0,0,0,13.268-.744,5.464,5.464,0,0,0,17.2-2.372,6.818,6.818,0,0,0,19.251-6.2a7.063,7.063,0,0,0,.155-1.364.563.563,0,0,1,.186-.4Z" transform="translate(1057 713)" fill="#151515"/>
      <path id="Path_227" data-name="Path 227" d="M2.033-4.066a1.046,1.046,0,0,1,.769.313,1.069,1.069,0,0,1,.314.789.979.979,0,0,1-.323.741,1.029,1.029,0,0,1-.722.3H1.938l.057.1A2.47,2.47,0,0,0,2.869-.817a2.413,2.413,0,0,0,1.387.4,2.018,2.018,0,0,0,1.938-1.14A5.794,5.794,0,0,0,6.555-3.99a4.729,4.729,0,0,0-.513-2.641,1.5,1.5,0,0,0-1.216-.627A2.447,2.447,0,0,0,2.584-5.966a.368.368,0,0,1-.143.161.842.842,0,0,1-.276.029q-.323,0-.361-.114-.038-.076-.038-3.325,0-.57-.01-1.349t-.01-.988q0-1.064.114-1.064a.109.109,0,0,1,.076-.038l.342.114a6.748,6.748,0,0,0,2.527.494,6.464,6.464,0,0,0,2.584-.532.592.592,0,0,1,.247-.076q.152,0,.152.342v.247a4.858,4.858,0,0,1-3.895,1.843,4.568,4.568,0,0,1-1.064-.114l-.19-.038v3.268A3.514,3.514,0,0,1,4.864-7.98a3.528,3.528,0,0,1,.779.095A3.6,3.6,0,0,1,7.724-6.441a4.368,4.368,0,0,1,.807,2.622A4.155,4.155,0,0,1,7.325-.836,3.963,3.963,0,0,1,4.351.418,3.164,3.164,0,0,1,2.318-.247a2.112,2.112,0,0,1-.627-.627A3.366,3.366,0,0,1,.969-2.565q0-.057-.009-.181t-.01-.18a1.13,1.13,0,0,1,.3-.836A1.055,1.055,0,0,1,2.033-4.066Z" transform="translate(1080 720)" fill="#151515"/>
      <path id="Path_228" data-name="Path 228" d="M20.46-7.967l.186.186v.465a8.579,8.579,0,0,1-1.829,4.929A7.817,7.817,0,0,1,14.508.434a8.6,8.6,0,0,1-2.015.217A8.816,8.816,0,0,1,10.54.465,10.424,10.424,0,0,1,4.7-2.821,11.852,11.852,0,0,1,1.767-9.269q-.031-.279-.031-1.333,0-1.023.031-1.333a11.643,11.643,0,0,1,2.914-6.4,10.63,10.63,0,0,1,5.859-3.333,9.062,9.062,0,0,1,1.581-.186q.062,0,.248.015t.279.016a6.127,6.127,0,0,1,1.054.062,7.346,7.346,0,0,1,3.937,2.046l.4.372.93-1.209q.837-1.147.961-1.271a.951.951,0,0,0,.124-.016,1.13,1.13,0,0,1,.186-.015.563.563,0,0,1,.4.186v8.68l-.186.186H19.406a.824.824,0,0,1-.217-.527,9.944,9.944,0,0,0-1.488-4.4,5.731,5.731,0,0,0-2.945-2.449,4.577,4.577,0,0,0-1.55-.217,7.323,7.323,0,0,0-5.394,2.17Q5.363-15.779,5.363-10.6A12.487,12.487,0,0,0,6.541-4.681,7.153,7.153,0,0,0,9.285-1.8,7.679,7.679,0,0,0,13.268-.744,5.464,5.464,0,0,0,17.2-2.372,6.818,6.818,0,0,0,19.251-6.2a7.063,7.063,0,0,0,.155-1.364.563.563,0,0,1,.186-.4Z" transform="translate(1357 713)" fill="#151515"/>
      <path id="Path_229" data-name="Path 229" d="M7.087-11.419a1.793,1.793,0,0,0-1.178-.475,2.721,2.721,0,0,0-2.223,1.14,6.6,6.6,0,0,0-.893,3.838l.019.076.152-.247a2.43,2.43,0,0,1,2.109-1.14,3.175,3.175,0,0,1,1.539.361,3.929,3.929,0,0,1,.912.77,4.787,4.787,0,0,1,.741,1.073,5.107,5.107,0,0,1,.4,2.033v.342a3.361,3.361,0,0,1-.095.817A4.274,4.274,0,0,1,7.391-.722,3.487,3.487,0,0,1,5.567.342a3.2,3.2,0,0,1-.76.076A3.312,3.312,0,0,1,4.161.361a3.366,3.366,0,0,1-2.242-1.52A8.869,8.869,0,0,1,.8-5.947,8.374,8.374,0,0,1,1.52-9.538a5.689,5.689,0,0,1,2.014-2.394,3.786,3.786,0,0,1,2.223-.722,2.6,2.6,0,0,1,1.776.589,2.033,2.033,0,0,1,.675,1.615,1.047,1.047,0,0,1-.276.76A.971.971,0,0,1,7.2-9.4a1.009,1.009,0,0,1-.732-.266.982.982,0,0,1-.275-.741A.94.94,0,0,1,7.087-11.419Zm-.836,4.56a1.658,1.658,0,0,0-1.368-.684,1.542,1.542,0,0,0-1.14.437,4.117,4.117,0,0,0-.931,3A8.045,8.045,0,0,0,3.04-1.767,2.184,2.184,0,0,0,3.686-.8a1.59,1.59,0,0,0,1.083.4,1.706,1.706,0,0,0,1.482-.722,2.1,2.1,0,0,0,.361-.95,12.552,12.552,0,0,0,.076-1.6v-.608a12.961,12.961,0,0,0-.076-1.634A2.1,2.1,0,0,0,6.251-6.859Z" transform="translate(1380 720)" fill="#151515"/>
    </g>
  </g>
</svg>
