<svg xmlns="http://www.w3.org/2000/svg" width="1520" height="358" viewBox="0 0 1520 358">
  <g id="Group_104" data-name="Group 104" transform="translate(-200 -386)">
    <rect id="Rectangle_327" data-name="Rectangle 327" width="1520" height="358" transform="translate(200 386)" fill="#fafafa"/>
    <g id="Group_98" data-name="Group 98">
      <circle id="Ellipse_98" data-name="Ellipse 98" cx="10" cy="10" r="10" transform="translate(577 640)" fill="#151515"/>
      <circle id="Ellipse_99" data-name="Ellipse 99" cx="10" cy="10" r="10" transform="translate(727 640)" fill="#151515"/>
      <line id="Line_30" data-name="Line 30" x2="150" transform="translate(587.5 650.5)" fill="none" stroke="#151515" stroke-width="4"/>
      <path id="Path_230" data-name="Path 230" d="M12.028.682A9.516,9.516,0,0,1,4.743-2.6a11.379,11.379,0,0,1-3.007-7.967q0-1.023.031-1.3a12.271,12.271,0,0,1,2.511-6.138,10.547,10.547,0,0,1,1.643-1.612,9.543,9.543,0,0,1,5.3-2.2,7.848,7.848,0,0,1,.806-.031A9.645,9.645,0,0,1,18.2-19.623a11.7,11.7,0,0,1,1.612,1.612,12.031,12.031,0,0,1,2.511,6.138,11.953,11.953,0,0,1,.062,1.3,11.953,11.953,0,0,1-.062,1.3,11.7,11.7,0,0,1-2.6,6.262,11.6,11.6,0,0,1-3.1,2.542,1.509,1.509,0,0,0-.4.217q.4.806.558,1.054a2.635,2.635,0,0,0,2.294,1.55,3.08,3.08,0,0,0,1.953-.6A2.256,2.256,0,0,0,21.886.093q.031-.4.31-.4a.682.682,0,0,1,.372.155L22.537.4a7.641,7.641,0,0,1-.822,3.7,3.334,3.334,0,0,1-2.155,1.814,3.021,3.021,0,0,1-.775.062,2.766,2.766,0,0,1-2.046-.775,5.159,5.159,0,0,1-1.3-2.635A13.98,13.98,0,0,1,14.973.248l-.31.062A9.547,9.547,0,0,1,12.028.682Zm-2.7-2.79a2.536,2.536,0,0,1,.821-1.922A2.768,2.768,0,0,1,12.121-4.8a3.489,3.489,0,0,1,1.24.279A4.829,4.829,0,0,1,15.345-2.17l.186.372a7.507,7.507,0,0,0,1.116-1.054q2.17-2.635,2.17-7.657a13.086,13.086,0,0,0-1.643-7.037,6.2,6.2,0,0,0-4.464-3.038,4.687,4.687,0,0,0-.62-.031A5.632,5.632,0,0,0,8.4-19.22,8.027,8.027,0,0,0,7.316-18.1q-2.046,2.728-2.046,7.6,0,6.076,3.317,8.742a3.361,3.361,0,0,0,.868.558L9.424-1.3v-.124A1.848,1.848,0,0,1,9.331-2.108Zm1.147.031a1.533,1.533,0,0,0,.4,1.085,1.371,1.371,0,0,0,1.054.434,5.321,5.321,0,0,0,1.86-.31q.837-.279.837-.372a2.049,2.049,0,0,0-.341-.9,2.3,2.3,0,0,0-2.325-1.488,1.355,1.355,0,0,0-1.069.48A1.589,1.589,0,0,0,10.478-2.077Z" transform="translate(645 713)" fill="#151515"/>
      <path id="Path_231" data-name="Path 231" d="M7.9,0Q7.581-.057,4.883-.057,2.223-.057,1.9,0H1.672V-.874h.494A10.7,10.7,0,0,0,3.591-.931a1.229,1.229,0,0,0,.456-.228v-9.823a.459.459,0,0,0-.152.057,5.606,5.606,0,0,1-1.957.361H1.577v-.874h.361A5.3,5.3,0,0,0,4.6-12.16a2.637,2.637,0,0,0,.589-.437q.038-.057.228-.057a.479.479,0,0,1,.323.114v5.681l.019,5.7a1.84,1.84,0,0,0,1.235.285H8.113V0Z" transform="translate(670 720)" fill="#151515"/>
      <path id="Path_234" data-name="Path 234" d="M12.028.682A9.516,9.516,0,0,1,4.743-2.6a11.379,11.379,0,0,1-3.007-7.967q0-1.023.031-1.3a12.271,12.271,0,0,1,2.511-6.138,10.547,10.547,0,0,1,1.643-1.612,9.543,9.543,0,0,1,5.3-2.2,7.848,7.848,0,0,1,.806-.031A9.645,9.645,0,0,1,18.2-19.623a11.7,11.7,0,0,1,1.612,1.612,12.031,12.031,0,0,1,2.511,6.138,11.953,11.953,0,0,1,.062,1.3,11.953,11.953,0,0,1-.062,1.3,11.7,11.7,0,0,1-2.6,6.262,11.6,11.6,0,0,1-3.1,2.542,1.509,1.509,0,0,0-.4.217q.4.806.558,1.054a2.635,2.635,0,0,0,2.294,1.55,3.08,3.08,0,0,0,1.953-.6A2.256,2.256,0,0,0,21.886.093q.031-.4.31-.4a.682.682,0,0,1,.372.155L22.537.4a7.641,7.641,0,0,1-.822,3.7,3.334,3.334,0,0,1-2.155,1.814,3.021,3.021,0,0,1-.775.062,2.766,2.766,0,0,1-2.046-.775,5.159,5.159,0,0,1-1.3-2.635A13.98,13.98,0,0,1,14.973.248l-.31.062A9.547,9.547,0,0,1,12.028.682Zm-2.7-2.79a2.536,2.536,0,0,1,.821-1.922A2.768,2.768,0,0,1,12.121-4.8a3.489,3.489,0,0,1,1.24.279A4.829,4.829,0,0,1,15.345-2.17l.186.372a7.507,7.507,0,0,0,1.116-1.054q2.17-2.635,2.17-7.657a13.086,13.086,0,0,0-1.643-7.037,6.2,6.2,0,0,0-4.464-3.038,4.687,4.687,0,0,0-.62-.031A5.632,5.632,0,0,0,8.4-19.22,8.027,8.027,0,0,0,7.316-18.1q-2.046,2.728-2.046,7.6,0,6.076,3.317,8.742a3.361,3.361,0,0,0,.868.558L9.424-1.3v-.124A1.848,1.848,0,0,1,9.331-2.108Zm1.147.031a1.533,1.533,0,0,0,.4,1.085,1.371,1.371,0,0,0,1.054.434,5.321,5.321,0,0,0,1.86-.31q.837-.279.837-.372a2.049,2.049,0,0,0-.341-.9,2.3,2.3,0,0,0-2.325-1.488,1.355,1.355,0,0,0-1.069.48A1.589,1.589,0,0,0,10.478-2.077Z" transform="translate(1177 713)" fill="#151515"/>
      <path id="Path_235" data-name="Path 235" d="M2.413-8.8a1.038,1.038,0,0,1-.808-.323,1.193,1.193,0,0,1-.294-.836,2.294,2.294,0,0,1,.855-1.814,3.633,3.633,0,0,1,1.976-.865h.285q.665,0,.836.019a4.613,4.613,0,0,1,1.273.4,2.829,2.829,0,0,1,1.577,1.786,1.849,1.849,0,0,1,.057.513,3.16,3.16,0,0,1-.694,2A3.838,3.838,0,0,1,5.738-6.65q-.1.038,0,.057a1.241,1.241,0,0,0,.19.057A4.048,4.048,0,0,1,7.885-5.329a2.91,2.91,0,0,1,.8,2,3.316,3.316,0,0,1-.361,1.5A3.766,3.766,0,0,1,6.83-.219,4.321,4.321,0,0,1,4.522.418,4.543,4.543,0,0,1,2.3-.114,2.74,2.74,0,0,1,.988-1.539,2.144,2.144,0,0,1,.8-2.47a1.136,1.136,0,0,1,.352-.865,1.187,1.187,0,0,1,.845-.332,1.184,1.184,0,0,1,.874.342,1.16,1.16,0,0,1,.342.855,1.215,1.215,0,0,1-.247.76,1.121,1.121,0,0,1-.665.418l-.133.038A3.575,3.575,0,0,0,4.522-.4,1.7,1.7,0,0,0,6.1-1.406a4.365,4.365,0,0,0,.323-1.919V-3.7A2.433,2.433,0,0,0,5.206-6.118a3.98,3.98,0,0,0-1.159-.133l-.8-.019-.057-.038a.706.706,0,0,1-.038-.3A.451.451,0,0,1,3.211-6.9a.156.156,0,0,1,.1-.057,6.7,6.7,0,0,0,1.1-.095A1.646,1.646,0,0,0,5.681-7.99a4.2,4.2,0,0,0,.437-1.985,1.806,1.806,0,0,0-.665-1.653,1.574,1.574,0,0,0-.893-.266,2.813,2.813,0,0,0-1.672.513.807.807,0,0,0-.171.123,1.158,1.158,0,0,0-.152.161l-.057.076q.057.019.133.038a.905.905,0,0,1,.636.361,1.158,1.158,0,0,1,.257.741,1.046,1.046,0,0,1-.314.769A1.093,1.093,0,0,1,2.413-8.8Z" transform="translate(1202 720)" fill="#151515"/>
      <circle id="Ellipse_118" data-name="Ellipse 118" cx="10" cy="10" r="10" transform="translate(843 491)" fill="#151515"/>
      <circle id="Ellipse_119" data-name="Ellipse 119" cx="10" cy="10" r="10" transform="translate(993 491)" fill="#151515"/>
      <circle id="Ellipse_120" data-name="Ellipse 120" cx="10" cy="10" r="10" transform="translate(993 640)" fill="#151515"/>
      <circle id="Ellipse_121" data-name="Ellipse 121" cx="10" cy="10" r="10" transform="translate(843 640)" fill="#151515"/>
      <line id="Line_65" data-name="Line 65" x2="150" transform="translate(853.5 650.5)" fill="none" stroke="#151515" stroke-width="4"/>
      <line id="Line_66" data-name="Line 66" x2="150" transform="translate(853.5 501.5)" fill="none" stroke="#151515" stroke-width="4"/>
      <line id="Line_67" data-name="Line 67" y2="150" transform="translate(853.5 500.5)" fill="none" stroke="#151515" stroke-width="4"/>
      <line id="Line_68" data-name="Line 68" y1="150" transform="translate(1003.5 500.5)" fill="none" stroke="#151515" stroke-width="4"/>
      <path id="Path_232" data-name="Path 232" d="M12.028.682A9.516,9.516,0,0,1,4.743-2.6a11.379,11.379,0,0,1-3.007-7.967q0-1.023.031-1.3a12.271,12.271,0,0,1,2.511-6.138,10.547,10.547,0,0,1,1.643-1.612,9.543,9.543,0,0,1,5.3-2.2,7.848,7.848,0,0,1,.806-.031A9.645,9.645,0,0,1,18.2-19.623a11.7,11.7,0,0,1,1.612,1.612,12.031,12.031,0,0,1,2.511,6.138,11.953,11.953,0,0,1,.062,1.3,11.953,11.953,0,0,1-.062,1.3,11.7,11.7,0,0,1-2.6,6.262,11.6,11.6,0,0,1-3.1,2.542,1.509,1.509,0,0,0-.4.217q.4.806.558,1.054a2.635,2.635,0,0,0,2.294,1.55,3.08,3.08,0,0,0,1.953-.6A2.256,2.256,0,0,0,21.886.093q.031-.4.31-.4a.682.682,0,0,1,.372.155L22.537.4a7.641,7.641,0,0,1-.822,3.7,3.334,3.334,0,0,1-2.155,1.814,3.021,3.021,0,0,1-.775.062,2.766,2.766,0,0,1-2.046-.775,5.159,5.159,0,0,1-1.3-2.635A13.98,13.98,0,0,1,14.973.248l-.31.062A9.547,9.547,0,0,1,12.028.682Zm-2.7-2.79a2.536,2.536,0,0,1,.821-1.922A2.768,2.768,0,0,1,12.121-4.8a3.489,3.489,0,0,1,1.24.279A4.829,4.829,0,0,1,15.345-2.17l.186.372a7.507,7.507,0,0,0,1.116-1.054q2.17-2.635,2.17-7.657a13.086,13.086,0,0,0-1.643-7.037,6.2,6.2,0,0,0-4.464-3.038,4.687,4.687,0,0,0-.62-.031A5.632,5.632,0,0,0,8.4-19.22,8.027,8.027,0,0,0,7.316-18.1q-2.046,2.728-2.046,7.6,0,6.076,3.317,8.742a3.361,3.361,0,0,0,.868.558L9.424-1.3v-.124A1.848,1.848,0,0,1,9.331-2.108Zm1.147.031a1.533,1.533,0,0,0,.4,1.085,1.371,1.371,0,0,0,1.054.434,5.321,5.321,0,0,0,1.86-.31q.837-.279.837-.372a2.049,2.049,0,0,0-.341-.9,2.3,2.3,0,0,0-2.325-1.488,1.355,1.355,0,0,0-1.069.48A1.589,1.589,0,0,0,10.478-2.077Z" transform="translate(911 713)" fill="#151515"/>
      <path id="Path_233" data-name="Path 233" d="M2.09-8.151a1.061,1.061,0,0,1-.836-.342,1.214,1.214,0,0,1-.3-.836,3.115,3.115,0,0,1,1.036-2.347,3.484,3.484,0,0,1,2.48-.979,4.119,4.119,0,0,1,2.707.884,3.708,3.708,0,0,1,1.32,2.308,5.713,5.713,0,0,1,.038.627,3.594,3.594,0,0,1-.665,2.071A12.61,12.61,0,0,1,5.719-4.579q-.684.589-1.9,1.748L2.7-1.767l1.444.019a22.807,22.807,0,0,0,3.173-.1q.076-.019.19-.4a11.985,11.985,0,0,0,.266-1.292v-.057h.76v.057L8-.057V0H.95V-.361A1.279,1.279,0,0,1,.988-.8q.019-.019,1.6-1.8,2.071-2.3,2.66-3.04A5.509,5.509,0,0,0,6.517-8.816a3.323,3.323,0,0,0-.655-2.1,2.188,2.188,0,0,0-1.833-.845,2.084,2.084,0,0,0-1.786.988q-.038.076-.114.209a.416.416,0,0,0-.057.114q0,.019.1.019a.967.967,0,0,1,.77.342,1.185,1.185,0,0,1,.295.8,1.134,1.134,0,0,1-.313.807A1.083,1.083,0,0,1,2.09-8.151Z" transform="translate(936 720)" fill="#151515"/>
      <circle id="Ellipse_122" data-name="Ellipse 122" cx="10" cy="10" r="10" transform="translate(1109 491)" fill="#151515"/>
      <circle id="Ellipse_123" data-name="Ellipse 123" cx="10" cy="10" r="10" transform="translate(1259 491)" fill="#151515"/>
      <circle id="Ellipse_124" data-name="Ellipse 124" cx="10" cy="10" r="10" transform="translate(1259 640)" fill="#151515"/>
      <circle id="Ellipse_125" data-name="Ellipse 125" cx="10" cy="10" r="10" transform="translate(1109 640)" fill="#151515"/>
      <line id="Line_69" data-name="Line 69" x2="150" transform="translate(1119.5 650.5)" fill="none" stroke="#151515" stroke-width="4"/>
      <line id="Line_70" data-name="Line 70" x2="150" transform="translate(1119.5 501.5)" fill="none" stroke="#151515" stroke-width="4"/>
      <line id="Line_71" data-name="Line 71" y2="150" transform="translate(1119.5 500.5)" fill="none" stroke="#151515" stroke-width="4"/>
      <line id="Line_72" data-name="Line 72" y1="150" transform="translate(1269.5 500.5)" fill="none" stroke="#151515" stroke-width="4"/>
      <circle id="Ellipse_126" data-name="Ellipse 126" cx="10" cy="10" r="10" transform="translate(1174 427)" fill="#151515"/>
      <circle id="Ellipse_127" data-name="Ellipse 127" cx="10" cy="10" r="10" transform="translate(1324 427)" fill="#151515"/>
      <circle id="Ellipse_128" data-name="Ellipse 128" cx="10" cy="10" r="10" transform="translate(1324 576)" fill="#151515"/>
      <circle id="Ellipse_129" data-name="Ellipse 129" cx="10" cy="10" r="10" transform="translate(1174 576)" fill="#151515"/>
      <line id="Line_73" data-name="Line 73" x2="150" transform="translate(1184.5 586.5)" fill="none" stroke="#151515" stroke-width="4"/>
      <line id="Line_74" data-name="Line 74" x2="150" transform="translate(1184.5 437.5)" fill="none" stroke="#151515" stroke-width="4"/>
      <line id="Line_75" data-name="Line 75" y2="150" transform="translate(1184.5 436.5)" fill="none" stroke="#151515" stroke-width="4"/>
      <line id="Line_76" data-name="Line 76" y1="150" transform="translate(1334.5 436.5)" fill="none" stroke="#151515" stroke-width="4"/>
      <line id="Line_77" data-name="Line 77" x1="65" y2="64" transform="translate(1119.5 586.5)" fill="none" stroke="#151515" stroke-width="4"/>
      <line id="Line_78" data-name="Line 78" y1="65" x2="65" transform="translate(1269.5 436.5)" fill="none" stroke="#151515" stroke-width="4"/>
      <line id="Line_79" data-name="Line 79" y1="64" x2="65" transform="translate(1119.5 437.5)" fill="none" stroke="#151515" stroke-width="4"/>
      <line id="Line_80" data-name="Line 80" y1="64" x2="65" transform="translate(1269.5 586.5)" fill="none" stroke="#151515" stroke-width="4"/>
    </g>
  </g>
</svg>
