<svg xmlns="http://www.w3.org/2000/svg" width="1273" height="451" viewBox="0 0 1273 451">
  <g id="Group_83" data-name="Group 83" transform="translate(-324 -352)">
    <rect id="Rectangle_3" data-name="Rectangle 3" width="1273" height="451" transform="translate(324 352)" fill="#fafafa"/>
    <g id="Group_82" data-name="Group 82" transform="translate(84.999)">
      <rect id="Rectangle_276" data-name="Rectangle 276" width="241" height="161" transform="translate(762.754 500.216)" fill="#a3d6ff"/>
      <path id="Path_153" data-name="Path 153" d="M-10.944-13.344a.8.8,0,0,1-.288-.528,9.136,9.136,0,0,1,1.488-3.312A8.23,8.23,0,0,1-4.08-21.12a7.823,7.823,0,0,1,1.008-.1,5.833,5.833,0,0,1,3.1.864,5.161,5.161,0,0,1,2.04,2.16q.624-.816.768-1.008a5.318,5.318,0,0,1,4.08-2.016A4.524,4.524,0,0,1,10.1-20.088a3.61,3.61,0,0,1,1.224,2.76,3.768,3.768,0,0,1-.84,2.5,2.76,2.76,0,0,1-2.232,1.008,2.116,2.116,0,0,1-1.488-.528,1.8,1.8,0,0,1-.576-1.392,3.052,3.052,0,0,1,2.4-3.024,1.924,1.924,0,0,0-.528-.336,2.737,2.737,0,0,0-1.392-.288,3.135,3.135,0,0,0-.912.1,5.026,5.026,0,0,0-2.688,3.168q-.144.384-1.392,5.352T.336-5.184a7.326,7.326,0,0,0-.144,1.44A2.465,2.465,0,0,0,.864-1.92a2.4,2.4,0,0,0,1.776.672,4.954,4.954,0,0,0,3.648-1.7A8.855,8.855,0,0,0,8.5-6.72q.144-.48.288-.552a2.333,2.333,0,0,1,.768-.072q.912,0,.912.384,0,.048-.1.528a10.444,10.444,0,0,1-3.36,5.184A7.571,7.571,0,0,1,2.256.528,5.53,5.53,0,0,1-2.832-2.5,6.719,6.719,0,0,1-6.384.384a6.134,6.134,0,0,1-1.248.1,4.185,4.185,0,0,1-3.936-1.968,3.718,3.718,0,0,1-.48-1.92,3.633,3.633,0,0,1,.864-2.448A2.778,2.778,0,0,1-8.976-6.864,1.8,1.8,0,0,1-6.912-4.848a2.71,2.71,0,0,1-1.68,2.592l-.24.12-.24.12a.368.368,0,0,1-.144.048l-.144.048q0,.144.72.432a3.212,3.212,0,0,0,1.248.24q1.728,0,2.976-2.16a36.255,36.255,0,0,0,1.872-6.24q.288-1.1.624-2.448t.5-2.064q.168-.72.216-.864A11.7,11.7,0,0,0-.96-16.9a2.575,2.575,0,0,0-.624-1.824,2.242,2.242,0,0,0-1.728-.672,5.013,5.013,0,0,0-3.744,1.656A9.106,9.106,0,0,0-9.264-13.92q-.1.432-.216.5a2.315,2.315,0,0,1-.792.072Z" transform="translate(1165.754 783.216)" fill="#151515"/>
      <path id="Path_152" data-name="Path 152" d="M10.416-20.688a1.865,1.865,0,0,1,1.152.36,1.164,1.164,0,0,1,.48.984q0,.624-2.352,10.08T7.008,1.1A12.718,12.718,0,0,1,4.536,5.448,12.893,12.893,0,0,1,.576,8.592,11.236,11.236,0,0,1-4.272,9.84q-3.648,0-4.944-2.3a3.272,3.272,0,0,1-.48-1.92,3.439,3.439,0,0,1,.912-2.544A3.123,3.123,0,0,1-6.672,2.16q2.112,0,2.112,2.016A2.71,2.71,0,0,1-6.24,6.768l-.24.12-.24.12a.368.368,0,0,1-.144.048l-.144.048q.144.288,1.008.624a4.348,4.348,0,0,0,1.536.288h.384a6.134,6.134,0,0,0,1.248-.1A7.308,7.308,0,0,0,.624,5.472,13.309,13.309,0,0,0,3.12.864a10.577,10.577,0,0,0,.528-1.872q0-.048-.1.024l-.288.216A6.524,6.524,0,0,1-.672.528,6.681,6.681,0,0,1-4.7-.624,5.358,5.358,0,0,1-6.768-3.936a13.814,13.814,0,0,1-.048-1.488A12.461,12.461,0,0,1-6.72-7.2a44.054,44.054,0,0,1,2.208-7.056,13.768,13.768,0,0,0,1.056-3.936,2.518,2.518,0,0,0-.12-.936q-.12-.264-.552-.264h-.24A2.984,2.984,0,0,0-6.48-18.384a10.06,10.06,0,0,0-2.352,4.608.55.55,0,0,1-.048.168.553.553,0,0,1-.072.144l-.072.072a.234.234,0,0,1-.168.048h-1.272q-.288-.288-.288-.432a3.582,3.582,0,0,1,.144-.672A11.446,11.446,0,0,1-7.584-19.68a4.95,4.95,0,0,1,3.408-1.536,4.564,4.564,0,0,1,3.216,1.1A3.966,3.966,0,0,1,.24-17.04,6.427,6.427,0,0,1,.1-16.032a10.848,10.848,0,0,1-.72,2.064A45.871,45.871,0,0,0-2.976-6.144a9.547,9.547,0,0,0-.048,1.1,5.473,5.473,0,0,0,.576,2.784A2.257,2.257,0,0,0-.336-1.3a4.068,4.068,0,0,0,2.088-.576A6.4,6.4,0,0,0,3.24-3q.5-.552,1.272-1.512,0-.048.24-.984t.7-2.808q.456-1.872.888-3.552,1.824-7.2,2.016-7.536A2.131,2.131,0,0,1,10.416-20.688Z" transform="translate(583.754 394.216)" fill="#151515"/>
      <g id="Group_73" data-name="Group 73" transform="translate(7.726 -328.731)">
        <g id="Group_8" data-name="Group 8" transform="translate(598.029 717.409)">
          <rect id="Rectangle_4" data-name="Rectangle 4" width="6" height="330.737" transform="translate(26.001 8.917)" fill="#151515"/>
          <path id="Union_3" data-name="Union 3" d="M0,40V34.245H32.553L34,.245,39.755,0,38.3,34.245h.069V40Z" transform="translate(28.111 56.395) rotate(-135)" fill="#151515"/>
        </g>
        <g id="Group_11" data-name="Group 11" transform="translate(1158.048 1025.052) rotate(90)">
          <rect id="Rectangle_4-2" data-name="Rectangle 4" width="6" height="524.904" transform="translate(26.001 8.917)" fill="#151515"/>
          <path id="Union_3-2" data-name="Union 3" d="M0,40V34.245H32.553L34,.245,39.755,0,38.3,34.245h.069V40Z" transform="translate(28.111 56.395) rotate(-135)" fill="#151515"/>
        </g>
      </g>
      <g id="Group_81" data-name="Group 81" transform="translate(23.022 102)">
        <line id="Line_22" data-name="Line 22" y2="160.784" transform="translate(739.231 398.716)" fill="none" stroke="#2196f3" stroke-linecap="round" stroke-width="7"/>
        <line id="Line_23" data-name="Line 23" x2="241.269" transform="translate(739.231 398.716)" fill="none" stroke="#2196f3" stroke-linecap="round" stroke-width="7"/>
        <line id="Line_24" data-name="Line 24" y2="160.784" transform="translate(981.23 398.716)" fill="none" stroke="#2196f3" stroke-linecap="round" stroke-width="7"/>
        <line id="Line_25" data-name="Line 25" x2="241.269" transform="translate(739.23 559.716)" fill="none" stroke="#2196f3" stroke-linecap="round" stroke-width="7"/>
      </g>
      <path id="Path_158" data-name="Path 158" d="M8.9-6.12a3.616,3.616,0,0,1,.48.02.358.358,0,0,1,.2.1.326.326,0,0,1,.08.24,3.608,3.608,0,0,1-.12.6A10.426,10.426,0,0,1,7.38-.52,3.955,3.955,0,0,1,6.1.32,4.264,4.264,0,0,1,5.14.4,3.611,3.611,0,0,1,1.62-1.56a2.969,2.969,0,0,0-.2-.48q-.04-.04-.16.04l-.16.16A8.184,8.184,0,0,1-2.7.36,7.7,7.7,0,0,1-3.7.4,5.309,5.309,0,0,1-8.06-1.8a7.785,7.785,0,0,1-1.2-4.48,6.343,6.343,0,0,1,.04-.88,12.167,12.167,0,0,1,1.66-4.9,12.718,12.718,0,0,1,3.3-3.78,7.846,7.846,0,0,1,4.88-1.8,4.611,4.611,0,0,1,3.6,1.96,2,2,0,0,1,1.84-1.2,1.431,1.431,0,0,1,.92.32.985.985,0,0,1,.4.8q0,.52-1.5,6.42a61.065,61.065,0,0,0-1.5,6.62q0,1.68,1.12,1.68a1.738,1.738,0,0,0,.8-.36A9.07,9.07,0,0,0,7.94-5.24q.24-.8.4-.84a1.17,1.17,0,0,1,.4-.04ZM-5.86-4.24a3.948,3.948,0,0,0,.62,2.32,2.084,2.084,0,0,0,1.82.88A4.292,4.292,0,0,0-.94-2,8.4,8.4,0,0,0,.36-3.2a7.092,7.092,0,0,0,.98-1.2q.08-.16,1.1-4.28t1.02-4.44a3.384,3.384,0,0,0-.44-1.36A2.742,2.742,0,0,0,.5-16.2a3.694,3.694,0,0,0-2.82,1.36,9.471,9.471,0,0,0-1.86,3.12A31.934,31.934,0,0,0-5.82-5.16q0,.12-.02.44T-5.86-4.24Z" transform="translate(762.022 762)" fill="#151515"/>
      <path id="Path_159" data-name="Path 159" d="M-5.02-27.32q.04,0,2.9-.22t2.9-.22q.48,0,.48.36T-.1-21.68q-.32,1.36-.7,2.8t-.58,2.16l-.16.76q0,.12.24-.12A7.437,7.437,0,0,1,1.74-17.6a6.076,6.076,0,0,1,1-.08,6.076,6.076,0,0,1,1,.08,5.541,5.541,0,0,1,3.32,2.16A6.949,6.949,0,0,1,8.3-11.2,11.906,11.906,0,0,1,5.16-3.14Q2.02.44-1.66.44a4.855,4.855,0,0,1-2.2-.52Q-6.98-1.48-6.98-6a10.851,10.851,0,0,1,.24-2.28q0-.04,2-8.2l2.04-8.16q.08-.56-.26-.7a3.284,3.284,0,0,0-1.14-.14h-.44a1.986,1.986,0,0,1-.96-.12q-.24-.2-.04-.96a1.424,1.424,0,0,1,.28-.64A.346.346,0,0,1-5.02-27.32ZM4.86-13q0-3.2-2.44-3.2-.08,0-.26.02t-.22.02a6.9,6.9,0,0,0-3.92,2.88,2.338,2.338,0,0,0-.2.24l-.12.16q0,.04-.7,2.86T-3.78-6.8a11.9,11.9,0,0,0-.24,2.24,3.912,3.912,0,0,0,.96,2.88,2.171,2.171,0,0,0,1.6.64A3.983,3.983,0,0,0,1.22-2.32,7.05,7.05,0,0,0,2.84-4.58a24.057,24.057,0,0,0,1.3-4.18A19.65,19.65,0,0,0,4.86-13Z" transform="translate(1004.022 766)" fill="#151515"/>
      <path id="Path_157" data-name="Path 157" d="M7.58-4.84q.16,0,.54.38t.38.54q0,.36-1.24,1.48A11.653,11.653,0,0,1,.98.36Q.1.44-.58.44A6.043,6.043,0,0,1-6.54-3.08,7.074,7.074,0,0,1-7.3-6.36a10.174,10.174,0,0,1,.76-3.76,12,12,0,0,1,3.78-5.1,10.67,10.67,0,0,1,5.58-2.42,5.129,5.129,0,0,1,.76-.04,7.5,7.5,0,0,1,2.6.44A3.19,3.19,0,0,1,8.42-14.2a2.773,2.773,0,0,1-.76,2.02,2.568,2.568,0,0,1-1.92.78,1.666,1.666,0,0,1-1.2-.42A1.554,1.554,0,0,1,4.1-13a2.459,2.459,0,0,1,.4-1.32,2.3,2.3,0,0,1,1.04-.92,1.1,1.1,0,0,1,.44-.2q.16,0-.28-.28a4.255,4.255,0,0,0-2.12-.44,4.886,4.886,0,0,0-2.28.56A5.657,5.657,0,0,0-.42-14.36,8.143,8.143,0,0,0-2.1-11.88,24.867,24.867,0,0,0-3.38-7.76a13.928,13.928,0,0,0-.44,3A3.493,3.493,0,0,0-2.78-2,3.274,3.274,0,0,0-.3-1.04,10,10,0,0,0,.94-1.12,9.8,9.8,0,0,0,7.1-4.44Q7.46-4.84,7.58-4.84Z" transform="translate(606.022 672)" fill="#151515"/>
      <path id="Path_156" data-name="Path 156" d="M7.12-27.52q.6-.04,1.36-.1t1.14-.1q.38-.04.42-.04.48,0,.48.32,0,.28-2.94,12.1T4.6-3.32a3.314,3.314,0,0,0-.04.6q0,1.68,1.12,1.68a1.738,1.738,0,0,0,.8-.36A9.07,9.07,0,0,0,8.12-5.24q.24-.8.4-.84a1.17,1.17,0,0,1,.4-.04h.16q.76,0,.76.32a3.363,3.363,0,0,1-.12.64A10.426,10.426,0,0,1,7.56-.52,3.955,3.955,0,0,1,6.28.32,4.264,4.264,0,0,1,5.32.4,3.611,3.611,0,0,1,1.8-1.56a2.969,2.969,0,0,0-.2-.48q-.04-.04-.16.04l-.16.16A8.184,8.184,0,0,1-2.52.36a7.7,7.7,0,0,1-1,.04A5.309,5.309,0,0,1-7.88-1.8a7.785,7.785,0,0,1-1.2-4.48,12.224,12.224,0,0,1,2.72-7.36,10.465,10.465,0,0,1,5.52-3.8A5.955,5.955,0,0,1,.8-17.68,3.83,3.83,0,0,1,4.16-16q.2.24.2.16l1.1-4.38q1.06-4.22,1.1-4.42a.72.72,0,0,0-.24-.64,5.974,5.974,0,0,0-1.6-.2H3.88a1.1,1.1,0,0,1-.26-.32,4.088,4.088,0,0,1,.1-.76q.2-.76.52-.76.04,0,.42-.04t1.08-.08ZM3.68-13.04Q2.8-16.2.68-16.2a3.694,3.694,0,0,0-2.82,1.36A9.471,9.471,0,0,0-4-11.72,31.934,31.934,0,0,0-5.64-5.16q0,.12-.02.44t-.02.48a3.948,3.948,0,0,0,.62,2.32,2.084,2.084,0,0,0,1.82.88q2.12,0,4.44-2.88l.32-.44Q1.88-5.8,2.6-8.7T3.68-13.04Z" transform="translate(605.022 511)" fill="#151515"/>
    </g>
  </g>
</svg>
